<?xml version="1.0" standalone="no"?>
<!DOCTYPE svg PUBLIC "-//W3C//DTD SVG 1.1//EN" "http://www.w3.org/Graphics/SVG/1.1/DTD/svg11.dtd" >
<svg xmlns="http://www.w3.org/2000/svg">
<metadata>Generated by IcoMoon</metadata>
<defs>
<font id="icomoon" horiz-adv-x="1024">
<font-face units-per-em="1024" ascent="960" descent="-64" />
<missing-glyph horiz-adv-x="1024" />
<glyph unicode="&#x20;" horiz-adv-x="512" d="" />
<glyph unicode="&#xe900;" glyph-name="less-than" horiz-adv-x="512" d="M0-64v981.333c0 15.716 0 29.938 0 42.667h465.455c25.716 0 46.545-19.093 46.545-42.667v-938.667c0-23.573-20.829-42.667-46.545-42.667h-465.455zM169.946 448l232.467 232.467c12.997 12.997 12.997 34.068 0 47.065s-34.068 12.997-47.065 0l-256-256c-12.997-12.997-12.997-34.068 0-47.065l256-256c12.997-12.997 34.068-12.997 47.065 0s12.997 34.068 0 47.065l-232.467 232.467z" />
<glyph unicode="&#xe901;" glyph-name="great-than" horiz-adv-x="512" d="M0-64v981.333c0 15.716 0 29.938 0 42.667h465.455c25.716 0 46.545-19.093 46.545-42.667v-938.667c0-23.573-20.829-42.667-46.545-42.667h-465.455zM331.816 448l-232.467-232.467c-12.997-12.997-12.997-34.068 0-47.065s34.068-12.997 47.065 0l256 256c12.997 12.997 12.997 34.068 0 47.065l-256 256c-12.997 12.997-34.068 12.997-47.065 0s-12.997-34.068 0-47.065l232.467-232.467z" />
<glyph unicode="&#xe902;" glyph-name="excalmatory" d="M511.96-63.026c-282.607 0-511.628 228.816-511.628 511.027 0 282.208 229.022 511.025 511.628 511.025 282.608 0 511.707-228.817 511.707-511.025 0-282.211-229.098-511.027-511.707-511.027zM588.587 758.222c0 40.859-34.278 73.976-76.625 73.976-42.269 0-76.548-33.119-76.548-73.976v-345.582c0-40.856 34.28-74.053 76.548-74.053 42.348 0 76.625 33.196 76.625 74.053v345.582zM511.96 239.919c-42.269 0-76.548-33.195-76.548-74.051 0-40.935 34.28-74.055 76.548-74.055 42.348 0 76.625 33.12 76.625 74.055 0.001 40.856-34.277 74.051-76.625 74.051z" />
<glyph unicode="&#xe903;" glyph-name="download" d="M761.008 481.755c10.507 10.48 28.819 10.427 39.434 0 10.507-10.48 10.507-33.766 0-44.246l-268.692-268.722c-5.281-5.266-12.905-7.9-19.802-7.9s-14.417 2.58-19.698 7.846l-268.795 268.722c-10.507 10.48-7.763 33.819 2.744 44.299s33.873 10.48 44.38 0l205.503-206.558v584.368c0 14.833 20.994 28.511 35.866 28.511s39.071-13.678 39.071-28.511v-584.368l209.989 206.558zM942.964-27.219h-862.139c-44.561 0-80.825 36.17-80.825 80.617v107.489c0 14.833 19.503 26.872 34.375 26.872s36.571-12.039 36.571-26.872v-99.812c0-14.833 12.195-24.869 27.067-24.869h827.973c14.872 0 27.067 10.036 27.067 24.869v99.812c0 14.833 20.968 26.872 35.839 26.872s34.897-12.039 34.897-26.872v-107.489c0-44.446-36.264-80.617-80.825-80.617z" />
<glyph unicode="&#xe904;" glyph-name="detail-text" d="M984.178 647.111c-28.444 62.578-62.578 113.778-108.089 164.978s-102.4 85.333-164.978 108.089c-62.578 22.756-130.844 39.822-199.111 39.822s-136.533-17.067-199.111-39.822c-62.578-28.444-113.778-62.578-164.978-108.089s-79.644-102.4-108.089-164.978c-28.444-62.578-39.822-130.844-39.822-199.111s11.378-136.533 39.822-199.111c28.444-62.578 62.578-113.778 108.089-164.978s102.4-85.333 164.978-108.089c62.578-22.756 130.844-39.822 199.111-39.822s136.533 11.378 199.111 39.822c62.578 28.444 113.778 62.578 164.978 108.089s85.333 102.4 108.089 164.978c28.444 62.578 39.822 130.844 39.822 199.111s-11.378 136.533-39.822 199.111zM917.404 275.842c-22.214-49.981-55.535-99.963-94.409-138.837s-88.856-72.195-138.837-94.409c-55.535-22.214-111.070-33.321-172.158-33.321s-116.623 11.107-172.158 33.321c-49.981 22.214-99.963 55.535-138.837 94.409s-72.195 88.856-94.409 138.837c-22.214 55.535-33.321 111.070-33.321 172.158s11.107 116.623 33.321 172.158c22.214 49.981 55.535 99.963 94.409 138.837s88.856 72.195 138.837 94.409c55.535 22.214 111.070 33.321 172.158 33.321s116.623-11.107 172.158-33.321c49.981-22.214 99.963-55.535 138.837-94.409s72.195-88.856 94.409-138.837c22.214-55.535 33.321-111.070 33.321-172.158s-11.107-116.623-33.321-172.158zM238.933 448c0-34.133 28.444-62.578 68.267-62.578s62.578 28.444 62.578 62.578c0 34.133-28.444 62.578-68.267 62.578s-62.578-28.444-62.578-62.578zM443.733 448c0-34.133 28.444-62.578 68.267-62.578 34.133 0 68.267 28.444 68.267 62.578s-28.444 62.578-68.267 62.578c-39.822 0-68.267-28.444-68.267-62.578zM654.222 448c0-34.133 28.444-62.578 68.267-62.578s68.267 28.444 68.267 62.578c0 34.133-28.444 62.578-68.267 62.578s-68.267-28.444-68.267-62.578v0z" />
<glyph unicode="&#xe905;" glyph-name="up-rectangle" d="M512 667.429l-365.714-438.857h731.429z" />
<glyph unicode="&#xe906;" glyph-name="down-rectangle" d="M512 228.571l365.714 438.857h-731.429z" />
<glyph unicode="&#xe907;" glyph-name="original-text" d="M716.358 22.242l161.356 126.648v669.318c0 0 0 68.648-67.368 68.648 0 0-553.383 0-596.692 0-67.368 0-67.368-68.648-67.368-68.648v-740.418c0 0 0-68.648 67.368-68.648 0 0 464.361 0 486.015 0l16.689 13.099v149.204h161.356v57.125h-219.429v-219.429h58.073v13.099zM855.621 960c92.662 0 92.662-98.015 95.236-98.015v-755.748l-211.063-170.237c-25.739 0-568.841 0-568.841 0-97.81 0-97.81 98.015-97.81 98.015v827.97c0 0 0 98.015 95.236 98.015h687.243zM219.429 434.455h512v-60.681h-512v60.681zM219.429 617.312h512v-60.681h-512v60.681zM219.429 800.33h219.429v-61.002h-219.429v61.002z" />
<glyph unicode="&#xe908;" glyph-name="collapse" d="M951.768 960h-883.784c-38.241 0-67.983-29.867-67.983-64v-891.733c0-38.4 29.743-68.267 67.983-68.267h888.033c38.241 0 67.983 29.867 67.983 64v896c-4.249 34.133-33.992 64-72.232 64zM960.266 55.222c0-29.867-25.494-59.733-59.485-59.733h-781.809c-33.992 0-59.485 25.6-59.485 59.733v785.067c0 29.867 25.494 59.733 59.485 59.733h781.809c33.992 0 59.485-25.6 59.485-59.733v-785.067zM442.633 426.789h-286.958c-20.497 0-32.795-12.8-32.795-34.133 0 0 4.099-25.6 32.795-25.6 8.199 0 163.976 0 213.169 0l-221.368-230.4 49.193-51.2 221.368 230.4v-217.6c0-29.867 28.696-34.133 28.696-34.133 20.497 0 28.696 17.067 28.696 34.133v290.133c0 21.333-16.398 38.4-32.795 38.4zM573.295 469.333h286.72c20.48 0 32.768 12.8 32.768 34.133 0 0-4.096 25.6-32.768 25.6-8.192 0-163.84 0-212.992 0l221.184 230.4-49.152 51.2-221.184-230.4v217.6c0 29.867-28.672 34.133-28.672 34.133-20.48 0-28.672-17.067-28.672-34.133v-290.133c0-21.333 16.384-38.4 32.768-38.4z" />
<glyph unicode="&#xe909;" glyph-name="expand" d="M951.768 960h-883.784c-38.241 0-67.983-29.867-67.983-64v-891.733c0-38.4 29.743-68.267 67.983-68.267h888.033c38.241 0 67.983 29.867 67.983 64v896c-4.249 34.133-33.992 64-72.232 64zM960.266 55.467c0-29.867-25.494-59.733-59.485-59.733h-781.809c-33.992 0-59.485 25.6-59.485 59.733v785.067c0 29.867 25.494 59.733 59.485 59.733h781.809c33.992 0 59.485-25.6 59.485-59.733v-785.067zM860.015 832h-286.72c-20.48 0-32.768-12.8-32.768-34.133 0 0 4.096-25.6 32.768-25.6 8.192 0 163.84 0 212.992 0l-221.184-230.4 49.152-51.2 221.184 230.4v-217.6c0-29.867 28.672-34.133 28.672-34.133 20.48 0 28.672 17.067 28.672 34.133v290.133c0 21.333-16.384 38.4-32.768 38.4zM155.648 64h286.72c20.48 0 32.768 12.8 32.768 34.133 0 0-4.096 25.6-32.768 25.6-8.192 0-163.84 0-212.992 0l221.184 230.4-49.152 51.2-221.184-230.4v217.6c0 29.867-28.672 34.133-28.672 34.133-20.48 0-28.672-17.067-28.672-34.133v-290.133c0-21.333 16.384-38.4 32.768-38.4z" />
<glyph unicode="&#xe90a;" glyph-name="maximize" d="M955.733 960h-891.733c-34.133 0-64-29.867-64-64v-891.733c0-38.4 29.867-68.267 64-68.267h891.733c38.4 0 68.267 29.867 68.267 64v896c0 34.133-29.867 64-68.267 64zM548.571 411.429h219.141c18.43 0 32.252 15.673 36.859 36.571 0 20.898-13.822 36.571-32.252 36.571h-223.748v223.748c0 18.43-15.673 32.252-36.571 32.252s-36.571-13.822-36.571-32.252v-223.748h-223.748c-18.43 0-32.252-15.673-32.252-36.571s13.822-36.571 32.252-36.571h223.748v-219.141c0-18.43 15.673-32.252 36.571-36.859 20.898 0 36.571 13.822 36.571 32.252v223.748zM950.857 67.105c0-28.981-24.841-57.962-57.962-57.962h-761.79c-33.121 0-57.962 24.841-57.962 57.962v761.79c0 28.981 24.841 57.962 57.962 57.962h761.79c33.121 0 57.962-24.841 57.962-57.962v-761.79z" />
<glyph unicode="&#xe90b;" glyph-name="minimize" d="M955.733 960h-891.733c-34.133 0-64-29.867-64-64v-891.733c0-38.4 29.867-68.267 64-68.267h891.733c38.4 0 68.267 29.867 68.267 64v896c0 34.133-29.867 64-68.267 64zM950.857 67.105c0-28.981-24.841-57.962-57.962-57.962h-761.79c-33.121 0-57.962 24.841-57.962 57.962v761.79c0 28.981 24.841 57.962 57.962 57.962h761.79c33.121 0 57.962-24.841 57.962-57.962v-761.79zM767.712 411.429c18.43 0 32.252 15.673 36.859 36.571 0 20.898-13.822 36.571-32.252 36.571h-520.639c-18.43 0-32.252-15.673-32.252-36.571s13.822-36.571 32.252-36.571h516.031z" />
<glyph unicode="&#xe90c;" glyph-name="correct" d="M787.277 515.302l-294.298-285.85c0-0.026-0.026-0.026-0.051-0.026l-2.944-2.867-0.333 0.282c-12.032-10.214-26.931-15.514-41.958-15.462-16.41-0.051-32.819 5.965-45.286 18.099l-158.413 153.882c-24.909 24.141-24.909 63.334 0 87.501 24.858 24.141 65.203 24.141 90.086 0l113.613-110.362 249.498 242.381c24.883 24.141 65.254 24.090 90.086 0 24.909-24.218 24.909-63.411 0-87.578zM512-64.026c282.778 0 512 229.222 512 512s-229.222 512-512 512c-282.778 0-512-229.222-512-512s229.222-512 512-512z" />
<glyph unicode="&#xe90d;" glyph-name="show-more" d="M512 667.429c-80.791 0-146.286 65.494-146.286 146.286s65.494 146.286 146.286 146.286c80.791 0 146.286-65.494 146.286-146.286s-65.494-146.286-146.286-146.286zM512 301.714c-80.791 0-146.286 65.494-146.286 146.286s65.494 146.286 146.286 146.286c80.791 0 146.286-65.494 146.286-146.286s-65.494-146.286-146.286-146.286zM512-64c-80.791 0-146.286 65.494-146.286 146.286s65.494 146.286 146.286 146.286c80.791 0 146.286-65.494 146.286-146.286s-65.494-146.286-146.286-146.286z" />
<glyph unicode="&#xe90e;" glyph-name="sort" d="M512 813.714l219.429-292.571h-438.857zM512 82.286l219.429 292.571h-438.857z" />
<glyph unicode="&#xe90f;" glyph-name="qq-shape" d="M69.164 368.993c-37.404-90.256-43.594-176.315-13.468-192.305 20.841-11.096 53.291 14.29 83.836 60.468 12.12-50.576 41.99-95.954 84.706-132.637-44.729-16.889-74.032-44.479-74.032-75.664 0-51.376 79.138-92.856 176.744-92.856 88.062 0 161.010 33.684 174.472 78.063 3.562 0 17.545 0 20.946 0 13.724-44.38 86.514-78.063 174.677-78.063 97.713 0 176.744 41.481 176.744 92.856 0 31.185-29.25 58.572-74.084 75.664 42.563 36.683 72.638 82.060 84.658 132.637 30.538-46.178 62.836-71.566 83.782-60.468 30.28 15.989 24.244 102.048-13.52 192.305-29.504 70.666-69.488 122.84-99.978 134.534 0.414 4.297 0.775 9.046 0.775 13.595 0 27.387-7.531 52.674-20.374 73.265 0.257 1.648 0.257 3.198 0.257 4.845 0 12.644-2.942 24.389-7.997 34.535-7.686 183.959-125.154 330.233-315.362 330.233-190.159 0-307.782-146.277-315.467-330.236-4.95-10.295-7.995-22.090-7.995-34.685 0-1.651 0-3.198 0.207-4.849-12.588-20.44-20.12-45.726-20.12-73.214 0-4.6 0.256-9.196 0.568-13.696-30.386-11.594-70.52-63.666-99.977-134.333v0.005z" />
<glyph unicode="&#xe910;" horiz-adv-x="956" d="M758.119 157.986c71.86 60.151 129.347 193.82 129.347 347.539 0 274.021-158.091 454.475-409.6 454.475s-409.6-187.137-409.6-454.475c0-267.338 158.091-454.475 409.6-454.475 86.232 0 150.905 13.367 208.393 46.784l71.86 60.151zM621.586 164.669c-35.93-20.050-86.232-20.050-136.533-20.050-179.649 0-301.811 140.352-301.811 354.223s114.975 354.223 301.811 354.223c179.649 0 301.811-147.036 301.811-354.223 0-120.302-43.116-220.554-100.604-280.705l-64.674-53.468z" />
<glyph unicode="&#xe911;" horiz-adv-x="956" d="M836.077 80.336l-79.887 76.255c-14.525 13.865-72.624 69.323-79.887 76.255l-79.887 83.188c-14.525 13.865-21.787 13.865-29.050 13.865-14.525 0-29.050-6.932-36.312-13.865-14.525-6.932-21.787-20.797-21.787-34.662s7.262-20.797 14.525-27.729l79.887-83.188c14.525-13.865 167.035-152.511 167.035-152.511 14.525-13.865 21.787-13.865 29.050-13.865 14.525 0 29.050 6.932 36.312 13.865 7.262 13.865 14.525 20.797 14.525 34.662s-7.262 20.797-14.525 27.729z" />
<glyph unicode="&#xe912;" glyph-name="search" d="M1011.654 7.429l-187.948 187.433c27.929 34.488 50.596 72.52 67.866 113.823 24.151 57.798 33.731 119.276 33.731 182.526s-10.929 124.728-35.080 182.526c-23.342 55.889-55.453 106.053-98.089 148.993-42.636 43.076-92.287 76.882-147.471 100.464-57.207 24.4-118.058 36.805-180.662 36.805s-123.455-12.405-180.662-36.805c-55.318-23.583-104.97-57.389-147.471-100.464-42.636-43.076-76.097-93.24-99.438-148.993-24.151-57.798-36.429-119.276-36.429-182.526s12.278-124.728 36.429-182.526c23.342-55.889 56.803-106.053 99.438-148.993 42.636-43.076 92.287-76.882 147.471-100.464 57.207-24.4 118.058-34.079 180.662-34.079s123.455 9.678 180.662 34.079c44.255 18.948 85.002 44.439 121.296 75.928l187.678-187.161c8.095-8.043 18.619-11.996 29.008-11.996 10.659 0 21.318 4.089 29.413 12.405 16.056 16.358 15.921 42.803-0.405 59.024zM464.001 108.575c-101.867 0-197.662 37.35-269.711 110.143s-111.716 169.576-111.716 272.494c0 102.918 39.667 199.702 111.716 272.494s167.844 112.869 269.711 112.869c101.867 0 197.662-40.077 269.711-112.869s109.018-169.576 109.018-272.494c0-102.918-36.969-199.702-109.018-272.494s-167.844-110.143-269.711-110.143z" />
<glyph unicode="&#xe913;" glyph-name="export" d="M941.16 656.515l1.467 7.873-300.542 295.613h-106.264c-178.185 0-365.259 0-365.259 0-53.801 0-97.42-39.816-97.42-88.948v-845.085c0-49.131 43.619-88.948 97.42-88.948h681.807c53.801 0 97.42 39.816 97.42 88.948v622.674l-8.629 7.873zM657.746 872.29l190.171-190.171h-146.718c-23.978 0-43.453 18.228-43.453 40.721v149.45zM877.714 50.935c0-23.084-20.451-41.792-45.722-41.792h-639.985c-25.271 0-45.722 18.708-45.722 41.792v794.13c0 23.084 20.451 41.792 45.722 41.792h411.416v-188.084c0-46.169 40.943-83.584 91.444-83.584h182.847v-564.253zM604.852 543.001l-93.752-139.791h-1.381c-4.171 7.694-33.566 54.291-88.187 139.791h-79.472l110.298-180.657-116.252-174.268h78.436c61.437 85.395 92.228 128.519 92.372 129.37h1.381c4.803-8.271 34.904-51.394 90.301-129.37h79.472l-112.764 176.164 114.49 178.761h-74.941z" />
<glyph unicode="&#xe914;" glyph-name="complete" d="M512 960c282.752 0 512-229.248 512-512s-229.248-512-512-512c-282.752 0-512 229.248-512 512s229.248 512 512 512zM244.977 424.57l167.836-173.702c2.092-2.165 5.586-2.233 7.754-0.1l364.043 358.273c2.185 2.149 2.164 5.602-0.008 7.747l-21.754 21.485c-2.169 2.142-5.815 2.317-8.137 0.382l-333.852-278.126c-2.279-1.899-6.159-2.004-8.57-0.156l-137.151 105.119c-2.414 1.85-5.836 1.346-7.649-1.121l-23.055-31.37c-1.854-2.523-1.569-6.241 0.545-8.43z" />
<glyph unicode="&#xe915;" d="M906.429 891.734c29.582 0 49.304-19.721 49.304-49.304v-788.859c0-29.582-19.721-49.304-49.304-49.304h-788.859c-29.582 0-49.304 19.721-49.304 49.304v788.859c0 29.582 19.721 49.304 49.304 49.304h788.859zM921.6 960h-819.2c-56.32 0-102.4-46.080-102.4-102.4v-819.2c0-56.32 46.080-102.4 102.4-102.4h819.2c56.32 0 102.4 46.080 102.4 102.4v819.2c0 56.32-46.080 102.4-102.4 102.4v0zM660.48 156.16c-40.96-25.6-87.040-35.84-148.48-35.84-179.2 0-291.84 143.36-291.84 348.16s112.64 348.16 291.84 348.16c179.2 0 291.84-138.24 291.84-348.16 0-117.76-40.96-220.16-92.16-266.24l56.32-61.44c5.12-5.12 10.24-10.24 10.24-20.48s-5.12-15.36-10.24-25.6c-5.12-5.12-15.36-10.24-25.6-10.24-5.12 0-15.36 0-20.48 10.24l-61.44 61.44zM552.96 268.8c-5.12 5.12-10.24 15.36-10.24 20.48 0 10.24 5.12 15.36 15.36 20.48 5.12 5.12 15.36 10.24 25.6 10.24 5.12 0 15.36 0 20.48-10.24l56.32-61.44c40.96 46.080 71.68 122.88 71.68 215.040 0 158.72-87.040 271.36-215.040 271.36-133.12 0-215.040-107.52-215.040-271.36s87.040-271.36 215.040-271.36c35.84 0 71.68 0 97.28 15.36l-61.44 61.44z" />
<glyph unicode="&#xe916;" glyph-name="activity" d="M569.209 504.234v238.281c-10.701 0-41.217 2.771-49.243 2.771-16.052-2.771-45.733-2.771-64.46-5.541v-235.511h-454.544v188.408c0 30.478 24.078 52.644 50.83 52.644h214.022c-56.181 13.854-98.985 38.79-101.661 85.892-2.675 55.414 58.856 146.848 147.14 124.682 90.96-22.166 155.166-94.204 203.321-157.931 48.155 63.726 120.388 146.848 214.022 160.701 82.934 11.083 147.14-72.039 139.115-127.453-8.026-47.102-50.83-74.809-107.011-85.892h211.347c29.428 0 50.83-24.936 50.83-52.644v-188.408h-453.71zM321.995 905.987c-42.804 16.624-69.557-2.771-88.284-33.249-10.701-16.624-21.402-41.561-5.351-58.185 42.804-44.331 157.842-41.561 238.1-33.249-37.454 47.102-82.934 99.746-144.465 124.682v0zM803.545 814.554c29.428 41.561-29.428 124.682-93.635 94.204-61.531-30.478-104.336-77.58-144.465-127.453 32.103-2.771 66.882-2.771 98.985-2.771 42.804 2.771 117.712 5.541 139.115 36.019zM455.302-63.762h-363.381c-26.753 0-48.155 22.166-48.155 49.873v463.083h411.536v-512.956zM931.959-63.762h-362.932v512.452h411.087v-462.58c0-27.707-21.402-49.873-48.155-49.873z" />
<glyph unicode="&#xe917;" glyph-name="question-medium" d="M1024 448c0-282.624-229.376-512-512-512s-512 229.376-512 512c0 282.624 229.376 512 512 512s512-229.376 512-512v0zM512 903.004c-251.42 0-455.004-203.584-455.004-455.004s203.584-455.004 455.004-455.004c251.42 0 455.004 203.584 455.004 455.004s-203.584 455.004-455.004 455.004v0zM478.485 317.952c-0.512 13.312-0.512 21.504-0.512 24.576 0 30.208 5.12 54.784 14.848 74.24s29.696 40.96 59.392 65.536c29.696 24.064 47.616 39.936 53.248 47.616 8.704 11.776 13.312 25.088 13.312 39.424 0 19.968-13.979 42.952-29.851 57.288s-48.463 23.296-75.087 23.296c-26.112 0-58.268-8.448-75.676-23.296s-35.621-37.999-41.765-68.207l-64.516 7.847c2.56 43.52 20.992 80.384 55.296 110.592s78.901 41.978 135.798 39.941c56.897-2.036 83.689-10.090 117.542-42.695s42.184-64.318 42.184-104.766c0-22.528-2.32-44.711-15.12-64.679s-37.184-42.391-78.656-76.695c-21.504-17.92-28.245-36.802-33.365-48.066-5.12-12.288-9.052-33.792-8.54-61.952h-68.533zM479.573 216.917v68.267h68.267v-68.267h-68.267z" />
<glyph unicode="&#xe918;" glyph-name="system-notification" d="M356.678 461.197l-300.727-301.592v-16.866c0-22.612 18.542-41.009 41.333-41.009h829.457c22.777 0 41.307 18.397 41.307 41.009v19.493l-293.232 307.767-156.751-160.4c-1.743-1.784-4.126-2.788-6.614-2.788s-4.869 1.005-6.613 2.787l-148.16 151.599zM322.122 496.555l-263.924 270.049c-1.456-4.185-2.246-8.676-2.246-13.345v-522.191l266.17 265.487zM100.528 794.271l411.125-419.787 409.932 419.787h-821.057zM965.499 767.45l-256.219-262.184 258.768-276.080v524.074c0 4.986-0.901 9.766-2.549 14.19zM14.070 822.572c0.296 0.428 0.632 0.837 1.008 1.22 11.613 13.716 28.906 22.43 48.186 22.43h897.5c34.868 0 63.236-28.528 63.236-63.593v-669.26c-0.001-35.064-28.369-63.591-63.236-63.591h-897.5c-34.884 0-63.264 28.528-63.264 63.591v669.26c0 15.117 5.274 29.019 14.070 39.943z" />
<glyph unicode="&#xe919;" glyph-name="contact-book" d="M51.633 632.342h132.717c12.813 0 23.188 15.965 23.188 29.041s-10.374 29.491-23.188 29.491h-132.717c-12.813 0-23.188-16.414-23.188-29.491s10.374-29.041 23.188-29.041zM51.636 471.040c-12.813 0-23.188-16.382-23.188-29.459s10.374-29.041 23.188-29.041h132.717c12.813 0 23.188 15.964 23.188 29.041s-10.374 29.459-23.188 29.459h-132.717zM184.353 263.347h-132.717c-12.813 0-23.188-15.979-23.188-29.041 0-13.079 10.374-29.62 23.188-29.62h132.717c12.813 0 23.188 16.543 23.188 29.62 0 13.060-10.374 29.041-23.188 29.041zM203.4 960c-57.062 0-103.311-47.229-103.311-105.489v-77.477h58.706v65.041c0 45.304 12.865 61.321 57.247 61.321h654.592c44.377 0 68.882-16.016 68.882-61.321v-779.607c0-45.318-24.499-70.327-68.882-70.327h-648.089c-44.377 0-68.882 25.008-68.882 70.327v55.287h-53.575v-76.264c0-58.26 46.255-105.489 103.311-105.489h688.845c57.062 0 103.311 47.229 103.311 105.489v813.018c0 58.26-46.255 105.489-103.311 105.489l-688.845 0.003zM744.874 502.857c0 111.096-88.246 201.15-197.054 201.15-108.805 0-197-90.052-197-201.15 0-75.443 41.068-140.541 101.289-174.899-58.010-25.583-115.801-73.589-139.905-133.338h55.619c32.062 61.669 100.447 104.329 172.921 107.087 2.345 0.007 4.703 0.007 7.079 0.007 2.666 0 5.32 0 7.962-0.007 72.473-2.77 140.524-45.428 172.57-107.087h55.953c-24.166 59.909-82.15 108.026-140.403 133.555 60.021 34.413 100.969 99.398 100.969 174.682zM547.82 651.703c83.636 0 145.792-63.449 145.792-148.845 0-85.382-62.155-148.971-145.792-148.971-83.624 0-145.822 63.591-145.822 148.971 0 85.394 62.196 148.845 145.822 148.845z" />
<glyph unicode="&#xe91a;" glyph-name="attachment" d="M242.892 234.335c-24.593-22.459-24.593-57.662 0-80.121 11.346-10.237 26.238-15.901 42.075-15.901h0.158c16.086 0.051 31.442 5.825 42.469 15.97l577.152 519.56c54.997 49.547 54.367 130.624-1.418 180.716-25.854 23.724-61.849 37.178-99.514 37.194-36.796 0-71.149-12.762-96.914-35.966l-558.715-503.044c-88.877-80.053-92.975-216.955-8.588-292.845 38.392-35.507 92.122-55.562 148.287-55.348 63.428 0 125.91 23.477 171.294 64.425l429.023 386.343 56.809-47.295-429.102-386.411c-59.551-53.988-141.821-84.767-228.024-85.308-76.146-0.538-149.198 26.065-202.023 73.57-117.321 105.577-113.382 283.018 5.515 390.233l558.636 503.044c40.095 36.42 95.702 56.974 153.802 56.849h0.079c59.173 0 114.642-20.679 156.166-58.146 84.701-76.163 85.332-199.757 1.418-275.374l-440.763-396.785-0.552 0.478-135.838-121.888c-26.474-23.818-61.694-35.488-99.199-35.488h-0.236c-37.426 0-72.489 11.738-98.805 35.488-53.507 48.763-53.472 125.301 0.079 174.028l447.539 402.654 56.809-47.499-447.618-403.132z" />
<glyph unicode="&#xe91b;" glyph-name="delete" d="M768-64c-175.543 0-351.086 0-526.629 0-43.886 14.629-73.143 36.571-73.143 87.771-7.314 102.4-14.629 197.486-21.943 299.886-7.314 117.029-14.629 241.371-21.943 358.4 0 14.629-0.595 43.886-7.909 58.514-35.731 0-79.862 0-116.434 0 0 14.629 0 29.257 0 43.886 0 0 7.314 0 7.314 0 87.771 0 175.543 0 256 0 0 0 7.314 0 14.629 0 0 29.257 0 58.514 0 80.457 0 29.257 7.314 58.514 36.571 73.143 14.629 14.629 29.257 14.629 36.571 21.943 102.4 0 204.8 0 307.2 0 0 0 0 0 7.314 0 36.571-14.629 58.514-43.886 65.829-80.457 0-21.943 0-51.2 0-73.143 0-7.314 0-14.629 0-21.943 7.314 0 14.629 0 21.943 0 80.457 0 168.229 0 248.686 0 7.314 0 14.629 0 21.943-7.314 0-14.629 0-21.943 0-36.571-7.314 0-14.629 0-14.629 0-21.943 0-43.886 0-65.829 0-14.629 0-36.571 0-51.2 0 0-7.314 0-7.314 0-7.314-7.314-117.029-14.629-234.057-21.943-343.771-7.314-117.029-14.629-241.371-21.943-358.4 0-21.943-7.314-36.571-21.943-51.2-14.629-29.257-36.571-36.571-58.514-43.886zM687.543 784.457c0 29.257 0 58.514 0 95.086 0 21.943-21.943 43.886-43.886 43.886-87.771 0-182.857 0-270.629 0-21.943 0-43.886-14.629-43.886-36.571 0-29.257 0-65.829 0-95.086 117.029-7.314 234.057-7.314 358.4-7.314zM168.229 740.571c0-21.943 0-43.886 0-58.514 7.314-124.343 14.629-241.371 21.943-365.714 7.314-87.771 7.314-175.543 14.629-263.314 0-43.886 14.629-73.143 80.457-73.143 138.971 0 292.571 0 438.857 0 58.514 0 73.143 29.257 80.457 80.457 7.314 87.771 7.314 168.229 14.629 256 7.314 109.714 14.629 212.114 21.943 321.829 0 36.571 7.314 65.829 7.314 102.4-234.549 0-453.486 0-680.229 0zM365.714 360.229c0-80.457 0-160.914 0-241.371 0-21.943 0-21.943-21.943-21.943s-21.943 0-21.943 21.943c0 160.914 0 329.143 0 490.057 0 7.314 7.314 21.943 7.314 21.943 7.314 0 21.943 0 29.257 0 7.314-7.314 7.314-21.943 7.314-21.943 0-87.771 0-168.229 0-248.686zM482.743 360.229c0 80.457 0 160.914 0 241.371 0 21.943 0 21.943 21.943 21.943s21.943 0 21.943-21.943c0-160.914 0-329.143 0-490.057 0-21.943 0-21.943-21.943-21.943s-21.943 0-21.943 21.943c0 80.457 0 168.229 0 248.686zM636.343 360.229c0 80.457 0 160.914 0 248.686 0 21.943 0 21.943 21.943 21.943s21.943 0 21.943-21.943c0-160.914 0-329.143 0-490.057 0-7.314 0-21.943-7.314-21.943s-21.943 0-29.257 0c0 0-7.314 14.629-7.314 14.629 0 80.457 0 160.914 0 248.686z" />
<glyph unicode="&#xe91c;" glyph-name="plus-with-circle" d="M512-62.853c-136.741 0-265.29 53.17-361.985 149.713-96.731 96.615-150.015 225.046-150.015 361.731 0 136.651 53.285 265.116 149.979 361.697 96.695 96.542 225.245 149.713 361.985 149.713s265.29-53.171 361.947-149.713c96.768-96.581 150.015-225.046 150.015-361.659 0.038-136.686-53.247-265.154-150.015-361.731-96.621-96.543-225.171-149.751-361.912-149.751zM512 886.65c-117.285 0-227.511-45.574-310.381-128.358-82.834-82.709-128.477-192.718-128.477-309.7s45.603-226.991 128.439-309.662c82.871-82.782 193.097-128.358 310.381-128.358 117.249 0 227.511 45.574 310.382 128.358 82.834 82.746 128.475 192.717 128.439 309.7 0 116.981-45.605 226.953-128.439 309.626-82.835 82.781-193.095 128.393-310.344 128.393zM768 485.286h-219.429v220.167c0 20.255-16.382 36.694-36.571 36.694s-36.571-16.439-36.571-36.694v-220.166h-219.429c-20.187 0-36.571-16.44-36.571-36.697s16.384-36.694 36.571-36.694h219.429v-220.166c0-20.292 16.385-36.695 36.574-36.695s36.571 16.401 36.571 36.694v220.169h219.429c20.224 0 36.573 16.439 36.573 36.695s-16.35 36.694-36.574 36.694l-0.001-0.002z" />
<glyph unicode="&#xe91d;" glyph-name="right-arrow" d="M674.302 448l-405.143-337.619c-15.516-12.93-17.613-35.991-4.682-51.507s35.991-17.613 51.507-4.682l438.857 365.714c17.545 14.621 17.545 41.569 0 56.19l-438.857 365.714c-15.516 12.93-38.577 10.834-51.507-4.682s-10.834-38.577 4.682-51.507l405.143-337.619z" />
<glyph unicode="&#xe91e;" glyph-name="down-arrow" d="M512 285.697l-337.619 405.143c-12.93 15.516-35.991 17.613-51.507 4.682s-17.613-35.991-4.682-51.507l365.714-438.857c14.621-17.545 41.569-17.545 56.19 0l365.714 438.857c12.93 15.516 10.834 38.577-4.682 51.507s-38.577 10.834-51.507-4.682l-337.619-405.143z" />
<glyph unicode="&#xe91f;" glyph-name="checkout-0" d="M146.286 886.857c-40.396 0-73.143-32.747-73.143-73.143v-731.429c0-40.396 32.747-73.143 73.143-73.143h731.429c40.396 0 73.143 32.747 73.143 73.143v731.429c0 40.396-32.747 73.143-73.143 73.143h-731.429zM146.286 960h731.429c80.791 0 146.286-65.494 146.286-146.286v-731.429c0-80.791-65.494-146.286-146.286-146.286h-731.429c-80.791 0-146.286 65.494-146.286 146.286v731.429c0 80.791 65.494 146.286 146.286 146.286z" />
<glyph unicode="&#xe920;" glyph-name="checkout-2" d="M853.333 886.857h-682.667c-53.471 0-97.524-44.053-97.524-97.524v-682.667c0-53.471 44.053-97.524 97.524-97.524h682.667c53.471 0 97.524 44.053 97.524 97.524v682.667c0 53.471-44.053 97.524-97.524 97.524zM853.333 960c93.867 0 170.667-76.8 170.667-170.667v-682.667c0-93.867-76.8-170.667-170.667-170.667h-682.667c-93.867 0-170.667 76.8-170.667 170.667v682.667c0 93.867 76.8 170.667 170.667 170.667h682.667zM870.4 657.067c8.533 8.533 8.533 25.6 0 38.4l-42.667 42.667c-8.533 8.533-25.6 8.533-34.133 0l-349.867-349.867c-8.533-8.533-25.6-8.533-34.133 0l-179.2 132.267c-4.267 4.267-12.8 8.533-17.067 8.533s-12.8-4.267-17.067-8.533l-42.667-38.4c-4.267-4.267-8.533-12.8-8.533-17.067s4.267-12.8 8.533-17.067l256-264.533c8.533-8.533 25.6-8.533 34.133 0l426.667 473.6z" />
<glyph unicode="&#xe921;" glyph-name="checkout-1" d="M853.333 960h-682.667c-93.867 0-170.667-76.8-170.667-170.667v-682.667c0-93.867 76.8-170.667 170.667-170.667h682.667c93.867 0 170.667 76.8 170.667 170.667v682.667c0 93.867-76.8 170.667-170.667 170.667zM870.4 657.067l-426.667-473.6c-8.533-8.533-25.6-8.533-34.133 0l-256 264.533c-4.267 4.267-8.533 12.8-8.533 17.067s4.267 12.8 8.533 17.067l42.667 38.4c4.267 4.267 12.8 8.533 17.067 8.533s12.8-4.267 17.067-8.533l179.2-132.267c8.533-8.533 25.6-8.533 34.133 0l349.867 349.867c8.533 8.533 25.6 8.533 34.133 0l42.667-42.667c8.533-12.8 8.533-29.867 0-38.4z" />
<glyph unicode="&#xe922;" d="M798.689 142.907c60.668 0 121.336-0.145 182.003 0.090 17.61 0.069 30.964-15.261 30.915-29.044-0.060-16.926-13.056-30.817-31.165-30.832-121.335-0.107-242.672-0.293-364.005 0.176-20.297 0.079-30.635 13.406-30.755 30.173-0.109 15.317 10.694 29.101 29.732 29.255 61.088 0.49 122.183 0.182 183.275 0.182v0zM799.305 20.677c60.657 0 121.314-0.16 181.97 0.12 14.13 0.065 27.779-10.277 30.205-26.094 1.837-11.98-5.153-27.096-21.515-31.945-4.135-1.226-8.608-1.842-12.926-1.846-119.192-0.097-238.384-0.071-357.577-0.083-18.738-0.001-31.027 10.418-34.168 29.313-1.641 9.87 10.424 26.77 20.914 29.161 3.861 0.872 7.807 1.314 11.766 1.318 60.443 0.080 120.887 0.056 181.332 0.056v0zM798.441 205.295c-60.034 0-120.067 0.031-180.1-0.019-17.972-0.015-30.165 10.178-32.987 29.112-1.641 11.012 10.179 26.594 22.087 29.371 3.822 0.891 7.839 1.32 11.768 1.323 120.703 0.067 241.406 0.089 362.109 0.014 16.129-0.010 29.634-13.168 30.332-29.811 0.639-15.232-14.279-29.972-29.926-29.978-61.096-0.028-122.189-0.011-183.284-0.011v0z" />
<glyph unicode="&#xe923;" d="M495.025 353.005c-167.184 0-303.203 136.016-303.203 303.205 0 167.187 136.018 303.203 303.203 303.203 167.189 0 303.208-136.016 303.208-303.203 0-167.189-136.018-303.205-303.208-303.205zM495.025 895.479c-131.932 0-239.27-107.335-239.27-239.27s107.338-239.272 239.27-239.272c131.937 0 239.273 107.338 239.273 239.272s-107.336 239.27-239.273 239.27z" />
<glyph unicode="&#xe924;" d="M72.665-38.966h-71.924c0 281.695 191.648 456.683 500.158 456.683v-64.651c-129.362 0-237.073-41.379-311.487-105.897-77.468-67.164-116.747-163.435-116.747-286.135v0z" />
<glyph unicode="&#xe925;" d="M521.931 404.449c142.331-53.601 250.773-194.303 250.773-361.806 0-20.1-13.555-33.501-33.888-33.501s-33.888 13.4-33.888 33.501c0 180.903-142.331 321.605-318.549 321.605s-318.549-147.402-318.549-321.605c0-20.1-13.555-33.501-33.888-33.501s-33.888 13.4-33.888 33.501c0 167.503 101.665 308.205 250.773 361.806-74.554 46.901-121.998 127.302-121.998 221.104 0 140.702 115.22 254.604 250.773 254.604 142.331 0 250.773-113.902 250.773-254.604 13.555-93.802-33.888-174.203-108.442-221.104zM386.378 813.156c-108.442 0-189.774-87.101-189.774-194.303s88.109-194.303 189.774-194.303c108.442 0 189.774 87.101 189.774 194.303s-81.332 194.303-189.774 194.303z" />
<glyph unicode="&#xe926;" d="M1023.476 42.643c0-20.1-13.555-33.501-33.888-33.501s-33.888 13.4-33.888 33.501c0 154.103-108.442 281.405-243.995 314.905-20.333 6.7-33.888 20.1-33.888 46.901 0 20.1 13.555 40.201 40.666 46.901 67.776 26.8 115.22 93.802 115.22 174.203 0 107.202-88.109 194.303-189.774 194.303-13.555 0-27.111 13.4-27.111 33.501s13.555 33.501 27.111 33.501c135.553 0 250.773-113.902 250.773-254.604 0-93.802-47.444-174.203-121.998-221.104 149.108-60.301 250.773-201.003 250.773-368.506z" />
<glyph unicode="&#xe927;" glyph-name="question-small" d="M1024 448c0-282.624-229.376-512-512-512s-512 229.376-512 512c0 282.624 229.376 512 512 512s512-229.376 512-512v0zM512 886.857c-242.498 0-438.857-196.359-438.857-438.857s196.359-438.857 438.857-438.857c242.498 0 438.857 196.359 438.857 438.857s-196.359 438.857-438.857 438.857v0zM479.822 303.045c-0.476 12.989 0 19.899 0 22.896 0 29.475 5.161 53.090 14.214 72.073s27.99 42.532 55.625 66.512c27.635 23.48 43.456 37.487 48.698 44.98 8.1 11.49 10.996 24.84 10.996 38.828 0 19.483-5.927 37.542-20.697 51.53s-44.608 22.331-69.384 22.331c-24.3 0-51.626-7.843-67.826-22.331s-28.716-33.634-34.433-63.109l-75.682 11.579c2.382 42.464 20.248 83.966 52.172 113.44s83.966 44.032 136.914 42.045c52.948-1.987 83.287-17.262 114.79-49.075s37.458-66.944 37.458-106.411c0-21.981-3.516-45.634-15.427-65.117s-35.983-42.624-74.577-76.095c-20.012-17.485-26.624-34.127-31.388-45.117-4.765-11.99-7.457-31.484-6.98-58.96h-74.472zM480.545 271.099h75.441v-79.099h-75.441v79.099z" />
<glyph unicode="&#xe928;" glyph-name="conversation-delete" d="M512 960c-285.257 0-512-226.743-512-512s226.743-512 512-512c285.257 0 512 226.743 512 512s-226.743 512-512 512zM731.429 228.571c0 0 0 0 0 0-14.629-14.629-36.571-14.629-51.2 0l-168.229 168.229-160.914-168.229c0 0 0 0 0 0-14.629-14.629-36.571-14.629-51.2 0s-14.629 43.886-7.314 51.2l168.229 168.229-168.229 160.914c-14.629 14.629-14.629 43.886 0 58.514 0 0 0 0 0 0 14.629 14.629 36.571 14.629 51.2 0l168.229-168.229 160.914 168.229c0 0 0 0 0 0 14.629 14.629 43.886 14.629 58.514 0s14.629-36.571 0-51.2l-168.229-168.229 168.229-160.914c7.314-14.629 14.629-43.886 0-58.514z" />
<glyph unicode="&#xe929;" glyph-name="history-record" d="M512-64c-284.444 0-512 227.556-512 512s227.556 512 512 512c284.444 0 512-227.556 512-512s-227.556-512-512-512zM512 9.143c243.81 0 438.857 195.048 438.857 438.857s-195.048 438.857-438.857 438.857c-243.81 0-438.857-195.048-438.857-438.857s195.048-438.857 438.857-438.857zM536.137 374.857h-176.014c-14.201 0-23.668 23.102-23.668 37.303s9.467 35.673 23.668 35.673l152.146-0.046-0.081 269.117c0 14.201 22.183 23.668 36.384 23.668s36.571-9.467 36.571-23.668v-317.909c0-14.201-15.788-24.137-29.989-24.137h-19.017z" />
<glyph unicode="&#xe92a;" glyph-name="unchecked-radio" d="M512-64c282.766 0 512 229.234 512 512s-229.234 512-512 512c-282.766 0-512-229.234-512-512s229.234-512 512-512zM512 9.143c-242.386 0-438.857 196.471-438.857 438.857s196.471 438.857 438.857 438.857c242.386 0 438.857-196.471 438.857-438.857s-196.471-438.857-438.857-438.857z" />
<glyph unicode="&#xe92b;" glyph-name="checked-radio" d="M512-64c-282.766 0-512 229.234-512 512s229.234 512 512 512c282.766 0 512-229.234 512-512s-229.234-512-512-512zM512 9.143c242.386 0 438.857 196.471 438.857 438.857s-196.471 438.857-438.857 438.857c-242.386 0-438.857-196.471-438.857-438.857s196.471-438.857 438.857-438.857zM284.444 448v0c0 81.298 43.372 156.42 113.778 197.069s157.15 40.649 227.556 0c70.406-40.649 113.778-115.771 113.778-197.069 0-125.675-101.88-227.556-227.556-227.556s-227.556 101.88-227.556 227.556z" />
<glyph unicode="&#xe92c;" glyph-name="chat-mode" d="M170.667 891.733c-56.554 0-102.4-45.846-102.4-102.4v-682.667c0-56.554 45.846-102.4 102.4-102.4h682.667c56.554 0 102.4 45.846 102.4 102.4v682.667c0 56.554-45.846 102.4-102.4 102.4h-682.667zM170.667 960h682.667c94.257 0 170.667-76.41 170.667-170.667v-682.667c0-94.257-76.41-170.667-170.667-170.667h-682.667c-94.257 0-170.667 76.41-170.667 170.667v682.667c0 94.257 76.41 170.667 170.667 170.667zM208.64 334.080v-78.080c65.233-4.038 129.68 16.002 181.12 56.32l8.96 7.68c-15.341 22.549-28.825 46.307-40.32 71.040-37.759-42.106-93.563-63.331-149.76-56.96v0zM663.68 640c-65.233 4.038-129.68-16.002-181.12-56.32l-8.96-7.68c14.678-22.615 27.52-46.372 38.4-71.040 37.759 42.106 93.563 63.331 149.76 56.96v-227.84c-128 0-156.8 57.6-192 128-18.032 44.847-45.288 85.403-80 119.040-51.077 41.234-115.56 62.196-181.12 58.88v-78.080c128 0 156.8-57.6 192-128 18.609-43.759 46.063-83.197 80.64-115.84 51.44-40.318 115.887-60.358 181.12-56.32v-113.92l151.68 151.68-150.4 148.48 151.68 151.68-151.68 151.68v-111.36z" />
<glyph unicode="&#xe92d;" glyph-name="close" d="M1006.74 23.284l-424.738 424.756 424.723 424.698c20.955 20.971 23.898 51.972 2.956 72.912-20.972 20.972-52.014 18.060-72.971-2.898l-424.707-424.712-424.707 424.712c-20.985 20.958-52.015 23.869-72.971 2.898-20.941-20.942-18.029-51.943 2.942-72.912l424.723-424.698-424.739-424.756c-20.956-20.986-23.868-52.002-2.927-72.956 20.956-20.956 51.971-18.031 72.942 2.956l424.736 424.741 424.738-424.741c20.941-20.958 51.97-23.911 72.942-2.956 20.941 20.954 18.016 52-2.942 72.956z" />
<glyph unicode="&#xe92e;" glyph-name="pending-deal" d="M1018.396 22.607l-9.68 50.436c-1.019 6.623-4.076 12.736-9.17 17.321l-385.656 406.034c-5.604 5.604-5.604 14.774 0 20.378l22.925 22.925c2.547 2.547 6.623 4.585 10.699 4.585l61.644-1.019c9.17 0 18.34 3.566 24.454 10.189l73.871 74.38c13.246 13.246 13.246 35.152 0 48.398l-270.519 273.576c-6.623 6.623-15.284 10.189-24.454 10.189s-17.831-3.566-24.454-10.189l-73.361-74.38c-6.623-6.623-10.189-15.793-10.189-24.963l1.019-62.153c0-4.076-1.528-7.642-4.076-10.699l-221.102-222.631c-2.547-2.547-6.623-4.585-10.699-4.585h-62.663c-9.17 0-18.34-3.566-24.454-10.189l-72.342-73.361c-13.246-13.246-13.246-35.152 0-48.398l270.010-273.067c6.623-6.623 15.284-10.189 24.454-10.189s17.831 3.566 24.454 10.189l73.361 74.38c6.623 6.623 10.189 15.793 10.189 24.963l-1.019 61.644c0 4.076 1.528 7.642 4.076 10.699l38.209 38.209c2.547 2.547 6.623 4.076 10.189 4.076 4.076 0 7.642-1.528 10.189-4.076l399.411-390.75c4.585-4.585 10.699-7.642 16.812-9.17l48.398-10.189c2.547-0.509 4.585-0.509 7.132-0.509 9.17 0 18.34 3.566 24.454 10.189l36.681 37.19c9.68 7.642 13.246 19.359 11.208 30.567zM941.978-3.375l-35.152 7.642-396.354 387.184c-12.227 12.227-28.529 18.85-45.851 18.85s-34.133-6.623-46.36-19.359l-38.209-38.209c-12.736-12.736-19.869-30.058-19.359-47.889l1.019-55.021-57.059-57.568-247.085 249.632 56.549 57.059h55.53c17.321 0 34.643 7.132 46.87 19.359l221.102 223.14c12.227 12.227 19.359 29.548 18.85 46.87l-1.019 55.53 57.059 57.568 247.085-249.632-57.568-58.078-54.511 1.019c-17.831 0-34.643-7.132-46.87-19.359l-22.925-22.925c-24.963-25.473-25.473-65.719-1.019-91.701l382.599-402.468 7.132-37.699-24.454-23.944zM42.667 106.667h512c23.564 0 42.667-19.103 42.667-42.667v-85.333c0-23.564-19.103-42.667-42.667-42.667h-512c-23.564 0-42.667 19.103-42.667 42.667v85.333c0 23.564 19.103 42.667 42.667 42.667v0zM42.667 64v-85.333h512v85.333h-512z" />
<glyph unicode="&#xe92f;" d="M660.48 156.16c40.96 25.6 40.96 25.6 51.2 46.080l56.32-61.44c5.12-5.12 10.24-10.24 10.24-20.48s-5.12-15.36-10.24-25.6c-5.12-5.12-15.36-10.24-25.6-10.24-5.12 0-15.36 0-20.48 10.24l-61.44 61.44zM547.84 268.8c-5.12 5.12-10.24 10.24-10.24 20.48s5.12 20.48 15.36 25.6c5.12 5.12 15.36 10.24 25.6 10.24 5.12 0 15.36 0 20.48-10.24l56.32-61.44c5.12-5.12 51.2-51.2 56.32-56.32 20.48-20.48-35.84-61.44-51.2-46.080-5.12 5.12-46.080 46.080-56.32 56.32l-56.32 61.44z" />
<glyph unicode="&#xe930;" glyph-name="on-sell" d="M512-64c-282.77 0-512 229.23-512 512s229.23 512 512 512c282.77 0 512-229.23 512-512s-229.23-512-512-512zM736.532 360.872h-408.274v-177.405h43.136v29.77h322.002v-29.77h43.136v177.405zM371.394 252.12v71.083h322.002v-71.083h-322.002zM328.258 585.058v-176.797h447.158v37.061h-194.416v45.566h159.178v34.63h-159.178v42.529h157.963v34.63h-157.963v44.351h184.696v36.453h-176.797c-8.506 23.087-17.619 44.351-27.34 63.185l-44.959-7.291c10.936-17.011 20.657-35.238 29.77-55.895h-150.673c9.113 17.619 17.011 35.238 24.302 53.465l-42.529 8.506c-26.125-68.046-71.083-131.231-134.269-188.948l13.366-43.136c26.125 22.479 49.819 46.174 71.691 71.691zM537.863 445.321h-167.684v45.566h167.684v-45.566zM537.863 525.518h-167.684v42.529h167.684v-42.529zM537.863 602.677h-167.684v37.668c1.215 2.43 2.43 4.253 4.253 6.683h163.431v-44.351z" />
<glyph unicode="&#xe931;" glyph-name="direction-in" d="M512-64c282.77 0 512 229.23 512 512s-229.23 512-512 512c-282.77 0-512-229.23-512-512s229.23-512 512-512zM401.167 496.417c49.778 86.334 85.75 169.75 107.917 250.25l47.25-13.417c-12.445-35.972-25.472-70.389-39.083-103.25h254.333v-43.167h-68.542c-5.833-112.584-34.708-204.264-86.625-275.042 39.472-35 95.472-65.43 168-91.292-12.056-15.167-23.139-30.722-33.25-46.667-69.223 29.556-124.444 63.68-165.667 102.375-37.528-36.945-89.444-72.819-155.75-107.625-8.167 12.833-18.083 25.861-29.75 39.083 66.306 33.25 117.541 67.666 153.708 103.25-44.917 56.195-73.986 126-87.208 209.417-10.889-21.195-22.167-41.611-33.833-61.25-7.389 11.278-17.889 23.722-31.5 37.333zM656.958 586.833h-155.167c5.639-94.889 33.055-174.805 82.25-239.75 44.334 62.417 68.639 142.333 72.917 239.75zM348.667 742h44.333v-569.917h-44.333v179.958c-23.722-13.222-47.833-27.903-72.333-44.042-10.111-7.389-20.028-16.139-29.75-26.25l-33.25 39.083c12.056 12.833 18.083 29.555 18.083 50.167v289.333h44.333v-298.667c23.139 12.25 47.444 25.278 72.917 39.083v341.25z" />
<glyph unicode="&#xe932;" glyph-name="direction-out" d="M512-64c-282.77 0-512 229.23-512 512s229.23 512 512 512c282.77 0 512-229.23 512-512s-229.23-512-512-512zM677.167 462h49.583v231h-49.583v-165.083h-153.417v218.75h-50.75v-218.75h-151.667v165.083h-49.583v-209.417h201.25v-228.667h-167.417v166.25h-49.583v-210.583h438.667v-21h49v231.583h-49v-166.25h-170.917v228.667h153.417v-21.583z" />
<glyph unicode="&#xe933;" glyph-name="chat-message" d="M1013.613 489.623c0-235.893-226.915-427.71-506.885-427.71-77.543 0-150.188 14.693-216.304 40.812l-191.817-122.436 30.201 223.649c-79.175 75.91-128.15 176.309-128.15 285.684 0 235.893 226.915 427.71 506.885 427.71 279.155 0 506.069-191.817 506.069-427.71zM225.942 500.532c0-37.703 30.564-68.267 68.267-68.267s68.267 30.564 68.267 68.267c0 37.703-30.564 68.267-68.267 68.267s-68.267-30.564-68.267-68.267zM461.835 500.532c0-37.703 30.564-68.267 68.267-68.267s68.267 30.564 68.267 68.267c0 37.703-30.564 68.267-68.267 68.267s-68.267-30.564-68.267-68.267zM697.729 500.532c0-37.703 30.564-68.267 68.267-68.267s68.267 30.564 68.267 68.267c0 37.703-30.564 68.267-68.267 68.267s-68.267-30.564-68.267-68.267z" />
<glyph unicode="&#xe934;" glyph-name="calendar" d="M900.507 899.6h-122.579v40.4c0 11.2-8.959 20-20.362 20h-8.145c-11.403 0-21.176-8.8-20.769-20v-40h-431.674v40c0 11.2-6.516 20-17.511 20h-12.624c-11.403 0-20.362-8.8-20.362-20v-40h-143.348c-62.308 0-102.217-46.8-102.217-100.4v-766.4c0-66.4 39.91-96.8 102.217-96.8h817.738c62.308 0 102.217 43.6 102.217 96.8v766c0 53.6-60.271 100.4-122.579 100.4zM972.588 638.8v-582.4c1.629-45.2-33.801-69.2-62.308-70.8h-796.561c-33.394 0-59.864 24.4-62.308 70.8v592.8h921.176v-10.4zM972.588 698.8h-921.176v100.4c0 22 29.321 50.8 51.719 50.8h142.941v-50.8c0-11.2 8.959-20 20.362-20h14.253c11.403 0 15.882 8.8 15.882 20v50.8h431.267v-50.8c0-11.2 12.624-20 24.027-20h5.294c11.403 0 20.362 8.8 20.362 20v50.8h142.941c22.398 0 51.719-28.8 51.719-50.8v-100.4h0.407zM435.846 170.8l-136.425 148c-13.032 14-17.919 31.2-4.887 44.8 0 0 12.217 10 26.878 1.6l137.647-150 238.235 259.6c13.032 14 25.656 18.8 38.688 4.8s0.814-32-12.217-46l-241.493-262.8c-12.624-14-33.394-14-46.425 0z" />
<glyph unicode="&#xe935;" glyph-name="hand-shake" d="M970.939 427.406h-213.070l-159.237-163.974c-5.117-4.957-11.712-7.795-18.308-7.795-6.795 0-13.552 2.639-18.709 7.875l-188.796 191.876c-10.154 10.333-10.014 26.942 0.319 37.095 10.314 10.154 26.942 10.034 37.096-0.319l170.489-173.267 136.212 128.976c4.937 4.816 34.637 19.447 40.933 20.467h245.585c0.005 0 0.010 0 0.016 0 7.142 0 12.2-1.456 15.491-4.672 3.461-3.032 4.935-7.989 4.894-15.235 0-0.060-0.001-0.12-0.001-0.18 0.001-0.126 0.001-0.252 0.001-0.379l-0.061-6.837c-3.675-278.377-233.126-504.829-511.525-504.829-170.23 0-328.807 84.343-424.183 225.594-8.094 12.012-4.957 28.319 7.076 36.416 12.012 8.093 28.341 4.937 36.416-7.056 85.604-126.796 227.932-202.468 380.693-202.468 245.055 0 447.903 195.523 458.67 438.715zM53.599 468.338h-32.531c-14.224-0.078-20.245-5.242-20.384-19.139 0.718 281.529 229.951 510.34 511.586 510.34 190.974 0 364.702-105.172 453.427-274.481 6.714-12.831 1.757-28.701-11.034-35.417-12.872-6.737-28.722-1.759-35.436 11.052-79.631 151.981-235.568 246.359-406.956 246.359-246.299 0-447.93-194.979-458.672-438.715h192.602l159.437 168.211c5.036 4.957 12.552 7.555 19.008 7.436 7.096-0.16 13.831-3.218 18.608-8.434l177.784-192.475c9.855-10.653 9.175-27.262-1.459-37.055-5.077-4.677-11.474-6.996-17.829-6.996-7.075 0-14.111 2.839-19.267 8.414l-159.457 172.628-152.421-149.524c-4.876-4.776-17.588-3.077-24.405-3.137h-225.133c-0.182 0-0.363 0.001-0.542 0.003zM0.682 448.371c0.089-14.22 5.84-20.798 19.844-20.962-14.096 0.149-19.844 6.175-19.844 20.464 0 0.166 0 0.332 0 0.498z" />
<glyph unicode="&#xe936;" glyph-name="line-chart" d="M833.419 856.973c0 0 164.51 44.749 168.826 45.363 29.282 3.718 20.529-7.135 20.529-7.135s-367.568-319.149-392-340.231c-24.283-21.070-42.88 4.677-42.88 4.677l-212.714 182.342c0 0-329.324-273.491-347.639-288.631-18.239-15.156-27.542 6.656-27.542 6.656l0.033 34.086 348.559 289.344c24.685 20.513 51.385 0.953 51.385 0.953s144.89-124.226 177.348-152.013c33.703-30.468 58.338-7.425 58.338-7.425l217.602 184.477c-5.94 6.571-11.919 13.106-17.936 19.604-21.999 21.059-1.91 27.932-1.91 27.932zM996.156 727.975c13.794 12.564 27.844-5.351 27.844-5.351v-688.286c0-34.544-24.685-41.449-24.685-41.449h-958.449c-26.496 0-40.866 39.359-40.866 41.449v199.471c0 20.331 21.238 40.587 21.238 40.587s317.305 278.666 328.967 288.919c11.63 10.212 34.896 2.905 34.896 2.905s155.972-150.587 194.195-175.99c29.747-19.778 50.631 2.090 50.631 2.090s352.538 323.078 366.228 335.654zM959.607 45.691v0c0 0 18.878 5.287 18.867 31.667 0 26.387 1.251 549.681 1.251 549.681s-10.749 13.706-21.292 4.099c-10.456-9.618-331.92-303.463-331.92-303.463s-17.475-18.724-38.707-1.589c-27.469 22.136-207.174 176.665-207.174 176.665s-17.785 5.595-26.675-2.23c-8.917-7.813-291.619-246.509-291.619-246.509s-16.235-15.499-16.235-31.033v-146.931c0-1.613 10.989-31.691 31.242-31.691 20.286 0 882.263 1.333 882.263 1.333z" />
<glyph unicode="&#xe937;" glyph-name="clock" horiz-adv-x="970" d="M768.041 119.89c10.759-10.734 20.232-18.705 30.39-28.769 17.833-17.668 47.772-46.764 57.457-57.847s10.482-36.704-7.269-42.27c-12.315-3.861-23.251 0.576-32.355 9.715-28.377 28.485-56.874 56.843-85.25 85.332-1.703 1.711-2.713 4.104-3.334 5.069-162.607-92.175-322.961-92.162-484.2-0.727-1.135-1.081-2.931-2.712-4.648-4.426-28.765-28.726-57.383-57.603-86.326-86.145-17.887-17.639-43.698-8.818-48.212 7.376-3.628 13.015-1.667 22.627 7.853 32.123 26.097 26.023 52.351 54.568 78.475 80.568 1.725 1.716 2.99 2.956 5.092 4.461-108.277 97.348-167.342 221.398-162.779 365.8 4 126.596 54.593 233.33 147.774 319.151 179.774 165.565 462.281 155.063 632.099-22.851 176.292-184.695 166.429-484.826-34.298-656.608l-10.467-9.952zM483.469 70.306c224.752-0.126 405.435 179.606 405.793 403.651 0.358 223.296-181.050 404.908-404.206 404.661-223.271-0.242-404.243-181.176-404.215-404.126 0.028-222.523 180.871-404.061 402.627-404.187zM206.058 956.628c13.909-5.194 22.29-20.176 19.934-34.269-2.651-15.835-14.968-27.287-30.678-27.568-28.993-0.517-55.541-8.389-78.648-26.050-34.111-26.073-51.055-61.012-52.159-103.785-0.345-13.306-6.611-23.012-18.485-28.73-11.442-5.507-22.665-4.185-32.868 3.225-9.122 6.625-13.466 15.982-13.136 27.189 2.007 68.345 31.031 122.179 87.627 160.655 30.459 20.713 64.633 30.62 101.563 32.705 5.637-1.077 11.555-1.393 16.851-3.372zM969.894 768.631c0.389-5.111-0.254-13.86-5.752-21.65-8.152-11.552-22.625-16.656-36.064-12.57-13.452 4.091-22.651 16.13-22.856 31.285-0.322 24.236-6.248 46.883-19.291 67.251-25.472 39.785-62.238 60.119-109.407 61.69-23.331 0.777-38.518 21.695-31.076 42.967 4.622 13.214 16.76 21.878 31.487 21.476 72.315-1.975 127.736-33.827 165.835-95.164 17.292-27.824 25.646-58.618 27.124-95.285v0 0.001zM452.789 668.222c0.075 14.548 12.637 24.47 28.974 24.456s24.616-19.653 24.608-28.203c-0.067-56.942 0.023-113.879-0.134-170.822-0.013-4.829 3.449-15.326 6.925-18.773 38.043-37.767 75.967-75.662 113.81-113.63 14.491-14.54 13.995-33.88 5.657-42.461s-28.163-8.476-40.569 3.192c-8.948 8.412-17.458 17.286-26.145 25.97-33.341 33.313-66.523 66.783-100.11 99.84-9.246 9.1-13.431 19.225-13.229 32.191 0.474 30.583 0.152 61.18 0.157 91.774 0.004 32.157-0.108 64.312 0.057 96.465z" />
<glyph unicode="&#xe938;" glyph-name="detail" d="M680.464 154.602l73.74 88.981c10.911 14.426 17.746 39.063 6.836 53.494-10.921 14.436-28.636 14.436-39.562 0l-112.788-142.475c-0.47-0.603-0.908-1.23-1.313-1.879-0.128-0.187-0.468-0.725-1.019-1.616-0.648-1.129-0.91-1.615-1.151-2.112-0.258-0.501-0.503-1.009-0.735-1.523-0.507-1.172-0.593-1.379-0.684-1.58l-0.624-1.637c-0.388-1.131-0.478-1.408-0.558-1.688-0.33-1.069-0.426-1.379-0.517-1.714-0.248-1.017-0.345-1.368-0.426-1.73-0.034-0.138-0.155-0.723-0.365-1.755-0.163-0.951-0.229-1.353-0.299-1.755-0.133-0.961-0.185-1.36-0.228-1.761-0.101-1.017-0.142-1.399-0.162-1.781-0.083-1.176-0.1-1.486-0.101-1.797-0.030-0.542-0.030-1.084-0.041-1.626 0.010-0.94 0.010-1.477 0.041-2.019 0.071-1.213 0.071-1.502 0.101-1.797 0.020-0.372 0.061-0.754 0.091-1.136 0.112-1.053 0.172-1.451 0.228-1.854 0.020-0.124 0.11-0.711 0.269-1.761 0.027-0.124 0.14-0.694 0.34-1.709 0.208-0.955 0.304-1.306 0.385-1.657 0.259-0.991 0.355-1.311 0.456-1.626 0.309-1.053 0.395-1.311 0.497-1.595l0.558-1.564 0.613-1.533c0.517-1.162 0.603-1.337 0.684-1.533 0.395-0.821 0.816-1.629 1.262-2.421 0.078-0.145 0.355-0.616 0.832-1.415 0.125-0.196 0.421-0.649 0.887-1.358 0.309-0.47 0.644-0.929 0.979-1.368l112.788-155.484c5.455-7.208 12.625-10.817 19.773-10.817 7.159 0 14.318 3.604 19.784 10.817 10.911 14.441 4.075 37.84-6.836 52.265l-73.735 100.86h314.76c15.449 0 28.776 5.22 28.776 25.629 0.005 20.384-13.317 30.27-28.776 30.27l-314.76-1.239zM745.591 724.344c-7.276 5.189-17.145 8.103-27.435 8.101h-508.701c-10.288 0-20.154-2.915-27.428-8.103s-11.36-12.225-11.359-19.562c0-15.277 17.365-27.662 38.786-27.662h508.701c10.289-0.002 20.157 2.912 27.433 8.099s11.364 12.225 11.364 19.562c0.001 7.338-4.086 14.376-11.362 19.565zM561.099 467.118c0.001 7.336-4.084 14.372-11.359 19.56s-17.14 8.102-27.428 8.102h-312.857c-10.288 0-20.154-2.914-27.428-8.102s-11.36-12.224-11.359-19.56c-0.003-7.337 4.083-14.374 11.357-19.562s17.141-8.103 27.43-8.103h312.857c10.289 0 20.156 2.915 27.43 8.103s11.359 12.225 11.357 19.562v0zM209.456 255.84v0h234.64c21.25-0.173 38.348-12.508 38.348-27.664s-17.098-27.49-38.348-27.664h-234.64c-21.423 0-38.789 12.385-38.789 27.664s17.366 27.664 38.789 27.664zM557.51-64c-1.601 0-152.734 0-453.398 0-57.41 0-104.112 50.483-104.112 109.765v806.726c0 59.283 46.702 107.508 104.112 107.508h703.815c57.405 0 102.295-48.226 102.295-107.508v-483.984c0.003-10.777-6.022-34.525-28.168-34.292s-28.723 23.519-28.721 34.292l0.003 483.984c-0.032 32.269-14.525 50.738-45.404 50.776h-703.821c-31.597-0.033-47.29-15.232-47.317-50.776v-802.674c0.031-39.353 17.368-56.867 57.151-56.909-0.096-0.168 147.759-0.201 443.565-0.1 25.934-2.193 34.294-14.793 34.135-28.355-0.197-16.875-12.47-28.375-34.135-28.454z" />
<glyph unicode="&#xe939;" glyph-name="management-intention" d="M375.958 891.317h-340.992c-18.833 0-34.1-15.267-34.1-34.099v-360.93c0-18.833 15.268-34.099 34.1-34.099h340.992c18.833 0 34.1 15.267 34.1 34.099v360.93c0 18.833-15.267 34.099-34.1 34.099zM341.859 530.389h-272.795v292.73h272.795v-292.73zM375.958 345.73h-340.992c-18.833 0-34.1-15.267-34.1-34.1v-340.991c0-18.833 15.268-34.1 34.1-34.1h340.992c18.833 0 34.1 15.267 34.1 34.1v340.99c0 18.833-15.267 34.1-34.1 34.1v0.001zM341.859 4.737h-272.795v272.795h272.795v-272.795zM921.546 345.73h-340.993c-18.833 0-34.1-15.267-34.1-34.1v-340.991c0-18.833 15.268-34.1 34.1-34.1h340.993c18.833 0 34.099 15.267 34.099 34.1v340.99c0 18.833-15.267 34.1-34.099 34.1v0.001zM887.445 4.737h-272.793v272.795h272.796v-272.795h-0.003zM1013.855 708.41l-241.117 241.119c-13.317 13.317-34.907 13.317-48.224 0l-241.118-241.119c-13.317-13.317-13.317-34.906 0-48.223l241.118-241.118c13.317-13.316 34.907-13.317 48.224 0l241.118 241.118c13.316 13.317 13.316 34.907-0.001 48.223zM748.625 491.405l-192.893 192.893 192.893 192.895 192.896-192.895-192.896-192.893z" />
<glyph unicode="&#xe93a;" glyph-name="administration-delete" d="M512 886.857c-244.861 0-438.857-193.996-438.857-438.857s193.996-438.857 438.857-438.857c244.861 0 438.857 193.996 438.857 438.857s-193.996 438.857-438.857 438.857zM512 960c285.257 0 512-226.743 512-512s-226.743-512-512-512c-285.257 0-512 226.743-512 512s226.743 512 512 512zM563.2 448l168.229-160.914c7.314-14.629 14.629-43.886 0-58.514s-36.571-14.629-51.2 0l-168.229 168.229-160.914-168.229c-14.629-14.629-36.571-14.629-51.2 0s-14.629 43.886-7.314 51.2l168.229 168.229-168.229 160.914c-14.629 14.629-14.629 43.886 0 58.514s36.571 14.629 51.2 0l168.229-168.229 160.914 168.229c14.629 14.629 43.886 14.629 58.514 0s14.629-36.571 0-51.2l-168.229-168.229z" />
<glyph unicode="&#xe93b;" glyph-name="up-arrow" d="M512 610.303l-337.619-405.143c-12.93-15.516-35.991-17.613-51.507-4.682s-17.613 35.991-4.682 51.507l365.714 438.857c14.621 17.545 41.569 17.545 56.19 0l365.714-438.857c12.93-15.516 10.834-38.577-4.682-51.507s-38.577-10.834-51.507 4.682l-337.619 405.143z" />
<glyph unicode="&#xe93c;" glyph-name="answer-it" d="M808.694 192.638c-14.896 0-26.966 21.193-26.966 35.934 0 14.861 12.069 37.304 26.966 37.304h107.523c20.505-0.244 34.753 9.378 34.64 34.296v537.666c0.915 21.169-10.94 33.83-34.64 34.39h-808.373c-22.46-0.673-34.673-11.815-34.701-34.39v-537.666c0.386-20.387 13.594-34.25 34.701-34.296h457.958c19.791 0 34.592-17.322 39.604-22.301l233.747-239.945c11.784-15.939 4.487-31.57-6.039-42.012-11.947-13.552-38.533-8.308-43.726-3.048l-234.732 234.069h-446.811c-59.505 0-107.843 48.206-107.843 107.533v537.666c0 59.267 48.338 107.533 107.843 107.533h808.373c59.465 0 107.783-48.266 107.783-107.533v-537.666c0-59.328-48.318-107.533-107.783-107.533h-107.523zM269.518 515.237c-29.793 0-53.892 24.043-53.892 53.767s24.099 53.767 53.892 53.767c29.733 0 53.892-24.043 53.892-53.767s-24.159-53.767-53.892-53.767v0zM511.99 515.237c-29.773 0-53.892 24.043-53.892 53.767s24.119 53.767 53.892 53.767c29.793 0 53.892-24.043 53.892-53.767s-24.1-53.767-53.892-53.767v0zM754.542 515.237c-29.793 0-53.892 24.043-53.892 53.767s24.099 53.767 53.892 53.767c29.733 0 53.892-24.043 53.892-53.767s-24.159-53.767-53.892-53.767v0z" />
<glyph unicode="&#xe93d;" glyph-name="back-arrow" d="M349.698 448l405.143 337.619c15.516 12.93 17.613 35.991 4.682 51.507s-35.991 17.613-51.507 4.682l-438.857-365.714c-17.545-14.621-17.545-41.569 0-56.19l438.857-365.714c15.516-12.93 38.577-10.834 51.507 4.682s10.834 38.577-4.682 51.507l-405.143 337.619z" />
<glyph unicode="&#xe93e;" glyph-name="basic-calendar" d="M835.093 835.025c104.026 0 188.546-85.604 188.546-190.713v-514.709c0-105.109-84.521-190.352-188.546-190.352l-664.607 0.722c-95.356 9.030-170.486 90.661-170.486 189.63v494.843c0 137.617 84.521 210.579 188.546 210.218h67.905v94.273c0 17.337 14.087 31.063 31.064 31.063 17.337 0 31.424-14.087 31.425-31.424v-93.912h388.649v94.273c0.362 17.337 14.448 31.063 31.425 31.063 17.337 0 31.424-14.087 31.424-31.424v-93.551h64.655zM959.707 110.82v0l0.361 404.182h-895.775v-404.182c0-59.237 51.291-107.637 114.862-107.637h665.69c63.21 0 114.862 48.040 114.862 107.637zM959.707 663.094c5.779 61.043-64.655 107.638-127.865 107.638h-61.043v-94.996c0-17.337-14.086-31.424-31.424-31.424-16.976 0-31.063 13.725-31.425 30.34v96.080h-388.65v-94.996c0-17.337-14.087-31.424-31.424-31.424-16.977 0-31.063 13.725-31.425 30.34v96.080h-64.293c-81.631 0-127.865-54.903-127.865-107.638v-84.16h895.414v84.16zM746.96 131.048c-23.839 0-42.983 14.448-43.344 32.146 0 17.699 19.505 32.147 43.344 32.147h41.177c23.839 0 43.344-14.447 43.344-32.147 0-17.698-19.505-32.146-43.344-32.146h-41.177zM746.96 322.844c-23.839 0-42.983 14.448-43.344 32.147 0 17.699 19.505 32.147 43.344 32.147h41.177c23.839 0 43.344-14.448 43.344-32.147s-19.505-32.147-43.344-32.147h-41.177zM491.231 322.844c-23.839 0-43.344 14.448-43.344 32.147s19.504 32.147 43.344 32.147h41.538c23.839 0 43.344-14.448 43.344-32.147s-19.504-32.147-43.344-32.147h-41.538zM235.502 322.844c-24.2 0-43.344 14.448-43.344 32.147s19.504 32.147 43.344 32.147h41.177c23.839 0 43.344-14.448 43.344-32.147s-19.505-32.147-43.344-32.147h-41.177zM491.231 131.048c-23.839 0-43.344 14.448-43.344 32.146s19.504 32.147 43.344 32.147h41.538c23.839 0 43.344-14.447 43.344-32.147 0-17.698-19.504-32.146-43.344-32.146h-41.538zM235.502 131.048c-24.2 0-43.344 14.448-43.344 32.146s19.504 32.147 43.344 32.147h41.177c23.839 0 43.344-14.447 43.344-32.147 0-17.698-19.505-32.146-43.344-32.146h-41.177z" />
<glyph unicode="&#xe93f;" glyph-name="contact-tim" horiz-adv-x="1097" d="M307.2 960c-129.266 0-234.057-104.791-234.057-234.057v-525.848c0-129.266 104.791-234.057 234.057-234.057h487.131c129.266 0 234.057 104.791 234.057 234.057v525.848c0 129.266-104.791 234.057-234.057 234.057h-487.131zM557.045 467.914l-2.739 1.99 1.546 4.757 2.001-6.159-0.808-0.587zM554.891 397.348l77.248-106.323c5.699-7.843 16.676-9.582 24.52-3.884v0l41.149 29.897c7.843 5.699 9.582 16.676 3.884 24.52l-82.328 113.315 126.449 41.086c9.22 2.996 14.266 12.899 11.271 22.12l-15.718 48.374c-2.996 9.22-12.899 14.266-22.12 11.271l-119.354-38.78v134.532c0 9.695-7.859 17.554-17.554 17.554h-50.864c-9.695 0-17.554-7.859-17.554-17.554v-136.728l-121.908 39.61c-9.22 2.996-19.124-2.050-22.12-11.271l-15.718-48.374c-2.996-9.22 2.050-19.124 11.271-22.12l124.452-40.437-80.319-110.549c-5.699-7.843-3.96-18.821 3.884-24.52l41.149-29.897c7.843-5.699 18.821-3.96 24.52 3.884l75.76 104.275zM425.108 793.429h262.236c88.871 0 160.914-72.044 160.914-160.914v-300.625c0-84.422-68.438-152.86-152.86-152.86-0.87-2.503-1.318-5.066-1.345-7.689-0.633-63.676-0.7-105.176 0-127.532-9.242-39.385-85.433 66.201-172.107 128.872-4.554 3.293-9.522 5.409-14.904 6.349h-81.934c-88.871 0-160.914 72.044-160.914 160.914v292.571c0 88.871 72.044 160.914 160.914 160.914v0z" />
<glyph unicode="&#xe940;" glyph-name="edit-it" d="M73.143 9.099h877.714v-73.099h-877.714v73.099zM135.436 151.29h10.382l228.406 71.095c5.191 0 10.382 5.078 15.573 10.156l519.106 507.824c5.191 5.078 10.382 15.235 10.382 25.391s-5.191 20.313-10.382 25.391l-160.923 157.426c-15.573 15.235-36.337 15.235-51.911 0l-519.106-507.824c-5.191-5.078-5.191-10.156-10.382-15.235l-72.675-223.443c-5.191-15.235 0-25.391 10.382-35.548s20.764-15.235 31.146-15.235zM243.512 402.624l475.607 465.271 107.395-105.061-475.607-465.271-153.422-45.026 46.026 150.087z" />
<glyph unicode="&#xe941;" glyph-name="hot" d="M578.537 960v0 0c-115.2-44.8-320-140.8-377.6-364.8-70.4-288 300.8-428.8 217.6-659.2v0 0c115.2 44.8 320 140.8 377.6 364.8 76.8 288-294.4 422.4-217.6 659.2v0z" />
<glyph unicode="&#xe942;" glyph-name="hotter" d="M929.646 375.032c-6.425 295.698-340.542 385.693-346.967 584.968-160.633-51.426-263.438-244.273-237.737-475.689v0c0-12.856 0-25.713 6.425-38.569 0-19.285 0-32.141-19.276-38.569-57.828-25.713-83.529 44.998-96.38 89.995-6.425 25.713-12.851 89.995-6.425 134.993 0 6.428-12.851 12.856-19.276 6.428-44.977-51.426-102.805-134.993-115.656-263.557v-25.713c0 0 0 0 0-6.428v0c0-38.569 6.425-77.139 19.276-109.28 51.403-186.419 231.311-314.983 436.922-295.698 199.185 19.285 353.393 179.99 379.094 379.265v57.854z" />
<glyph unicode="&#xe943;" glyph-name="hottest" d="M857.6 857.6c-115.2-38.4-160-115.2-166.4-192v0c0 0 0-19.2-6.4-32-12.8-6.4-19.2 0-38.4 12.8-38.4 64-64 153.6-64 313.6-256-102.4-307.2-288-307.2-403.2v0c0-38.4-32-32-38.4-32-25.6 19.2-38.4 44.8-38.4 44.8v6.4c-12.8 70.4 0 128 0 128-96-51.2-140.8-185.6-140.8-294.4 0-262.4 204.8-473.6 454.4-473.6s454.4 185.6 454.4 448c0 166.4-108.8 262.4-108.8 473.6v0z" />
<glyph unicode="&#xe944;" glyph-name="said-good" d="M610.874 960c-54.998 0-102.908-37.739-113.052-91.213 0 0-16.377-83.715-24.933-113.832-14.055-49.663-63.309-104.49-98.874-122.069-26.888-13.399-126.74-13.522-132.973-13.522h-135.784c-37.399 0-67.831-30.486-67.831-68.226v-545.806c0-37.616 30.31-68.226 67.831-68.226h626.124c100.708 0 186.26 74.126 201.171 174.314l52.432 351.332c12.344 82.485-51.209 156.612-134.196 156.612h-154.362c0 0 22.855 76.339 34.588 205.292 5.866 65.275-40.21 127.6-107.674 134.607-4.155 0.492-8.311 0.738-12.466 0.738v0zM204.799 78.758v399.36h109.714v-399.36h-109.714z" />
<glyph unicode="&#xe945;" glyph-name="share-to" d="M872.594 390.675v-335.852c0-7.063-9.864-16.424-16.943-16.424h-765.83c-3.4 0-9.811 1.884-12.215 4.282s-4.463 8.75-4.463 12.142v759.828c0 7.069 9.639 16.616 16.678 16.616h464.485c21.264 0 38.501 13.37 38.501 34.585s-17.238 38.412-38.501 38.412h-464.485c-49.575-0.077-89.744-40.153-89.821-89.613v-759.782c0.077-49.46 40.246-89.536 89.821-89.613h765.783c49.575 0.077 89.744 40.153 89.821 89.613v335.852c0 21.189-17.217 38.366-38.455 38.366-19.068 0-34.376-17.198-34.376-38.412zM1011.846 726.713l-194.93 192.061c-9.675 10.169-24.135 14.271-37.726 10.702s-24.152-14.243-27.555-27.847c-3.403-13.604 0.894-27.977 11.211-37.498l129.487-127.56c-452.040-18.044-552.348-436.068-553.374-440.532-3.262-13.467 0.998-27.642 11.147-37.098s24.616-12.726 37.859-8.558c13.243 4.168 23.211 15.127 26.085 28.682 3.589 15.811 87.304 364.451 479.681 380.821l-138.903-145.185c-9.5-9.927-12.971-24.157-9.104-37.329s14.483-23.285 27.85-26.531c13.367-3.245 27.454 0.871 36.955 10.798l202.155 211.267c14.462 15.167 14.089 39.094-0.839 53.805v0z" />
<glyph unicode="&#xe946;" glyph-name="store" d="M1024 626.282c0 0 0-85.39 0-117.928 0-39.508-8.532-65.592-30.97-90.066v-326.855c0-65.647-61.218-118.862-134.189-118.862h-693.679c-72.973 0-132.131 53.211-132.131 118.86l-0.967 326.856c-19.816 22.906-32.065 57.475-32.065 89.138 0 16.933 0.238 46.506 0.801 59.424l-0.801 59.436 186.183 297.142h651.635l186.183-297.146zM96.192 91.43c0-32.816 32.481-59.43 68.968-59.43h693.679c36.485 0 71.031 26.614 71.031 59.43v59.426h-833.678v-59.426zM96.192 210.286h833.678v180.688c-8.195-1.405-25.219-2.408-34.601-2.408-60.655 0-114.492 31.912-143.555 76.502-24.848-44.18-73.939-76.502-121.362-76.502-47.807 0-100.409 27.877-118.353 65.839-17.944-38.892-71.664-65.839-120.473-65.839-46.175 0-94.574 29.687-120.479 72.029-23.068-43.553-77.626-72.029-112.032-72.029-16.85 0-47.795-1.717-62.824 3.221v-181.502zM62.126 507.428c0-41.025 49.704-60.36 97.89-60.36 47.467 0 96.952 30.479 96.952 60.36h30.329c0-38.329 56.381-59.426 105.763-59.426 47.377 0 103.424 29.455 103.424 59.426h31.031c0-29.047 55.107-59.426 102.484-59.426 49.38 0 106.765 29.455 106.765 59.426h30.267c0-30.486 76.321-59.483 127.821-59.508 44.633-0.021 66.63 18.477 67.084 59.508h0.004v59.422h-899.88l0.066-59.422zM962.997 626.284l-1.061 0.002-152.423 237.707h-594.918l-149.239-237.707 897.641-0.002z" />
<glyph unicode="&#xe947;" glyph-name="to-say-good" d="M610.874 960c-54.998 0-102.908-37.739-113.052-91.213 0 0-16.377-83.715-24.933-113.832-14.055-49.663-63.309-104.49-98.874-122.069-26.888-13.399-126.74-13.522-132.973-13.522h-135.784c-37.399 0-67.831-30.486-67.831-68.226v-545.806c0-37.616 30.31-68.226 67.831-68.226h626.124c100.708 0 186.26 74.126 201.171 174.314l52.432 351.332c12.344 82.485-51.209 156.612-134.196 156.612h-154.362c0 0 22.855 76.339 34.588 205.292 5.866 65.275-40.21 127.6-107.674 134.607-4.155 0.492-8.311 0.738-12.466 0.738v0zM308.629 5.455v547.772c44.487 2.95 76.509 9.22 95.452 18.685 49.987 24.832 113.785 93.18 133.951 164.479 9.044 31.839 24.444 110.513 26.277 119.733 3.911 20.652 23.466 35.772 46.443 35.772 1.833 0 3.667-0.123 5.5-0.246 32.266-3.319 49.498-34.051 47.176-60.604-10.755-119.364-31.777-191.278-32.021-191.77l-26.399-87.894h245.781c20.044 0 38.376-8.482 51.454-23.725s18.699-34.666 15.644-54.703l-52.309-351.332c-10.022-67.365-66.487-116.168-134.196-116.168h-422.753zM105.258 5.455v545.806h135.54v-545.806h-135.54z" />
<glyph unicode="&#xe948;" glyph-name="info-connection" d="M512-64c-282.77 0-512 229.23-512 512s229.23 512 512 512c282.77 0 512-229.23 512-512s-229.23-512-512-512zM661.061 729.541h-292.22c-33.99 0-61.52-27.143-61.52-60.588v-454.41c0-33.475 27.53-60.588 61.52-60.588h292.22c33.99 0 61.52 27.113 61.52 60.588v454.41c0 33.445-27.53 60.588-61.52 60.588zM568.781 184.249h-107.66v30.294h107.66v-30.294zM691.821 275.131c0-16.722-13.781-30.294-30.76-30.294h-292.22c-16.98 0-30.76 13.572-30.76 30.294v393.822c0 16.722 13.781 30.294 30.76 30.294h292.22c16.98 0 30.76-13.572 30.76-30.294v-393.822zM502.111 558.466c-4.030-7.477-1.074-16.605 6.597-20.383 7.717-3.778 17.192-0.77 21.234 6.701l10.479 19.406c7.717 14.256 23.824 14.497 36.416 8.448 6.701-3.254 11.61-8.814 13.927-15.678 2.227-6.857 1.564-14.21-1.94-20.703l-33.026-61.115c-15.092-27.932-28.642-21.401-34.419-18.596-7.751 3.733-17.192 0.692-21.198-6.819-4.007-7.515-0.948-16.605 6.723-20.349 13.265-6.414 26.336-7.515 38.425-3.654 14.806 4.71 28.083 16.853 38.254 35.735l32.98 61.11c7.431 13.728 8.87 29.36 4.086 43.937-4.783 14.581-15.251 26.398-29.429 33.256-30.674 14.818-63.791 5.644-78.631-21.89l-10.479-19.405zM448.183 334.523c14.601-7.061 30.971-7.678 45.571-3.047 14.589 4.677 27.489 14.627 35.114 28.759l8.413 15.588c4.053 7.471 1.085 16.611-6.597 20.383-7.66 3.777-17.181 0.77-21.188-6.707l-8.413-15.549c-7.294-13.48-24.566-19-38.471-12.261-6.712 3.21-11.621 8.775-13.881 15.633-2.237 6.858-1.576 14.211 1.94 20.67l30.96 57.298c6.427 11.855 19.657 30.53 36.485 22.446 7.74-3.732 17.192-0.686 21.187 6.825 3.961 7.515 0.913 16.611-6.792 20.344-28.573 13.805-59.51-0.282-78.71-35.898l-30.959-57.287c-7.42-13.767-8.87-29.36-4.086-43.937 4.771-14.615 15.25-26.392 29.429-33.261z" />
<glyph unicode="&#xe949;" glyph-name="mobile" d="M512 960c282.77 0 512-229.23 512-512s-229.23-512-512-512c-282.77 0-512 229.23-512 512s229.23 512 512 512zM652.499 735.941h-287.793c-33.475 0-60.588-27.143-60.588-60.588v-454.41c0-33.475 27.113-60.588 60.588-60.588h287.793c33.475 0 60.588 27.113 60.588 60.588v454.41c0 33.445-27.113 60.588-60.588 60.588zM561.617 190.649h-106.029v30.294h106.029v-30.294zM682.793 281.531c0-16.722-13.572-30.294-30.294-30.294h-287.793c-16.722 0-30.294 13.572-30.294 30.294v393.822c0 16.722 13.572 30.294 30.294 30.294h287.793c16.722 0 30.294-13.572 30.294-30.294v-393.822z" />
<glyph unicode="&#xe94a;" glyph-name="share-it" d="M512 960c282.77 0 512-229.23 512-512s-229.23-512-512-512c-282.77 0-512 229.23-512 512s229.23 512 512 512zM705.76 348.090c-36.288 0-66.32-20.021-82.587-50.053l-226.49 131.389c1.251 6.257 2.503 12.513 2.503 18.77 0 10.011-2.503 20.021-5.005 30.032l213.976 123.881c15.016-17.519 36.288-27.529 61.315-27.529 45.048 0 81.336 36.288 81.336 81.336s-37.54 80.085-82.587 80.085c-45.048 0-81.336-36.288-81.336-81.336 0-11.262 2.503-22.524 6.257-32.534l-211.474-122.63c-16.267 22.524-41.294 36.288-70.074 36.288-48.802 0-87.593-38.791-87.593-87.593s38.791-87.593 87.593-87.593c32.534 0 61.315 18.77 76.331 45.048l226.49-131.389c-1.251-6.257-2.503-13.765-2.503-20.021 0-51.304 42.545-93.849 93.849-93.849s93.849 42.545 93.849 93.849c0 51.304-42.545 93.849-93.849 93.849zM668.22 710.974c31.283 0 56.31-25.026 56.31-56.31s-25.026-56.31-56.31-56.31c-31.283 0-56.31 25.026-56.31 56.31s25.026 56.31 56.31 56.31zM311.593 385.629c-35.037 0-62.566 27.529-62.566 62.566s27.529 62.566 62.566 62.566c35.037 0 62.566-27.529 62.566-62.566s-27.529-62.566-62.566-62.566zM705.76 185.418c-37.54 0-68.823 31.283-68.823 68.823s31.283 68.823 68.823 68.823c37.54 0 68.823-31.283 68.823-68.823s-31.283-68.823-68.823-68.823z" />
<glyph unicode="&#xe94b;" glyph-name="book" d="M512 960c282.77 0 512-229.23 512-512s-229.23-512-512-512c-282.77 0-512 229.23-512 512s229.23 512 512 512zM750.042 160.087c15.144 0 27.42 12.276 27.42 27.421v520.985c0 15.144-12.276 27.42-27.42 27.42h-411.304c-15.144 0-27.42-12.276-27.42-27.42v-95.971h-54.841v-109.681h54.841v-109.681h-54.841v-109.681h54.841v-95.972c0-15.144 12.276-27.42 27.42-27.42h411.304zM750.042 681.073v-466.145c0-15.144-12.276-27.42-27.42-27.42h-356.464c-15.144 0-27.42 12.276-27.42 27.42v466.145c0 15.144 12.276 27.42 27.42 27.42h356.464c15.144 0 27.42-12.276 27.42-27.42zM393.579 324.609v-27.42h301.623v27.42h-301.623zM393.579 461.71v-27.42h301.623v27.42h-301.623zM393.579 598.812v-27.42h191.941v27.42h-191.941z" />
<glyph unicode="&#xe94c;" glyph-name="log-record" d="M846.769 885.169h-669.538c-15.754 0-31.508-15.754-31.508-31.508v-815.262c0-15.754 11.815-31.508 31.508-31.508h669.538c15.754 0 31.508 15.754 31.508 31.508v815.262c0 19.692-15.754 31.508-31.508 31.508zM803.446 109.292c0-15.754-11.815-27.569-23.631-27.569h-535.631c-11.815 0-23.631 11.815-23.631 27.569v677.415c0 15.754 11.815 27.569 23.631 27.569h535.631c11.815 0 23.631-11.815 23.631-27.569v-677.415zM527.754 664.615h-189.046c-19.692 0-31.508-15.754-31.508-35.446s15.754-35.446 31.508-35.446h189.046c19.692 0 31.508 15.754 31.508 35.446s-15.754 35.446-31.508 35.446zM728.615 483.446h-389.908c-19.692 0-31.508-15.754-31.508-35.446s15.754-35.446 31.508-35.446h389.908c19.692 0 31.508 15.754 31.508 35.446 3.938 19.692-11.815 35.446-31.508 35.446zM645.908 306.215h-311.138c-19.692 0-31.508-15.754-31.508-35.446s15.754-35.446 31.508-35.446h311.138c19.692 0 31.508 15.754 31.508 35.446 3.938 19.692-11.815 35.446-31.508 35.446z" />
<glyph unicode="&#xe94d;" horiz-adv-x="1536" d="M0 960h1536v-1024h-1536v1024z" />
<glyph unicode="&#xe94e;" glyph-name="edge" horiz-adv-x="1536" d="M128 960h1280c70.692 0 128-57.308 128-128v-768c0-70.692-57.308-128-128-128h-1280c-70.692 0-128 57.308-128 128v768c0 70.692 57.308 128 128 128z" />
<glyph unicode="&#xe94f;" horiz-adv-x="1536" d="M0 480h384v-64h-384v64zM576 480h384v-64h-384v64zM1152 480h384v-64h-384v64z" />
<glyph unicode="&#xe950;" glyph-name="entitlement" d="M905.358 495.883c-112.558 112.558-289.575 121.117-411.992 25.892l-399.967 400.075c-15.275 15.275-39.975 15.275-55.142 0-15.275-15.275-15.275-39.975 0-55.142l400.075-400.075c-95.225-122.417-86.667-299.433 25.892-411.992 121.875-121.875 319.367-121.875 441.242 0s121.767 319.367-0.108 441.242zM850.217 109.783c-91.433-91.433-239.525-91.433-330.958 0s-91.433 239.525 0 330.958c91.433 91.433 239.525 91.433 330.958 0s91.325-239.525 0-330.958zM338.45 678.208l82.767 82.767c15.275 15.275 15.275 39.975 0 55.142-15.275 15.275-39.975 15.275-55.142 0l-82.767-82.767 55.142-55.142zM317 865.083c15.275 15.275 15.275 39.975 0 55.142-15.167 15.275-39.867 15.275-55.142 0l-82.767-82.767 55.142-55.142 82.767 82.767z" />
<glyph unicode="&#xe951;" glyph-name="rectangle-warning" d="M512 270.507c-27.733 0-49.92-22.187-49.92-49.92s22.187-49.92 49.92-49.92c27.733 0 49.92 22.187 49.92 49.92s-22.187 49.92-49.92 49.92zM977.92 93.013c33.28 55.467 33.28 116.48 0 171.947l-310.613 543.573c-33.28 55.467-88.747 88.747-149.76 88.747s-116.48-33.28-149.76-88.747l-316.16-543.573c-33.28-55.467-33.28-122.027 0-171.947 33.28-55.467 88.747-83.2 149.76-83.2h626.773c61.013-5.547 116.48 27.733 149.76 83.2zM905.813 131.84c-16.64-27.733-49.92-49.92-83.2-49.92h-626.773c-33.28 0-66.56 16.64-83.2 44.373s-16.64 66.56 0 94.293l316.16 543.573c16.64 27.733 49.92 49.92 83.2 49.92s66.56-16.64 83.2-49.92l310.613-543.573c22.187-22.187 22.187-61.013 0-88.747zM500.907 619.947c-22.187-5.547-38.827-27.733-38.827-55.467 0-16.64 0-33.28 5.547-49.92 5.547-61.013 5.547-116.48 11.093-177.493 0-22.187 16.64-33.28 38.827-33.28s38.827 16.64 38.827 38.827v38.827c0 38.827 5.547 77.653 5.547 116.48 0 27.733 5.547 49.92 5.547 77.653 0 11.093 0 16.64-5.547 27.733-11.093 11.093-38.827 22.187-61.013 16.64z" />
<glyph unicode="&#xe952;" glyph-name="locker" d="M864 576h-32v64c0 176.686-143.314 320-320 320s-320-143.314-320-320v-64h-32c-35.314 0-64-28.686-64-64v-512c0-35.314 28.686-64 64-64h704c35.314 0 64 28.686 64 64v512c0 35.314-28.686 64-64 64zM256 640c0 141.143 114.857 256 256 256s256-114.857 256-256v-64h-512v64zM864 0h-704v512h704v-512zM512 384c-17.714 0-32-14.286-32-32v-192c0-17.714 14.286-32 32-32s32 14.286 32 32v192c0 17.714-14.286 32-32 32z" />
<glyph unicode="&#xe953;" glyph-name="circle-money" d="M513.535-17.826c-27.478 0-54.98 2.502-82.307 7.506-14.204 2.601-23.605 16.189-20.995 30.351 2.609 14.161 16.239 23.532 30.444 20.931 46.604-8.534 93.778-8.851 140.219-0.942 47.877 8.154 93.637 24.863 136.009 49.658 0.065 0.037 0.129 0.075 0.195 0.112 48.847 28.024 90.676 64.71 124.321 109.038 32.475 42.785 56.012 90.858 69.96 142.885 13.897 51.842 17.564 104.97 10.9 157.908-6.896 54.758-24.607 106.916-52.642 155.028-26.488 45.272-58.522 82.751-97.91 114.539-11.225 9.060-12.958 25.475-3.87 36.666 9.088 11.189 25.552 12.92 36.778 3.86 44.394-35.83 80.441-77.972 110.2-128.833 31.606-54.236 51.56-113.022 59.335-174.764 7.511-59.647 3.384-119.49-12.266-177.863-15.702-58.569-42.207-112.699-78.78-160.885-37.876-49.901-84.92-91.182-139.834-122.706-47.82-27.968-99.493-46.82-153.588-56.034-25.255-4.303-50.7-6.453-76.169-6.453zM207.797 104.971c-6.391 0-12.795 2.322-17.837 7.012-34.353 31.965-60.883 66.054-81.091 104.197-31.425 54.068-51.286 112.688-59.039 174.253-7.511 59.647-3.384 119.489 12.265 177.863 15.701 58.57 42.207 112.699 78.78 160.885 37.898 49.933 84.982 91.238 139.939 122.769 77.105 44.501 165.823 65.717 256.474 61.303 14.426-0.701 25.549-12.928 24.846-27.308-0.705-14.382-12.978-25.47-27.392-24.769-80.58 3.917-159.35-14.886-227.782-54.383-48.907-28.058-90.735-64.744-124.379-109.072-32.476-42.785-56.012-90.859-69.96-142.886-13.898-51.841-17.564-104.969-10.899-157.907 6.895-54.758 24.607-106.915 52.641-155.025 0.183-0.315 0.359-0.632 0.53-0.954 17.465-33.082 40.608-62.8 70.752-90.846 10.558-9.825 11.129-26.321 1.274-36.847-5.149-5.501-12.128-8.283-19.123-8.283zM513.535-23.040c-27.731 0-55.742 2.554-83.252 7.592-8.243 1.509-15.405 6.129-20.164 13.009-4.758 6.879-6.546 15.194-5.031 23.413s6.148 15.357 13.049 20.101c6.9 4.745 15.24 6.526 23.484 5.017 45.996-8.424 92.559-8.736 138.393-0.93 47.249 8.047 92.415 24.538 134.243 49.015l0.279 0.159c48.194 27.651 89.495 63.874 122.713 107.638 32.065 42.245 55.306 89.713 69.077 141.086 13.722 51.189 17.343 103.644 10.763 155.913-6.807 54.061-24.294 105.557-51.974 153.057-26.165 44.721-57.792 81.721-96.678 113.105-13.449 10.855-15.532 30.593-4.645 43.999s30.686 15.483 44.134 4.632c44.897-36.235 81.344-78.842 111.428-130.259 31.956-54.838 52.144-114.3 60.006-176.742 7.594-60.32 3.422-120.834-12.402-179.859-15.878-59.225-42.68-113.959-79.663-162.684-38.299-50.46-85.872-92.205-141.394-124.078-48.332-28.266-100.6-47.335-155.318-56.655-25.429-4.332-51.353-6.529-77.048-6.529zM435.909 36.183c-4.201 0-8.299-1.264-11.833-3.692-4.6-3.163-7.689-7.923-8.698-13.402-1.010-5.478 0.181-11.022 3.354-15.607 3.173-4.587 7.946-7.666 13.442-8.673 26.888-4.924 54.262-7.421 81.361-7.421 25.107 0 50.437 2.146 75.287 6.379 53.468 9.107 104.549 27.744 151.822 55.391 54.339 31.194 100.86 72.016 138.309 121.354 36.163 47.645 62.372 101.169 77.9 159.086 15.473 57.718 19.553 116.89 12.128 175.868-7.686 61.046-27.425 119.182-58.668 172.794-29.429 50.298-65.074 91.974-108.97 127.399-8.961 7.235-22.162 5.85-29.423-3.088-7.257-8.937-5.869-22.095 3.097-29.333 39.889-32.193 72.317-70.125 99.138-115.964 28.395-48.726 46.329-101.547 53.313-157.005 6.75-53.609 3.037-107.408-11.036-159.904-14.123-52.682-37.957-101.362-70.841-144.685-34.069-44.886-76.422-82.034-125.882-110.411l-0.125-0.071c-42.953-25.134-89.308-42.058-137.807-50.318-47.048-8.010-94.839-7.691-142.044 0.952-1.277 0.233-2.557 0.349-3.826 0.349zM207.797 99.757c-7.971 0-15.574 2.988-21.406 8.415-34.764 32.346-61.62 66.853-82.1 105.483-31.746 54.646-51.816 113.905-59.651 176.129-7.595 60.317-3.422 120.831 12.401 179.86 15.875 59.221 42.677 113.956 79.663 162.684 38.325 50.494 85.933 92.261 141.501 124.141 77.996 45.016 167.669 66.456 259.339 61.993 17.282-0.839 30.656-15.54 29.814-32.77-0.82-16.713-14.721-29.759-31.325-29.76-0.514 0-1.029 0.013-1.548 0.037-79.574 3.871-157.352-14.696-224.905-53.688-48.288-27.703-89.609-63.939-122.829-107.705-32.065-42.243-55.306-89.711-69.077-141.086-13.723-51.186-17.344-103.642-10.762-155.911 6.806-54.058 24.292-105.552 51.974-153.056 0.223-0.383 0.434-0.762 0.636-1.149 17.186-32.553 39.982-61.818 69.69-89.46 6.127-5.701 9.661-13.441 9.95-21.792s-2.702-16.315-8.421-22.423c-5.912-6.32-14.276-9.942-22.946-9.942zM513.816 908.61c-81.519 0-160.714-20.965-230.382-61.174-54.358-31.186-100.915-72.029-138.388-121.402-36.165-47.649-62.374-101.171-77.899-159.085-15.473-57.721-19.554-116.892-12.128-175.868 7.664-60.866 27.303-118.831 58.375-172.289l0.099-0.179c19.932-37.622 46.112-71.255 80.035-102.82 3.889-3.617 8.956-5.61 14.27-5.61 5.865 0 11.299 2.354 15.298 6.625 3.814 4.074 5.807 9.382 5.614 14.951-0.193 5.567-2.548 10.727-6.633 14.528-30.58 28.453-54.069 58.622-71.812 92.23-0.138 0.261-0.279 0.517-0.427 0.77-28.387 48.714-46.324 101.535-53.305 156.989-6.751 53.611-3.038 107.411 11.035 159.904 14.124 52.683 37.958 101.363 70.843 144.686 34.070 44.887 76.443 82.047 125.94 110.444 69.289 39.992 149.056 59.040 230.644 55.072 11.506-0.563 21.352 8.328 21.915 19.815s-8.355 21.287-19.876 21.846c-7.753 0.378-15.501 0.566-23.218 0.566zM487.985 538.056l-90.059 95.769c-12.008 11.971-10.006 31.922 2.002 43.893s32.021 9.976 44.028-1.995l90.059-95.768c12.008-11.971 10.006-31.922-2.002-43.893-14.010-9.976-32.020-9.976-44.028 1.994zM510.392 523.641c-9.652 0-18.96 3.606-26.105 10.729l-0.118 0.121-90.003 95.71c-13.56 13.591-12.643 36.542 2.062 51.205 13.627 13.585 36.695 12.69 51.424-1.994l0.117-0.121 90.004-95.71c13.56-13.591 12.642-36.542-2.063-51.205l-0.306-0.305-0.352-0.251c-7.685-5.473-16.301-8.179-24.661-8.179zM491.74 541.687c9.705-9.62 24.466-10.258 36.876-1.634 10.185 10.458 10.994 26.949 1.701 36.215l-0.118 0.121-89.999 95.705c-10.474 10.383-27.205 11.278-36.574 1.938-10.47-10.439-11.387-27.162-2.002-36.52l0.118-0.121 89.998-95.704zM491.988 579.956l96.062 89.783c12.008 11.971 32.020 9.976 44.028-1.995 10.006-11.971 10.006-29.928-2.001-41.899l-96.063-89.783c-12.008-11.971-32.021-11.971-44.028 0s-10.006 31.924 2.002 43.894zM512 521.869c-9.786 0-18.917 3.731-25.712 10.506-6.769 6.749-10.153 15.968-9.527 25.958 0.587 9.366 4.788 18.59 11.529 25.309l0.121 0.116 96.004 89.729c13.634 13.52 36.655 12.605 51.362-2.056l0.321-0.35c12.113-14.494 11.115-35.526-2.32-48.923l-0.122-0.117-96.003-89.728c-6.791-6.736-15.897-10.444-25.653-10.444zM495.628 576.211c-4.928-4.941-8-11.69-8.428-18.528-0.436-6.962 1.867-13.331 6.484-17.935 4.819-4.806 11.325-7.452 18.315-7.452 6.992 0 13.497 2.646 18.318 7.452l0.121 0.116 95.998 89.724c9.476 9.506 10.226 24.339 1.776 34.635-10.483 10.28-27.127 11.135-36.463 1.828l-0.121-0.116-96-89.724zM780.173 833.343l136.088-25.938c16.010-3.991 28.018-19.952 24.015-35.913v-1.995c-4.003-15.961-20.013-27.932-36.023-23.942l-136.089 25.938c-16.010 3.991-28.018 19.952-24.015 35.913v1.994c4.003 15.961 20.013 27.933 36.023 23.943zM910.574 741.649c-2.341 0-4.682 0.282-6.993 0.85l-136.176 25.959c-8.537 2.128-16.312 7.494-21.332 14.722-5.241 7.548-7.031 16.268-5.060 24.601v2.006l0.094 0.373c4.617 18.41 22.806 30.405 39.74 26.24l136.175-25.959c8.538-2.129 16.312-7.494 21.332-14.723 5.241-7.548 7.031-16.267 5.060-24.599v-2.006l-0.094-0.373c-2.134-8.51-7.517-16.262-14.767-21.267-5.564-3.84-11.765-5.822-17.979-5.823zM768.843 774.549l136.172-25.958c6.698-1.67 13.787-0.238 19.967 4.026 5.912 4.080 10.326 10.361 12.157 17.276v1.985l0.094 0.373c1.674 6.675 0.24 13.745-4.038 19.906-4.148 5.973-10.563 10.414-17.61 12.192l-136.172 25.958c-13.555 3.379-28.182-6.357-32.125-21.301v-1.986l-0.094-0.373c-1.674-6.676-0.24-13.745 4.040-19.906 4.149-5.973 10.563-10.413 17.611-12.192zM97.732 174.935l136.088-25.938c16.010-3.991 28.018-19.952 24.015-35.913v-1.995c-4.003-15.961-20.013-27.932-36.023-23.942l-136.087 25.937c-16.010 3.991-28.018 19.952-24.015 35.913v1.994c1.999 15.963 20.012 27.935 36.022 23.944zM227.995 83.263c-2.286 0-4.581 0.268-6.857 0.826l-136.175 25.959c-18.357 4.575-30.358 22.519-26.392 39.322l0.023 2.009c1.047 8.353 6.060 16.158 13.755 21.415 7.941 5.425 17.432 7.317 26.054 5.197l136.176-25.96c8.537-2.128 16.312-7.494 21.332-14.723 5.241-7.548 7.031-16.267 5.060-24.601v-2.005l-0.093-0.373c-3.996-15.936-18.163-27.067-32.883-27.068zM86.403 116.141l136.169-25.958c13.558-3.379 28.181 6.357 32.124 21.302v1.985l0.093 0.373c1.675 6.675 0.241 13.745-4.038 19.906-4.148 5.973-10.563 10.414-17.611 12.193l-136.171 25.959c-6.904 1.721-14.585 0.166-21.072-4.266-6.155-4.206-10.175-10.336-11.051-16.844v-2.178l-0.093-0.373c-3.409-13.599 6.5-28.279 21.65-32.099zM660.097 472.216h-294.191c-16.010 0-28.018 11.971-28.018 27.932v5.986c0 15.961 12.008 27.932 28.018 27.932h294.191c16.010 0 28.018-11.971 28.018-27.932v-5.986c-0.001-15.961-12.008-27.932-28.018-27.932zM660.097 467.002h-294.192c-18.954 0-33.248 14.25-33.248 33.146v5.985c0 18.897 14.294 33.146 33.248 33.146h294.192c18.955 0 33.248-14.25 33.248-33.146v-5.985c-0.001-18.896-14.294-33.146-33.248-33.146zM365.905 528.853c-13.204 0-22.788-9.555-22.788-22.718v-5.985c0-13.164 9.584-22.718 22.788-22.718h294.192c13.204 0 22.787 9.555 22.788 22.719v5.985c0 13.164-9.584 22.718-22.788 22.718l-294.192-0.001zM483.983 256.738v221.465c0 15.961 12.008 27.932 28.018 27.932h6.004c16.010 0 28.018-11.971 28.018-27.932v-223.46c0-15.961-12.008-27.932-28.018-27.932h-8.005c-14.009 1.995-26.016 13.966-26.016 29.928zM518.004 221.595l-8.744 0.052c-17.392 2.479-30.507 17.564-30.507 35.091v221.463c0 18.897 14.294 33.146 33.248 33.146h6.004c18.955 0 33.248-14.25 33.248-33.146v-223.46c0-18.897-14.293-33.146-33.248-33.146zM510.39 232.023h7.615c13.205 0 22.788 9.555 22.788 22.718v223.46c0 13.164-9.584 22.718-22.788 22.718h-6.004c-13.205 0-22.788-9.555-22.788-22.718v-221.465c0-12.252 9.079-22.814 21.177-24.714zM660.097 332.553h-294.191c-16.010 0-28.018 11.971-28.018 27.932v5.986c0 15.961 12.008 27.932 28.018 27.932h294.191c16.010 0 28.018-11.971 28.018-27.932v-5.986c-0.001-15.961-12.008-27.932-28.018-27.932zM660.097 327.339h-294.192c-18.954 0-33.248 14.25-33.248 33.146v5.986c0 18.897 14.294 33.146 33.248 33.146h294.192c18.955 0 33.248-14.25 33.248-33.146v-5.986c-0.001-18.896-14.294-33.146-33.248-33.146zM365.905 389.191c-13.204 0-22.788-9.555-22.788-22.718v-5.986c0-13.165 9.584-22.718 22.788-22.718h294.192c13.204 0 22.787 9.555 22.788 22.718v5.986c0 13.165-9.584 22.718-22.788 22.718h-294.192z" />
<glyph unicode="&#xe954;" glyph-name="notebook" d="M791.694 158.609h-104.611c-17.684 0-31.958-9.943-31.958-22.261s14.275-22.261 31.958-22.261h104.611c17.684 0 31.958 9.943 31.958 22.261s-14.275 22.261-31.958 22.261zM550.3 158.609h-362.516c-17.684 0-31.958-9.943-31.958-22.261s14.275-22.261 31.958-22.261h362.516c17.684 0 31.958 9.943 31.958 22.261s-14.275 22.261-31.958 22.261zM801.76-64h-624.042c-61.163 0-110.936 48.723-110.936 108.596v762.287c0 59.872 49.773 108.596 110.936 108.596h477.456c18.907 0 34.169-14.94 34.169-33.448s-15.262-33.448-34.169-33.448h-477.456c-23.463 0-42.597-18.731-42.597-41.699v-762.287c0-22.968 19.135-41.699 42.597-41.699h624.042c23.463 0 42.597 18.731 42.597 41.699v440.403c0 18.508 15.262 33.448 34.169 33.448s34.169-14.94 34.169-33.448v-440.514c0-59.761-49.773-108.484-110.936-108.484zM939.179 899.646l-42.316 42.316c-25.908 25.908-70.274 23.641-98.989-5.074l-385.699-385.807-78.262-214.385 214.385 78.154 385.807 385.807c13.062 13.062 21.158 29.902 22.777 47.497 1.943 19.539-4.642 38.322-17.704 51.491zM512.675 470.875l-70.274-25.584 25.584 70.274 285.739 285.739 44.151-45.014-285.199-285.415zM888.335 846.427l-44.583-44.583-44.151 45.014 44.151 44.151c3.346 3.346 6.693 4.21 8.204 4.21l40.589-40.589c-0.108-1.403-0.972-4.858-4.21-8.204z" />
<glyph unicode="&#xe955;" glyph-name="power" d="M521.008 373.966c24.133 0 43.697 19.566 43.697 43.698v498.53c0 24.134-19.565 43.698-43.697 43.698-24.134 0-43.698-19.565-43.698-43.698v-498.528c0-24.134 19.565-43.698 43.698-43.698v-0.002zM927.885 707.607c-52.214 79.195-125.416 141.59-211.69 180.438-22.008 9.911-47.878 0.103-57.786-21.903-9.909-22.007-0.103-47.878 21.903-57.787 147.071-66.223 242.102-213.198 242.102-374.437 0-226.302-184.111-410.414-410.414-410.414s-410.413 184.113-410.413 410.414c0 159.387 93.501 305.664 238.206 372.657 21.901 10.139 31.434 36.113 21.295 58.011-10.141 21.902-36.112 31.435-58.014 21.296-85.029-39.365-157.081-101.758-208.369-180.432-52.673-80.798-80.513-174.691-80.513-271.534 0-67.184 13.169-132.383 39.138-193.783 25.075-59.283 60.963-112.518 106.667-158.222 45.703-45.703 98.937-81.591 158.222-106.666 61.401-25.97 126.598-39.138 193.783-39.138s132.383 13.168 193.783 39.138c59.283 25.075 112.518 60.963 158.222 106.666s81.592 98.937 106.667 158.223c25.97 61.4 39.138 126.598 39.138 193.783-0.001 97.758-28.331 192.397-81.927 273.689z" />
<glyph unicode="&#xe956;" glyph-name="statistic-chart" d="M783.754 14.769c0 0-3.938 0-3.938 0h-555.323c-35.446 0-59.077 15.754-70.892 27.569-23.631 27.569-23.631 66.954-23.631 78.769v334.769h59.077v-338.708c0-7.877 0-23.631 7.877-35.446 0-3.938 7.877-7.877 23.631-7.877h559.262c3.938 0 19.692 0 31.508 11.815 7.877 7.877 11.815 19.692 11.815 35.446v334.769h59.077v-334.769c0-43.323-15.754-66.954-31.508-82.708-19.692-19.692-55.138-23.631-66.954-23.631zM161.477 432.246h-90.585c-11.815 0-23.631 7.877-27.569 19.692s0 23.631 7.877 31.508l441.108 389.908c11.815 11.815 27.569 11.815 39.385 0l441.108-385.969c7.877-7.877 11.815-19.692 7.877-31.508s-15.754-19.692-27.569-19.692l-98.462-3.938c0 0 0 0 0 0-15.754 0-27.569 11.815-31.508 27.569 0 15.754 11.815 31.508 27.569 31.508h19.692l-370.215 319.015-362.338-322.954h11.815c15.754 0 31.508-11.815 31.508-31.508 7.877-11.815-3.938-23.631-19.692-23.631zM409.6 46.277c-15.754 0-23.631 11.815-23.631 23.631v212.677c0 3.938 0 23.631 19.692 39.385 19.692 19.692 59.077 31.508 106.338 31.508s82.708-11.815 106.338-31.508c19.692-19.692 19.692-39.385 19.692-43.323v-208.738c0-15.754-11.815-23.631-23.631-23.631-15.754 0-23.631 11.815-23.631 23.631v208.738c0 0 0 3.938-7.877 11.815-7.877 3.938-23.631 15.754-66.954 15.754-47.262 0-66.954-11.815-70.892-15.754s-3.938-3.938-3.938-7.877c0 0 0 0 0 0v-208.738c-7.877-19.692-19.692-27.569-31.508-27.569z" />
<glyph unicode="&#xe957;" glyph-name="square-checked" d="M397.714 192c17.549 0 35.098 6.816 48.487 20.449l365.714 372.364c26.779 27.266 26.779 71.472 0 98.738s-70.196 27.266-96.975 0l-317.227-322.995-88.656 90.267c-26.779 27.266-70.196 27.266-96.975 0s-26.779-71.472 0-98.738l137.143-139.636c13.389-13.633 30.938-20.449 48.487-20.449zM0 832.38c0 70.483 57.249 127.62 127.62 127.62h768.76c70.483 0 127.62-57.249 127.62-127.62v-768.76c0-70.483-57.249-127.62-127.62-127.62h-768.76c-70.483 0-127.62 57.249-127.62 127.62v768.76z" />
<glyph unicode="&#xe958;" glyph-name="square-unchecked" d="M96 784.333v-672.665c0-43.94 35.706-79.667 79.667-79.667h672.665c43.94 0 79.667 35.706 79.667 79.667v672.665c0 43.94-35.706 79.667-79.667 79.667h-672.665c-43.94 0-79.667-35.706-79.667-79.667zM32 784.333c0 79.316 64.39 143.667 143.667 143.667h672.665c79.316 0 143.667-64.39 143.667-143.667v-672.665c0-79.316-64.39-143.667-143.667-143.667h-672.665c-79.316 0-143.667 64.39-143.667 143.667v672.665z" />
<glyph unicode="&#xe959;" d="M512-64c-282.77 0-512 229.23-512 512s229.23 512 512 512c282.77 0 512-229.23 512-512s-229.23-512-512-512z" />
<glyph unicode="&#xe95a;" glyph-name="nav-more" d="M512-64l-512 1024h1024z" />
<glyph unicode="&#xe95b;" d="M512 29.091c-231.357 0-418.909 187.552-418.909 418.909s187.552 418.909 418.909 418.909c231.357 0 418.909-187.552 418.909-418.909s-187.552-418.909-418.909-418.909zM711.68 634.182h-103.151l-88.415-275.343-88.415 275.343h-105.88l139.718-406.328h106.426l139.718 406.328z" />
<glyph unicode="&#xe95c;" d="M512-64c-282.77 0-512 229.23-512 512s229.23 512 512 512c282.77 0 512-229.23 512-512s-229.23-512-512-512z" />
<glyph unicode="&#xe95d;" d="M512 29.091c-231.357 0-418.909 187.552-418.909 418.909s187.552 418.909 418.909 418.909c231.357 0 418.909-187.552 418.909-418.909s-187.552-418.909-418.909-418.909zM711.68 634.182h-103.151l-88.415-275.343-88.415 275.343h-105.88l139.718-406.328h106.426l139.718 406.328z" />
<glyph unicode="&#xe95e;" glyph-name="circle-question-mark" d="M1024 448c0-282.624-229.376-512-512-512s-512 229.376-512 512c0 282.624 229.376 512 512 512s512-229.376 512-512zM512 903.111c-251.479 0-455.111-203.632-455.111-455.111s203.632-455.111 455.111-455.111c251.479 0 455.111 203.632 455.111 455.111s-203.632 455.111-455.111 455.111zM482.468 317.952c-0.512 13.312-0.512 21.504-0.512 24.576 0 30.208 5.12 54.784 14.848 74.24s29.696 40.96 59.392 65.536c29.696 24.064 47.616 39.936 53.248 47.616 8.704 11.776 13.312 25.088 13.312 39.424 0 19.968-13.979 42.952-29.851 57.288s-48.463 23.296-75.087 23.296c-26.112 0-58.268-8.448-75.676-23.296s-35.621-37.999-41.765-68.207l-77.817 7.847c2.56 43.52 20.992 80.384 55.296 110.592s79.36 45.568 135.168 45.568c58.368 0 105.923-13.475 139.776-46.080s40.7-63.453 40.7-103.901c0-22.528 0.289-47.395-12.511-67.363s-34.845-47.36-76.317-81.664c-21.504-17.92-34.816-32.256-39.936-43.52-5.12-12.288-7.68-31.744-7.168-59.904l-75.1-2.048zM479.573 205.54v79.644h79.644v-79.644h-79.644z" />
<glyph unicode="&#xe95f;" glyph-name="envelope" horiz-adv-x="1317" d="M657.582 266.651c-3.191 0-6.249 1.29-8.486 3.58l-628.531 643.673c-4.605 4.716-4.538 12.294 0.149 16.927s57.703 14.893 62.308 10.178l574.819-587.435 573.151 587.435c2.211 2.265 52.377-6.199 55.532-6.171s6.192-1.206 8.443-3.431c2.251-2.224 3.532-5.257 3.56-8.432s-1.198-6.23-3.409-8.495l-629.048-644.248c-2.237-2.291-5.295-3.582-8.488-3.581zM19.394 54.995c-4.812-0.001-9.151 2.916-10.993 7.389s-3.403 39.046 0 42.469l416.199 415.489c2.231 2.245 17.849-12.613 21.005-12.613s6.181-1.261 8.412-3.506c2.231-2.245 3.485-5.289 3.485-8.463s8.684-23.547 6.453-25.792l-430.66-432.272c-2.229-2.247-10.745 17.295-13.901 17.299zM1284.403 38.032l-426.425 447.947c-4.527 4.791 9.926 25.287 14.688 29.842s29.561 15.552 34.089 10.762l402.372-429.662c2.174-2.3 3.775-31.4 3.696-34.573s-1.409-6.185-3.696-8.372c-2.208-2.119-5.144-3.299-8.196-3.295-3.261-0.005-14.285-15.029-16.528-12.648zM1234.201-63.492h-1151.794c-44.767 0-81.189 36.642-81.189 81.679v859.624c0 45.040 36.421 81.682 81.189 81.682h1151.794c44.748 0 81.153-36.642 81.153-81.682v-859.624c-0.001-45.037-36.407-81.679-81.153-81.679zM126.067 892.765c-29.249 0-53.044-23.631-53.044-52.676v-784.178c0-29.044 23.795-52.674 53.044-52.674h1064.471c29.23 0 53.011 23.63 53.011 52.674v784.178c0 29.045-23.78 52.676-53.011 52.676h-1064.471z" />
<glyph unicode="&#xe960;" glyph-name="Excel" horiz-adv-x="1195" d="M1166.884 91.275c16.67 0 27.783 10.865 27.783 27.162v618.836l-222.264 222.727h-619.56c-61.122 0-111.132-48.891-111.132-108.647v-89.634h-186.146c-30.561 0-55.566-24.446-55.566-54.324v-537.804c0-29.878 25.005-54.324 55.566-54.324h186.146v-70.621c0-59.756 50.009-108.647 111.132-108.647h730.691c61.122 0 111.132 48.891 111.132 108.647v81.485c0 16.297-11.113 27.162-27.783 27.162s-27.783-10.865-27.783-27.162v-81.485c0-29.878-25.005-54.324-55.566-54.324h-730.691c-30.561 0-55.566 24.446-55.566 54.324v70.621h305.612c30.561 0 55.566 24.446 55.566 54.324v537.804c0 29.878-25.005 54.324-55.566 54.324h-305.612v89.634c0 29.878 25.005 54.324 55.566 54.324h563.994v-141.241c0-43.459 36.118-81.485 83.349-81.485h138.915v-564.513c0-16.297 11.113-27.162 27.783-27.162zM327.839 481.952l61.122 86.918h83.349l-97.24-135.809 116.688-157.538h-86.127l-75.014 103.215-75.014-103.215h-86.127l116.688 157.538-100.019 135.809h86.127l55.566-86.918zM1000.186 737.273c-16.67 0-27.783 10.865-27.783 27.162v119.512l144.471-146.674h-116.688zM944.62 316.265h-138.915c-16.67 0-27.783-10.865-27.783-27.162s11.113-27.162 27.783-27.162h138.915c16.67 0 27.783 10.865 27.783 27.162s-11.113 27.162-27.783 27.162zM944.62 452.074h-138.915c-16.67 0-27.783-10.865-27.783-27.162s11.113-27.162 27.783-27.162h138.915c16.67 0 27.783 10.865 27.783 27.162s-11.113 27.162-27.783 27.162zM944.62 587.883h-138.915c-16.67 0-27.783-10.865-27.783-27.162s11.113-27.162 27.783-27.162h138.915c16.67 0 27.783 10.865 27.783 27.162s-11.113 27.162-27.783 27.162z" />
<glyph unicode="&#xe961;" glyph-name="icon-download" d="M82.247 423.79v-399.585h859.438v399.585c0 24.377 18.427 44.139 41.157 44.139s41.157-19.762 41.157-44.139v-399.585c0-48.707-36.897-88.205-82.314-88.205h-859.371c-45.484 0-82.314 39.498-82.314 88.205v399.585c0 24.357 18.412 44.103 41.124 44.103s41.124-19.745 41.124-44.103zM517.099 960c22.809 0 41.191-19.713 41.191-44.103v-684.633h-82.314v684.633c0 24.39 18.449 44.103 41.124 44.103zM518.776 260.042l168.184 180.223c10.39 11.143 25.534 15.494 39.726 11.416s25.279-15.967 29.082-31.188c3.803-15.221-0.255-31.462-10.645-42.604l-226.348-242.672-226.281 242.672c-10.39 11.143-14.448 27.383-10.645 42.604s14.889 27.11 29.082 31.188c14.193 4.078 29.337-0.273 39.726-11.416l168.117-180.223z" />
<glyph unicode="&#xe962;" glyph-name="small-envelope" d="M855.302 723.2h-701.702c-3.808 0-7.526-0.47-11.088-1.389l339.875-339.853c8.747-8.745 22.926-8.745 31.674 0l341.242 341.242zM903.754 708.304l-273.728-273.728 276.080-276.058c5.712 7.526 9.094 16.912 9.094 27.082v492.8c0 11.491-4.323 21.952-11.424 29.904h-0.022zM860.454 140.8l-262.080 262.102-52.64-52.64c-12.603-12.605-29.697-19.686-47.522-19.686s-34.919 7.082-47.522 19.686l-52.618 52.64-259.482-259.526c4.704-1.658 9.744-2.576 15.030-2.576h706.832zM109.494 177.67l256.906 256.928-255.942 255.898c-1.101-3.938-1.659-8.007-1.658-12.096v-492.8c0-2.688 0.224-5.354 0.694-7.93zM153.6 768h716.8c23.763 0 46.554-9.44 63.357-26.243s26.243-39.593 26.243-63.357v-492.8c0-23.763-9.44-46.554-26.243-63.357s-39.593-26.243-63.357-26.243h-716.8c-23.763 0-46.554 9.44-63.357 26.243s-26.243 39.593-26.243 63.357v492.8c0 23.763 9.44 46.554 26.243 63.357s39.593 26.243 63.357 26.243z" />
<glyph unicode="&#xe963;" glyph-name="desk-phone" d="M945.094 522.967c-70.906-101.099-150.089-5.195-167.945 23.767-17.844 28.967-132.292 140.512-263.901 140.512-155.998 0-247.431-115.357-265.379-144.748-17.947-29.397-97.576-126.728-168.877-24.129-26.524 32.333-75.208 312.946 434.255 313.631 506.631-0.674 458.222-277.179 431.846-309.033h0.001zM513.248 783.751c-463.34 0-405.999-216.485-386.003-241.254 34.375-42.584 64.91 6.495 96.5 48.247 23.034 30.452 127.636 145.815 289.503 145.815 136.285 0 266.795-116.172 287.899-142.276 27.994-34.63 70.139-89.27 95.963-47.545 18.631 25.248 75.274 237.012-383.862 237.012zM513.248 638.998c209.653 0 361.883-322.925 361.883-482.509 0-142.619-46.87-144.753-361.883-144.753-314.996 0-361.88 2.145-361.88 144.753 0 155.651 151.888 482.509 361.88 482.509zM513.248 59.989c273.016 0 313.63 1.788 313.63 121.592 0 108.697-131.931 409.163-313.63 409.163-181.993 0-313.627-302.45-313.627-409.163-0.005-119.794 40.629-121.591 313.627-121.591v-0.001zM513.248 494.245c66.621 0 120.628-54.010 120.628-120.626 0-66.62-54.007-120.628-120.628-120.628s-120.625 54.008-120.625 120.628c0 66.616 54.004 120.626 120.625 120.626zM513.248 301.243c39.975 0 72.376 32.402 72.376 72.376 0 39.97-32.402 72.373-72.376 72.373-39.97 0-72.379-32.402-72.379-72.373 0-39.975 32.408-72.376 72.379-72.376z" />
<glyph unicode="&#xe964;" glyph-name="mobile2" d="M511.998 173.062c-26.719 0-48.457-20.803-48.457-46.383 0-25.574 21.738-46.378 48.457-46.378 26.723 0 48.461 20.804 48.461 46.378 0 25.58-21.738 46.383-48.461 46.383zM751.735 903.111h-479.47c-40.34 0-73.154-31.41-73.154-70.021v-770.182c0-38.611 32.815-70.020 73.154-70.020h479.47c40.339 0 73.154 31.409 73.154 70.020v770.182c0 38.611-32.815 70.021-73.154 70.021zM272.265 856.433h479.47c13.449 0 24.387-10.47 24.387-23.342v-577.015h-528.243v577.015c0 12.872 10.937 23.342 24.386 23.342zM751.735 39.569h-479.47c-13.449 0-24.386 10.472-24.386 23.339v142.494h528.242v-142.493c0.001-12.872-10.937-23.34-24.386-23.34z" />
<glyph unicode="&#xe965;" glyph-name="position" d="M428.104 781.671h132.439l52.013 104.025h-236.524l52.013-104.025h0.059zM325.624 960h337.399c14.955 0.019 28.851-7.716 36.714-20.438s8.569-28.609 1.865-41.978l-76.682-153.244c-11.294-22.648-34.477-36.974-59.8-36.974h-141.593c-25.323 0-48.506 14.266-59.8 36.974l-76.682 153.304c-6.676 13.363-5.955 29.231 1.904 41.934s21.737 20.431 36.674 20.422zM227.899 239.728l135.233 378.652c9.511 26.631 34.715 44.404 63.010 44.404h136.422c28.235 0 53.499-17.773 63.010-44.404l135.174-378.652c8.679-24.372 2.615-51.478-15.693-69.786l-220.237-220.237c-8.084-8.095-19.054-12.643-30.494-12.643s-22.411 4.549-30.494 12.643l-220.237 220.237c-18.278 18.275-24.388 45.446-15.693 69.786zM299.469 219.161l194.854-194.854 194.854 194.854-131.845 369.32h-126.019l-131.845-369.32z" />
<glyph unicode="&#xe966;" glyph-name="company-structure" d="M880.002 280.007h-56.001v140.001c0 15.459-12.54 27.994-28.003 27.994h-251.993v167.999h55.992c30.804 0 56.006 25.201 56.006 56.001v168c0 30.8-25.201 55.999-56.006 55.999h-167.997c-30.802 0-55.999-25.199-55.999-55.999v-168.001c0-30.8 25.197-56.001 55.999-56.001h55.999v-167.999h-251.998c-15.463 0-28.003-12.535-28.003-27.994v-140.001h-55.997c-30.802 0-56.001-25.201-56.001-56.001v-167.999c0-30.804 25.199-56.005 56.001-56.005h167.999c30.8 0 56.001 25.201 56.001 56.005v167.999c0 30.8-25.201 56.001-56.001 56.001h-56.001v111.998h503.996v-111.998h-55.992c-30.8 0-56.001-25.201-56.001-56.001v-167.999c0-30.804 25.201-56.006 56.001-56.006h167.998c30.8 0 56.001 25.201 56.001 56.006v167.999c0 30.801-25.201 56.002-56 56.002zM432 840.001h167.996v-168.001h-167.996v168.001zM320 56.006h-167.999v167.999h167.999v-167.999zM880.002 56.006h-167.999v167.999h167.999v-167.999z" />
<glyph unicode="&#xe967;" glyph-name="error-symbol" d="M512 960c-282.8 0-512-229.2-512-512s229.2-512 512-512c282.8 0 512 229.2 512 512s-229.2 512-512 512v0zM753 256.7c12.6-12.4 12.8-32.6 0.5-45.3v0c-12.4-12.6-32.6-12.8-45.3-0.5l-196.2 192.3-196.2-192.2c-12.6-12.4-32.9-12.2-45.3 0.5v0c-12.4 12.6-12.2 32.9 0.5 45.3l195.3 191.2-195.3 191.3c-12.6 12.4-12.8 32.6-0.5 45.3v0c12.4 12.6 32.6 12.8 45.3 0.5l196.2-192.3 196.2 192.2c12.6 12.4 32.9 12.2 45.3-0.5v0c12.4-12.6 12.2-32.9-0.5-45.3l-195.3-191.2 195.3-191.3z" />
<glyph unicode="&#xe968;" glyph-name="information-symbol" d="M512 960c-282.8 0-512-229.2-512-512s229.2-512 512-512c282.8 0 512 229.2 512 512s-229.2 512-512 512v0zM512 768c17.7 0 32-14.3 32-32s-14.3-32-32-32c-17.7 0-32 14.3-32 32s14.3 32 32 32v0zM607.5 128h-191c-17.7 0-32 14.3-32 32s14.3 32 32 32h62v322.5h-63c-17.7 0-32 14.3-32 32s14.3 32 32 32h95c17.7 0 32-14.3 32-32v-354.5h65c17.7 0 33-14.3 33-32s-15.3-32-33-32v0z" />
<glyph unicode="&#xe969;" glyph-name="question-symbol" d="M512 960c-282.8 0-512-229.2-512-512s229.2-512 512-512c282.8 0 512 229.2 512 512s-229.2 512-512 512zM505.5 147.4c-23.9 0-43.3 19.4-43.3 43.3s19.4 43.3 43.3 43.3c23.9 0 43.3-19.4 43.3-43.3s-19.4-43.3-43.3-43.3zM691.3 569c-2.5-46.3-16.7-82.8-87.7-153.8-36-36-58.7-63-61-86.7-1.8-18.6-17.5-32.5-35.8-32.5-1.2 0-2.4 0.1-3.6 0.2-19.8 1.9-34.2 19.6-32.3 39.4 4.9 49.9 41.5 90.2 81.8 130.5 64.5 64.5 65.6 85 66.7 106.7 1.3 25.3-8 49.8-26.4 69.1-20.9 22-50.5 34.6-81.2 34.6-0.1 0-0.2 0-0.2 0-59.1-0.1-107.3-48.3-107.3-107.5 0-19.9-16.1-36-36-36s-36 16.1-36 36c0 47.9 18.6 92.9 52.4 126.8s78.8 52.6 126.7 52.7c50.5 0.1 99.3-20.7 133.8-57 32.2-33.7 48.5-77.2 46.1-122.5z" />
<glyph unicode="&#xe96a;" glyph-name="check-symbol" d="M512 960c-282.776 0-512-229.224-512-512s229.224-512 512-512c282.776 0 512 229.224 512 512s-229.224 512-512 512v0zM821.502 583.733l-415.806-404.695c-12.512-12.512-32.832-12.512-45.344 0l-158.855 151.848c-12.512 12.512-12.512 32.832 0 45.344v0c12.512 12.512 32.832 12.512 45.344 0l136.233-129.226 393.084 382.073c12.512 12.512 32.832 12.512 45.344 0v0c12.512-12.512 12.512-32.832 0-45.344v0z" />
<glyph unicode="&#xe96b;" glyph-name="exclamation-symbol" d="M0 448c0-282.8 229.2-512 512-512s512 229.2 512 512c0 282.8-229.2 512-512 512s-512-229.2-512-512zM544 160c0-17.7-14.3-32-32-32v0c-17.7 0-32 14.3-32 32v0c0 17.7 14.3 32 32 32v0c17.7 0 32-14.3 32-32v0 0zM544 288c0-17.7-14.3-32-32-32v0c-17.7 0-32 14.3-32 32v448c0 17.7 14.3 32 32 32v0c17.7 0 32-14.3 32-32v-448z" />
<glyph unicode="&#xe96c;" glyph-name="agency" horiz-adv-x="1170" d="M73.143 7.655v0c0 14.715 11.929 26.644 26.644 26.644h50.156v745.984c0 58.841 45.844 106.575 102.4 106.575h358.4c56.556 0 102.4-47.734 102.4-106.575v-213.15h204.8c56.556 0 102.4-47.695 102.4-106.575v-426.26h50.156c14.715 0 26.644-11.929 26.644-26.644v0c0-14.715-11.929-26.644-26.644-26.644h-970.713c-14.715 0-26.644 11.929-26.644 26.644zM661.943 780.282c0 29.46-22.922 53.287-51.2 53.287h-358.4c-28.278 0-51.2-23.828-51.2-53.287v-745.984h460.8v745.984zM969.143 460.558c0 29.46-22.922 53.287-51.2 53.287h-204.8v-479.547h256v426.26zM917.943 327.359h-153.6v53.287h153.6v-53.287zM917.943 167.497h-153.6v53.287h153.6v-53.287zM405.943 593.796h-153.6v53.287h153.6v-53.287zM405.943 433.934h-153.6v53.287h153.6v-53.287zM405.943 274.072h-153.6v53.287h153.6v-53.287zM610.743 593.796h-153.6v53.287h153.6v-53.287zM610.743 433.934h-153.6v53.287h153.6v-53.287zM610.743 274.072h-153.6v53.287h153.6v-53.287z" />
</font>
</defs>
</svg>
