<?xml version="1.0" encoding="UTF-8"?>
<svg width="40px" height="40px" viewBox="0 0 40 40" version="1.1" xmlns="http://www.w3.org/2000/svg" xmlns:xlink="http://www.w3.org/1999/xlink">
    <!-- Generator: Sketch 49.2 (51160) - http://www.bohemiancoding.com/sketch -->
    <title>加载 copy</title>
    <desc>Created with Sketch.</desc>
    <defs></defs>
    <g id="其他页面" stroke="none" stroke-width="1" fill="none" fill-rule="evenodd">
        <g id="加载状态" transform="translate(-429.000000, -245.000000)" fill-rule="nonzero">
            <g id="加载-copy" transform="translate(449.000000, 265.000000) scale(-1, 1) translate(-449.000000, -265.000000) translate(429.000000, 245.000000)">
                <path d="M20.0040313,0 C21.0939726,0 21.9729941,0.882033236 21.9729941,1.96703812 L21.9729941,8.02029326 C21.9729941,9.10920821 21.0900587,9.98733138 20.0040313,9.98733138 C18.91409,9.98733138 18.0350685,9.10529814 18.0350685,8.02029326 L18.0350685,1.97090909 C18.0311546,0.882033236 18.91409,0 20.0040313,0 Z" id="Shape" fill="#EAEAEA"></path>
                <path d="M30.383953,2.97395894 C31.3254795,3.51644184 31.6497065,4.72242424 31.1067319,5.6629912 L28.0751468,10.9083871 C27.5321331,11.8489932 26.3249706,12.1729032 25.3834834,11.6304203 C24.4419569,11.0879374 24.1177299,9.88195503 24.6607436,8.94138807 L27.6922896,3.69986315 C28.2392172,2.75538612 29.4424658,2.43143695 30.3839922,2.97395894 L30.383953,2.97395894 Z" id="Shape" fill="#9B9B9B"></path>
                <path d="M36.9471624,10.1824829 C37.4901761,11.1230499 37.169863,12.3290323 36.2244227,12.8715152 L30.9778082,15.9000978 C30.0362818,16.4426197 28.8291194,16.1225806 28.2861057,15.1781036 C27.743092,14.2374976 28.0634051,13.0315543 29.0088454,12.4890323 L34.2554599,9.46044966 C35.1969863,8.91796676 36.4002348,9.24187683 36.9471624,10.1824829 Z" id="Shape" fill="#9D9B9B"></path>
                <path d="M39.9787084,19.6 C39.9787084,20.6888759 39.0958121,21.5670381 38.0097456,21.5670381 L31.9505675,21.5670381 C30.8605871,21.5670381 29.9816047,20.6849658 29.9816047,19.6 C29.9816047,18.5111241 30.864501,17.6329619 31.9505675,17.6329619 L38.0097456,17.6329619 C39.099726,17.6290518 39.9787084,18.5111241 39.9787084,19.6 Z" id="Shape" fill="#A2A0A0"></path>
                <path d="M36.9471624,29.7824829 C36.4041096,30.7230499 35.1969863,31.046999 34.2554599,30.504477 L29.0088454,27.4758944 C28.0673581,26.9334115 27.743092,25.7274291 28.2861057,24.7868622 C28.8291194,23.8462561 30.0362818,23.522346 30.9778082,24.0648289 L36.2243836,27.0934115 C37.16591,27.6359335 37.490137,28.8418768 36.9471624,29.7824829 Z" id="Shape" fill="#A9A9A9"></path>
                <path d="M30.383953,37.7598436 C29.4424658,38.3023265 28.2353425,37.9823265 27.6922896,37.0378104 L24.6607436,31.7963636 C24.1177299,30.8557576 24.4380431,29.6497752 25.3834834,29.1072923 C26.3249706,28.5647703 27.5321331,28.8848094 28.0751468,29.8292864 L31.1067319,35.0708113 C31.6497456,36.0113783 31.3293933,37.2134506 30.3839922,37.7598436 L30.383953,37.7598436 Z" id="Shape" fill="#B1B1B1"></path>
                <path d="M20.0040313,39.9649658 C18.91409,39.9649658 18.0350685,39.0828935 18.0350685,37.9979277 L18.0350685,31.9446334 C18.0350685,30.8557576 18.9179648,29.9775953 20.0040313,29.9775953 C21.0939726,29.9775953 21.9729941,30.8596676 21.9729941,31.9446334 L21.9729941,37.9979277 C21.9729941,39.0828935 21.0900587,39.9649658 20.0040313,39.9649658 Z" id="Shape" fill="#B9B9B9"></path>
                <path d="M9.62015656,37.7598436 C8.67866928,37.2173607 8.35440313,36.0113783 8.89741683,35.0708113 L11.929002,29.8292864 C12.4720157,28.8887195 13.6791781,28.5647703 14.6206654,29.1072923 C15.5621526,29.6497752 15.8864188,30.8557576 15.3434051,31.7963245 L12.3118591,37.0378104 C11.7688063,37.9784164 10.561683,38.3023265 9.62015656,37.7598436 Z" id="Shape" fill="#C1C0C0"></path>
                <path d="M2.27178082,29.7824829 C1.72872798,28.8418768 2.04908023,27.6359335 2.99448141,27.0934115 L8.24113503,24.0648289 C9.18262231,23.522346 10.3897847,23.842346 10.9327984,24.7868622 C11.4758121,25.7274291 11.155499,26.9334115 10.2100587,27.4758944 L4.96344423,30.504477 C4.02195695,31.046999 2.81479452,30.7230499 2.27178082,29.7824829 Z" id="Shape" fill="#CAC9C9"></path>
                <path d="M0.0254403131,19.6 C0.0254403131,18.5111241 0.908336595,17.6329619 1.99440313,17.6329619 L8.05358121,17.6329619 C9.14356164,17.6329619 10.022544,18.5149951 10.022544,19.6 C10.022544,20.6888759 9.13964775,21.5670381 8.05358121,21.5670381 L1.99440313,21.5670381 C0.908336595,21.5670381 0.0254403131,20.6849658 0.0254403131,19.6 Z" id="Shape" fill="#D4D4D4"></path>
                <path d="M2.27178082,10.1824829 C2.81479452,9.24187683 4.02195695,8.91796676 4.96344423,9.46044966 L10.2100587,12.4890323 C11.1515851,13.0315543 11.4758121,14.2374976 10.9327984,15.1781036 C10.3897847,16.1186706 9.18262231,16.4426197 8.24113503,15.9000978 L2.99448141,12.8715543 C2.04908023,12.3290714 1.72872798,11.126999 2.27178082,10.182522 L2.27178082,10.1824829 Z" id="Shape" fill="#DBDBDB"></path>
                <path d="M9.62015656,2.97395894 C10.561683,2.43147605 11.7688063,2.75147605 12.3118591,3.69599218 L15.3434051,8.93743891 C15.8864188,9.87804497 15.5661057,11.0840274 14.6206654,11.6265103 C13.6791781,12.1690323 12.4720157,11.8489932 11.929002,10.9045161 L8.89741683,5.6629521 C8.35440313,4.72238514 8.67863014,3.52031281 9.62015656,2.97391984 L9.62015656,2.97395894 Z" id="Shape" fill="#E2E2E2"></path>
            </g>
        </g>
    </g>
</svg>