<?xml version="1.0" encoding="UTF-8"?>
<svg width="80px" height="80px" viewBox="0 0 80 80" version="1.1" xmlns="http://www.w3.org/2000/svg" xmlns:xlink="http://www.w3.org/1999/xlink">
    <!-- Generator: Sketch 46.2 (44496) - http://www.bohemiancoding.com/sketch -->
    <title>group_slice</title>
    <desc>Created with Sketch.</desc>
    <defs>
        <polygon id="path-1" points="13.2836931 0.00758555879 13.2836931 16.0375004 0.0601352136 16.0375004 0.0601352136 0.00758555879"></polygon>
        <polygon id="path-3" points="0 76.5907852 79.6359454 76.5907852 79.6359454 0.0277336239 0 0.0277336239"></polygon>
    </defs>
    <g id="邀请好友（新用户）认证" stroke="none" stroke-width="1" fill="none" fill-rule="evenodd">
        <g id="Artboard" transform="translate(-356.000000, -275.000000)">
            <g id="Group" transform="translate(356.000000, 275.000000)">
                <rect id="Rectangle-10" fill="#FFFFFF" x="0" y="0" width="80" height="80"></rect>
                <g id="Group-53" transform="translate(0.000000, 29.000000)">
                    <path d="M79.8948104,24.7140818 L37.8760743,49.1524461 L2.81198513,28.867539 C2.81198513,28.867539 -2.16258736,25.3900669 1.12157621,21.8644164 C2.35012639,20.5451599 10.8107955,17.3299926 12.5318364,16.7931896 C13.8228401,16.390513 17.6429145,15.0905874 18.7742156,14.2093978 C21.9679703,11.7216654 19.2090112,8.53445353 22.5009071,6.06664684 C24.2617993,4.74649814 30.6064833,3.58694424 32.8045502,3.48701859 C35.4612045,3.36657249 38.3652937,0.371776952 38.3652937,0.371776952 L79.8948104,24.7140818 Z" id="Fill-1" fill="#F1F4FA"></path>
                    <polygon id="Stroke-3" stroke="#FFFFFF" stroke-width="0.5" points="31.7253829 45.5943792 3.77564312 29.4251599 39.9472416 8.77564312 67.7238959 24.7622602"></polygon>
                    <polygon id="Stroke-5" stroke="#FFFFFF" stroke-width="0.5" points="24.9486989 41.7064089 10.9736803 33.5303494 47.1455762 12.8808327 60.9469145 20.87429"></polygon>
                    <path d="M17.792119,37.519316 L53.659777,16.6538885" id="Stroke-7" stroke="#FFFFFF" stroke-width="0.5"></path>
                    <path d="M27.5763271,31.8275093 L47.7871822,43.3879554" id="Stroke-9" stroke="#FFFFFF" stroke-width="0.5"></path>
                    <polygon id="Fill-33" fill-opacity="0.300000012" fill="#CFDCF2" points="9.12270632 32.3520297 58.7943792 20.3558959 37.9685056 49.2376803"></polygon>
                </g>
                <g id="Page-1-Copy" transform="translate(0.000000, 1.000000)">
                    <g id="云-5" transform="translate(61.661130, 22.303448)">
                        <polygon id="Fill-1" fill="#C8DBF5" points="1.88411588 4.94088554 7.44641405 4.94088554 7.44641405 3.22240674 1.88411588 3.22240674"></polygon>
                        <path d="M3.55123017,3.22240674 C3.55123017,4.17138525 2.80490672,4.94088554 1.88406013,4.94088554 C0.963492322,4.94088554 0.217029482,4.17138525 0.217029482,3.22240674 C0.217029482,2.27328453 0.963492322,1.50392794 1.88406013,1.50392794 C2.80490672,1.50392794 3.55123017,2.27328453 3.55123017,3.22240674 Z" id="Fill-2" fill="#C8DBF5"></path>
                        <path d="M2.81314499,2.775608 C2.81314499,3.30455862 2.39732825,3.73320836 1.88407407,3.73320836 C1.37095927,3.73320836 0.955142532,3.30455862 0.955142532,2.775608 C0.955142532,2.24651368 1.37095927,1.81786394 1.88407407,1.81786394 C2.39732825,1.81786394 2.81314499,2.24651368 2.81314499,2.775608" id="Fill-4" fill="#DCE7FA"></path>
                        <path d="M8.71811909,3.56663418 C8.71811909,4.32564455 8.12122761,4.94081369 7.38508004,4.94081369 C6.64865367,4.94081369 6.05176219,4.32564455 6.05176219,3.56663418 C6.05176219,2.80762381 6.64865367,2.19231097 7.38508004,2.19231097 C8.12122761,2.19231097 8.71811909,2.80762381 8.71811909,3.56663418" id="Fill-6" fill="#C8DBF5"></path>
                        <path d="M8.00276932,3.07436954 C8.00276932,3.4261411 7.72620868,3.71138071 7.38496852,3.71138071 C7.04372836,3.71138071 6.76716772,3.4261411 6.76716772,3.07436954 C6.76716772,2.72274168 7.04372836,2.43750208 7.38496852,2.43750208 C7.72620868,2.43750208 8.00276932,2.72274168 8.00276932,3.07436954" id="Fill-8" fill="#DCE7FA"></path>
                        <path d="M6.67688126,2.43754518 C6.67688126,3.64675993 5.72606463,4.6269208 4.5530516,4.6269208 C3.38003857,4.6269208 2.42908255,3.64675993 2.42908255,2.43754518 C2.42908255,1.22833044 3.38003857,0.24802587 4.5530516,0.24802587 C5.72606463,0.24802587 6.67688126,1.22833044 6.67688126,2.43754518" id="Fill-10" fill="#C8DBF5"></path>
                        <path d="M6.14529656,2.1922535 C6.14529656,3.09898493 5.43242804,3.83371042 4.5529819,3.83371042 C3.67367516,3.83371042 2.96066724,3.09898493 2.96066724,2.1922535 C2.96066724,1.28566576 3.67367516,0.550796573 4.5529819,0.550796573 C5.43242804,0.550796573 6.14529656,1.28566576 6.14529656,2.1922535" id="Fill-12" fill="#DCE7FA"></path>
                    </g>
                    <g id="Group-179" transform="translate(0.000000, 0.115964)">
                        <g id="好友" transform="translate(65.116279, 23.896552)">
                            <polygon id="Fill-50" fill="#9DB6DB" points="12.71791 16.7267553 14.0165184 15.9829769 13.9285598 13.7913021 11.5819762 13.7913021"></polygon>
                            <polygon id="Fill-52" fill="#9DB6DB" points="0.648086797 2.67204444 2.99467045 2.67204444 1.83336663 0.230192261 0.60320145 0.935890847"></polygon>
                            <g id="Group-56" transform="translate(1.235973, 0.100936)">
                                <mask id="mask-2" fill="white">
                                    <use xlink:href="#path-1"></use>
                                </mask>
                                <g id="Clip-55"></g>
                                <path d="M11.7208466,15.8916252 L1.54846084,9.90633551 C0.627474851,9.35697984 0.0601352136,8.34333744 0.0601352136,7.24635047 L0.0601352136,1.04752628 C0.0601352136,0.247849505 0.900271821,-0.251786818 1.57173989,0.148698207 L11.2678113,5.8638365 C12.5142857,6.59856199 13.2837488,7.96555662 13.2837488,9.44592861 L13.2837488,14.9623332 C13.2837488,15.7891688 12.4150361,16.3056178 11.7208466,15.8916252" id="Fill-54" fill="#9DB6DB" mask="url(#mask-2)"></path>
                            </g>
                            <path d="M11.7014381,16.7114659 L1.52919174,10.7261762 C0.608066352,10.1768206 0.0408661106,9.16317816 0.0408661106,8.06619119 L0.0408661106,1.867367 C0.0408661106,1.06769022 0.881002718,0.568053901 1.55247079,0.968538926 L11.2484028,6.68367722 C12.4950166,7.41840271 13.2643403,8.78539734 13.2643403,10.2657693 L13.2643403,15.7821739 C13.2643403,16.6090095 12.3956276,17.1254585 11.7014381,16.7114659" id="Fill-57" fill="#DCE7FA"></path>
                            <path d="M3.62235439,6.58485643 L4.78756128,7.27834072 L4.78756128,6.74507917 L5.54447878,6.31427397 L3.81290802,5.28367526 L3.81290802,4.54837498 L6.48651349,6.13953777 L6.48651349,6.93662799 L5.56078805,7.48598366 L5.56078805,7.73846022 L6.57907209,8.34457642 L6.57907209,9.10243721 L5.56078805,8.49632101 L5.56078805,9.88271481 C5.56078805,10.0062947 5.53625444,10.1310242 5.48732663,10.2571906 C5.43825942,10.3835007 5.35030086,10.4586545 5.22317218,10.4830831 C5.09618289,10.5076554 4.88931998,10.4369562 4.60244407,10.2708419 C4.31570755,10.1047275 4.09434751,9.97539972 3.93822457,9.88242742 C3.90546663,9.60106765 3.86016309,9.32143225 3.80203517,9.04366492 C4.09978394,9.25274483 4.31487118,9.39658606 4.44729689,9.475476 C4.67423274,9.61055169 4.78756128,9.51614241 4.78756128,9.19239186 L4.78756128,8.03620151 L3.62235439,7.34257352 L3.62235439,6.58485643 Z M2.10865878,6.45294209 L2.4571475,6.96622968 C2.66944683,6.63414468 2.80187255,6.12272516 2.85456404,5.43197112 L2.41351672,5.16929203 C2.31733383,5.6190653 2.21571452,6.04699656 2.10865878,6.45294209 L2.10865878,6.45294209 Z M1.16118765,3.72225787 L1.80101294,4.10305633 C1.84812862,3.80948227 1.89259578,3.49521576 1.93441442,3.1609753 L2.69119253,3.68432172 L2.53883326,4.54219599 L3.61148154,5.18078783 C3.58053574,6.4346925 3.38649722,7.31067267 3.0288084,7.80901571 L3.79659875,8.93948421 L3.25211997,9.21595826 C3.04511767,8.87209006 2.83644263,8.5318143 2.62595544,8.19498729 C2.35357666,8.37532769 2.02697303,8.4737605 1.64572637,8.49014202 C1.47873057,8.15863181 1.31535906,7.85370564 1.15575123,7.57536352 C1.51873708,7.57248957 1.82721929,7.49216265 2.08133727,7.33481385 C1.83265572,6.94711791 1.58216202,6.56243961 1.32999559,6.18034787 C1.4624213,5.78575444 1.58313779,5.30566098 1.69200567,4.7399238 L1.16118765,4.42393292 L1.16118765,3.72225787 Z" id="Fill-59" fill="#9DB6DB"></path>
                            <path d="M11.6702693,10.9986411 L11.6702693,11.6721515 C11.3944056,12.0934726 11.0396441,12.3886274 10.6057059,12.5570409 C11.0505169,13.0592637 11.5650257,13.5403631 12.149511,14.0006263 C12.0115094,14.1243499 11.8645866,14.2987987 11.7083242,14.523829 C11.0586019,13.9726053 10.479553,13.3669202 9.97131706,12.7070611 C9.47214181,12.7618099 8.89504449,12.6903922 8.2398857,12.4932392 C8.10188416,12.1305466 7.9584462,11.8019103 7.80971122,11.5074741 C8.39057222,11.6942809 8.89964454,11.7904145 9.33706758,11.7963061 C9.06301605,11.3581723 8.81531027,10.8992024 8.59381084,10.4193964 L9.12198035,10.2453786 C9.34347978,10.760678 9.62199196,11.2575841 9.95779569,11.7363843 C10.3225937,11.6465733 10.6157424,11.4673825 10.8371024,11.1988118 L8.63465372,9.88800288 C8.28978928,10.7734671 7.78615338,11.3548673 7.12360663,11.6323472 C6.99661734,11.2575841 6.86405223,10.9109856 6.72605069,10.5931267 C7.40490672,10.2600358 7.87494831,9.48809265 8.13631485,8.27787202 L6.86767651,7.52288518 L6.86767651,6.82121013 L8.24797063,7.64272893 C8.2769649,7.43910952 8.3014985,7.22543129 8.32157145,7.00169423 L9.13828962,7.48767929 C9.11821667,7.71156004 9.09382246,7.92523828 9.0648282,8.12871398 L12.0623888,9.91271886 L12.0623888,10.6143939 L8.95582092,8.76558145 C8.9195781,8.95727396 8.87692308,9.13790176 8.82785587,9.30703376 L11.6702693,10.9986411 Z" id="Fill-61" fill="#9DB6DB"></path>
                        </g>
                        <g id="邀请" transform="translate(38.803987, 7.965517)">
                            <polygon id="Fill-63" fill="#9DB6DB" points="12.9097461 16.6630185 14.2083544 15.9193838 14.1203959 13.727709 11.7738122 13.727709"></polygon>
                            <polygon id="Fill-65" fill="#9DB6DB" points="0.839922868 2.60830768 3.18650652 2.60830768 2.0252027 0.166455493 0.795037521 0.872154079"></polygon>
                            <path d="M13.148656,15.9289541 L2.97627024,9.9435207 C2.05528425,9.39430873 1.48808401,8.38052263 1.48808401,7.28353566 L1.48808401,1.08485517 C1.48808401,0.285178395 2.32808122,-0.214457928 2.99968868,0.1858834 L12.6956207,5.90102169 C13.9422345,6.63589088 14.7115582,8.00274181 14.7115582,9.4832575 L14.7115582,14.9995184 C14.7115582,15.826354 13.8428455,16.3429466 13.148656,15.9289541" id="Fill-67" fill="#9DB6DB"></path>
                            <path d="M11.8932742,16.6478728 L1.72102781,10.6625832 C0.799902423,10.1132275 0.232702182,9.09944139 0.232702182,8.00245442 L0.232702182,1.80377393 C0.232702182,1.00409715 1.07283879,0.504460831 1.74430686,0.904802159 L11.4402388,6.61994045 C12.6868527,7.35480964 13.4561764,8.72166057 13.4561764,10.2021763 L13.4561764,15.7184372 C13.4561764,16.5452728 12.5874637,17.0618654 11.8932742,16.6478728" id="Fill-69" fill="#DCE7FA"></path>
                            <path d="M4.15451061,6.24228896 L4.15451061,5.9952729 L3.37041098,5.52854332 L3.37041098,5.77555938 L4.15451061,6.24228896 Z M3.37041098,4.89986661 L3.37041098,5.14688267 L4.15451061,5.61361226 L4.15451061,5.3665962 L3.37041098,4.89986661 Z M5.33616616,7.2654154 L5.74989197,8.12372077 C5.85165067,7.85859882 5.91423925,7.48426674 5.93779709,7.00043715 L5.54302906,6.76563538 C5.41785192,6.97557748 5.28166252,7.14140443 5.13460028,7.26340364 C5.00761099,7.03449347 4.88591873,6.83475389 4.76980229,6.66461601 L4.76980229,7.06323297 L4.07826127,6.65168324 C4.10377065,6.75471437 4.12830425,6.86105054 4.1517227,6.97026067 L4.86236089,7.39330621 L4.86236089,7.8535694 L3.64000186,7.12602879 L3.63456543,7.36988351 L4.71529865,8.01307367 C4.70818948,8.6055386 4.68031039,8.94739503 4.63235834,9.03849926 C4.5842669,9.1297472 4.5162419,9.17199427 4.42814395,9.16538419 C4.340046,9.1589178 4.08746138,9.03691859 3.66983249,8.79981766 C3.62271682,8.58455876 3.57908603,8.36024691 3.53921892,8.12688211 C3.70259043,8.23537375 3.83696768,8.32101748 3.94221128,8.38352591 C4.05832772,8.45278812 4.11645564,8.35823514 4.11645564,8.10001067 L3.59093465,7.78732484 C3.54186743,8.06509217 3.3885324,8.27675864 3.13079014,8.42275533 C2.98930372,8.20764013 2.81324722,7.96608457 2.60262064,7.69866346 C2.90385429,7.63098193 3.05189229,7.32231962 3.04645587,6.77267656 L2.64625142,6.53456975 L2.64625142,6.07430655 L3.45753316,6.55713026 C3.43202379,6.42794618 3.40846595,6.32218479 3.38672026,6.2399898 L2.7551193,5.86407706 L2.7551193,4.0790663 L3.34322886,4.42911349 C3.38309597,4.27506973 3.41404177,4.13999405 3.43578747,4.02388645 L4.19256557,4.52495974 L4.04020631,4.84396827 L4.76980229,5.27822221 L4.76980229,6.42607811 C5.02754455,6.12862422 5.21809818,5.70960221 5.34160258,5.16929948 L5.97320354,5.68560472 C5.91702716,5.88979892 5.85513556,6.07574352 5.78808633,6.24343854 L6.77904886,6.83317322 L6.77904886,7.50122305 L6.5367795,7.35709443 C6.50234881,8.10173504 6.38330507,8.66244282 6.18006645,9.03921775 C6.41606301,9.55193055 6.60661664,9.98805256 6.75186674,10.3477275 L6.21826081,10.3837956 C6.10019283,10.0890719 5.97041563,9.77782307 5.82892921,9.45033639 C5.6346119,9.61170872 5.40321539,9.74534743 5.13460028,9.85110881 C4.99673815,9.54445828 4.84605162,9.25835649 4.68268011,8.99280345 C5.00565946,8.9025614 5.25991683,8.76935378 5.44503404,8.59318061 C5.25991683,8.19125861 5.06016309,7.76921895 4.84605162,7.32749274 L5.33616616,7.2654154 Z M1.93840113,3.2224853 C2.21774969,3.74425105 2.45388565,4.21414198 2.64625142,4.63172701 L2.06357828,4.69466653 C1.8929582,4.29001428 1.67522245,3.81811158 1.41023163,3.27867104 L1.93840113,3.2224853 Z M6.77904886,10.8298327 C6.66293242,11.0152025 6.57218595,11.1820354 6.50680947,11.3301875 C4.95129522,10.4043443 4.01469693,9.84507352 3.69715401,9.65223143 C3.37947169,9.45953304 3.10221407,9.24959094 2.86538113,9.02254884 C2.6285482,8.79565043 2.43018842,8.54087471 2.27044119,8.25865275 C2.0816997,8.32604689 1.87483679,8.42922172 1.64971308,8.56846463 L1.34485514,7.58428023 C1.52816021,7.51559281 1.70602885,7.46070035 1.87846107,7.41917176 L1.87846107,5.83634343 L1.39378296,5.54779879 L1.39378296,4.8068943 L2.52093488,5.47781809 L2.52093488,7.79321644 C2.76780429,8.27877041 3.18891806,8.6987983 3.78427619,9.05315641 L5.10198174,9.84852226 C5.65566062,10.1780207 6.21449713,10.5050763 6.77904886,10.8298327 L6.77904886,10.8298327 Z" id="Fill-71" fill="#9DB6DB"></path>
                            <path d="M9.41996608,11.7505028 L11.2114769,12.8167385 L11.2114769,12.5473056 L9.41996608,11.4810699 L9.41996608,11.7505028 Z M11.2114769,11.8120054 L9.41996608,10.7457697 L9.41996608,11.0152025 L11.2114769,12.0814382 L11.2114769,11.8120054 Z M9.41996608,13.1256882 L8.6903701,12.6914343 L8.6903701,9.78371467 L11.9410729,11.7184583 L11.9410729,13.8515044 C11.9410729,14.0834323 11.8911693,14.2317281 11.7913621,14.2956735 C11.691555,14.3597626 11.5493716,14.3453929 11.3652301,14.2525643 C11.1810887,14.1598793 10.8066724,13.947207 10.2421207,13.615122 C10.2022536,13.4191186 10.1478893,13.188484 10.0788886,12.9227873 C10.5398694,13.2198101 10.8157331,13.3949774 10.9064796,13.4491513 C11.1097182,13.5701447 11.2114769,13.5389623 11.2114769,13.3556043 L11.2114769,13.2826059 L9.41996608,12.2163702 L9.41996608,13.1256882 Z M8.29825059,8.85456642 L9.90464419,9.81044241 L9.90464419,9.56342635 L8.59781149,8.7857353 L8.59781149,8.30305529 L9.90464419,9.08074634 L9.90464419,8.83373028 L8.47249495,7.98146021 L8.47249495,7.4987802 L9.90464419,8.35105026 L9.90464419,7.90199547 L10.6833074,8.36542002 L10.6833074,8.81447481 L12.2133123,9.72508608 L12.2133123,10.2079098 L10.6833074,9.29729852 L10.6833074,9.54417088 L12.06625,10.3674141 L12.06625,10.8500941 L10.6833074,10.0269946 L10.6833074,10.2740107 L12.3440652,11.2623623 L12.3440652,11.7450423 L8.29825059,9.33724644 L8.29825059,8.85456642 Z M7.66664963,6.63185298 C7.91714332,7.11769434 8.15118835,7.59936847 8.36906349,8.07716277 L7.73202611,8.09081403 C7.52502381,7.5860046 7.30728806,7.10088173 7.07854006,6.63530172 L7.66664963,6.63185298 Z M8.46705852,10.8745226 C8.48169505,11.2201152 8.50344075,11.5211615 8.53243501,11.777949 C8.15495202,11.8265188 7.85357898,11.9127373 7.62845527,12.0370357 L7.23647515,11.2535967 C7.33447018,11.1846219 7.38353739,11.0567311 7.38353739,10.8696369 L7.38353739,9.05100095 L6.93705364,8.78516051 L6.93705364,8.05546444 L8.06950259,8.72969326 L8.06950259,10.9355941 C8.17850986,10.9216554 8.31093558,10.9013941 8.46705852,10.8745226 L8.46705852,10.8745226 Z" id="Fill-73" fill="#9DB6DB"></path>
                        </g>
                        <g id="妹纸" transform="translate(48.637874, 21.772414)">
                            <path d="M10.6226889,15.784977 C10.6226889,15.784977 10.5368213,15.6277719 10.6838836,15.5054853 C10.8309458,15.383055 10.9257347,15.2998542 11.1585252,15.517987 C11.3913157,15.7359762 11.777023,16.137036 11.8469995,16.2366184 C11.9168367,16.3360571 11.8980183,16.5712899 11.6288456,16.4498655 C11.3596729,16.3282974 10.7231931,15.893325 10.6226889,15.784977" id="Fill-84" fill="#4E4F81"></path>
                            <path d="M11.393309,15.8585071 C11.449346,15.9198659 11.5431592,16.0984819 11.5126316,16.1500694 C11.4822433,16.2018005 11.2702228,16.1813954 11.1635853,16.0983382 C11.0568083,16.0152811 10.5820273,15.7931247 10.7453988,15.6222683 C10.993244,15.3633254 11.3152475,15.7732944 11.393309,15.8585071" id="Fill-86" fill="#E6938C"></path>
                            <path d="M6.70790605,14.6048036 C6.70790605,14.6048036 7.865028,16.0958092 8.31374207,16.5875421 C8.41368864,16.6971833 8.56284181,16.8280918 8.7638501,16.7650086 C9.05727761,16.6733295 10.9636503,16.0969587 11.0531422,16.0709495 C11.1424947,16.0449402 11.250805,15.9693553 11.238817,15.8240771 C11.2266896,15.6789426 11.0557907,15.6701771 10.9835839,15.6951804 C10.9110982,15.7201838 9.08655066,15.838878 9.03943498,15.8424704 C8.99217991,15.8463502 8.93781567,15.857415 8.87745743,15.753809 C8.81709918,15.6502031 8.03258137,13.8986739 7.84286411,13.6910309 C7.84286411,13.6910309 7.84035499,13.1145164 7.59543712,12.9162138 C7.45590224,12.8031239 6.91853263,12.8603155 6.88256859,12.9514197 C6.84646516,13.0423803 6.70790605,14.6048036 6.70790605,14.6048036" id="Fill-88" fill="#E6938C"></path>
                            <path d="M12.4576911,16.0833218 C12.4576911,16.0833218 12.3719629,15.9261167 12.5188858,15.8038301 C12.665948,15.6813998 12.7607369,15.5980553 12.9935274,15.8163318 C13.2264573,16.034321 13.6120252,16.4353808 13.6820017,16.5349632 C13.7518389,16.6344019 13.7330205,16.8696347 13.4639872,16.7482103 C13.1946751,16.6266422 12.5581953,16.1915261 12.4576911,16.0833218" id="Fill-90" fill="#4E4F81"></path>
                            <path d="M3.12173408,0.523853534 C3.12173408,0.523853534 3.53113863,0.904220905 3.7481774,0.810386415 C4.17793369,0.62429811 4.20748554,0.23746435 4.57507144,0.0897432862 C4.94251795,-0.057977778 5.66486537,0.0338449458 5.97808703,0.631339289 C5.97808703,0.631339289 7.1870641,0.434904761 7.1870641,1.96068517 C7.1870641,2.52469799 7.19960969,3.29003105 7.1870641,3.50485886 C7.1870641,3.50485886 7.80709523,4.48501974 7.79454964,5.21011749 C7.78214344,5.93521524 7.75077945,6.68718443 8.34585879,6.92888368 C8.34585879,6.92888368 7.89477499,7.27792499 7.56914713,7.29143256 C7.24337988,7.30479643 5.05110703,4.91481906 4.92565109,4.68202905 C4.80047394,4.44923905 3.8039356,2.96010151 3.70120112,2.59180474 C3.59567874,2.21359283 3.54145389,1.84328428 3.5351811,1.53778333 C3.52946588,1.25786053 3.23464443,0.662665351 3.12173408,0.523853534" id="Fill-92" fill="#1C1C44"></path>
                            <path d="M4.53856376,4.23192527 L1.44412332,2.43786157 C1.44412332,2.43786157 0.55519829,2.21901022 1.19153869,3.12732233 L4.55333968,5.45780893 L4.53856376,4.23192527 Z" id="Fill-94" fill="#9DB5DB"></path>
                            <path d="M1.66965128,2.51527143 C1.66965128,2.51527143 1.53666798,2.13030574 1.3228353,2.05788218 C1.10914202,1.98545862 1.17326395,2.21882342 1.17939735,2.2431083 C1.18553075,2.26739318 1.12113003,2.33349405 1.04962015,2.2375041 C0.977970866,2.14137045 0.741974305,1.84750899 0.591148386,1.84750899 C0.440322468,1.84750899 0.15665265,1.9636166 0.289775341,2.42617896 C0.422898032,2.88888502 1.03163813,3.14366074 1.22177358,3.14466662 C1.41190902,3.14567251 1.62992356,2.94665142 1.67257858,2.84850601 C1.72276096,2.7326858 1.66965128,2.51527143 1.66965128,2.51527143" id="Fill-96" fill="#6162A4"></path>
                            <path d="M7.27106382,8.81579036 C7.51361197,8.77541136 7.93960458,8.74408529 8.2819599,9.04987364 C8.62431522,9.355662 9.76443092,11.1178248 9.90215366,11.4625552 C10.0398764,11.8071419 10.9331227,13.7043804 10.8170062,13.9876083 C10.7010292,14.2709798 10.1615687,14.7703287 9.15861813,14.9841507 C8.15566759,15.1979726 6.82416188,15.2862029 6.42381804,15.1752684 C6.0233348,15.0641902 6.04605627,14.9495196 5.98709198,14.7865666 C5.92798829,14.6236136 5.10304579,12.3820757 5.0811607,11.8601663 C5.05927561,11.3382569 4.89172223,10.0235681 5.23923518,9.59807973 C5.58660874,9.17259134 7.27106382,8.81579036 7.27106382,8.81579036" id="Fill-98" fill="#CFDCF2"></path>
                            <path d="M4.01977557,4.94788386 C4.0930976,4.65114845 4.50445369,3.18758908 6.72335107,3.81382293 C7.30797575,3.97893139 7.15742862,5.09316207 7.15617406,5.53158324 C7.15394373,6.30151462 7.41252236,8.01381443 7.80952071,8.55828438 C8.20665846,9.10275434 8.60351741,9.34100485 8.31218084,9.74235206 C8.02084427,10.1436993 6.55900379,11.3062123 5.4062031,10.2737455 C5.04238087,9.94783953 5.16128523,9.00805766 4.92584625,8.44145829 C4.67312223,7.83361772 4.45245917,7.27822676 4.17980159,7.0774813 C3.72132983,6.7399358 3.39890807,6.33643312 3.80203982,5.57656057 C3.89808331,5.39535798 3.97056897,5.14676125 4.01977557,4.94788386" id="Fill-100" fill="#4E4F83"></path>
                            <path d="M6.58797017,4.8726582 C6.81825152,4.39299584 7.08282415,4.41627484 7.65030319,4.66688333 C8.4253421,5.00945825 10.6772762,6.2007108 10.6772762,6.2007108 L10.9210789,6.3465638 L10.7111493,7.07755315 C10.7111493,7.07755315 8.44722719,6.38579323 7.71372813,6.09322505 C7.34586344,5.94665357 6.24449969,5.58755343 6.58797017,4.8726582" id="Fill-102" fill="#C9DAF5"></path>
                            <path d="M11.2388031,6.25041578 C11.1711962,6.36106288 11.0631647,6.44052762 11.0750134,6.2551578 C11.0857468,6.08573841 10.8395744,6.16060482 10.7813071,6.29036369 C10.7511976,6.35747044 10.5230072,6.78080338 10.6752271,7.00755808 C10.827447,7.23416909 11.0715285,7.21793127 11.2510699,7.18401865 C11.4306112,7.15010604 11.7778454,6.89446812 11.9143136,6.49656966 C12.0507818,6.09867119 11.9215622,6.00023838 11.8008457,5.93327532 C11.6802686,5.86616858 11.4230839,5.94951315 11.2388031,6.25041578" id="Fill-104" fill="#6162A4"></path>
                            <path d="M5.01405571,3.37183806 C5.20377297,3.38879436 5.42318147,3.56798519 5.09964454,3.81298948 C4.77624701,4.05813747 4.62430593,4.68724527 5.43279976,4.79142599 C6.13883791,4.88238652 6.67230444,4.43405022 6.53597565,4.02882318 C6.36228887,3.51266164 6.12211045,4.04922823 6.13646818,3.20514892 C6.14594708,2.64616551 5.74142137,2.85869416 5.6324141,1.35188183 C5.58474084,0.695040406 4.51195316,0.947229576 4.37673954,1.50879954 C4.24222289,2.06778294 4.24361685,3.30315063 5.01405571,3.37183806" id="Fill-106" fill="#F4B3AB"></path>
                            <path d="M8.54290825,14.9031484 C8.54290825,14.9031484 9.71661827,16.3823708 10.1345259,16.8950836 C10.2259694,17.0074551 10.3653649,17.1308912 10.5989917,17.0633534 C10.8942314,16.9781408 12.7986525,16.3951599 12.8881444,16.3692943 C12.9776363,16.3432851 13.0859466,16.2677002 13.0738192,16.1224219 C13.0616918,15.9772874 12.8907929,15.9685219 12.8185861,15.9935253 C12.7461004,16.0183849 10.9215529,16.1372228 10.8744372,16.1408152 C10.8271821,16.1446951 10.7728179,16.1557598 10.7124596,16.0521539 C10.6521014,15.9485479 9.86758358,14.1970187 9.67786632,13.9893758 C9.67786632,13.9893758 9.6753572,13.4128613 9.43043933,13.2145587 C9.29090444,13.1014687 8.75353484,13.1586603 8.7175708,13.2497646 C8.68146737,13.3407251 8.54290825,14.9031484 8.54290825,14.9031484" id="Fill-108" fill="#F4B3AB"></path>
                            <path d="M7.27038078,8.80933834 C7.51348651,8.76895934 7.9403155,8.73734588 8.28336779,9.04385272 C8.6262807,9.35021586 9.76862672,11.1158274 9.90662826,11.4612763 C10.0446298,11.8065815 10.9395488,13.7075562 10.823293,13.9915025 C10.7070371,14.2753051 10.1666008,14.7758036 9.16155937,14.9899129 C8.1566573,15.204166 6.82250308,15.29254 6.42132286,15.1814618 C6.02014265,15.0700962 6.04286411,14.9551381 5.98389982,14.7918977 C5.92479613,14.6285137 5.09804149,12.3826649 5.0761564,11.8597496 C5.05427131,11.3366906 4.88616035,10.019559 5.23450968,9.59320839 C5.58271961,9.16685781 7.27038078,8.80933834 7.27038078,8.80933834" id="Fill-110" fill="#CFDCF2"></path>
                            <path d="M13.2283112,16.1568519 C13.2844876,16.2182107 13.3781614,16.3968268 13.3476338,16.4484142 C13.3172455,16.5001453 13.1053644,16.4797402 12.9987269,16.3966831 C12.8919499,16.3136259 12.4171689,16.0914695 12.5805404,15.9206131 C12.8282462,15.6615265 13.1502498,16.0716392 13.2283112,16.1568519" id="Fill-112" fill="#F4B3AB"></path>
                        </g>
                        <mask id="mask-4" fill="white">
                            <use xlink:href="#path-3"></use>
                        </mask>
                        <g id="Clip-115"></g>
                        <g id="云-3" mask="url(#mask-4)">
                            <g transform="translate(55.282392, 36.110345)">
                                <polygon id="Fill-122" fill="#C8DBF5" points="3.61094719 9.55802452 14.8760542 9.55802452 14.8760542 6.07752657 3.61094719 6.07752657"></polygon>
                                <path d="M3.61084962,9.55799578 C1.74615617,9.55799578 0.234690891,7.99973973 0.234690891,6.07749783 C0.234690891,4.15525592 1.74615617,2.59699987 3.61084962,2.59699987 C5.47554306,2.59699987 6.98714774,4.15525592 6.98714774,6.07749783 C6.98714774,7.99973973 5.47554306,9.55799578 3.61084962,9.55799578 Z" id="Fill-123" fill="#C8DBF5"></path>
                                <path d="M3.61089143,7.11214881 C2.57169807,7.11214881 1.72933113,6.24364091 1.72933113,5.1725195 C1.72933113,4.10125439 2.57169807,3.2328902 3.61089143,3.2328902 C4.6500848,3.2328902 5.49245173,4.10125439 5.49245173,5.1725195 C5.49245173,6.24364091 4.6500848,7.11214881 3.61089143,7.11214881 Z" id="Fill-124" fill="#DCE7FA"></path>
                                <path d="M14.7516576,9.5579383 C13.2605441,9.5579383 12.0517064,8.31179329 12.0517064,6.77466078 C12.0517064,5.23738457 13.2605441,3.99123956 14.7516576,3.99123956 C16.2429106,3.99123956 17.4517483,5.23738457 17.4517483,6.77466078 C17.4517483,8.31179329 16.2429106,9.5579383 14.7516576,9.5579383 Z" id="Fill-125" fill="#C8DBF5"></path>
                                <path d="M14.751574,7.0677319 C14.0605906,7.0677319 13.5003601,6.49006781 13.5003601,5.77775914 C13.5003601,5.06530677 14.0605906,4.48778639 14.751574,4.48778639 C15.4426968,4.48778639 16.0029273,5.06530677 16.0029273,5.77775914 C16.0029273,6.49006781 15.4426968,7.0677319 14.751574,7.0677319 Z" id="Fill-126" fill="#DCE7FA"></path>
                                <path d="M9.01632786,8.92206235 C6.64061055,8.92206235 4.71458309,6.93688092 4.71458309,4.48784386 C4.71458309,2.03880681 6.64061055,0.0536253836 9.01632786,0.0536253836 C11.3919058,0.0536253836 13.3177938,2.03880681 13.3177938,4.48784386 C13.3177938,6.93688092 11.3919058,8.92206235 9.01632786,8.92206235 Z" id="Fill-127" fill="#C8DBF5"></path>
                                <path d="M9.01624422,7.31566762 C7.23518807,7.31566762 5.7913296,5.82724857 5.7913296,3.99122519 C5.7913296,2.15520181 7.23518807,0.666782758 9.01624422,0.666782758 C10.7973004,0.666782758 12.2411588,2.15520181 12.2411588,3.99122519 C12.2411588,5.82724857 10.7973004,7.31566762 9.01624422,7.31566762 Z" id="Fill-128" fill="#DCE7FA"></path>
                            </g>
                        </g>
                        <g id="云-1" mask="url(#mask-4)">
                            <g transform="translate(35.880399, 60.272414)">
                                <polygon id="Fill-129" fill="#C8DBF5" points="2.97734823 7.95632458 12.2740515 7.95632458 12.2740515 5.08409828 2.97734823 5.08409828"></polygon>
                                <path d="M5.76351555,5.08414139 C5.76351555,6.67041846 4.51606533,7.95636769 2.97727854,7.95636769 C1.43849174,7.95636769 0.190902121,6.67041846 0.190902121,5.08414139 C0.190902121,3.49772062 1.43849174,2.2117714 2.97727854,2.2117714 C4.51606533,2.2117714 5.76351555,3.49772062 5.76351555,5.08414139" id="Fill-130" fill="#C8DBF5"></path>
                                <path d="M4.5300467,4.3373022 C4.5300467,5.22118573 3.8348814,5.93794902 2.97718096,5.93794902 C2.11961991,5.93794902 1.42445462,5.22118573 1.42445462,4.3373022 C1.42445462,3.45327498 2.11961991,2.73651168 2.97718096,2.73651168 C3.8348814,2.73651168 4.5300467,3.45327498 4.5300467,4.3373022" id="Fill-131" fill="#DCE7FA"></path>
                                <path d="M14.3996376,5.65949194 C14.3996376,6.92805377 13.4019841,7.95635332 12.1714007,7.95635332 C10.9408173,7.95635332 9.94302442,6.92805377 9.94302442,5.65949194 C9.94302442,4.39078642 10.9408173,3.36248688 12.1714007,3.36248688 C13.4019841,3.36248688 14.3996376,4.39078642 14.3996376,5.65949194" id="Fill-132" fill="#C8DBF5"></path>
                                <path d="M13.2040146,4.83673735 C13.2040146,5.42474765 12.7416398,5.90124867 12.1713728,5.90124867 C11.6009665,5.90124867 11.138731,5.42474765 11.138731,4.83673735 C11.138731,4.24887074 11.6009665,3.77222602 12.1713728,3.77222602 C12.7416398,3.77222602 13.2040146,4.24887074 13.2040146,4.83673735" id="Fill-133" fill="#DCE7FA"></path>
                                <path d="M10.9879888,3.77219728 C10.9879888,5.79315939 9.3986014,7.43174236 7.43800386,7.43174236 C5.47754571,7.43174236 3.88815835,5.79315939 3.88815835,3.77219728 C3.88815835,1.75123517 5.47754571,0.112795901 7.43800386,0.112795901 C9.3986014,0.112795901 10.9879888,1.75123517 10.9879888,3.77219728" id="Fill-134" fill="#C8DBF5"></path>
                                <path d="M10.099468,3.3624294 C10.099468,4.87757619 8.90791534,6.1059027 7.43798992,6.1059027 C5.96820389,6.1059027 4.77665126,4.87757619 4.77665126,3.3624294 C4.77665126,1.84713891 5.96820389,0.618812394 7.43798992,0.618812394 C8.90791534,0.618812394 10.099468,1.84713891 10.099468,3.3624294" id="Fill-135" fill="#DCE7FA"></path>
                            </g>
                        </g>
                        <g id="飞机" mask="url(#mask-4)">
                            <g transform="translate(10.897010, 30.003448)">
                                <polygon id="Fill-137" fill="#17AB6D" points="11.7662431 19.2187048 14.1359664 32.8699704 48.1484655 0.178781609"></polygon>
                                <polygon id="Fill-138" fill="#169C64" points="16.4359919 21.8052604 14.1359664 32.8699704 27.9471319 19.5951923"></polygon>
                                <polygon id="Fill-139" fill="#6BCCA3" points="11.7662431 19.2187048 0.0570220477 12.1056769 48.1484655 0.178781609"></polygon>
                                <path d="M16.4359919,21.8052604 C16.4359919,21.8052604 27.6096555,29.2056833 27.9471319,28.9182883 C28.2846084,28.6308932 48.1484655,0.178781609 48.1484655,0.178781609 L16.4359919,21.8052604 Z" id="Fill-140" fill="#6BCCA3"></path>
                            </g>
                        </g>
                        <g id="帅哥" mask="url(#mask-4)">
                            <g transform="translate(15.946844, 15.665517)">
                                <path d="M16.1087238,27.8257051 C16.1465,27.7175009 16.4049392,27.0763225 15.7602351,27.199615 C15.115531,27.3227638 14.0700648,28.1131002 14.0177915,28.4364197 C13.9655182,28.7597391 14.2617336,29.1369451 14.3314314,29.2087939 C14.4011291,29.2806427 14.9761355,29.3704536 15.2897753,29.0650964 C15.6034152,28.7597391 16.0211835,28.0771758 16.1087238,27.8257051" id="Fill-141" fill="#615FA0"></path>
                                <path d="M22.9565272,29.5859999 C23.2029784,29.5842756 23.6535046,29.5859999 23.8103246,29.5859999 C23.9671445,29.5859999 24.6118486,29.7117353 23.8103246,30.3583742 C23.0088005,31.0050131 22.3815208,31.0768618 22.0330321,31.0050131 C21.6845434,30.9331643 21.4754501,30.4547952 21.5974212,30.2988834 C21.7193922,30.1428279 22.2613619,29.5908856 22.9565272,29.5859999" id="Fill-142" fill="#5D609D"></path>
                                <path d="M17.5490974,14.5037942 C17.5490974,14.5037942 14.6075738,27.1448662 14.183254,28.0503044 C14.1194108,28.186817 14.1920359,28.6789811 14.4882513,28.7508299 C14.7844667,28.8226786 15.0196269,28.9304518 15.1678043,28.6789811 C15.3158423,28.4275104 19.6981577,17.4615206 20.0466464,15.8808477 C20.3951351,14.3001748 17.5490974,14.5037942 17.5490974,14.5037942" id="Fill-143" fill="#007D47"></path>
                                <path d="M17.4793997,13.1985895 C17.4793997,13.1985895 17.3400042,14.8031162 17.5258184,15.1982844 C17.7117719,15.5934526 19.0583324,16.3240109 19.7330065,16.3240109 C20.1163441,16.3240109 20.1767024,16.5803673 20.2557396,17.0185011 C20.3108008,17.3234272 20.6156588,17.7410123 21.8006598,30.3064994 C21.8236601,30.5492045 22.3748298,30.4974734 22.4620914,30.4953179 C22.5586925,30.4931625 22.8519806,30.4549389 22.8519806,30.3583742 C22.8519806,30.2205682 22.7764282,13.7853066 22.5440559,13.1985895 C22.3118231,12.6117288 17.7349116,12.8272751 17.4793997,13.1985895" id="Fill-144" fill="#009557"></path>
                                <path d="M18.2641823,8.38401806 C17.7336431,9.3775428 17.4483005,12.7598953 17.4547127,12.9064668 C17.4609855,13.0530383 17.2248496,13.9938261 18.0666589,14.3289287 C18.9086077,14.6640314 20.683391,15.2971627 21.5777525,15.0599181 C22.4721139,14.8226734 22.5423693,14.426643 22.6031457,14.1169748 C22.6637827,13.807163 22.6031457,9.66033955 23.3653602,7.91700108 C23.5338894,7.53146059 21.7479544,7.09720665 20.6244267,7.11976716 C19.5007597,7.14247137 18.6075134,7.7405405 18.2641823,8.38401806" id="Fill-145" fill="#4E4F83"></path>
                                <path d="M15.1456125,10.0682537 C14.983635,10.3759102 14.1662198,12.1113453 14.0901099,12.4281983 C14.014,12.7450514 13.5201217,13.0347456 13.3759868,13.0732566 C13.2318519,13.1119112 12.5050438,13.5386929 12.4389703,14.1005502 C12.3727575,14.6622639 12.6646516,14.5494613 12.7838348,14.4990235 C12.9027391,14.4487293 13.0892503,14.2522948 13.1284204,14.211341 C13.1677299,14.1705309 13.3486653,14.1991267 13.3014102,14.3204074 C13.2538764,14.4418319 13.3267802,14.7566732 13.5626374,14.5925706 C13.7983551,14.428468 14.3807495,14.1304393 14.4618777,14.021804 C14.5430058,13.9131686 14.8379667,13.3402466 14.8594336,13.2159482 C14.8809005,13.0919372 16.7712427,10.7051212 16.9418628,10.5790985 C17.1123435,10.4532194 17.349037,9.76548303 17.0338638,9.67696535 C16.7186906,9.58859137 15.2501591,9.86952005 15.1456125,10.0682537" id="Fill-146" fill="#F1AFAC"></path>
                                <path d="M24.7684037,6.56549704 C24.7684037,6.56549704 25.9128406,7.22808636 26.0141812,7.28671496 C26.1153823,7.34534355 27.0779081,7.33945195 27.2120066,7.36215616 C27.3462445,7.38486037 29.3245452,7.56850582 29.454183,7.57497221 C29.5839602,7.5814386 30.0109286,7.45785872 30.092475,7.38155533 C30.1740213,7.30496454 31.2403968,7.10853001 31.425514,7.15393843 C31.6106312,7.19920316 31.5334061,7.43271165 31.4731873,7.46992931 C31.412829,7.50714697 31.4341565,7.60874113 31.5594731,7.598826 C31.6846502,7.58891087 31.975011,7.49622596 32.1644495,7.6744109 C32.3537486,7.85259584 32.0023326,8.25336826 31.8930465,8.30696744 C31.7840392,8.36056662 30.5813349,8.83175083 29.7977929,8.4605801 C29.7977929,8.4605801 25.9903445,9.36041406 25.7220082,9.31500564 C25.4536719,9.26945352 23.8135446,8.41632126 23.6369305,8.30021366 C23.4603164,8.18439345 23.4944683,7.33887716 23.534196,7.26573512 C23.5742025,7.19259307 24.5962503,6.46591465 24.7684037,6.56549704" id="Fill-147" fill="#F4B0AB"></path>
                                <path d="M23.5907488,5.78302086 C23.5907488,5.78302086 22.1531631,4.41976236 20.7824873,4.28655475 C19.5220733,4.16398075 18.98094,4.70916919 18.5605232,5.22346266 C18.1401064,5.73789983 18.2248589,6.14312688 18.1911252,6.30191265 C18.1573914,6.46098582 21.5808052,7.28092394 22.087926,7.11926422 C22.5949074,6.9574608 23.6226704,5.98520329 23.5907488,5.78302086" id="Fill-148" fill="#9EB5DC"></path>
                                <path d="M6.62248449,2.84983807 C6.62248449,2.84983807 4.23659132,2.19385883 2.63145227,3.5006442 C1.02645262,4.80771696 -0.151439258,7.14797499 0.245140906,9.88843064 C0.481416258,11.5216968 0.636563437,11.8905684 0.704030853,12.0875777 C0.704030853,12.0875777 2.13645889,10.5271662 3.02050508,10.333893 C3.90455126,10.1407635 5.67543155,9.89935166 6.82544432,10.1324291 C7.9755965,10.3655065 11.5289269,10.9132815 12.4382037,9.72950117 C13.347341,8.54586459 13.2224427,7.53883228 12.3247357,6.71918155 C11.4273076,5.89938712 8.15834398,2.90789187 6.62248449,2.84983807" id="Fill-149" fill="#9DB5DC"></path>
                                <path d="M22.7102711,5.77347934 L23.6368329,5.85567433 L25.5101689,6.94001592 C25.5101689,6.94001592 24.5005274,8.57615603 23.8407685,8.41622068 L21.5411612,7.08500673 C21.5411612,7.08500673 21.4230932,6.8126999 21.3975838,6.68811414 C21.3722138,6.56352838 21.2834189,5.82176171 21.2834189,5.82176171 L22.7102711,5.77347934 Z" id="Fill-150" fill="#5E5F9F"></path>
                                <path d="M23.770569,1.81827659 C23.770569,1.81827659 24.202695,2.5456735 23.8279999,3.51318899 C23.4998629,4.36042965 22.7706851,4.36445318 22.7033571,4.34620359 C22.6358897,4.32795401 22.3644867,4.21443295 22.3006435,4.34433552 C22.2231397,4.50225911 22.1697512,4.91136599 21.7128128,5.20910728 C21.6010176,5.28196193 21.3250145,5.06411647 21.1734916,4.90260044 C21.0923635,4.81595083 20.9313617,4.61736084 20.9071068,4.49291877 C20.8928885,4.41977673 20.8882885,4.27837836 20.9124039,4.20839766 C20.9565922,4.08021946 21.1748856,3.72916639 21.1748856,3.72916639 C21.1748856,3.72916639 21.3021537,2.13110612 21.5911205,1.9864027 C21.8800874,1.84155559 23.4948447,1.76855724 23.770569,1.81827659" id="Fill-151" fill="#F1B0AA"></path>
                                <path d="M21.3071998,0.849870172 C21.3071998,0.849870172 20.7744302,1.03021058 20.6690472,1.85072349 C20.5635248,2.6713801 20.8311642,3.40064508 21.0125177,3.57839893 C21.1937318,3.75629648 21.5713542,3.91192091 21.7351439,3.87628392 C21.899073,3.84050323 22.3799875,3.53572077 22.4576307,3.40007029 C22.535274,3.26441982 22.3423507,2.86249782 22.6512511,2.75759862 C22.9600121,2.65284312 24.0189996,2.34116317 24.2453779,1.98306892 C24.4718955,1.62497467 24.5988848,0.942267686 24.5599935,0.784344097 C24.5599935,0.784344097 23.7632089,0.907492883 23.500309,0.567073426 C23.2376879,0.22665397 22.1805125,-0.53120682 21.3071998,0.849870172" id="Fill-152" fill="#454674"></path>
                                <path d="M23.2915364,7.24524385 C23.2915364,7.24524385 24.044969,6.02769465 23.6071278,5.78412733 C23.1691471,5.54041631 18.2501591,5.16507836 17.1421044,4.95369928 C15.9734126,4.73068071 5.89274911,2.43956724 5.03309714,2.62896059 C5.03309714,2.62896059 7.74336361,2.85384723 8.8497456,4.20201749 C9.95612759,5.55018775 11.0509398,7.41178929 11.6835165,8.76886879 C12.3159538,10.1256609 14.1158284,11.0313865 15.7392282,10.9184402 C17.3626281,10.8053502 22.1496085,9.10742018 23.2915364,7.24524385" id="Fill-153" fill="#BBCEF0"></path>
                                <path d="M11.8747253,5.7386758 C11.8747253,5.7386758 20.86671,7.07491916 22.7754525,6.05366079 C22.7754525,6.05366079 18.8184327,8.6047231 11.8747253,5.7386758" id="Fill-154" fill="#9CB6DC"></path>
                                <path d="M21.3163162,7.30418858 C21.3163162,7.30418858 14.107618,8.58165965 13.4473015,8.52806047 C15.9650628,9.35187842 19.9661315,8.06449222 20.7507887,7.69447108 C20.977864,7.58741641 21.0923077,7.53841555 21.3163162,7.30418858" id="Fill-155" fill="#9CB6DC"></path>
                            </g>
                        </g>
                        <g id="加入qtrade" mask="url(#mask-4)">
                            <g transform="translate(2.657807, 0.000000)">
                                <path d="M1.92568362,14.6847814 L29.2858119,14.6847814 C29.831824,14.6847814 31.2024998,15.163869 31.8879074,16.2236383 L31.8879074,12.9525077 L31.8879074,1.7600505 C31.8879074,0.803168623 31.13559,0.0276330356 30.2074948,0.0276330356 L1.92568362,0.0276330356 C0.997588458,0.0276330356 0.245131613,0.803168623 0.245131613,1.7600505 L0.245131613,12.9525077 C0.245131613,13.9092458 0.997588458,14.6847814 1.92568362,14.6847814" id="Fill-157" fill="#F1F4FA"></path>
                                <path d="M11.101085,6.01345437 L11.5241503,6.01345437 L11.5241503,4.87982453 L11.101085,4.87982453 L11.101085,6.01345437 Z M10.9503984,4.73440263 L11.6746974,4.73440263 L11.6746974,6.35329904 L11.5241503,6.35329904 L11.5241503,6.15485274 L11.1009456,6.15485274 L11.1009456,6.35329904 L10.9503984,6.35329904 L10.9503984,4.73440263 Z M9.9042353,4.83067998 L10.1700625,4.83067998 C10.1713171,4.72534968 10.1715958,4.6079488 10.1710383,4.47905211 L10.3215854,4.47905211 C10.3215854,4.60938577 10.3208884,4.72664296 10.3196339,4.83067998 L10.7637479,4.83067998 C10.7573357,5.33362134 10.7491114,5.72850216 10.7389355,6.01532244 C10.7339172,6.25113009 10.647492,6.36436375 10.4796599,6.3553108 C10.4301745,6.3553108 10.3571312,6.35329904 10.2605302,6.34927551 C10.2517483,6.29438305 10.241433,6.23733513 10.2300026,6.17841914 C10.3189369,6.19020234 10.3914225,6.19609394 10.4473201,6.19609394 C10.5323514,6.19882419 10.5787701,6.13645946 10.5864368,6.00943084 C10.6005158,5.69904417 10.6086007,5.35589446 10.6112492,4.97998171 L10.3176823,4.97998171 C10.3165672,5.08013889 10.3146156,5.16535153 10.3119671,5.23547593 C10.3069489,5.74747024 10.1874869,6.14177627 9.9537207,6.41810663 C9.92193853,6.37758392 9.88444114,6.33361248 9.84122854,6.28647968 C10.0521339,6.04808548 10.1596078,5.69243408 10.1633715,5.2196692 C10.1658806,5.15098178 10.1678322,5.07108595 10.1690867,4.97998171 L9.9042353,4.97998171 L9.9042353,4.83067998 Z" id="Fill-158" fill="#333333"></path>
                                <path d="M12.3436006,4.58905257 L12.4693353,4.49665506 C12.6116581,4.58704081 12.7679205,4.81896863 12.9382617,5.19215112 C13.1757917,5.72785552 13.4336733,6.05462371 13.7119067,6.17259939 L13.5785052,6.34546752 C13.3002718,6.17518595 13.0430871,5.81622951 12.8066724,5.26874191 C12.7877146,5.22491416 12.7688962,5.18309818 12.750496,5.14300656 C12.6030156,5.66376642 12.3291035,6.06841868 11.928202,6.35725072 C11.8937713,6.30480112 11.8550194,6.25580026 11.8119462,6.20981705 C12.224278,5.94196485 12.5018145,5.51834452 12.6446948,4.93881237 C12.5448877,4.76709382 12.4446623,4.65069882 12.3436006,4.58905257" id="Fill-159" fill="#333333"></path>
                                <path d="M14.032126,5.38569733 C14.032126,5.56963017 14.0777083,5.71720754 14.1687336,5.82828573 C14.2600376,5.93922023 14.378942,5.99468747 14.5257254,5.99468747 C14.6832423,5.99468747 14.8070255,5.94151939 14.8967962,5.83503951 C14.9868457,5.72870334 15.0317311,5.57997639 15.0317311,5.38871498 C15.0317311,5.19213675 14.9876821,5.04067955 14.8998629,4.93376859 C14.811765,4.82700132 14.6913273,4.77368953 14.5381316,4.77368953 C14.3875845,4.77368953 14.2656135,4.83001897 14.1722185,4.94267783 C14.0788235,5.0553367 14.032126,5.20305776 14.032126,5.38569733 L14.032126,5.38569733 Z M15.2756732,6.53887003 C15.2292545,6.55395827 15.1736357,6.56157424 15.1089562,6.56157424 C15.0173733,6.56157424 14.9308087,6.53858264 14.849123,6.49274312 C14.7675766,6.44690361 14.6546663,6.33927416 14.5105313,6.16956737 C14.3130079,6.17086065 14.1504728,6.09858079 14.0232047,5.9524404 C13.8956578,5.80644371 13.8319541,5.62265456 13.8319541,5.40136036 C13.8319541,5.15463169 13.8964942,4.95862826 14.025435,4.81392484 C14.1543759,4.66936512 14.3307111,4.59694157 14.5543015,4.59694157 C14.7555886,4.59694157 14.9190995,4.66792815 15.0446948,4.81004501 C15.1700114,4.95216187 15.2327394,5.13724429 15.2327394,5.36500488 C15.2327394,5.56747471 15.1886904,5.73732519 15.1003136,5.87484373 C15.0119369,6.01236227 14.8866204,6.10116735 14.7239458,6.14111526 C14.8059104,6.23279429 14.8757475,6.29544641 14.9335966,6.32921533 C14.9914458,6.36298425 15.0558465,6.37979686 15.1269382,6.37979686 C15.1853449,6.37979686 15.2349697,6.37088762 15.2756732,6.35321282 L15.2756732,6.53887003 Z" id="Fill-160" fill="#333333"></path>
                                <polygon id="Fill-161" fill="#333333" points="16.3152708 4.79729904 15.8892782 4.79729904 15.8892782 6.14403232 15.6977488 6.14403232 15.6977488 4.79729904 15.2737077 4.79729904 15.2737077 4.62241914 16.3152708 4.62241914"></polygon>
                                <path d="M16.9003555,5.24817879 C16.8691309,5.22533088 16.8263365,5.21383508 16.7716934,5.21383508 C16.6993472,5.21383508 16.6395465,5.24875358 16.5925702,5.31830318 C16.5455939,5.38828388 16.5220361,5.47996291 16.5220361,5.59391505 L16.5220361,6.14398921 L16.3352461,6.14398921 L16.3352461,5.05763586 L16.5220361,5.05763586 L16.5220361,5.27864267 L16.5257998,5.27864267 C16.5791883,5.11885101 16.6713287,5.03895518 16.802221,5.03895518 C16.8448761,5.03895518 16.8774946,5.0438409 16.9003555,5.05361233 L16.9003555,5.24817879 Z" id="Fill-162" fill="#333333"></path>
                                <path d="M17.4177776,5.63324507 C17.3313524,5.64502827 17.2718305,5.66730138 17.2390726,5.70006442 C17.2063146,5.73268376 17.1900053,5.77866697 17.1900053,5.83758296 C17.1900053,5.88931407 17.207848,5.93156115 17.2433938,5.96432419 C17.2789397,5.99694353 17.3260553,6.01346874 17.384462,6.01346874 C17.4657296,6.01346874 17.5327788,5.98386705 17.5854703,5.92495106 C17.6381618,5.86603507 17.664647,5.79203084 17.664647,5.70293837 L17.664647,5.59890136 L17.4177776,5.63324507 Z M17.1052529,5.13332135 C17.2100783,5.06578351 17.3310736,5.03201459 17.4682387,5.03201459 C17.7224961,5.03201459 17.8494854,5.16953313 17.8494854,5.4447139 L17.8494854,6.1440898 L17.664647,6.1440898 L17.664647,5.97610738 L17.6597681,5.97610738 C17.5867249,6.10500407 17.4789722,6.16952426 17.3367888,6.16952426 C17.2346119,6.16952426 17.1532049,6.14107215 17.0928467,6.08416793 C17.0324884,6.02712001 17.002379,5.95024183 17.002379,5.85324599 C17.002379,5.65020138 17.1187742,5.53208201 17.3519829,5.49860048 L17.664647,5.45347945 C17.664647,5.276013 17.5934159,5.18720793 17.4510931,5.18720793 C17.3246614,5.18720793 17.2093813,5.23117937 17.1052529,5.31883487 L17.1052529,5.13332135 Z" id="Fill-163" fill="#333333"></path>
                                <path d="M18.8881072,5.49768082 C18.8881072,5.41060011 18.8603675,5.33774546 18.8047487,5.27911687 C18.7491299,5.22048827 18.6806868,5.19117398 18.5994192,5.19117398 C18.500309,5.19117398 18.4221081,5.22939752 18.364956,5.30570091 C18.3078038,5.3818606 18.2792277,5.48589762 18.2792277,5.61752456 C18.2792277,5.73866158 18.3066887,5.83450783 18.3616105,5.90491962 C18.4165323,5.97518772 18.4898543,6.01039361 18.5812978,6.01039361 C18.6714867,6.01039361 18.7452269,5.97590621 18.802379,5.90693139 C18.8595312,5.83766918 18.8881072,5.75188175 18.8881072,5.64899432 L18.8881072,5.49768082 Z M19.0739214,6.14403232 L18.8871315,6.14403232 L18.8871315,5.96326082 L18.8833678,5.96326082 C18.8064215,6.10077936 18.6870989,6.16961048 18.5251214,6.16961048 C18.3915805,6.16961048 18.2856399,6.12060962 18.2067421,6.0227516 C18.1279836,5.92489358 18.0886741,5.79269185 18.0886741,5.62643381 C18.0886741,5.44681189 18.1331413,5.30311436 18.2220756,5.19462272 C18.3108705,5.08627478 18.4271264,5.03210081 18.5708431,5.03210081 C18.7144205,5.03210081 18.8185489,5.08972352 18.8833678,5.20496894 L18.8871315,5.20496894 L18.8871315,4.53605692 L19.0739214,4.53605692 L19.0739214,6.14403232 Z" id="Fill-164" fill="#333333"></path>
                                <path d="M20.0792277,5.49572653 C20.0785308,5.39743742 20.0560881,5.32156512 20.0116209,5.26782224 C19.9670144,5.21407936 19.9045652,5.18735162 19.8238552,5.18735162 C19.7495574,5.18735162 19.6852961,5.21580373 19.6307925,5.27270796 C19.576707,5.32975588 19.5424157,5.4040475 19.5284762,5.49572653 L20.0792277,5.49572653 Z M20.2660177,5.64991398 L19.5284762,5.64991398 C19.5315429,5.76587789 19.5624887,5.85540145 19.6208954,5.91862837 C19.6793021,5.98185528 19.7609878,6.01346874 19.8658133,6.01346874 C19.9838812,6.01346874 20.0923309,5.97438301 20.1907441,5.89649895 L20.1907441,6.0683612 C20.0980461,6.13589904 19.9750993,6.16952426 19.8219037,6.16952426 C19.6695444,6.16952426 19.5505007,6.11980492 19.4650512,6.02022253 C19.3796018,5.92078383 19.3369468,5.78254681 19.3369468,5.60579884 C19.3369468,5.4393971 19.3837837,5.30216595 19.4775968,5.19410541 C19.5711312,5.08604486 19.6875264,5.03201459 19.8266431,5.03201459 C19.9646447,5.03201459 20.072258,5.0778541 20.1497619,5.16910204 C20.2272658,5.26049367 20.2660177,5.38838447 20.2660177,5.55263075 L20.2660177,5.64991398 Z" id="Fill-165" fill="#333333"></path>
                                <path d="M5.67037614,8.77589575 L6.0268104,8.77589575 L6.0268104,8.40070149 L5.67037614,8.40070149 L5.67037614,8.77589575 Z M5.67037614,8.25527959 L6.0268104,8.25527959 L6.0268104,7.88396516 L5.67037614,7.88396516 L5.67037614,8.25527959 Z M5.17872825,8.25527959 L5.5294473,8.25527959 L5.5294473,7.88396516 L5.17872825,7.88396516 L5.17872825,8.25527959 Z M5.17872825,8.40070149 C5.17998281,8.53692675 5.17803127,8.66194361 5.17301303,8.77589575 L5.5294473,8.77589575 L5.5294473,8.40070149 L5.17872825,8.40070149 Z M5.16534628,8.92131765 C5.15015217,9.17666817 5.08533327,9.38890943 4.97102897,9.55789773 C4.93408917,9.51593805 4.89673118,9.47728341 4.85853681,9.44193382 C4.93478614,9.31619848 4.98441094,9.18730179 5.0072718,9.05495636 C5.02622958,8.93827396 5.03584787,8.74442599 5.03584787,8.47341244 L5.03584787,7.73854326 L6.16787863,7.73854326 L6.16787863,9.32209007 C6.16787863,9.4662187 6.10501127,9.53892965 5.97913714,9.54022293 C5.92463351,9.54137251 5.84963873,9.54079772 5.75429222,9.53821116 C5.74411635,9.48188173 5.73407987,9.43015062 5.72376461,9.38301783 C5.81534744,9.39092119 5.88518458,9.39480103 5.93341542,9.39480103 C5.99558581,9.39480103 6.0268104,9.35873295 6.0268104,9.28674048 L6.0268104,8.92131765 L5.67037614,8.92131765 L5.67037614,9.47139181 L5.5294473,9.47139181 L5.5294473,8.92131765 L5.16534628,8.92131765 Z M4.38208303,8.6737268 C4.4633506,8.6508789 4.5467091,8.62630662 4.63174035,8.60015367 L4.63174035,8.17667704 L4.40313175,8.17667704 L4.40313175,8.04117026 L4.63174035,8.04117026 L4.63174035,7.65218104 L4.77280859,7.65218104 L4.77280859,8.04117026 L4.98622308,8.04117026 L4.98622308,8.17667704 L4.77280859,8.17667704 L4.77280859,8.55690071 C4.83762749,8.53649566 4.90356155,8.51537212 4.97102897,8.49295531 C4.97228353,8.55316457 4.97353809,8.60503938 4.97479265,8.64829234 C4.90746463,8.66855369 4.84013661,8.68982093 4.77280859,8.71209405 L4.77280859,9.32798167 C4.77280859,9.46550021 4.71440188,9.53548091 4.59744906,9.53821116 C4.55047278,9.54079772 4.48955695,9.54079772 4.41456218,9.53821116 C4.40689543,9.48317501 4.3985317,9.42943213 4.38974979,9.37712623 C4.46209604,9.3848859 4.51743605,9.38890943 4.55549102,9.38890943 C4.60637037,9.38890943 4.63174035,9.35815816 4.63174035,9.29651191 L4.63174035,8.75822095 C4.55549102,8.78379912 4.47938108,8.81009576 4.40313175,8.83682351 L4.38208303,8.6737268 Z" id="Fill-167" fill="#333333"></path>
                                <path d="M6.87489255,8.98411348 L7.83546686,8.98411348 L7.83546686,8.74830582 L6.87489255,8.74830582 L6.87489255,8.98411348 Z M6.87489255,8.61481082 L7.83546686,8.61481082 L7.83546686,8.38101493 L6.87489255,8.38101493 L6.87489255,8.61481082 Z M6.87489255,9.56177756 L6.72434542,9.56177756 L6.72434542,8.54511751 C6.632205,8.65576461 6.53058569,8.76224449 6.41948749,8.86426973 C6.39272356,8.81843022 6.36219594,8.77072264 6.32790465,8.7208596 C6.57310132,8.50948052 6.76463072,8.27496615 6.90249286,8.01760387 L6.38129313,8.01760387 L6.38129313,7.87218196 L6.97400274,7.87218196 C7.01024557,7.79041807 7.04133076,7.70649871 7.06739772,7.62071128 L7.2256116,7.65807264 C7.20010222,7.73078359 7.17222313,7.80220127 7.14169551,7.87218196 L8.21852566,7.87218196 L8.21852566,8.01760387 L7.07311293,8.01760387 C7.03380341,8.09491314 6.99045141,8.17006695 6.94347513,8.24349639 L7.98782613,8.24349639 L7.98782613,9.29263208 C7.98782613,9.45501029 7.91101921,9.5361994 7.75726599,9.5361994 C7.68993797,9.53749268 7.58762168,9.53821116 7.45045652,9.53821116 C7.44404433,9.49366493 7.43456543,9.43992205 7.42188045,9.37712623 C7.53883326,9.38617917 7.63278582,9.39092119 7.70387752,9.39092119 C7.79155728,9.39092119 7.83546686,9.34637496 7.83546686,9.25728249 L7.83546686,9.11775218 L6.87489255,9.11775218 L6.87489255,9.56177756 Z" id="Fill-168" fill="#333333"></path>
                                <path d="M9.81555189,8.18064309 L9.32766768,8.18064309 C9.3269707,8.25996413 9.32599494,8.33066331 9.32474038,8.39288435 L9.81555189,8.39288435 L9.81555189,8.18064309 Z M9.30383105,8.73660885 L9.81555189,8.73660885 L9.81555189,8.52451129 L9.32195247,8.52451129 C9.31888577,8.60038358 9.31275236,8.67108277 9.30383105,8.73660885 L9.30383105,8.73660885 Z M8.98266385,9.16295943 C9.05138582,9.10203167 9.10184699,9.00446105 9.13418674,8.87024755 L8.66735125,8.87024755 C8.75503102,8.99598289 8.86013521,9.09355352 8.98266385,9.16295943 L8.98266385,9.16295943 Z M9.17516902,8.52451129 L8.6567572,8.52451129 L8.6567572,8.73660885 L9.15899914,8.73660885 C9.16736287,8.67251975 9.1726599,8.60182056 9.17516902,8.52451129 L9.17516902,8.52451129 Z M8.6567572,8.39288435 L9.17712055,8.39288435 C9.17837511,8.32994483 9.17935088,8.25924564 9.17990846,8.18064309 L8.6567572,8.18064309 L8.6567572,8.39288435 Z M8.29279558,9.43799651 C8.52530725,9.39804859 8.71279418,9.33654605 8.85497758,9.25334517 C8.7463885,9.1760359 8.64797528,9.07458544 8.55959854,8.9488501 L8.6596845,8.87024755 L8.51192528,8.87024755 L8.51192528,8.04700438 L9.18088423,8.04700438 C9.18158121,7.99081865 9.18213879,7.93046568 9.18283577,7.86623289 L8.36137816,7.86623289 L8.36137816,7.72871435 L10.1109309,7.72871435 L10.1109309,7.86623289 L9.32961922,7.86623289 C9.32961922,7.93118417 9.32934043,7.99139344 9.32864345,8.04700438 L9.9603838,8.04700438 L9.9603838,8.9665249 L9.81555189,8.9665249 L9.81555189,8.87024755 L9.28194596,8.87024755 C9.24890923,9.02544089 9.19649653,9.14499723 9.12470785,9.2287729 C9.37938341,9.32505024 9.73428432,9.37247043 10.1891318,9.37117715 C10.1573496,9.42894356 10.1312827,9.48124946 10.1109309,9.52838225 C9.60659805,9.5138688 9.23594545,9.4500671 8.99897312,9.33683344 C8.85288665,9.43627213 8.64658133,9.51659906 8.38047534,9.57752681 C8.35496596,9.5315436 8.32583231,9.4851293 8.29279558,9.43799651 L8.29279558,9.43799651 Z" id="Fill-169" fill="#333333"></path>
                                <path d="M11.3459053,8.42425352 L11.5346467,8.42425352 C11.47624,8.48316951 11.4157424,8.53892415 11.353572,8.59123005 L12.047204,8.59123005 L12.047204,8.73464019 C11.6382176,9.19174204 11.0924843,9.47525728 10.4101433,9.58532959 C10.3872825,9.5381968 10.3587064,9.48905224 10.3244151,9.43803961 C10.6344307,9.3920564 10.9121065,9.31417234 11.1571638,9.20424373 C11.1203634,9.15438068 11.0676719,9.09345293 10.9990893,9.02146047 L11.1133936,8.93509825 C11.1782125,9.00450416 11.2373162,9.07333528 11.2907046,9.14130421 C11.5041191,9.02864534 11.687703,8.8911268 11.8414562,8.72874859 L11.1876914,8.72874859 C10.964101,8.90161672 10.7283832,9.04315879 10.4806775,9.15308741 C10.4578166,9.11515126 10.427289,9.07060502 10.389234,9.0195924 C10.7424622,8.87287722 11.0612597,8.67443092 11.3459053,8.42425352 M11.058193,7.63449187 L11.2505587,7.63449187 C11.1858792,7.70648434 11.1198058,7.77402218 11.0524778,7.836818 L11.9500453,7.836818 L11.9500453,7.97045671 C11.5129011,8.33314928 10.9826406,8.60373174 10.3587064,8.78177298 C10.3320819,8.72946708 10.3028088,8.68362756 10.2710266,8.64425444 C10.5328114,8.57355525 10.7678322,8.49308464 10.9762284,8.40269889 C10.9305067,8.35024929 10.8701485,8.28601649 10.7951537,8.21014419 L10.9017912,8.12363828 C10.9769254,8.198361 11.0460656,8.27107195 11.1096299,8.34177113 C11.3421416,8.2329921 11.5460772,8.1105618 11.7212973,7.97433654 L10.8999791,7.97433654 C10.7678322,8.09101894 10.6110122,8.20224083 10.4292405,8.30828961 C10.4013614,8.26906018 10.3663732,8.22781899 10.3244151,8.18456603 C10.6153335,8.02477437 10.8599726,7.84141632 11.058193,7.63449187" id="Fill-170" fill="#333333"></path>
                                <path d="M12.8762865,8.97635381 L13.3965105,8.97635381 L13.3965105,8.64038898 L12.8762865,8.64038898 L12.8762865,8.97635381 Z M12.7352183,8.49884691 L13.5375787,8.49884691 L13.5375787,9.11775218 L12.8762865,9.11775218 L12.8762865,9.21992113 L12.7352183,9.21992113 L12.7352183,8.49884691 Z M12.5789559,8.27295438 L13.6957926,8.27295438 L13.6957926,8.13155601 L12.5789559,8.13155601 L12.5789559,8.27295438 Z M12.472179,9.5479826 L12.3255349,9.5479826 L12.3255349,7.74644662 L13.9492136,7.74644662 L13.9492136,9.32007831 C13.9492136,9.46550021 13.8749158,9.53821116 13.7261808,9.53821116 C13.6334828,9.53821116 13.5280998,9.53548091 13.4098924,9.5303078 C13.4034802,9.48446829 13.3946983,9.43216239 13.3832679,9.3731027 C13.5090026,9.3848859 13.6131311,9.39092119 13.6957926,9.39092119 C13.7668843,9.39092119 13.8024301,9.35427832 13.8024301,9.28084888 L13.8024301,7.89186853 L12.472179,7.89186853 L12.472179,9.5479826 Z" id="Fill-171" fill="#333333"></path>
                                <path d="M15.4852961,8.87612478 C15.6122854,8.59835745 15.7190623,8.32993046 15.8054875,8.07070011 L15.9597983,8.13349593 C15.8417304,8.44661285 15.7292382,8.71575833 15.6224613,8.94093237 L15.4852961,8.87612478 Z M14.3723625,8.05288161 C14.476491,8.30564557 14.5774133,8.57421626 14.6752689,8.85844998 L14.5190066,8.93116094 C14.4339753,8.65483058 14.3386288,8.38295485 14.2332458,8.11582113 L14.3723625,8.05288161 Z M14.1512813,9.29069216 L14.7629487,9.29069216 L14.7629487,7.66791592 L14.9231141,7.66791592 L14.9231141,9.29069216 L15.2565481,9.29069216 L15.2565481,7.66791592 L15.4167135,7.66791592 L15.4167135,9.29069216 L16.0342355,9.29069216 L16.0342355,9.43597037 L14.1512813,9.43597037 L14.1512813,9.29069216 Z" id="Fill-172" fill="#333333"></path>
                                <path d="M16.8326929,8.51659355 L17.3568199,8.51659355 L17.3568199,8.21008671 C17.4825547,8.1001581 17.5975559,8.00057571 17.7016844,7.91148324 L16.9012755,7.91148324 L16.9012755,7.7680731 L17.9132867,7.7680731 L17.9132867,7.92326644 C17.7761216,8.04382867 17.6407685,8.16223544 17.5073671,8.27891783 L17.5073671,8.51659355 L17.9914876,8.51659355 L17.9914876,8.66000369 L17.5073671,8.66000369 L17.5073671,9.2886804 C17.5073671,9.44847206 17.4254025,9.52836788 17.2614734,9.52836788 C17.2080849,9.52836788 17.1250052,9.52707461 17.0118161,9.52448805 C17.0054039,9.47462501 16.997319,9.42160062 16.9870037,9.36527118 C17.1014474,9.3757611 17.1859211,9.3817964 17.2405641,9.38294598 C17.3179286,9.38294598 17.3568199,9.34443504 17.3568199,9.26712577 L17.3568199,8.66000369 L16.8326929,8.66000369 L16.8326929,8.51659355 Z M16.687861,8.19442368 L16.4486583,8.19442368 C16.4036336,8.44460109 16.3646028,8.6246541 16.3314267,8.73472641 C16.3988941,8.78904408 16.4660828,8.84364914 16.5335502,8.89868529 C16.6192784,8.71604573 16.6707153,8.48124396 16.687861,8.19442368 L16.687861,8.19442368 Z M16.8975118,9.20418625 L16.7850196,9.32790983 C16.7119764,9.25850392 16.6404665,9.19139717 16.5706294,9.12658958 C16.4754223,9.27517283 16.3492693,9.41240397 16.19231,9.53813932 C16.1656855,9.49761661 16.1364124,9.45493844 16.1046303,9.41053591 C16.2558744,9.29730225 16.3756151,9.16984254 16.4638524,9.02844417 C16.3648816,8.9387769 16.2692563,8.85457015 16.1771159,8.7759676 C16.2228376,8.60956586 16.2647957,8.41571788 16.3028506,8.19442368 L16.1008666,8.19442368 L16.1008666,8.04699001 L16.3266873,8.04699001 C16.347039,7.91737484 16.366415,7.77913781 16.3848152,7.63256633 L16.5392654,7.65412096 C16.5162651,7.79824958 16.4946588,7.92915804 16.4744465,8.04699001 L16.8346444,8.04699001 L16.8346444,8.17473712 C16.8060684,8.5315381 16.7437586,8.80441971 16.6478545,8.99295087 C16.7316312,9.06250048 16.8148503,9.13276857 16.8975118,9.20418625 L16.8975118,9.20418625 Z" id="Fill-173" fill="#333333"></path>
                                <path d="M19.5313059,8.51659355 L18.8156495,8.51659355 C18.8881351,8.73400792 19.0041122,8.91319874 19.1634412,9.05387863 C19.3489766,8.89868529 19.4715052,8.71963817 19.5313059,8.51659355 L19.5313059,8.51659355 Z M18.1057082,7.93504964 L18.6394536,7.93504964 C18.6553447,7.83690422 18.6691448,7.73473527 18.6812722,7.6285428 L18.8432498,7.65024112 C18.8312618,7.74838654 18.817601,7.84337061 18.8024069,7.93504964 L19.910601,7.93504964 L19.910601,8.08435137 L18.7746672,8.08435137 C18.7550124,8.18580183 18.7329879,8.28279767 18.7090119,8.37519518 L19.7047139,8.37519518 L19.7047139,8.51659355 C19.6095068,8.78573903 19.4722022,8.99769289 19.293079,9.15216774 C19.4696931,9.26741316 19.6845015,9.34759639 19.9372256,9.39286111 C19.8927584,9.45307038 19.8514973,9.51141157 19.813303,9.56759731 C19.5548637,9.48784518 19.3381038,9.38222749 19.1634412,9.25131904 C18.9766513,9.37978463 18.7460911,9.48971325 18.4716214,9.58139227 C18.4362149,9.5276494 18.4030388,9.47606198 18.3725112,9.42619894 C18.637502,9.3527695 18.8592803,9.2592224 19.0377065,9.14527026 C18.8655531,8.98145507 18.7426062,8.77194407 18.668866,8.51659355 C18.5424343,8.9389206 18.3649839,9.26310224 18.1362359,9.48913846 C18.1031991,9.44186197 18.0696048,9.39745943 18.0353135,9.35549975 C18.3089469,9.06666771 18.5011732,8.64304738 18.6117139,8.08435137 L18.1057082,8.08435137 L18.1057082,7.93504964 Z" id="Fill-174" fill="#333333"></path>
                                <path d="M21.3970866,8.37121476 L20.502307,8.37121476 L20.4422275,8.80345694 L21.366559,8.80345694 L21.3970866,8.37121476 Z M20.0420231,9.28283191 L21.3332435,9.28283191 L21.3570801,8.94485531 L20.2822015,8.94485531 L20.2822015,8.80532501 L20.402221,7.94098434 L20.1106057,7.94098434 L20.1106057,7.79944227 L21.7839091,7.79944227 L21.7839091,7.94098434 L20.5623865,7.94098434 L20.5214042,8.22981639 L21.5667309,8.22981639 L21.4932695,9.28283191 L21.8563948,9.28283191 L21.8563948,9.42035045 L20.0420231,9.42035045 L20.0420231,9.28283191 Z" id="Fill-175" fill="#333333"></path>
                                <path d="M22.8283437,8.04115589 L23.1122924,8.04115589 C23.1142439,7.90952895 23.1149409,7.77474067 23.1142439,7.63650364 L23.2705062,7.63650364 C23.2698093,7.77330369 23.2682759,7.90823568 23.2657668,8.04115589 L23.7792998,8.04115589 C23.7705179,8.5361939 23.7576935,8.93509825 23.7412448,9.23758156 C23.7271659,9.42223289 23.6440861,9.51592368 23.4915875,9.51851023 C23.4126896,9.51851023 23.3269614,9.51664217 23.2342634,9.51261863 C23.2254815,9.45758248 23.2151662,9.39995977 23.2037358,9.3397505 C23.2914156,9.3515337 23.3714286,9.35814379 23.4439142,9.35943706 C23.5380062,9.35943706 23.5867946,9.3051194 23.5906977,9.19634036 C23.6096555,8.87144024 23.6210859,8.5361939 23.624989,8.19045763 L23.2628395,8.19045763 C23.2615849,8.24678706 23.2603304,8.30239801 23.2590758,8.35743416 C23.2526636,8.87345201 23.1015589,9.28083451 22.8054829,9.57943799 C22.769937,9.53503545 22.7318821,9.49034552 22.6911786,9.44579928 C22.956727,9.20223196 23.0951467,8.83810241 23.1065771,8.35355433 C23.1078317,8.29981145 23.1092257,8.24549379 23.1103408,8.19045763 L22.8283437,8.19045763 L22.8283437,8.04115589 Z M22.0450805,7.94890208 L22.8092466,7.94890208 L22.8092466,7.80348017 L22.0450805,7.80348017 L22.0450805,7.94890208 Z M22.633887,8.71897716 C22.7140394,8.8970184 22.7876403,9.07391007 22.8549683,9.24936475 C22.7990707,9.27422443 22.7513974,9.29577906 22.7120879,9.31417234 C22.703306,9.28945637 22.6942453,9.26445299 22.6854634,9.23959332 C22.4433334,9.26315972 22.2229491,9.28672611 22.0240318,9.31029251 L21.9574007,9.15121934 C22.0132983,9.1184563 22.0584625,9.06543191 22.0927538,8.99200247 C22.1549241,8.86310578 22.219743,8.6992906 22.2870711,8.5008443 L21.9650675,8.5008443 L21.9650675,8.3555661 L22.8854959,8.3555661 L22.8854959,8.5008443 L22.4472365,8.5008443 C22.338508,8.77990491 22.2445554,8.99660079 22.1651,9.15121934 C22.3111865,9.14001093 22.4684246,9.12535378 22.6368143,9.1069605 C22.5941593,8.99573861 22.5494134,8.88667218 22.5024371,8.77990491 L22.633887,8.71897716 Z" id="Fill-176" fill="#333333"></path>
                                <path d="M24.9018516,7.91149761 L24.9018516,8.56172895 C24.9018516,9.030614 24.7882443,9.37045866 24.5607509,9.58140664 C24.525205,9.53700411 24.4875682,9.49231417 24.4482587,9.44776794 C24.6491276,9.26584686 24.749353,8.98218793 24.749353,8.59707854 L24.749353,7.76219587 L25.4583184,7.76219587 L25.4583184,9.23955021 C25.4583184,9.30507629 25.4804823,9.33783932 25.5250889,9.33783932 L25.568859,9.33783932 C25.6095625,9.33783932 25.6356295,9.30119645 25.6470599,9.22776701 C25.6597449,9.12689135 25.6686662,9.01825601 25.6736845,8.90171731 C25.7181516,8.92399043 25.7663825,8.94482657 25.8185164,8.96451313 C25.8070859,9.09412831 25.7956555,9.20032079 25.7842251,9.28280317 C25.7640127,9.42161499 25.6991938,9.4910209 25.5899078,9.4910209 L25.488846,9.4910209 C25.366875,9.4910209 25.3058198,9.41644188 25.3058198,9.26714014 L25.3058198,7.91149761 L24.9018516,7.91149761 Z M23.8975071,8.86435595 C24.0396905,8.64550461 24.1411705,8.40984065 24.2015287,8.15707669 L23.9166043,8.15707669 L23.9166043,8.02343799 L24.2137955,8.02343799 L24.2137955,7.63646053 L24.3511001,7.63646053 L24.3511001,8.02343799 L24.617903,8.02343799 L24.617903,8.15707669 L24.3511001,8.15707669 L24.3511001,8.48327009 L24.4273494,8.40466754 C24.525205,8.49620287 24.6020119,8.57092559 24.6579095,8.6285483 L24.5550357,8.73660885 C24.4768348,8.64751637 24.4089492,8.57351215 24.3511001,8.51459616 L24.3511001,9.55194865 L24.2137955,9.55194865 L24.2137955,8.49893313 C24.1459099,8.72094581 24.0614362,8.90042403 23.9603745,9.03722408 C23.9401622,8.9783081 23.9191134,8.92054169 23.8975071,8.86435595 L23.8975071,8.86435595 Z" id="Fill-177" fill="#333333"></path>
                                <path d="M26.2702414,8.48519564 L27.3222591,8.48519564 L27.3222591,8.33977374 L26.2702414,8.33977374 L26.2702414,8.48519564 Z M27.0877959,8.99992021 C27.2719374,9.1689085 27.4308482,9.32726319 27.5642497,9.47527165 L27.4403271,9.58922379 C27.3996236,9.54079772 27.3526474,9.48705484 27.2993983,9.42813885 C26.9829705,9.44782542 26.6597124,9.47009853 26.3293451,9.49495821 C26.2759566,9.50013132 26.2218712,9.51464477 26.1672281,9.53821116 L26.0814999,9.37511446 C26.1438097,9.35154807 26.1965012,9.32007831 26.2397138,9.28084888 C26.3502544,9.16948329 26.4570313,9.03914963 26.5599052,8.88984789 L25.9252376,8.88984789 L25.9252376,8.74442599 L27.6747903,8.74442599 L27.6747903,8.88984789 L26.7524104,8.88984789 C26.6227726,9.05883619 26.4963409,9.20885642 26.3731153,9.33976487 C26.6539972,9.32525142 26.9220547,9.31160015 27.1774272,9.29852368 C27.1190205,9.23687744 27.0547592,9.17005808 26.9849221,9.09806562 L27.0877959,8.99992021 Z M26.8000836,7.81326598 C26.5458263,8.12235937 26.2606231,8.3712435 25.9443347,8.55977466 C25.9138071,8.51264187 25.8788189,8.46479059 25.8395093,8.41636452 C26.2041679,8.22380983 26.499547,7.96975259 26.7256464,7.65419281 L26.929582,7.65419281 L26.8933392,7.70319367 C27.1133053,8.00582067 27.4035267,8.22783336 27.7644216,8.36923173 C27.7262273,8.42153763 27.6906814,8.47729228 27.6576447,8.53620827 C27.289083,8.35155694 27.0033223,8.11057617 26.8000836,7.81326598 L26.8000836,7.81326598 Z" id="Fill-178" fill="#333333"></path>
                            </g>
                        </g>
                    </g>
                </g>
            </g>
        </g>
    </g>
</svg>