<?xml version="1.0" encoding="UTF-8"?>
<svg width="30px" height="30px" viewBox="0 0 30 30" version="1.1" xmlns="http://www.w3.org/2000/svg" xmlns:xlink="http://www.w3.org/1999/xlink">
    <!-- Generator: Sketch 49.2 (51160) - http://www.bohemiancoding.com/sketch -->
    <title>loading</title>
    <desc>Created with Sketch.</desc>
    <defs></defs>
    <g id="Page-1" stroke="none" stroke-width="1" fill="none" fill-rule="evenodd">
        <g id="图标" transform="translate(-266.000000, -333.000000)" fill-rule="nonzero">
            <g id="loading" transform="translate(266.000000, 333.000000)">
                <g id="加载-copy" transform="translate(15.000000, 15.000000) scale(-1, 1) translate(-15.000000, -15.000000) ">
                    <path d="M15.0030235,0 C15.8204795,0 16.4797456,0.661524927 16.4797456,1.47527859 L16.4797456,6.01521995 C16.4797456,6.83190616 15.817544,7.49049854 15.0030235,7.49049854 C14.1855675,7.49049854 13.5263014,6.8289736 13.5263014,6.01521995 L13.5263014,1.47818182 C13.523366,0.661524927 14.1855675,0 15.0030235,0 Z" id="Shape" fill="#EAEAEA"></path>
                    <path d="M22.7879648,2.23046921 C23.4941096,2.63733138 23.7372799,3.54181818 23.3300489,4.2472434 L21.0563601,8.18129032 C20.6490998,8.8867449 19.743728,9.1296774 19.0376126,8.72281522 C18.3314677,8.31595305 18.0882974,7.41146627 18.4955577,6.70604105 L20.7692172,2.77489736 C21.1794129,2.06653959 22.0818494,1.82357771 22.7879942,2.23046921 L22.7879648,2.23046921 Z" id="Shape" fill="#9B9B9B"></path>
                    <path d="M27.7103718,7.63686218 C28.1176321,8.34228743 27.8773973,9.24677422 27.168317,9.6536364 L23.2333561,11.9250733 C22.5272114,12.3319648 21.6218396,12.0919354 21.2145793,11.3835777 C20.807319,10.6781232 21.0475538,9.77366572 21.756634,9.36677423 L25.6915949,7.09533724 C26.3977397,6.68847507 27.3001761,6.93140762 27.7103718,7.63686218 Z" id="Shape" fill="#9D9B9B"></path>
                    <path d="M29.9840313,14.7 C29.9840313,15.5166569 29.3218591,16.1752786 28.5073092,16.1752786 L23.9629256,16.1752786 C23.1454403,16.1752786 22.4862035,15.5137244 22.4862035,14.7 C22.4862035,13.8833431 23.1483758,13.2247214 23.9629256,13.2247214 L28.5073092,13.2247214 C29.3247945,13.2217888 29.9840313,13.8833431 29.9840313,14.7 Z" id="Shape" fill="#A2A0A0"></path>
                    <path d="M27.7103718,22.3368622 C27.3030822,23.0422874 26.3977397,23.2852493 25.6915949,22.8783578 L21.756634,20.6069208 C21.0505186,20.2000586 20.807319,19.2955718 21.2145793,18.5901467 C21.6218396,17.8846921 22.5272114,17.6417595 23.2333561,18.0486217 L27.1682877,20.3200586 C27.8744325,20.7269501 28.1176027,21.6314076 27.7103718,22.3368622 Z" id="Shape" fill="#A9A9A9"></path>
                    <path d="M22.7879648,28.3198827 C22.0818494,28.7267449 21.1765069,28.4867449 20.7692172,27.7783578 L18.4955577,23.8472727 C18.0882974,23.1418182 18.3285323,22.2373314 19.0376126,21.8304692 C19.743728,21.4235777 20.6490998,21.6636071 21.0563601,22.3719648 L23.3300489,26.3031085 C23.7373092,27.0085337 23.497045,27.910088 22.7879942,28.3198827 L22.7879648,28.3198827 Z" id="Shape" fill="#B1B1B1"></path>
                    <path d="M15.0030235,29.9737244 C14.1855675,29.9737244 13.5263014,29.3121701 13.5263014,28.4984458 L13.5263014,23.9584751 C13.5263014,23.1418182 14.1884736,22.4831965 15.0030235,22.4831965 C15.8204795,22.4831965 16.4797456,23.1447507 16.4797456,23.9584751 L16.4797456,28.4984458 C16.4797456,29.3121701 15.817544,29.9737244 15.0030235,29.9737244 Z" id="Shape" fill="#B9B9B9"></path>
                    <path d="M7.21511742,28.3198827 C6.50900196,27.9130205 6.26580235,27.0085337 6.67306262,26.3031085 L8.9467515,22.3719648 C9.35401178,21.6665396 10.2593836,21.4235777 10.965499,21.8304692 C11.6716144,22.2373314 11.9148141,23.1418182 11.5075538,23.8472434 L9.23389432,27.7783578 C8.82660472,28.4838123 7.92126225,28.7267449 7.21511742,28.3198827 Z" id="Shape" fill="#C1C0C0"></path>
                    <path d="M1.70383562,22.3368622 C1.29654598,21.6314076 1.53681017,20.7269501 2.24586106,20.3200586 L6.18085127,18.0486217 C6.88696673,17.6417595 7.79233852,17.8817595 8.1995988,18.5901467 C8.60685908,19.2955718 8.36662425,20.2000586 7.65754402,20.6069208 L3.72258317,22.8783577 C3.01646771,23.2852492 2.11109589,23.0422874 1.70383562,22.3368622 Z" id="Shape" fill="#CAC9C9"></path>
                    <path d="M0.0190802348,14.7 C0.0190802348,13.8833431 0.681252446,13.2247214 1.49580235,13.2247214 L6.04018591,13.2247214 C6.85767123,13.2247214 7.516908,13.8862463 7.516908,14.7 C7.516908,15.5166569 6.85473581,16.1752786 6.04018591,16.1752786 L1.49580235,16.1752786 C0.681252446,16.1752786 0.0190802348,15.5137244 0.0190802348,14.7 Z" id="Shape" fill="#D4D4D4"></path>
                    <path d="M1.70383561,7.63686218 C2.11109589,6.93140762 3.01646771,6.68847507 3.72258317,7.09533724 L7.65754402,9.36677423 C8.36368882,9.77366573 8.60685907,10.6781232 8.1995988,11.3835777 C7.79233852,12.089003 6.88696673,12.3319648 6.18085127,11.9250734 L2.24586106,9.65366572 C1.53681017,9.24680355 1.29654598,8.34524925 1.70383561,7.6368915 L1.70383561,7.63686218 Z" id="Shape" fill="#DBDBDB"></path>
                    <path d="M7.21511742,2.2304692 C7.92126225,1.82360704 8.82660472,2.06360704 9.23389432,2.77199413 L11.5075538,6.70307918 C11.9148141,7.40853373 11.6745793,8.31302055 10.9654991,8.71988273 C10.2593836,9.12677423 9.35401178,8.8867449 8.9467515,8.17838708 L6.67306262,4.24721408 C6.26580235,3.54178886 6.5089726,2.64023461 7.21511742,2.23043988 L7.21511742,2.2304692 Z" id="Shape" fill="#E2E2E2"></path>
                </g>
            </g>
        </g>
    </g>
</svg>