<?xml version="1.0" encoding="UTF-8"?>
<svg width="280px" height="313px" viewBox="0 0 280 313" version="1.1" xmlns="http://www.w3.org/2000/svg" xmlns:xlink="http://www.w3.org/1999/xlink">
    <!-- Generator: Sketch 46.2 (44496) - http://www.bohemiancoding.com/sketch -->
    <title>page_2_slice</title>
    <desc>Created with Sketch.</desc>
    <defs>
        <polygon id="path-1" points="229.261082 132.132305 229.261082 0.618700428 0 0.618700428 4.65236007e-20 132.132305"></polygon>
        <polygon id="path-3" points="102.605231 63.0454545 0 63.0454545 0 0.1444 102.605231 0.1444"></polygon>
        <polygon id="path-5" points="127.134216 76.8633773 127.134216 0.0489681818 0.478365672 0.0489681818 0.478365672 76.8633773"></polygon>
        <polygon id="path-7" points="0 189.136364 229.261082 189.136364 229.261082 0.166681818 0 0.166681818"></polygon>
    </defs>
    <g id="邀请好友（新用户）认证" stroke="none" stroke-width="1" fill="none" fill-rule="evenodd">
        <g id="Artboard" transform="translate(-309.000000, -121.000000)">
            <g id="Page-2" transform="translate(309.000000, 121.000000)">
                <polygon id="Fill-1" fill="#D8E6F4" points="25 154.527059 127.605746 214.833059 254.26194 140.613877 139.594925 110.505786"></polygon>
                <g id="Group-254" transform="translate(25.000000, 25.696955)">
                    <g id="Group-4" transform="translate(0.000000, 54.409091)">
                        <mask id="mask-2" fill="white">
                            <use xlink:href="#path-1"></use>
                        </mask>
                        <g id="Clip-3"></g>
                        <path d="M102.605231,132.132305 L-0.000514925373,71.8263045 L114.607284,6.11739545 C114.607284,6.11739545 139.060231,-1.72183182 153.108254,1.31989545 C160.641612,2.95130455 170.910082,9.88716818 175.407955,17.5320773 C184.121351,32.3399864 187.028104,45.49835 200.764597,52.6786227 C209.939709,57.4752591 229.261425,57.9131227 229.261425,57.9131227 L102.605231,132.132305 Z" id="Fill-2" fill="#F3F5FA" mask="url(#mask-2)"></path>
                    </g>
                    <g id="Group-7" transform="translate(0.000000, 126.090909)">
                        <mask id="mask-4" fill="white">
                            <use xlink:href="#path-3"></use>
                        </mask>
                        <g id="Clip-6"></g>
                        <polygon id="Fill-5" fill="#D8E6F4" mask="url(#mask-4)" points="102.605231 63.0456273 -0.000514925373 2.73962727 -0.000514925373 0.1444 102.605231 60.4504"></polygon>
                    </g>
                    <g id="Group-10" transform="translate(102.126866, 112.272727)">
                        <mask id="mask-6" fill="white">
                            <use xlink:href="#path-5"></use>
                        </mask>
                        <g id="Clip-9"></g>
                        <polygon id="Fill-8" fill="#D8E6F4" mask="url(#mask-6)" points="127.13456 2.64419545 0.478365672 76.8633773 0.478365672 74.2690136 127.13456 0.0489681818"></polygon>
                    </g>
                    <path d="M41.4552687,113.034455 L14.3976567,128.755227 C13.2116119,129.444409 12.2495597,129.035045 12.2495597,127.842364 L12.2495597,77.2738636 C12.2495597,76.0803182 13.2116119,74.5534091 14.3976567,73.8650909 L41.4552687,58.1434545 C42.6413134,57.4551364 43.6033657,57.8636364 43.6033657,59.0571818 L43.6033657,109.626545 C43.6033657,110.820091 42.6413134,112.345273 41.4552687,113.034455" id="Fill-11" fill="#DAE5F6"></path>
                    <path d="M40.6004067,109.857395 L15.252347,124.584986 C14.1873097,125.204214 13.3239515,124.837168 13.3239515,123.764532 L13.3239515,80.1033955 C13.3239515,79.0316227 14.1873097,77.6610318 15.252347,77.0418045 L40.6004067,62.3142136 C41.665444,61.6949864 42.5288022,62.0628955 42.5288022,63.1346682 L42.5288022,106.795805 C42.5288022,107.867577 41.665444,109.239032 40.6004067,109.857395" id="Fill-13" fill="#F3F5FA"></path>
                    <path d="M34.3683507,75.8778818 C34.3683507,79.4585182 31.4847687,84.0366545 27.9257761,86.1042 C24.3685,88.1708818 21.4832015,86.9445182 21.4832015,83.3638818 C21.4832015,79.7832455 24.3685,75.2051091 27.9257761,73.1375636 C31.4847687,71.0708818 34.3683507,72.2972455 34.3683507,75.8778818" id="Fill-15" fill="#DAE5F6"></path>
                    <path d="M20.6345187,95.52725 C20.6345187,96.7207955 19.6733246,98.2468409 18.4872799,98.9360227 C17.3012351,99.6252045 16.3391828,99.2158409 16.3391828,98.0231591 C16.3391828,96.8296136 17.3012351,95.3027045 18.4872799,94.6135227 C19.6733246,93.9252045 20.6345187,94.3337045 20.6345187,95.52725" id="Fill-17" fill="#DAE5F6"></path>
                    <path d="M39.0835224,82.6469773 L22.7621045,92.1297045 C22.5252388,92.2678864 22.333,92.57275 22.333,92.8119773 C22.333,93.0503409 22.5252388,93.1323864 22.7621045,92.9942045 L39.0835224,83.5114773 C39.3203881,83.3741591 39.5134851,83.0684318 39.5134851,82.8300682 C39.5134851,82.5917045 39.3203881,82.5096591 39.0835224,82.6469773" id="Fill-19" fill="#DAE5F6"></path>
                    <path d="M32.0049291,88.4882682 L22.66075,93.9170864 C22.4796679,94.02245 22.3329142,94.2556318 22.3329142,94.4378591 L22.3329142,94.6425409 C22.3329142,94.8247682 22.4796679,94.88695 22.66075,94.7815864 L32.0049291,89.3527682 C32.1860112,89.2474045 32.3327649,89.0142227 32.3327649,88.8319955 L32.3327649,88.6273136 C32.3327649,88.4450864 32.1860112,88.3829045 32.0049291,88.4882682" id="Fill-21" fill="#DAE5F6"></path>
                    <path d="M20.6345187,101.646977 C20.6345187,102.841386 19.6733246,104.366568 18.4872799,105.05575 C17.3012351,105.744932 16.3391828,105.335568 16.3391828,104.142886 C16.3391828,102.949341 17.3012351,101.422432 18.4872799,100.73325 C19.6733246,100.044932 20.6345187,100.453432 20.6345187,101.646977" id="Fill-23" fill="#DAE5F6"></path>
                    <path d="M39.0835224,88.7674818 L22.7621045,98.2493455 C22.5252388,98.3875273 22.333,98.6923909 22.333,98.9316182 C22.333,99.1699818 22.5252388,99.2520273 22.7621045,99.1138455 L39.0835224,89.6319818 C39.3203881,89.4938 39.5134851,89.1880727 39.5134851,88.9497091 C39.5134851,88.7113455 39.3203881,88.6293 39.0835224,88.7674818" id="Fill-25" fill="#DAE5F6"></path>
                    <path d="M32.0049291,94.6079955 L22.66075,100.036814 C22.4796679,100.142177 22.3329142,100.375359 22.3329142,100.557586 L22.3329142,100.762268 C22.3329142,100.944495 22.4796679,101.006677 22.66075,100.901314 L32.0049291,95.4724955 C32.1860112,95.3671318 32.3327649,95.13395 32.3327649,94.9517227 L32.3327649,94.7470409 C32.3327649,94.5656773 32.1860112,94.5034955 32.0049291,94.6079955" id="Fill-27" fill="#DAE5F6"></path>
                    <path d="M20.6345187,107.767482 C20.6345187,108.961027 19.6733246,110.487073 18.4872799,111.176255 C17.3012351,111.865436 16.3391828,111.456073 16.3391828,110.263391 C16.3391828,109.068982 17.3012351,107.542936 18.4872799,106.853755 C19.6733246,106.165436 20.6345187,106.573936 20.6345187,107.767482" id="Fill-29" fill="#DAE5F6"></path>
                    <path d="M39.0835224,94.8871227 L22.7621045,104.368986 C22.5252388,104.508032 22.333,104.812895 22.333,105.052123 C22.333,105.290486 22.5252388,105.372532 22.7621045,105.233486 L39.0835224,95.7516227 C39.3203881,95.6143045 39.5134851,95.3085773 39.5134851,95.0702136 C39.5134851,94.83185 39.3203881,94.7498045 39.0835224,94.8871227" id="Fill-31" fill="#DAE5F6"></path>
                    <path d="M32.0049291,100.7285 L22.66075,106.157318 C22.4796679,106.262682 22.3329142,106.495864 22.3329142,106.678091 L22.3329142,106.882773 C22.3329142,107.064136 22.4796679,107.126318 22.66075,107.021818 L32.0049291,101.593 C32.1860112,101.487636 32.3327649,101.254455 32.3327649,101.072227 L32.3327649,100.867545 C32.3327649,100.685318 32.1860112,100.623136 32.0049291,100.7285" id="Fill-33" fill="#DAE5F6"></path>
                    <polygon id="Fill-35" fill="#DAE5F6" points="39.5133993 105.08045 16.3391828 118.543677 16.3391828 114.222041 39.5133993 100.75795"></polygon>
                    <path d="M41.8751903,118.354627 L13.9765336,134.563355 C13.0230634,135.117809 12.248959,134.788764 12.248959,133.8284 C12.248959,132.8689 13.0230634,131.641673 13.9765336,131.086355 L41.8751903,114.878491 C42.8295187,114.323173 43.6036231,114.652218 43.6036231,115.612582 C43.6036231,116.572945 42.8295187,117.799309 41.8751903,118.354627" id="Fill-37" fill="#B5C8E6"></path>
                    <path d="M74.5256642,93.8202727 L47.4680522,109.541045 C46.2820075,110.230227 45.3208134,109.821727 45.3208134,108.628182 L45.3208134,58.0596818 C45.3208134,56.8661364 46.2820075,55.3392273 47.4680522,54.6509091 L74.5256642,38.9292727 C75.7125672,38.2409545 76.6737612,38.6494545 76.6737612,39.843 L76.6737612,90.4123636 C76.6737612,91.6059091 75.7125672,93.1310909 74.5256642,93.8202727" id="Fill-39" fill="#DAE5F6"></path>
                    <path d="M73.6708022,90.6439909 L48.3227425,105.370718 C47.2577052,105.989945 46.394347,105.6229 46.394347,104.551127 L46.394347,60.8891273 C46.394347,59.8173545 47.2577052,58.4467636 48.3227425,57.8275364 L73.6708022,43.0999455 C74.7358396,42.4807182 75.600056,42.8486273 75.600056,43.9204 L75.600056,87.5815364 C75.600056,88.6533091 74.7358396,90.0247636 73.6708022,90.6439909" id="Fill-41" fill="#F3F5FA"></path>
                    <path d="M67.4396045,56.6636136 C67.4396045,60.24425 64.5551642,64.8223864 60.9970299,66.8899318 C57.4388955,68.9566136 54.5544552,67.73025 54.5544552,64.1496136 C54.5544552,60.5689773 57.4388955,55.9908409 60.9970299,53.9232955 C64.5551642,51.8566136 67.4396045,53.0829773 67.4396045,56.6636136" id="Fill-43" fill="#DAE5F6"></path>
                    <path d="M53.7049142,76.3130682 C53.7049142,77.5066136 52.7437201,79.0326591 51.5576754,79.7218409 C50.3716306,80.4110227 49.4104366,80.0016591 49.4104366,78.8089773 C49.4104366,77.6154318 50.3716306,76.0885227 51.5576754,75.3993409 C52.7437201,74.7110227 53.7049142,75.1195227 53.7049142,76.3130682" id="Fill-45" fill="#DAE5F6"></path>
                    <path d="M72.1539179,63.4335727 L55.8333582,72.9154364 C55.5964925,73.0536182 55.4033955,73.3584818 55.4033955,73.5977091 C55.4033955,73.8360727 55.5964925,73.9181182 55.8333582,73.7799364 L72.1539179,64.2980727 C72.3907836,64.1598909 72.5838806,63.8541636 72.5838806,63.6158 C72.5838806,63.3774364 72.3907836,63.2953909 72.1539179,63.4335727" id="Fill-47" fill="#DAE5F6"></path>
                    <path d="M65.0761828,69.2740864 L55.7311455,74.7029045 C55.5500634,74.8082682 55.4033097,75.04145 55.4033097,75.2236773 L55.4033097,75.4283591 C55.4033097,75.6105864 55.5500634,75.6727682 55.7311455,75.5674045 L65.0761828,70.1385864 C65.2572649,70.0332227 65.4040187,69.8000409 65.4040187,69.6178136 L65.4040187,69.4131318 C65.4040187,69.2309045 65.2572649,69.1687227 65.0761828,69.2740864" id="Fill-49" fill="#DAE5F6"></path>
                    <path d="M53.7049142,82.4335727 C53.7049142,83.6271182 52.7437201,85.1523 51.5576754,85.8414818 C50.3716306,86.5306636 49.4104366,86.1221636 49.4104366,84.9286182 C49.4104366,83.7350727 50.3716306,82.2090273 51.5576754,81.5198455 C52.7437201,80.8315273 53.7049142,81.2391636 53.7049142,82.4335727" id="Fill-51" fill="#DAE5F6"></path>
                    <path d="M72.1539179,69.5532136 L55.8333582,79.0350773 C55.5964925,79.1741227 55.4033955,79.4789864 55.4033955,79.7182136 C55.4033955,79.9565773 55.5964925,80.0386227 55.8333582,79.8995773 L72.1539179,70.4177136 C72.3907836,70.2803955 72.5838806,69.9746682 72.5838806,69.7363045 C72.5838806,69.4979409 72.3907836,69.4158955 72.1539179,69.5532136" id="Fill-53" fill="#DAE5F6"></path>
                    <path d="M65.0761828,75.3937273 L55.7311455,80.8234091 C55.5500634,80.9279091 55.4033097,81.1610909 55.4033097,81.3433182 L55.4033097,81.548 C55.4033097,81.7302273 55.5500634,81.7924091 55.7311455,81.6879091 L65.0761828,76.2582273 C65.2572649,76.1537273 65.4040187,75.9205455 65.4040187,75.7383182 L65.4040187,75.5336364 C65.4040187,75.3514091 65.2572649,75.2892273 65.0761828,75.3937273" id="Fill-55" fill="#DAE5F6"></path>
                    <path d="M53.7049142,88.5532136 C53.7049142,89.7467591 52.7437201,91.2728045 51.5576754,91.9619864 C50.3716306,92.6511682 49.4104366,92.2418045 49.4104366,91.0491227 C49.4104366,89.8555773 50.3716306,88.3286682 51.5576754,87.6394864 C52.7437201,86.9511682 53.7049142,87.3596682 53.7049142,88.5532136" id="Fill-57" fill="#DAE5F6"></path>
                    <path d="M72.1539179,75.6729409 L55.8333582,85.1556682 C55.5964925,85.29385 55.4033955,85.5987136 55.4033955,85.8379409 C55.4033955,86.0763045 55.5964925,86.15835 55.8333582,86.0201682 L72.1539179,76.5374409 C72.3907836,76.4001227 72.5838806,76.0943955 72.5838806,75.8560318 C72.5838806,75.6176682 72.3907836,75.5356227 72.1539179,75.6729409" id="Fill-59" fill="#DAE5F6"></path>
                    <path d="M65.0761828,81.5142318 L55.7311455,86.94305 C55.5500634,87.0484136 55.4033097,87.2815955 55.4033097,87.4638227 L55.4033097,87.6685045 C55.4033097,87.8507318 55.5500634,87.9129136 55.7311455,87.80755 L65.0761828,82.3787318 C65.2572649,82.2733682 65.4040187,82.0401864 65.4040187,81.8579591 L65.4040187,81.6532773 C65.4040187,81.47105 65.2572649,81.4088682 65.0761828,81.5142318" id="Fill-61" fill="#DAE5F6"></path>
                    <polygon id="Fill-63" fill="#DAE5F6" points="72.5837948 85.8661818 49.4104366 99.3302727 49.4104366 95.0077727 72.5837948 81.5436818"></polygon>
                    <path d="M74.946444,99.1403591 L47.0477873,115.34995 C46.093459,115.903541 45.3202127,115.574495 45.3202127,114.614995 C45.3202127,113.654632 46.093459,112.427405 47.0477873,111.87295 L74.946444,95.6642227 C75.8999142,95.1097682 76.6740187,95.4388136 76.6740187,96.3983136 C76.6740187,97.3586773 75.8999142,98.5859045 74.946444,99.1403591" id="Fill-65" fill="#B5C8E6"></path>
                    <path d="M107.596918,74.6068682 L80.5384478,90.3276409 C79.352403,91.0168227 78.391209,90.6074591 78.391209,89.4147773 L78.391209,38.8454136 C78.391209,37.6518682 79.352403,36.1249591 80.5384478,35.4366409 L107.596918,19.7150045 C108.782963,19.0266864 109.744157,19.4351864 109.744157,20.6287318 L109.744157,71.1980955 C109.744157,72.3916409 108.782963,73.9176864 107.596918,74.6068682" id="Fill-67" fill="#DAE5F6"></path>
                    <path d="M106.741198,71.4298091 L81.3939963,86.1574 C80.328959,86.7757636 79.4647425,86.4087182 79.4647425,85.3369455 L79.4647425,41.6758091 C79.4647425,40.6031727 80.328959,39.2325818 81.3939963,38.6133545 L106.741198,23.8866273 C107.806235,23.2674 108.670451,23.6344455 108.670451,24.7062182 L108.670451,68.3673545 C108.670451,69.4399909 107.806235,70.8105818 106.741198,71.4298091" id="Fill-69" fill="#F3F5FA"></path>
                    <path d="M100.51,37.4494318 C100.51,41.0300682 97.6255597,45.6082045 94.0674254,47.6766136 C90.5101493,49.7432955 87.6248507,48.5160682 87.6248507,44.9362955 C87.6248507,41.3547955 90.5101493,36.7775227 94.0674254,34.7099773 C97.6255597,32.6424318 100.51,33.8687955 100.51,37.4494318" id="Fill-71" fill="#DAE5F6"></path>
                    <path d="M86.7760821,57.0988 C86.7760821,58.2923455 85.8140299,59.8183909 84.6279851,60.5075727 C83.4419403,61.1967545 82.4807463,60.7873909 82.4807463,59.5947091 C82.4807463,58.4011636 83.4419403,56.8742545 84.6279851,56.1850727 C85.8140299,55.4967545 86.7760821,55.9052545 86.7760821,57.0988" id="Fill-73" fill="#DAE5F6"></path>
                    <path d="M105.225086,44.2193909 L88.9036679,53.7012545 C88.6668022,53.8394364 88.4737052,54.1443 88.4737052,54.3835273 C88.4737052,54.6218909 88.6668022,54.7039364 88.9036679,54.5657545 L105.225086,45.0838909 C105.461951,44.9457091 105.65419,44.6399818 105.65419,44.4016182 C105.65419,44.1632545 105.461951,44.0812091 105.225086,44.2193909" id="Fill-75" fill="#DAE5F6"></path>
                    <path d="M98.1465784,50.0599045 L88.801541,55.4887227 C88.620459,55.5940864 88.4737052,55.8272682 88.4737052,56.0094955 L88.4737052,56.2141773 C88.4737052,56.3964045 88.620459,56.4585864 88.801541,56.3532227 L98.1465784,50.9244045 C98.3276604,50.8190409 98.4744142,50.5858591 98.4744142,50.4036318 L98.4744142,50.19895 C98.4744142,50.0167227 98.3276604,49.9545409 98.1465784,50.0599045" id="Fill-77" fill="#DAE5F6"></path>
                    <path d="M86.7760821,63.2193909 C86.7760821,64.4129364 85.8140299,65.9381182 84.6279851,66.6273 C83.4419403,67.3164818 82.4807463,66.9079818 82.4807463,65.7144364 C82.4807463,64.5208909 83.4419403,62.9948455 84.6279851,62.3056636 C85.8140299,61.6173455 86.7760821,62.0258455 86.7760821,63.2193909" id="Fill-79" fill="#DAE5F6"></path>
                    <path d="M105.225086,50.3390318 L88.9036679,59.8208955 C88.6668022,59.9599409 88.4737052,60.2648045 88.4737052,60.5040318 C88.4737052,60.7423955 88.6668022,60.8244409 88.9036679,60.6853955 L105.225086,51.2035318 C105.461951,51.0662136 105.65419,50.7604864 105.65419,50.5221227 C105.65419,50.2837591 105.461951,50.2017136 105.225086,50.3390318" id="Fill-81" fill="#DAE5F6"></path>
                    <path d="M98.1465784,56.1804091 L88.801541,61.6092273 C88.620459,61.7137273 88.4737052,61.9477727 88.4737052,62.1291364 L88.4737052,62.3338182 C88.4737052,62.5160455 88.620459,62.5782273 88.801541,62.4737273 L98.1465784,57.0440455 C98.3276604,56.9395455 98.4744142,56.7063636 98.4744142,56.5241364 L98.4744142,56.3194545 C98.4744142,56.1372273 98.3276604,56.0750455 98.1465784,56.1804091" id="Fill-83" fill="#DAE5F6"></path>
                    <path d="M86.7760821,69.3390318 C86.7760821,70.5325773 85.8140299,72.0586227 84.6279851,72.7478045 C83.4419403,73.4369864 82.4807463,73.0276227 82.4807463,71.8349409 C82.4807463,70.6413955 83.4419403,69.1144864 84.6279851,68.4253045 C85.8140299,67.7369864 86.7760821,68.1454864 86.7760821,69.3390318" id="Fill-85" fill="#DAE5F6"></path>
                    <path d="M105.225086,56.4595364 L88.9036679,65.9414 C88.6668022,66.0795818 88.4737052,66.3844455 88.4737052,66.6236727 C88.4737052,66.8620364 88.6668022,66.9440818 88.9036679,66.8059 L105.225086,57.3240364 C105.461951,57.1858545 105.65419,56.8801273 105.65419,56.6417636 C105.65419,56.4034 105.461951,56.3213545 105.225086,56.4595364" id="Fill-87" fill="#DAE5F6"></path>
                    <path d="M98.1465784,62.30005 L88.801541,67.7288682 C88.620459,67.8342318 88.4737052,68.0674136 88.4737052,68.2496409 L88.4737052,68.4543227 C88.4737052,68.63655 88.620459,68.6987318 88.801541,68.5933682 L98.1465784,63.16455 C98.3276604,63.0591864 98.4744142,62.8260045 98.4744142,62.6437773 L98.4744142,62.4390955 C98.4744142,62.2568682 98.3276604,62.1946864 98.1465784,62.30005" id="Fill-89" fill="#DAE5F6"></path>
                    <polygon id="Fill-91" fill="#DAE5F6" points="105.65419 66.652 82.4808321 80.1160909 82.4808321 75.7935909 105.65419 62.3295"></polygon>
                    <path d="M108.016754,79.9261773 L80.118097,96.1357682 C79.1646269,96.6893591 78.3905224,96.3603136 78.3905224,95.4008136 C78.3905224,94.44045 79.1646269,93.2132227 80.118097,92.6587682 L108.016754,76.4500409 C108.970224,75.8955864 109.744328,76.2246318 109.744328,77.1841318 C109.744328,78.1444955 108.970224,79.3717227 108.016754,79.9261773" id="Fill-93" fill="#B5C8E6"></path>
                    <path d="M140.667313,55.3926864 L113.609701,71.1134591 C112.422799,71.8026409 111.461604,71.3932773 111.461604,70.2005955 L111.461604,19.6312318 C111.461604,18.4376864 112.422799,16.9116409 113.609701,16.2233227 L140.667313,0.501686364 C141.853358,-0.186631818 142.814552,0.221004545 142.814552,1.41541364 L142.814552,51.9839136 C142.814552,53.1774591 141.853358,54.7035045 140.667313,55.3926864" id="Fill-95" fill="#DAE5F6"></path>
                    <path d="M139.812451,52.2155409 L114.464392,66.9431318 C113.399354,67.5623591 112.535138,67.19445 112.535138,66.1226773 L112.535138,22.4615409 C112.535138,21.3897682 113.399354,20.0183136 114.464392,19.3990864 L139.812451,4.67235909 C140.877489,4.05313182 141.740847,4.42017727 141.740847,5.49195 L141.740847,49.15395 C141.740847,50.2257227 140.877489,51.5963136 139.812451,52.2155409" id="Fill-97" fill="#F3F5FA"></path>
                    <path d="M141.087149,60.7119091 L113.188493,76.9215 C112.235022,77.4750909 111.460918,77.1460455 111.460918,76.1865455 C111.460918,75.2270455 112.235022,73.9989545 113.188493,73.4445 L141.087149,57.2357727 C142.041478,56.6813182 142.814724,57.0103636 142.814724,57.9698636 C142.814724,58.9302273 142.041478,60.1574545 141.087149,60.7119091" id="Fill-99" fill="#B5C8E6"></path>
                    <path d="M127.088474,91.6518545 L42.6389963,140.667536 C40.547541,141.880945 40.5423918,144.916627 42.629556,146.137809 L94.2568321,176.336582 C98.1685485,178.624355 102.996832,178.635582 106.918847,176.365082 L190.638847,127.906445 C192.660787,126.735355 192.668511,123.802445 190.652578,122.620991 L137.852131,91.6743091 C134.527429,89.7268091 130.420899,89.7173091 127.088474,91.6518545" id="Fill-101" fill="#B6CAE5"></path>
                    <mask id="mask-8" fill="white">
                        <use xlink:href="#path-7"></use>
                    </mask>
                    <g id="Clip-104"></g>
                    <polygon id="Fill-103" fill="#B6CAE5" mask="url(#mask-8)" points="41.0670149 143.344636 43.1129851 143.344636 43.1129851 140.028273 41.0670149 140.028273"></polygon>
                    <polygon id="Fill-105" fill="#B6CAE5" mask="url(#mask-8)" points="190.113881 125.185818 192.159851 125.185818 192.159851 121.862545 190.113881 121.862545"></polygon>
                    <path d="M127.088474,88.1619 L42.6389963,137.178445 C40.547541,138.391855 40.5423918,141.427536 42.629556,142.647855 L94.2568321,172.847491 C98.1685485,175.1344 102.996832,175.146491 106.918847,172.875991 L190.638847,124.416491 C192.660787,123.246264 192.668511,120.313355 190.652578,119.131036 L137.852131,88.1843545 C134.527429,86.2368545 130.420899,86.2282182 127.088474,88.1619" id="Fill-106" fill="#DAE5F5" mask="url(#mask-8)"></path>
                    <polygon id="Fill-107" fill="#DAE5F6" mask="url(#mask-8)" points="47.2481791 137.467591 128.449336 90.2068182 185.83691 123.842 104.57053 170.997409"></polygon>
                    <polygon id="Fill-108" fill="#F3F5FA" mask="url(#mask-8)" points="47.71925 137.508959 128.920407 90.2481864 186.307981 123.884232 105.042459 171.039641"></polygon>
                    <polygon id="Fill-109" fill="#DAE5F5" mask="url(#mask-8)" points="124.023552 102.432973 128.905903 99.5596545 170.348813 123.848564 165.409821 126.639836"></polygon>
                    <polygon id="Fill-110" fill="#DAE5F5" mask="url(#mask-8)" points="100.973433 115.861568 109.234552 111.01225 150.676604 135.302023 142.358843 140.069295"></polygon>
                    <polygon id="Fill-111" fill="#DAE5F5" mask="url(#mask-8)" points="121.889787 103.757964 123.038071 102.982418 164.480123 127.271327 163.276056 127.965691"></polygon>
                    <polygon id="Fill-112" fill="#DAE5F5" mask="url(#mask-8)" points="117.266873 106.439123 118.415157 105.663577 159.857209 129.952486 158.652284 130.64685"></polygon>
                    <polygon id="Fill-113" fill="#DAE5F5" mask="url(#mask-8)" points="114.599216 107.948759 115.7475 107.173214 157.189552 131.462123 155.984627 132.156486"></polygon>
                    <polygon id="Fill-114" fill="#DAE5F5" mask="url(#mask-8)" points="111.764724 109.626286 112.913866 108.850741 154.35506 133.140514 153.150993 133.834014"></polygon>
                    <polygon id="Fill-115" fill="#DAE5F5" mask="url(#mask-8)" points="95.9717052 118.763645 97.1199888 117.987236 138.562041 142.277009 137.357116 142.970509"></polygon>
                    <polygon id="Fill-116" fill="#DAE5F5" mask="url(#mask-8)" points="93.3040485 120.273368 94.4523321 119.497823 135.894384 143.786732 134.689459 144.481095"></polygon>
                    <polygon id="Fill-117" fill="#DAE5F5" mask="url(#mask-8)" points="90.469556 121.950809 91.6178396 121.175264 133.059892 145.464173 131.855825 146.158536"></polygon>
                    <polygon id="Fill-118" fill="#DAE5F5" mask="url(#mask-8)" points="101.814049 137.713036 97.0132276 134.860445 101.847519 131.988855 106.682668 134.939036"></polygon>
                    <polygon id="Fill-119" fill="#DAE5F5" mask="url(#mask-8)" points="108.127377 141.337114 103.325698 138.484523 108.160847 135.612932 112.995138 138.563114"></polygon>
                    <polygon id="Fill-120" fill="#DAE5F5" mask="url(#mask-8)" points="114.56566 145.027777 109.763981 142.175186 114.599131 139.303595 119.43428 142.253777"></polygon>
                    <polygon id="Fill-121" fill="#DAE5F5" mask="url(#mask-8)" points="120.767593 148.694864 115.965914 145.842273 120.801063 142.970682 125.635354 145.920864"></polygon>
                    <polygon id="Fill-122" fill="#DAE5F5" mask="url(#mask-8)" points="77.6744328 151.882891 72.8727537 149.0303 77.707903 146.158709 82.5430522 149.108891"></polygon>
                    <polygon id="Fill-123" fill="#DAE5F5" mask="url(#mask-8)" points="83.9877612 155.506191 79.1860821 152.6536 84.0203731 149.782009 88.8555224 152.732191"></polygon>
                    <polygon id="Fill-124" fill="#DAE5F5" mask="url(#mask-8)" points="90.4260448 159.196855 85.6243657 156.345127 90.4595149 153.473536 95.293806 156.423718"></polygon>
                    <polygon id="Fill-125" fill="#DAE5F5" mask="url(#mask-8)" points="96.6278918 162.864805 91.8262127 160.012214 96.6613619 157.140623 101.495653 160.090805"></polygon>
                    <polyline id="Stroke-126" stroke="#DAE5F5" stroke-width="2" mask="url(#mask-8)" points="99.280444 136.207632 97.2576455 137.71295 115.965743 148.450541 118.334399 147.250086"></polyline>
                    <polyline id="Stroke-127" stroke="#DAE5F5" stroke-width="2" mask="url(#mask-8)" points="111.961683 143.480141 109.889108 144.962141 103.325526 141.112914 105.740526 139.919368"></polyline>
                    <path d="M106.493948,142.970768 L91.8262985,151.671041" id="Stroke-128" stroke="#DAE5F5" stroke-width="2" mask="url(#mask-8)"></path>
                    <polyline id="Stroke-129" stroke="#DAE5F5" stroke-width="2" mask="url(#mask-8)" points="80.0931231 147.614541 82.5424515 146.15845 101.325213 157.14045 98.8776007 158.493768"></polyline>
                    <path d="M86.2824403,151.162705 L88.7403507,149.78175" id="Stroke-130" stroke="#DAE5F5" stroke-width="2" mask="url(#mask-8)"></path>
                    <path d="M95.0531642,153.473536 L92.7754776,154.886445" id="Stroke-131" stroke="#DAE5F5" stroke-width="2" mask="url(#mask-8)"></path>
                    <path d="M105.717011,147.434905 C105.485295,149.772768 102.335668,151.372223 98.680556,151.006041 C95.0263022,150.639859 92.2508545,148.447086 92.4817127,146.108359 C92.7134291,143.770495 95.8639142,142.171041 99.5181679,142.537223 C103.17328,142.903405 105.948728,145.096177 105.717011,147.434905" id="Fill-132" fill="#DAE5F5" mask="url(#mask-8)"></path>
                    <polygon id="Fill-133" fill="#738AC6" mask="url(#mask-8)" points="115.345944 116.565777 97.9629216 106.466414 97.9629216 126.508823 115.345944 136.608186"></polygon>
                    <polygon id="Fill-134" fill="#88A9E5" mask="url(#mask-8)" points="132.728022 106.466155 115.345858 116.565518 115.345858 136.607927 132.728022 126.508564"></polygon>
                    <polygon id="Fill-135" fill="#ACCAF0" mask="url(#mask-8)" points="115.345944 116.565777 97.9629216 106.466414 114.27919 96.8835045 132.728108 106.466414"></polygon>
                    <path d="M79.4872276,143.894255 C77.3116679,144.766527 69.750847,148.122618 73.8856978,152.282755 C78.0196903,156.442891 81.7760709,154.295891 82.3098769,153.758709 C82.8428246,153.222391 83.9550634,150.448391 85.2440933,149.8663 C86.5331231,149.285073 96.18025,150.384482 97.2470037,149.342936 C98.3137575,148.301391 95.3803993,143.424436 90.1341679,142.842345 C84.8879366,142.261118 80.408944,143.524618 79.4872276,143.894255" id="Fill-136" fill="#B5C8E6" mask="url(#mask-8)"></path>
                    <path d="M74.8852537,130.495282 C74.8852537,130.495282 76.2635373,139.617873 76.4411866,148.741327 C76.5055522,152.013645 78.0426045,147.988236 78.0426045,147.988236 C78.0426045,147.988236 79.6869328,130.718964 79.7307015,129.914055 C79.7753284,129.109145 74.8852537,130.495282 74.8852537,130.495282" id="Fill-137" fill="#F3B2AD" mask="url(#mask-8)"></path>
                    <path d="M86.2221082,128.2139 C86.2221082,128.2139 89.3786007,136.9824 91.2014366,145.169673 C91.4185634,146.145582 92.8457649,145.169673 92.8457649,145.169673 C92.8457649,145.169673 90.9791604,127.274264 90.1346828,125.708491 C89.289347,124.142718 85.9586381,127.467718 86.2221082,128.2139" id="Fill-138" fill="#E6938C" mask="url(#mask-8)"></path>
                    <path d="M76.930194,147.204573 C77.7532164,147.070709 79.3975448,147.316845 79.2198955,149.821391 C79.0422463,152.327664 79.2336269,153.892573 78.2861642,154.004845 C77.3069478,154.120573 76.219597,152.618709 75.9080672,150.291209 C75.5965373,147.965436 76.2882537,147.309936 76.930194,147.204573" id="Fill-139" fill="#01207C" mask="url(#mask-8)"></path>
                    <path d="M91.9455037,144.540341 C92.5453918,144.554159 95.2187127,146.103523 95.6358022,146.354841 C96.0520336,146.607023 98.103153,147.797114 97.7916231,148.441386 C97.5993843,148.839523 93.6567724,148.278159 92.8457649,148.032886 C92.123153,147.813523 90.7980784,147.351477 90.7483022,146.76075 C90.6985261,146.170886 90.5766604,144.781295 91.071847,144.598205 C91.3456157,144.498023 91.7343843,144.535159 91.9455037,144.540341" id="Fill-140" fill="#01207C" mask="url(#mask-8)"></path>
                    <path d="M88.2561493,74.2382682 C88.2561493,74.2382682 89.5563358,82.9618591 83.5540224,86.6193591 C79.0638731,89.3553591 81.1544701,81.4522227 81.1544701,81.4522227 C81.1544701,81.4522227 87.5893209,74.1372227 88.2561493,74.2382682" id="Fill-141" fill="#3F416E" mask="url(#mask-8)"></path>
                    <path d="M89.9893881,71.8219864 C89.9893881,71.8219864 88.4145746,75.6729409 87.0886418,76.05035 C85.7635672,76.4268955 84.2213657,75.6807136 83.8883806,75.2108955 C83.5545373,74.7410773 82.8207687,74.7410773 82.6542761,74.8084409 C82.4877836,74.8749409 81.8544254,75.2445773 81.7540149,75.2445773 C81.6536045,75.2445773 83.4438284,80.5568045 81.9093507,81.5966227 L78.5537537,90.4437136 C78.5537537,90.4437136 74.685806,95.8120773 71.318194,93.3964864 C71.318194,93.3964864 72.4853582,91.3496682 72.4853582,90.4782591 C72.4853582,89.6051227 71.8511418,88.0618045 71.9850224,87.0556682 C72.1180448,86.0486682 75.3071493,83.8731682 75.7525597,83.5993955 C76.1610672,83.3480773 76.5910299,83.0293955 76.6193507,82.7271227 C76.7034552,81.8436227 74.4523731,79.20435 74.7192761,76.4856227 C74.9861791,73.7686227 76.8364776,72.5595318 78.5863657,72.7279409 C78.5863657,72.7279409 80.9541642,69.9427136 82.9546493,70.1612136 C84.9551343,70.3797136 86.0364776,72.41185 86.4887537,72.5267136 C88.1390896,72.9464409 89.8392015,71.9895318 89.9893881,71.8219864" id="Fill-142" fill="#4E4F85" mask="url(#mask-8)"></path>
                    <path d="M75.8188993,103.362418 C75.8188993,103.362418 73.7523321,105.935191 73.152444,108.484645 C72.129459,112.824418 73.3129291,123.160418 73.3738619,125.753055 C73.3978918,126.7376 73.4408022,128.773191 73.0408769,129.399327 C72.6409515,130.025464 74.3736754,131.032464 74.8851679,131.077373 C75.3966604,131.122282 82.6948694,131.435782 87.4665112,128.303373 C90.3603918,126.404236 90.5397575,126.222009 90.5397575,125.294464 C90.5397575,124.366055 89.8300187,120.612691 89.8669216,118.326645 C89.8926679,116.761736 89.9115485,114.613009 89.5270709,112.287236 C89.2043843,110.339736 88.4002425,105.531873 87.2442351,104.011009 C86.0890858,102.489282 76.6196082,102.241418 75.8188993,103.362418" id="Fill-143" fill="#4E4F85" mask="url(#mask-8)"></path>
                    <path d="M84.521653,84.1473727 C84.521653,84.1473727 87.7776978,85.8029636 87.5554216,89.7402818 C87.3331455,93.6758727 88.9783321,103.832236 88.9783321,103.832236 C88.9783321,103.832236 91.5126231,107.948327 91.4679963,111.705145 C91.4233694,115.463691 89.5267276,112.287236 89.5267276,112.287236 C89.5267276,112.287236 89.2006082,108.976918 87.6446754,106.024145 C86.0887425,103.071373 81.6784067,107.545009 81.6389291,107.545009 C81.5985933,107.545009 77.5529963,108.8871 75.2856082,104.7261 C73.0190784,100.565964 75.9970634,101.639464 75.9970634,101.639464 C75.9970634,101.639464 75.5078843,95.2865545 77.4199739,86.6519182 C77.5778843,85.9359636 84.521653,84.1473727 84.521653,84.1473727" id="Fill-144" fill="#B5CDF4" mask="url(#mask-8)"></path>
                    <path d="M90.3782425,116.887136 C90.7592873,116.909591 91.8234664,115.507909 91.8672351,113.943 C91.9118619,112.376364 91.6561157,111.124091 90.5395858,110.990227 C89.423056,110.856364 89.0445858,112.487773 89.0445858,113.316 C89.0445858,115.307545 89.86675,116.856045 90.3782425,116.887136" id="Fill-145" fill="#F6B2AC" mask="url(#mask-8)"></path>
                    <path d="M88.7339142,91.2386045 C88.7339142,91.2386045 88.0893993,89.3368773 87.377944,89.0907409 C87.377944,89.0907409 85.7327575,84.5721955 83.9554067,83.9236045 C82.1763396,83.2750136 78.0535037,83.5323773 75.7861157,86.2502409 C73.5187276,88.9681045 73.3513769,91.3500136 73.1188022,92.4571955 C72.8845112,93.5643773 71.5851828,101.435559 71.8177575,102.667105 C72.0520485,103.89865 72.9111157,105.511923 74.6155187,105.125014 C76.3190634,104.738105 79.3202201,104.067059 80.6538769,103.227605 C81.9875336,102.389014 82.2209664,99.4474682 82.2209664,99.4474682 C82.2209664,99.4474682 76.6194366,101.281832 76.1971978,101.617786 C75.7741007,101.952877 76.3525336,100.275695 76.3971604,100.185014 C76.4417873,100.096059 78.8198843,91.8535136 77.4192873,86.6518318 C77.4192873,86.6518318 80.0196604,90.1486955 80.6538769,92.0210591 C81.1542127,93.4970136 81.1542127,94.2129682 81.1095858,94.5705136 C81.064959,94.9289227 79.3760037,97.90415 79.3528321,98.59765 C79.3313769,99.29115 83.0877575,98.84465 83.0877575,98.84465 L88.7339142,91.2386045 Z" id="Fill-146" fill="#D1DEF4" mask="url(#mask-8)"></path>
                    <path d="M84.1545112,99.3689636 L82.3205187,97.1882818 L79.7132799,97.5371909 C79.7132799,97.5371909 78.3530187,99.7386 80.4539142,101.181736 C82.2776082,102.434009 84.1545112,99.3689636 84.1545112,99.3689636" id="Fill-147" fill="#D1DEF4" mask="url(#mask-8)"></path>
                    <polygon id="Fill-148" fill="#808080" mask="url(#mask-8)" points="84.521653 92.6934864 95.7350112 88.4418045 90.1283321 105.184259 79.2805709 109.289986"></polygon>
                    <path d="M79.8643246,84.1473727 C79.4867127,84.3468727 77.7840261,85.9480545 79.2798843,87.1951455 C80.7757425,88.4422364 82.8869366,87.7271455 83.4216007,87.4361 C83.9554067,87.1450545 85.0882425,86.6976909 84.5218246,85.3106909 C83.9554067,83.9236909 82.5316381,82.7379182 79.8643246,84.1473727" id="Fill-149" fill="#F3B3AC" mask="url(#mask-8)"></path>
                    <path d="M80.2615896,81.2839864 C80.2615896,81.2839864 79.9088657,84.4267591 80.3757313,84.7851682 C80.842597,85.1427136 81.9093507,85.6462136 82.4208433,85.4225318 C82.9314776,85.19885 82.9932687,83.7004409 82.9512164,82.6485318 C82.9100224,81.5966227 80.9035299,80.8141682 80.2615896,81.2839864" id="Fill-150" fill="#E7938B" mask="url(#mask-8)"></path>
                    <path d="M85.9690224,76.2152182 C85.9690224,76.2152182 86.3217463,79.8122636 85.8720448,80.7156273 C85.4214851,81.6198545 84.2706269,83.3816727 82.5713731,82.7443091 C80.8712612,82.1060818 80.4704776,81.7200364 80.2619328,81.2839 C80.2619328,81.2839 81.5638358,79.0194455 81.675403,78.2974455 C81.7878284,77.5763091 81.6702537,75.5294909 81.7543582,75.2444909 C81.8376045,74.9594909 82.9369701,74.3894909 83.7273806,75.0415364 C84.5169328,75.6927182 85.7330149,76.1798091 85.9690224,76.2152182" id="Fill-151" fill="#F4B2AC" mask="url(#mask-8)"></path>
                    <path d="M84.5551231,100.040268 C84.6332201,100.189677 84.4375485,101.65095 83.6050858,102.405768 C82.7709067,103.160586 81.3703097,104.01645 80.6537052,103.060405 C79.9371007,102.104359 80.2040037,100.383995 80.6537052,99.9685864 C81.1042649,99.5540409 82.4044515,98.4632682 82.7048246,98.5470409 C83.0043396,98.6308136 82.8095261,99.2828591 83.1545261,99.5367682 C83.5879216,99.85545 84.4049366,99.7552682 84.5551231,100.040268" id="Fill-152" fill="#F3B2AD" mask="url(#mask-8)"></path>
                    <path d="M123.925459,110.403041 L131.866466,113.774677 C131.866466,113.774677 132.250086,113.976768 132.032959,114.882723 C131.81669,115.787814 128.449078,129.998086 128.449078,129.998086 L131.249414,130.232995 C131.249414,130.232995 137.218257,114.228086 137.552101,112.986177 C137.885086,111.745132 138.085049,111.610405 137.552101,111.074086 C137.018295,110.536905 129.882287,106.242905 129.882287,106.242905 L123.925459,110.403041 Z" id="Fill-153" fill="#007D47" mask="url(#mask-8)"></path>
                    <path d="M98.0409328,126.508564 L98.0409328,125.502427 C98.0409328,125.502427 91.9613806,128.745382 92.9835075,133.085155 C94.0064925,137.424927 101.06097,139.938109 106.36556,139.974382 C111.65556,140.011518 124.859104,139.511473 125.925858,140.011518 C126.992612,140.511564 129.32694,141.8977 130.505261,141.406291 C131.683582,140.914018 131.327425,136.127745 132.128134,135.702836 C132.927985,135.277064 133.428321,135.366882 133.5725,135.188109 C133.716679,135.009336 133.384552,133.9272 132.35041,133.506609 C131.316269,133.085155 125.247873,130.736927 125.247873,130.736927 L115.345858,136.607927 L98.0409328,126.508564 Z" id="Fill-154" fill="#B5C8E6" mask="url(#mask-8)"></path>
                    <path d="M127.993627,129.505986 C127.825418,129.691668 127.682955,130.658077 128.226201,131.251395 C128.771164,131.84385 132.283813,134.774168 132.394522,134.87435 C132.50609,134.975395 133.517918,135.193895 133.27247,134.235259 C133.027881,133.274895 132.127619,132.481214 131.861575,131.619305 C131.594672,130.758259 131.516575,130.132986 130.83859,129.774577 C130.160604,129.416168 128.583216,128.857395 127.993627,129.505986" id="Fill-155" fill="#AB5E4A" mask="url(#mask-8)"></path>
                    <path d="M111.044858,103.357323 C111.044858,103.357323 110.844896,107.21605 111.378701,108.389732 C111.911649,109.564277 122.459037,119.932232 122.681313,120.111005 C122.902731,120.289777 123.597881,121.189686 123.754075,122.465277 C123.85191,123.267595 126.781836,137.547823 126.781836,137.547823 L129.415679,136.508005 C129.415679,136.508005 128.316313,120.804505 128.316313,120.267323 C128.316313,119.731005 128.048552,118.657505 127.548216,117.985595 C127.048739,117.31455 118.991015,105.70555 118.991015,105.70555 L111.044858,103.357323 Z" id="Fill-156" fill="#009756" mask="url(#mask-8)"></path>
                    <path d="M127.292985,135.55645 C126.826978,135.729177 125.91041,136.977132 127.582201,139.202723 C129.253993,141.429177 130.410858,141.584632 130.716381,141.361814 C131.083694,141.093223 131.360896,139.627632 130.161119,137.312223 C129.564664,136.163586 128.471306,135.120314 127.292985,135.55645" id="Fill-157" fill="#AB5E4A" mask="url(#mask-8)"></path>
                    <path d="M122.71444,78.5277773 C122.71444,78.5277773 125.015299,78.5277773 125.414366,81.9166864 C125.763657,84.8642773 125.515634,88.2583682 124.981828,88.8957318 C124.448881,89.5330955 123.314328,89.9692318 121.880261,90.0694136 C120.447052,90.1704591 122.71444,78.5277773 122.71444,78.5277773" id="Fill-158" fill="#40416F" mask="url(#mask-8)"></path>
                    <path d="M114.678772,79.1763682 C113.533063,79.7342773 109.496049,81.6368682 109.877093,85.4843682 C110.258996,89.3318682 108.899593,103.232959 111.009071,104.720141 C113.167466,106.242732 115.279519,105.938732 118.569892,105.581186 C121.859407,105.222777 123.925116,101.679277 123.925116,101.679277 C123.925116,101.679277 122.369183,94.2502773 122.992243,89.9122318 C123.614444,85.5733227 124.458922,82.7103682 124.415153,81.2793227 C124.370526,79.8474136 123.559519,77.8472318 119.613474,78.1581409 C116.923847,78.3705955 115.318996,78.8645955 114.678772,79.1763682" id="Fill-159" fill="#4E4F85" mask="url(#mask-8)"></path>
                    <path d="M114.745884,87.4525955 L114.045586,93.9281409 C114.045586,93.9281409 121.54719,93.4583227 122.647414,91.0427318 L123.490175,84.9031409 C123.490175,84.9031409 119.980959,88.0234591 114.745884,87.4525955" id="Fill-160" fill="#575894" mask="url(#mask-8)"></path>
                    <polygon id="Fill-161" fill="#B1B3B3" mask="url(#mask-8)" points="115.168209 105.872405 128.727052 97.6972227 135.529216 101.785677 123.925373 110.940223"></polygon>
                    <polygon id="Fill-162" fill="#808080" mask="url(#mask-8)" points="144.642366 95.3712773 131.350425 103.021368 123.925201 110.94005 137.440276 103.156095"></polygon>
                    <path d="M107.71003,90.0705364 C107.71003,90.0705364 107.243164,95.4406273 107.343575,96.3120364 C107.443127,97.1825818 108.549358,98.7630364 110.044358,99.9678091 C112.612119,102.037082 118.713127,103.234082 118.924246,103.357582 C119.135366,103.479355 120.424396,106.388082 120.869806,106.388082 C121.1985,106.388082 121.092082,105.628082 121.047455,105.515809 C121.047455,105.515809 122.659172,106.891582 123.059097,106.533173 C123.459022,106.174764 122.569918,103.647764 122.147679,103.155491 C121.72544,102.663218 121.347828,102.104445 119.74641,102.059536 C119.74641,102.059536 114.304507,98.0056273 111.256149,97.0936273 C110.816746,96.9623545 110.744657,96.2878545 110.855366,96.0425818 C110.966933,95.7964455 112.344358,90.9877182 112.344358,90.9877182 C112.344358,90.9877182 108.611149,89.7803545 107.71003,90.0705364" id="Fill-163" fill="#F5B3AC" mask="url(#mask-8)"></path>
                    <path d="M124.981485,88.8956455 C124.981485,88.8956455 123.435851,89.8439182 122.992157,89.9121455 C122.992157,89.9121455 123.28309,96.4231 123.160366,97.1831 C123.160366,97.1831 124.148164,98.4915091 124.469993,98.7825545 C124.792679,99.0736 125.315328,99.5313273 125.503276,99.8120091 C125.69294,100.090964 126.26794,103.043736 127.248873,103.043736 C127.448836,103.043736 127.382754,102.282873 127.359582,102.160236 C127.338127,102.0376 127.437679,101.880418 127.482306,101.880418 C127.526933,101.880418 129.772007,103.390055 130.293799,103.043736 C130.816448,102.696555 129.334321,100.108236 127.871075,99.3085091 C127.359582,99.0278273 127.037754,98.9388727 126.782007,98.4025545 C126.526261,97.8653727 124.681112,93.4029636 124.704284,92.3294636 C124.725739,91.2551 124.981485,88.8956455 124.981485,88.8956455" id="Fill-164" fill="#F4B2AC" mask="url(#mask-8)"></path>
                    <path d="M117.701813,78.5277773 C116.645358,78.7402318 116.012,79.0425045 116.478866,80.3396864 C116.945731,81.6368682 118.702485,83.4487773 119.213978,83.4487773 C119.657672,83.4487773 121.013642,81.5254591 121.235918,80.0486409 C121.458194,78.5726864 118.924761,78.2816409 117.701813,78.5277773" id="Fill-165" fill="#F3B3AE" mask="url(#mask-8)"></path>
                    <path d="M119.296709,75.5919318 C119.296709,75.5919318 117.896112,77.6888409 117.779396,77.9565682 C117.663537,78.2260227 117.346858,78.6448864 117.779396,79.28225 C118.212791,79.9204773 118.94656,80.5241591 119.296709,80.4567955 C119.646858,80.3902955 120.280216,79.4670682 120.447567,79.1820682 C120.613201,78.8962045 120.764246,78.0748864 120.847493,77.5377045 C120.929881,77.0013864 119.646858,75.2559773 119.296709,75.5919318" id="Fill-166" fill="#E5938B" mask="url(#mask-8)"></path>
                    <path d="M118.629537,73.4278318 C118.629537,73.4278318 119.004575,76.63365 119.862784,77.4376955 C120.722709,78.2408773 121.697634,79.1822409 122.564425,79.0146955 C123.431216,78.8462864 124.984575,77.0240136 125.576739,75.7769227 C126.149164,74.5678318 126.932709,72.6220591 126.698418,71.5995136 C126.465843,70.5752409 125.298679,70.6261955 123.397746,70.8939227 C121.497672,71.1625136 118.663007,72.6730136 118.629537,73.4278318" id="Fill-167" fill="#F4B2AC" mask="url(#mask-8)"></path>
                    <path d="M119.94706,69.1829727 C119.94706,69.1829727 120.513478,67.2372 122.080567,67.0860636 C123.647657,66.9349273 125.715082,68.1932455 126.448851,69.1829727 C127.182619,70.1727 127.88206,70.1390182 128.232209,69.8540182 C128.232209,69.8540182 128.449336,72.0018818 126.965493,72.7057455 C125.481649,73.4113364 124.46553,72.1867 124.197769,71.9345182 C123.931724,71.6832 123.147321,72.1694273 122.864112,72.1867 C122.580903,72.2031091 121.635157,72.0683818 121.405157,71.8170636 C121.176015,71.5657455 120.179634,69.2503364 119.94706,69.1829727" id="Fill-168" fill="#7F4535" mask="url(#mask-8)"></path>
                    <path d="M119.713198,68.5116682 C120.380026,68.5367136 122.114466,69.4513045 121.880175,71.1794409 C121.647601,72.9075773 120.547377,74.2496682 120.33025,74.3170318 C120.113981,74.3843955 119.483198,73.4827591 119.080698,73.6287136 C118.67734,73.7755318 118.76316,74.4180773 118.887601,74.9630318 C119.013757,75.50885 119.14678,76.3802591 118.396705,76.5313955 C117.646631,76.6825318 117.112825,76.2127136 117.104243,75.7092136 C117.09566,75.2057136 117.03816,71.9282136 117.179765,71.2804864 C117.329951,70.5921682 117.896369,68.4451682 119.713198,68.5116682" id="Fill-169" fill="#AC5E48" mask="url(#mask-8)"></path>
                    <path d="M112.37903,81.2629136 C112.86306,81.38555 114.201007,84.6181409 113.645746,87.9958227 C113.089627,91.3735045 112.956604,92.3355955 112.622761,92.3805045 C112.289776,92.4254136 107.732687,91.4633227 107.422015,90.65755 C107.110485,89.8526409 109.311791,80.4908227 112.37903,81.2629136" id="Fill-170" fill="#5F5FA2" mask="url(#mask-8)"></path>
                    <path d="M196.174295,105.72645 C196.275563,108.845041 191.94075,110.692359 186.206198,112.133768 C183.93366,112.705495 181.924593,113.018995 180.276832,113.008632 L175.477728,110.195768 C175.120713,108.037541 178.139892,104.633086 183.93881,104.147723 C184.146496,104.128723 185.005563,104.024223 186.182168,103.924905 C189.01769,103.689132 193.688922,103.481859 195.461981,104.623586 C195.899668,104.902541 196.157989,105.264405 196.174295,105.72645" id="Fill-171" fill="#B5C8E6" mask="url(#mask-8)"></path>
                    <path d="M184.105731,92.2119227 C184.105731,92.2119227 183.183157,93.7250136 183.249239,95.5593773 C183.316179,97.3937409 184.627522,98.3549682 184.961366,98.6011045 L186.628007,105.871195 C186.628007,105.871195 186.984164,107.526786 187.784015,108.063105 C188.584724,108.60115 189.584537,108.887014 191.274351,108.887014 C192.296478,108.887014 194.140769,108.063105 194.34159,107.840286 C194.541552,107.616605 195.119127,106.632059 195.252149,105.782241 C195.386888,104.932423 196.542037,98.9370591 196.542037,98.9370591 C196.542037,98.9370591 199.009388,97.5060136 198.392336,94.0160591 C198.124575,92.5012409 185.139015,90.78865 184.105731,92.2119227" id="Fill-172" fill="#B6CAE5" mask="url(#mask-8)"></path>
                    <path d="M198.491631,93.4794818 C198.491631,95.9745273 195.078534,97.9971636 190.869019,97.9971636 C186.658646,97.9971636 183.245549,95.9745273 183.245549,93.4794818 C183.245549,90.9835727 186.658646,88.9609364 190.869019,88.9609364 C195.078534,88.9609364 198.491631,90.9835727 198.491631,93.4794818" id="Fill-173" fill="#A0BDE5" mask="url(#mask-8)"></path>
                    <path d="M185.73916,84.9899364 C185.73916,84.9899364 184.039049,83.8162545 183.804757,81.8368 C183.572183,79.8564818 181.703004,77.4987545 179.571213,79.7217545 C178.047892,81.3099818 179.699944,86.1230273 181.071362,88.1102545 C182.925093,90.7978909 188.364422,91.9240727 190.606922,92.2047545 C192.851996,92.4845727 185.73916,84.9899364 185.73916,84.9899364" id="Fill-174" fill="#99F6D1" mask="url(#mask-8)"></path>
                    <path d="M187.505869,77.91045 C187.505869,77.91045 181.171429,73.0119045 180.30378,71.2673591 C179.437847,69.52195 179.170944,66.1330409 180.137287,65.0932227 C181.104489,64.0525409 182.868108,63.4825409 185.00419,65.2270864 C187.139414,66.9724955 191.64072,76.6814955 191.907623,78.8233136 C192.173668,80.9634045 187.505869,77.91045 187.505869,77.91045" id="Fill-175" fill="#99F6D1" mask="url(#mask-8)"></path>
                    <path d="M191.918437,83.6143364 C191.918437,83.6143364 196.191459,79.1009727 200.32631,78.9334273 C204.460302,78.7667455 203.377243,83.1108364 200.842951,85.5169273 C197.854668,88.3548364 191.915862,93.9045636 190.407131,95.6931545 C189.596123,96.6552455 191.918437,83.6143364 191.918437,83.6143364" id="Fill-176" fill="#99F6D1" mask="url(#mask-8)"></path>
                    <path d="M189.028675,76.9937 C189.028675,76.9937 186.316735,72.3853364 186.717519,69.2987 C187.116586,66.2120636 188.451101,62.9017455 188.406474,61.5138818 C188.362705,60.1277455 187.917295,56.7267455 187.984235,55.7871091 C188.050317,54.8483364 189.050989,50.7771545 190.984534,51.0232909 C192.918937,51.2694273 193.274235,54.4899273 192.963563,55.9892 C192.652034,57.4876091 191.852183,59.6346091 191.718302,60.7979273 C191.58528,61.9621091 191.962892,65.4287455 192.674347,66.0548818 C192.674347,66.0548818 193.852668,62.2747455 194.764086,61.3126545 C195.674646,60.3505636 197.675131,58.3374273 199.476511,60.8652909 C201.276175,63.3931545 199.542593,67.1283818 198.386586,67.9117 C197.231437,68.6950182 195.741586,70.1260636 194.074944,70.7081545 C194.074944,70.7081545 193.808041,73.3465636 193.074272,73.9519727 C193.074272,73.9519727 194.964049,73.9070636 195.541623,75.1144273 C196.120056,76.3226545 196.575765,79.9240182 195.24125,83.1108364 C193.908451,86.2985182 191.740616,88.0439273 191.34069,90.2246091 C190.940765,92.4052909 190.999123,95.3416545 190.682444,95.7441091 C190.365765,96.1465636 189.989869,95.8192455 189.873153,95.5843364 C189.757295,95.3494273 186.140802,89.1295182 184.838899,84.9572909 C183.536996,80.7842 185.168451,77.9549273 185.828414,77.5300182 C186.487519,77.1059727 187.583451,76.5238818 189.028675,76.9937" id="Fill-177" fill="#8DE3C2" mask="url(#mask-8)"></path>
                    <path d="M180.276489,113.008286 C177.763653,112.99015 176.080705,112.217195 175.536601,110.456241 C175.509996,110.372468 175.491116,110.284377 175.477384,110.195423 L180.276489,113.008286 Z" id="Fill-178" fill="#DAE5F5" mask="url(#mask-8)"></path>
                    <path d="M141.348646,113.356677 C140.084504,114.08645 134.54734,117.664495 136.236295,121.243405 C137.926108,124.822314 145.661146,122.809177 146.105698,122.496541 C146.551108,122.183041 147.483981,118.425359 149.039914,117.62045 C150.595847,116.814677 154.021817,116.546086 155.043086,116.724859 C156.063496,116.903632 158.533422,116.008905 158.867265,115.153905 C159.201108,114.298041 158.731668,111.042995 155.930474,110.461768 C153.130138,109.880541 148.506966,110.506677 146.684131,111.087905 C144.861295,111.669995 141.831817,113.076859 141.348646,113.356677" id="Fill-179" fill="#B5C8E6" mask="url(#mask-8)"></path>
                    <path d="M148.206765,79.1004545 L152.329601,92.9695909 C152.329601,92.9695909 152.551877,93.6406364 152.57419,94.2676364 C152.596504,94.8929091 152.57419,112.184636 152.57419,112.184636 L155.486093,112.184636 C155.486093,112.184636 157.175049,96.7505909 157.241989,96.3248182 C157.308071,95.8999091 157.597287,93.1483636 157.241989,91.7397727 C156.885832,90.3303182 154.875049,75.981 154.875049,75.981 L148.206765,79.1004545 Z" id="Fill-180" fill="#40416E" mask="url(#mask-8)"></path>
                    <path d="M141.126541,72.83745 L142.816354,117.396768 L145.750571,117.082405 C145.750571,117.082405 147.787959,92.1474955 148.206765,81.6508591 C148.247101,80.6231318 148.251392,79.9952682 148.883892,79.83895 C149.51725,79.6826318 154.100944,77.7714045 154.574675,77.4907227 C155.048407,77.2091773 155.075011,76.0139045 155.024377,75.5112682 C154.975459,75.0077682 154.641616,71.5618591 154.240832,71.1153591 C153.840907,70.6679955 141.126541,72.83745 141.126541,72.83745" id="Fill-181" fill="#4E4F85" mask="url(#mask-8)"></path>
                    <path d="M155.930646,112.184291 L159.20128,114.297609 C159.20128,114.297609 160.109265,115.205291 158.867437,115.153473 C157.665086,115.103382 154.374713,114.812336 153.263332,114.287245 C152.671168,114.006564 152.443743,113.772518 152.385384,113.325155 C152.329601,112.900245 152.252362,112.161836 152.652287,111.748155 C153.052213,111.334473 155.092175,111.642791 155.930646,112.184291" id="Fill-182" fill="#AB5E48" mask="url(#mask-8)"></path>
                    <path d="M143.488332,116.042845 C143.488332,116.042845 144.938705,115.203391 145.905049,116.797664 C146.87225,118.391936 147.339116,120.471573 147.42322,121.042436 C147.506466,121.612436 146.973519,122.082255 146.17281,121.7463 C145.372101,121.411209 143.505496,119.666664 143.121877,118.693345 C142.738257,117.720027 142.821504,116.478982 143.488332,116.042845" id="Fill-183" fill="#AB5E48" mask="url(#mask-8)"></path>
                    <path d="M155.675071,57.9624364 C155.675071,57.9624364 155.614996,64.3326182 155.808093,65.1427091 C156.02522,66.0486636 158.419623,74.1798 158.353541,76.9529364 C158.353541,76.9529364 160.09828,78.2060727 159.287272,81.6062091 C159.136228,82.2392545 158.77578,82.9595273 158.231675,82.9154818 C157.686713,82.8697091 157.245593,80.9239364 157.415519,80.1630727 C157.415519,80.1630727 156.898019,81.0811182 156.341899,80.7339364 C155.786638,80.3876182 156.108466,78.9444818 156.298131,78.6646636 C156.486078,78.3848455 156.708354,77.5566182 156.541862,77.1653909 C156.374511,76.7741636 153.774138,70.8470273 153.741526,69.7398455 C153.708056,68.6318 152.574362,58.9020727 153.074698,58.5324364 C153.575034,58.1636636 155.679362,57.3587545 155.675071,57.9624364" id="Fill-184" fill="#F5B2AD" mask="url(#mask-8)"></path>
                    <path d="M150.907119,48.0306182 C150.907119,48.0306182 154.485851,47.7179818 155.507978,53.1753 C156.530963,58.6334818 155.795478,58.8519818 155.668463,58.9867091 C155.541448,59.1197091 153.984657,60.2277545 153.474881,60.2942545 C152.965104,60.3598909 150.907119,48.0306182 150.907119,48.0306182" id="Fill-185" fill="#02824B" mask="url(#mask-8)"></path>
                    <path d="M143.971847,48.9027182 C143.178862,49.1687182 140.437743,50.4244455 139.637034,52.1689909 C138.837183,53.9135364 139.637034,66.6867182 139.770056,67.5589909 C139.903937,68.4304 140.686623,74.3022636 141.629795,75.0078545 C142.57125,75.7117182 144.088563,76.4164455 147.206437,75.8300364 C149.339944,75.4275818 154.536399,72.9558545 154.597332,72.4704909 C154.676287,71.8529909 154.549272,64.3808091 154.597332,62.8944909 C154.647966,61.3174909 154.441138,52.5265364 154.374198,51.6551273 C154.308116,50.7819909 154.308116,45.4473091 143.971847,48.9027182" id="Fill-186" fill="#009756" mask="url(#mask-8)"></path>
                    <path d="M141.704802,51.6546955 C140.42178,51.1866045 138.737116,52.56065 137.936407,55.5799227 C137.136556,58.6000591 136.547825,61.5407409 137.748459,62.2566955 C138.948235,62.97265 141.593235,62.7049227 141.971705,62.0105591 C142.349317,61.3170591 143.060772,56.7769227 143.082228,55.5920136 C143.105399,54.4062409 142.993832,52.1245136 141.704802,51.6546955" id="Fill-187" fill="#18AD6D" mask="url(#mask-8)"></path>
                    <path d="M143.994504,57.3585818 L143.994504,63.9792182 C143.994504,63.9792182 153.085511,62.5248545 154.196892,60.1541727 L154.196892,53.8021273 C154.196892,53.8021273 150.840437,57.1228091 143.994504,57.3585818" id="Fill-188" fill="#18AD6C" mask="url(#mask-8)"></path>
                    <path d="M137.33669,60.8814409 C137.33669,60.8814409 137.170198,67.9166227 137.237138,68.7439864 C137.30322,69.5722136 137.704004,71.7641227 139.592922,71.7641227 C141.482698,71.7641227 146.083556,71.1509409 146.506653,71.0542136 C146.928034,70.95835 147.394899,70.6811227 147.928705,71.0542136 C148.462511,71.4281682 149.462325,71.7865773 149.950646,71.5620318 C150.440683,71.33835 151.485123,70.3995773 151.152138,68.9236227 C150.818295,67.4468045 149.839937,67.5806682 149.373071,67.6031227 C148.906205,67.6264409 149.022922,67.0953045 148.995459,66.9994409 C148.963705,66.8897591 148.862437,66.7533045 148.528593,66.73085 C148.19475,66.7083955 147.891802,66.7636682 147.573407,67.6704864 C147.31766,68.3976682 146.061243,68.2301227 145.172138,68.2068045 C143.525235,68.1662136 142.215608,68.0340773 141.226951,67.9606682 C140.470869,67.9053955 140.687138,66.85435 140.687138,66.85435 L142.093743,61.11635 C142.093743,61.11635 137.481728,60.0653045 137.33669,60.8814409" id="Fill-189" fill="#F4B2AC" mask="url(#mask-8)"></path>
                    <path d="M153.574776,69.3103591 C153.574776,70.0608591 152.57153,70.6679955 151.335709,70.6679955 C150.098172,70.6679955 149.094925,70.0608591 149.094925,69.3103591 C149.094925,68.5607227 150.098172,67.9527227 151.335709,67.9527227 C152.57153,67.9527227 153.574776,68.5607227 153.574776,69.3103591" id="Fill-190" fill="#E6E5E7" mask="url(#mask-8)"></path>
                    <polygon id="Fill-191" fill="#E6E5E7" mask="url(#mask-8)" points="149.094925 69.3102727 153.574776 69.3102727 153.574776 65.3004091 149.094925 65.3004091"></polygon>
                    <path d="M145.383257,48.6007909 C145.010795,49.0783818 144.16031,50.3565636 146.17281,51.0958364 C148.184451,51.8333818 148.984302,51.6097 149.55072,51.1511091 C150.117996,50.6925182 149.96266,48.8581545 149.217735,48.4004273 C148.473668,47.9409727 146.072399,47.7181545 145.383257,48.6007909" id="Fill-192" fill="#F4B2AC" mask="url(#mask-8)"></path>
                    <path d="M146.194522,45.6261682 C146.194522,45.6261682 145.972246,48.6005318 146.071799,48.8578955 C146.173067,49.1152591 147.093067,49.8096227 147.389149,49.8545318 C147.683515,49.8985773 148.562321,49.69735 148.695343,49.3726227 C148.828366,49.0487591 148.814634,46.6547591 148.814634,46.6547591 L147.273291,45.2349409 L146.194522,45.6261682 Z" id="Fill-193" fill="#E6938C" mask="url(#mask-8)"></path>
                    <path d="M153.574776,65.3008409 C153.574776,66.0504773 152.57153,66.6584773 151.335709,66.6584773 C150.098172,66.6584773 149.094925,66.0504773 149.094925,65.3008409 C149.094925,64.5512045 150.098172,63.9432045 151.335709,63.9432045 C152.57153,63.9432045 153.574776,64.5512045 153.574776,65.3008409" id="Fill-194" fill="#CDCCCD" mask="url(#mask-8)"></path>
                    <path d="M149.673444,67.4043136 C149.673444,67.6824045 149.449451,67.9078136 149.173108,67.9078136 C148.897623,67.9078136 148.672772,67.6824045 148.672772,67.4043136 C148.672772,67.1270864 148.897623,66.9016773 149.173108,66.9016773 C149.449451,66.9016773 149.673444,67.1270864 149.673444,67.4043136" id="Fill-195" fill="#E6E5E7" mask="url(#mask-8)"></path>
                    <path d="M151.915343,38.7870318 C151.915343,38.7870318 153.474709,40.8502591 152.651687,44.3255318 C151.857843,47.6798955 150.12941,47.49335 149.817881,47.5158045 C149.506351,47.5391227 147.35053,46.8896682 146.239149,45.1675773 C145.127769,43.4454864 144.416313,41.2751682 144.883179,40.6714864 C145.350045,40.0669409 148.973403,37.5623955 149.861649,37.7860773 C150.751612,38.0097591 151.915343,38.7870318 151.915343,38.7870318" id="Fill-196" fill="#F5B3AC" mask="url(#mask-8)"></path>
                    <path d="M144.737884,38.7473909 C144.737884,38.7473909 145.791765,36.5148909 147.305646,36.3983 C149.639974,36.2195273 151.040571,36.6893455 152.107325,38.2775727 C152.479787,38.8337545 152.494377,39.2750727 152.26266,39.3916636 C152.029228,39.5082545 150.685272,38.9598455 149.639974,38.9719364 C148.595534,38.9823 147.594862,39.7543909 147.21725,40.2907091 C146.83878,40.8278909 144.737884,38.7473909 144.737884,38.7473909" id="Fill-197" fill="#41416D" mask="url(#mask-8)"></path>
                    <path d="M144.121862,43.6854909 C144.171638,43.9912182 144.288354,45.2797636 144.538093,45.8324909 C144.78869,46.3869455 145.555929,46.6719455 145.989325,46.4197636 C146.42272,46.1684455 146.639847,45.4887636 146.505966,45.0992636 C146.372086,44.7089 145.455519,43.6345364 145.739586,43.3003091 C146.022795,42.9643545 146.656153,43.0982182 146.772869,43.3003091 C146.889586,43.5006727 147.038914,43.7649455 147.206265,43.7580364 C147.484325,43.7468091 147.828466,41.6214 147.728056,40.7940364 C147.628504,39.9666727 147.005444,37.8645818 145.327646,38.1547636 C143.648989,38.4458091 143.272235,40.3138545 143.437869,41.3536727 C143.604362,42.3934909 144.083243,43.4445364 144.121862,43.6854909" id="Fill-198" fill="#4E4F85" mask="url(#mask-8)"></path>
                    <path d="M151.529836,59.4206864 C151.529836,59.4206864 153.264276,60.3603227 153.096925,62.7586409 C153.050582,63.43055 152.526216,64.1033227 152.336552,64.5204591 C152.127149,64.9825045 151.663716,65.6293682 151.246627,65.4946409 C150.830396,65.3607773 150.863866,63.5471409 150.996888,63.2958227 C151.12991,63.0445045 151.763269,62.0711864 151.713493,61.4847773 C151.663716,60.8966409 151.680022,59.5381409 151.529836,59.4206864" id="Fill-199" fill="#E6E5E7" mask="url(#mask-8)"></path>
                    <path d="M22.4020858,85.7810273 C22.3274216,85.8250727 22.2536157,85.8319818 22.2081306,85.7913909 C21.5455933,85.2093 21.195444,84.2783 21.195444,83.0977091 C21.195444,79.9022545 23.778653,75.8025727 26.9531679,73.9587091 C29.6239142,72.4067545 31.9865634,72.9353 32.5710037,75.2153 C32.5993246,75.3267091 32.518653,75.4994364 32.3924963,75.6022091 C32.2637649,75.7049818 32.1384664,75.6963455 32.1110037,75.5858 C31.5746231,73.4923455 29.4050709,73.0078455 26.9531679,74.4328455 C24.0378321,76.1264364 21.6666007,79.8901636 21.6666007,82.8230727 C21.6666007,83.9069364 21.9884291,84.7619364 22.596041,85.2965273 C22.669847,85.3621636 22.6423843,85.5253909 22.5351082,85.6618455 C22.4947724,85.7136636 22.4484291,85.7551182 22.4020858,85.7810273" id="Fill-200" fill="#B6CAE5" mask="url(#mask-8)"></path>
                    <path d="M27.4172015,80.9896591 C27.3073507,81.0527045 27.2095149,81.0328409 27.1863433,80.9335227 C27.1614552,80.8195227 27.2438433,80.6467955 27.3717164,80.54575 C27.5021642,80.4438409 27.6257463,80.4559318 27.6506343,80.5690682 C27.6772388,80.6830682 27.5965672,80.8540682 27.4695522,80.95425 L27.464403,80.9577045 C27.4489552,80.9706591 27.4335075,80.9801591 27.4172015,80.9896591" id="Fill-201" fill="#B6CAE5" mask="url(#mask-8)"></path>
                    <path d="M25.6789851,81.1710227 C25.5820075,81.2262955 25.4910373,81.2193864 25.456709,81.1416591 C25.4412612,81.1071136 25.4283881,81.0630682 25.4163731,81.0190227 C25.214694,80.2667955 25.7433507,79.1008864 26.5912612,78.40825 C27.4443209,77.7156136 28.2982388,77.7510227 28.4964851,78.4920227 C28.5256642,78.6017045 28.4475672,78.7761591 28.3205522,78.8797955 C28.1918209,78.9851591 28.0665224,78.9773864 28.0373433,78.8677045 C27.8974552,78.3460682 27.2984254,78.3175682 26.6985373,78.8081136 C26.1037985,79.2934773 25.732194,80.1122045 25.8729403,80.6338409 C25.8823806,80.6718409 25.8909627,80.7012045 25.9012612,80.7245227 C25.9450299,80.8229773 25.8806642,80.9957045 25.7587985,81.1114318 C25.732194,81.1356136 25.7055896,81.1546136 25.6789851,81.1710227" id="Fill-202" fill="#B6CAE5" mask="url(#mask-8)"></path>
                    <path d="M26.7098657,82.8291182 C26.608597,82.8878455 26.514194,82.8766182 26.4841567,82.7911182 C26.4463955,82.6874818 26.5167687,82.5138909 26.6420672,82.4033455 C26.7690821,82.2936636 26.9012463,82.2867545 26.9390075,82.3903909 C26.9759104,82.4940273 26.9063955,82.6658909 26.7828134,82.7755727 L26.7776642,82.7790273 C26.7553507,82.7997545 26.7321791,82.8153 26.7098657,82.8291182" id="Fill-203" fill="#B6CAE5" mask="url(#mask-8)"></path>
                    <path d="M24.3288507,82.1299182 C24.2215746,82.1921 24.124597,82.1748273 24.0988507,82.0789636 C23.7332537,80.7092364 24.7133284,78.5510091 26.2864254,77.2676455 C27.8629552,75.9834182 29.4377687,76.0551 29.8059403,77.4248273 C29.8351194,77.5353727 29.7561642,77.7081 29.6300075,77.8117364 C29.5021343,77.9162364 29.3759776,77.9093273 29.3467985,77.7987818 C29.0378433,76.6501455 27.7162015,76.5879636 26.3937015,77.6675091 C25.0737761,78.7444636 24.2507537,80.5563727 24.5588507,81.7058727 C24.5880299,81.8164182 24.5090746,81.9891455 24.3820597,82.0927818 C24.3648955,82.1074636 24.3468731,82.1195545 24.3288507,82.1299182" id="Fill-204" fill="#B6CAE5" mask="url(#mask-8)"></path>
                    <path d="M27.8705933,83.4136273 C27.7693246,83.4723545 27.6749216,83.4611273 27.6440261,83.3764909 C27.6071231,83.2719909 27.6774963,83.0992636 27.8027948,82.9887182 C27.9298097,82.8790364 28.0619739,82.8721273 28.0988769,82.9749 C28.1357799,83.0785364 28.0671231,83.2504 27.9426828,83.3600818 L27.9383918,83.3644 C27.9152201,83.3842636 27.8920485,83.4006727 27.8705933,83.4136273" id="Fill-205" fill="#B6CAE5" mask="url(#mask-8)"></path>
                    <path d="M23.0716604,83.3713955 C22.97125,83.4301227 22.876847,83.4188955 22.8459515,83.3351227 C22.8244963,83.2738045 22.8073321,83.21335 22.7901679,83.1477136 C22.2546455,81.1501227 23.6861381,78.0004409 25.9809888,76.1272136 C28.2766978,74.2539864 30.5835634,74.3541682 31.119944,76.3517591 C31.1491231,76.4623045 31.0701679,76.6358955 30.9440112,76.7386682 C30.8161381,76.8431682 30.6899813,76.8371227 30.6608022,76.7274409 C30.1836381,74.9492136 28.1342351,74.8576682 26.0882649,76.5279409 C24.0457276,78.1938955 22.7721455,80.9963955 23.2493097,82.7746227 C23.2647575,82.8298955 23.2776306,82.8825773 23.2973694,82.9343955 C23.3359888,83.0380318 23.2656157,83.2107591 23.1403172,83.3213045 C23.1180037,83.3420318 23.0939739,83.3584409 23.0716604,83.3713955" id="Fill-206" fill="#B6CAE5" mask="url(#mask-8)"></path>
                    <path d="M25.1995896,86.1327 C25.1352239,86.1707 25.0708582,86.1810636 25.0245149,86.1560182 C23.9345896,85.5747909 23.1622015,84.5341091 22.7897388,83.1488364 C22.7605597,83.0374273 22.8386567,82.8647 22.9656716,82.7610636 C23.094403,82.6574273 23.2188433,82.6634727 23.2497388,82.7731545 C23.6033209,84.0927909 24.3379478,85.0816545 25.373806,85.6352455 C25.4613433,85.6827455 25.4544776,85.8356091 25.3575,85.9798364 C25.3120149,86.0472 25.2553731,86.1007455 25.1995896,86.1327" id="Fill-207" fill="#B6CAE5" mask="url(#mask-8)"></path>
                    <path d="M27.5102313,85.0573864 C27.4621716,85.0850227 27.4149701,85.0988409 27.3737761,85.0927955 C25.7225821,84.8665227 24.559709,83.7964773 24.0988507,82.0804318 C24.0696716,81.9690227 24.1486269,81.7962955 24.2747836,81.6926591 C24.4035149,81.5890227 24.5288134,81.5950682 24.5588507,81.70475 C24.9922463,83.3240682 26.0898955,84.3336591 27.6466866,84.5478409 C27.7531045,84.5625227 27.7779925,84.6963864 27.7024701,84.8466591 C27.6561269,84.9382045 27.5840373,85.0150682 27.5102313,85.0573864" id="Fill-208" fill="#B6CAE5" mask="url(#mask-8)"></path>
                    <path d="M29.2945336,83.5088864 C29.2602052,83.5278864 29.2258769,83.5408409 29.1932649,83.5451591 C27.2743097,83.7386136 25.8977425,82.8136591 25.4137127,81.0077955 C25.3836754,80.89725 25.4626306,80.7236591 25.5896455,80.6200227 C25.7140858,80.5189773 25.8428172,80.5224318 25.8728545,80.6338409 C26.3242724,82.3170682 27.608153,83.1789773 29.3958022,82.9976136 C29.5133769,82.98725 29.5622948,83.0986591 29.5073694,83.2497955 C29.4661754,83.3586136 29.3820709,83.4570682 29.2945336,83.5088864" id="Fill-209" fill="#B6CAE5" mask="url(#mask-8)"></path>
                    <path d="M30.6363433,81.8044136 C30.6140299,81.8182318 30.5908582,81.8277318 30.5676866,81.8346409 C28.651306,82.3623227 27.1777612,81.6368682 26.7229104,79.9389591 C26.6937313,79.8284136 26.7718284,79.6556864 26.8997015,79.55205 C27.025,79.4492773 27.1520149,79.4535955 27.1829104,79.5641409 C27.5991418,81.11955 28.9482463,81.7854136 30.705,81.3009136 C30.8302985,81.2663682 30.9006716,81.3579136 30.8620522,81.5055955 C30.8311567,81.6256409 30.7376119,81.74655 30.6363433,81.8044136" id="Fill-210" fill="#B6CAE5" mask="url(#mask-8)"></path>
                    <path d="M30.6363433,81.8044136 C30.6140299,81.8182318 30.5908582,81.8277318 30.5676866,81.8346409 C28.651306,82.3623227 27.1777612,81.6368682 26.7229104,79.9389591 C26.6937313,79.8284136 26.7718284,79.6556864 26.8997015,79.55205 C27.025,79.4492773 27.1520149,79.4535955 27.1829104,79.5641409 C27.5991418,81.11955 28.9482463,81.7854136 30.705,81.3009136 C30.8302985,81.2663682 30.9006716,81.3579136 30.8620522,81.5055955 C30.8311567,81.6256409 30.7376119,81.74655 30.6363433,81.8044136" id="Fill-211" fill="#B6CAE5" mask="url(#mask-8)"></path>
                    <path d="M31.5791716,80.0830136 C31.5671567,80.0907864 31.5551418,80.0968318 31.5431269,80.10115 C29.8112612,80.8361045 28.4355522,80.3524682 28.0373433,78.8670136 C28.0081642,78.7564682 28.0862612,78.5837409 28.2132761,78.4801045 C28.3385746,78.3773318 28.4664478,78.3825136 28.4964851,78.4921955 C28.8500672,79.8135591 30.0738731,80.2445136 31.6152164,79.5907409 C31.7430896,79.5363318 31.8323433,79.6062864 31.8117463,79.7470591 C31.7937239,79.8748773 31.6941716,80.0173773 31.5791716,80.0830136" id="Fill-212" fill="#B6CAE5" mask="url(#mask-8)"></path>
                    <path d="M32.138209,78.4484955 C32.1364925,78.4493591 32.1347761,78.4510864 32.1330597,78.45195 C30.7951119,79.1972682 29.649403,78.9295409 29.3464552,77.7990409 C29.3172761,77.6884955 29.3953731,77.5157682 29.5223881,77.4121318 C29.6476866,77.3102227 29.7755597,77.3145409 29.805597,77.4242227 C30.0596269,78.3716318 31.0208209,78.5970409 32.1442164,77.9709045 C32.273806,77.8983591 32.376791,77.9475864 32.3742164,78.0797227 C32.3707836,78.2109955 32.2660821,78.3742227 32.138209,78.4484955" id="Fill-213" fill="#B6CAE5" mask="url(#mask-8)"></path>
                    <path d="M32.195194,77.0653818 C31.4708657,77.4851091 30.8289254,77.3555636 30.6607164,76.7259727 C30.6315373,76.6154273 30.7096343,76.4427 30.8366493,76.3390636 C30.962806,76.2362909 31.0898209,76.2423364 31.1198582,76.3520182 C31.2468731,76.8278818 31.7609403,76.9004273 32.3153433,76.5143818 C32.4449328,76.4262909 32.5616493,76.4513364 32.5745224,76.5739727 C32.5891119,76.6957455 32.4964254,76.8667455 32.3659776,76.9565636 C32.3093358,76.9962909 32.2518358,77.0325636 32.195194,77.0653818" id="Fill-214" fill="#B6CAE5" mask="url(#mask-8)"></path>
                    <path d="M34.4219888,81.0242909 L30.800347,83.1289727 C30.6707575,83.2041091 30.5651978,83.1592 30.5651978,83.0279273 C30.5651978,82.8966545 30.6707575,82.7299727 30.800347,82.6539727 L34.4219888,80.5501545 C34.5515784,80.4741545 34.6571381,80.5190636 34.6571381,80.6503364 C34.6571381,80.7816091 34.5515784,80.9491545 34.4219888,81.0242909" id="Fill-215" fill="#B6CAE5" mask="url(#mask-8)"></path>
                    <path d="M34.4219888,78.6543 L33.0196754,79.4678455 C32.8900858,79.5438455 32.7845261,79.4998 32.7845261,79.3676636 C32.7845261,79.2372545 32.8900858,79.0697091 33.0196754,78.9945727 L34.4219888,78.1793 C34.5515784,78.1033 34.6571381,78.1490727 34.6571381,78.2794818 C34.6571381,78.4116182 34.5515784,78.5783 34.4219888,78.6543" id="Fill-216" fill="#B6CAE5" mask="url(#mask-8)"></path>
                    <path d="M34.4219888,79.8392955 L32.0250112,81.2314773 C31.8954216,81.3074773 31.7898619,81.2625682 31.7898619,81.1312955 C31.7898619,81.0008864 31.8954216,80.8333409 32.0250112,80.7573409 L34.4219888,79.3651591 C34.5515784,79.2891591 34.6571381,79.3340682 34.6571381,79.4653409 C34.6571381,79.5966136 34.5515784,79.7641591 34.4219888,79.8392955" id="Fill-217" fill="#B6CAE5" mask="url(#mask-8)"></path>
                    <path d="M55.7582649,66.5499182 C55.6836007,66.5939636 55.6097948,66.6008727 55.5643097,66.5602818 C54.9017724,65.9781909 54.5516231,65.0463273 54.5516231,63.8657364 C54.5516231,60.6711455 57.1348321,56.5714636 60.309347,54.7276 C62.9800933,53.1756455 65.3427425,53.7041909 65.9271828,55.9841909 C65.9555037,56.0956 65.8756903,56.2683273 65.7486754,56.3711 C65.619944,56.4738727 65.4955037,56.4652364 65.4671828,56.3546909 C64.9308022,54.2612364 62.7621082,53.7767364 60.309347,55.2008727 C57.3940112,56.8944636 55.0236381,60.6590545 55.0236381,63.5919636 C55.0236381,64.6758273 55.3454664,65.5308273 55.9530784,66.0654182 C56.0260261,66.1310545 55.9994216,66.2942818 55.8921455,66.4298727 C55.8509515,66.4825545 55.8054664,66.5231455 55.7582649,66.5499182" id="Fill-218" fill="#B6CAE5" mask="url(#mask-8)"></path>
                    <path d="M60.7742388,61.7577727 C60.6643881,61.8216818 60.565694,61.8018182 60.5433806,61.7016364 C60.5176343,61.5885 60.6008806,61.4157727 60.7278955,61.3147273 C60.8583433,61.2128182 60.9827836,61.2249091 61.0076716,61.3380455 C61.0334179,61.4520455 60.9536045,61.6230455 60.8257313,61.7223636 L60.8214403,61.7266818 C60.8051343,61.7387727 60.7896866,61.7491364 60.7742388,61.7577727" id="Fill-219" fill="#B6CAE5" mask="url(#mask-8)"></path>
                    <path d="M59.0360224,61.93905 C58.9390448,61.9951864 58.8480746,61.9882773 58.8137463,61.91055 C58.7982985,61.8760045 58.7854254,61.8319591 58.7725522,61.78705 C58.5717313,61.0356864 59.1003881,59.8697773 59.9482985,59.1771409 C60.8005,58.4845045 61.6544179,58.5199136 61.8526642,59.2609136 C61.8827015,59.3705955 61.8037463,59.54505 61.6767313,59.6486864 C61.5488582,59.75405 61.4227015,59.7462773 61.3935224,59.6357318 C61.2536343,59.1149591 60.6546045,59.0864591 60.0547164,59.5770045 C59.4608358,60.0623682 59.0892313,60.8810955 59.2291194,61.4018682 C59.2394179,61.4407318 59.2471418,61.4700955 59.2582985,61.4934136 C59.3020672,61.5918682 59.2368433,61.7645955 59.1149776,61.8803227 C59.0892313,61.9045045 59.0617687,61.9235045 59.0360224,61.93905" id="Fill-220" fill="#B6CAE5" mask="url(#mask-8)"></path>
                    <path d="M60.066903,63.5972318 C59.9647761,63.6559591 59.8712313,63.6447318 59.8403358,63.5600955 C59.8034328,63.4555955 59.873806,63.2828682 59.9991045,63.1723227 C60.1261194,63.0626409 60.2582836,63.0557318 60.2951866,63.1593682 C60.3320896,63.2621409 60.2634328,63.4340045 60.1389925,63.5436864 L60.1347015,63.5480045 C60.1115299,63.5687318 60.0883582,63.5842773 60.066903,63.5972318" id="Fill-221" fill="#B6CAE5" mask="url(#mask-8)"></path>
                    <path d="M57.6858881,62.8988955 C57.5786119,62.9602136 57.4816343,62.9438045 57.4558881,62.8479409 C57.0894328,61.4782136 58.0695075,59.3199864 59.6426045,58.0366227 C61.2191343,56.7523955 62.794806,56.8240773 63.1621194,58.1929409 C63.1912985,58.30435 63.1132015,58.4770773 62.9870448,58.5807136 C62.8591716,58.6852136 62.7330149,58.6783045 62.7029776,58.5677591 C62.3948806,57.4182591 61.0723806,57.3569409 59.7498806,58.4364864 C58.4308134,59.5134409 57.6069328,61.32535 57.9158881,62.4739864 C57.944209,62.5845318 57.8661119,62.7581227 57.739097,62.8617591 C57.7210746,62.8764409 57.7039104,62.8876682 57.6858881,62.8988955" id="Fill-222" fill="#B6CAE5" mask="url(#mask-8)"></path>
                    <path d="M61.2267724,64.1825182 C61.1255037,64.2412455 61.0311007,64.2300182 61.0010634,64.1445182 C60.9633022,64.0408818 61.0345336,63.8681545 61.1589739,63.7576091 C61.286847,63.6470636 61.418153,63.6410182 61.4559142,63.7437909 C61.4928172,63.8474273 61.4241604,64.0192909 61.2997201,64.1289727 L61.2945709,64.1332909 C61.2722575,64.1531545 61.2490858,64.1695636 61.2267724,64.1825182" id="Fill-223" fill="#B6CAE5" mask="url(#mask-8)"></path>
                    <path d="M56.4286978,64.1403727 C56.3274291,64.1991 56.2338843,64.1878727 56.2029888,64.1032364 C56.1806754,64.0427818 56.1635112,63.9823273 56.146347,63.9166909 C55.6108246,61.9191 57.0423172,58.7694182 59.3380261,56.8961909 C61.6328769,55.0221 63.9397425,55.1231455 64.4761231,57.1207364 C64.5053022,57.2312818 64.4272052,57.4040091 64.3001903,57.5076455 C64.1731754,57.6121455 64.0470187,57.6061 64.0169813,57.4955545 C63.5398172,55.7181909 61.4904142,55.6266455 59.444444,57.2969182 C57.4027649,58.9628727 56.1283246,61.7645091 56.6054888,63.5427364 C56.6209366,63.5980091 56.6346679,63.6506909 56.6544067,63.7033727 C56.6921679,63.8061455 56.6217948,63.9797364 56.4973545,64.0902818 C56.475041,64.1110091 56.4510112,64.1274182 56.4286978,64.1403727" id="Fill-224" fill="#B6CAE5" mask="url(#mask-8)"></path>
                    <path d="M58.5557687,66.9015909 C58.491403,66.9395909 58.4278955,66.9499545 58.380694,66.9249091 C57.2916269,66.3436818 56.5192388,65.303 56.1459179,63.9177273 C56.1167388,63.8063182 56.195694,63.6335909 56.3218507,63.5299545 C56.4514403,63.4263182 56.5758806,63.4323636 56.6059179,63.5420455 C56.9603582,64.8616818 57.6949851,65.8505455 58.7308433,66.4041364 C58.8183806,66.4507727 58.8106567,66.6045 58.7136791,66.7487273 C58.6690522,66.8160909 58.6115522,66.8696364 58.5557687,66.9015909" id="Fill-225" fill="#B6CAE5" mask="url(#mask-8)"></path>
                    <path d="M60.8672687,65.8262773 C60.819209,65.8539136 60.7720075,65.8668682 60.7299552,65.8616864 C59.0796194,65.6354136 57.9167463,64.5653682 57.4558881,62.8493227 C57.426709,62.7379136 57.504806,62.5651864 57.6309627,62.46155 C57.7605522,62.3579136 57.8849925,62.3639591 57.9158881,62.4736409 C58.3492836,64.0929591 59.4460746,65.10255 61.0037239,65.3167318 C61.1092836,65.33055 61.1350299,65.4652773 61.0586493,65.61555 C61.012306,65.7062318 60.9402164,65.7830955 60.8672687,65.8262773" id="Fill-226" fill="#B6CAE5" mask="url(#mask-8)"></path>
                    <path d="M62.6507127,64.2777773 C62.6163843,64.2967773 62.582056,64.3097318 62.549444,64.3131864 C60.631347,64.5075045 59.2539216,63.58255 58.7698918,61.7766864 C58.7398545,61.6661409 58.8188097,61.49255 58.9466828,61.3889136 C59.0702649,61.2878682 59.1998545,61.2913227 59.2290336,61.4018682 C59.6804515,63.0859591 60.9643321,63.9478682 62.7528396,63.7665045 C62.8704142,63.7552773 62.9193321,63.86755 62.8635485,64.0186864 C62.8232127,64.1275045 62.7391082,64.2259591 62.6507127,64.2777773" id="Fill-227" fill="#B6CAE5" mask="url(#mask-8)"></path>
                    <path d="M63.9933806,62.5733045 C63.9710672,62.5871227 63.9478955,62.5966227 63.9247239,62.6026682 C62.0083433,63.1312136 60.5347985,62.4048955 60.0790896,60.70785 C60.0499104,60.5973045 60.1288657,60.4245773 60.2567388,60.3209409 C60.3811791,60.2181682 60.5090522,60.2224864 60.5390896,60.3330318 C60.9553209,61.8884409 62.3052836,62.5543045 64.0620373,62.0698045 C64.1864776,62.0352591 64.2568507,62.1259409 64.2190896,62.2744864 C64.188194,62.3945318 64.0946493,62.5154409 63.9933806,62.5733045" id="Fill-228" fill="#B6CAE5" mask="url(#mask-8)"></path>
                    <path d="M63.9933806,62.5733045 C63.9710672,62.5871227 63.9478955,62.5966227 63.9247239,62.6026682 C62.0083433,63.1312136 60.5347985,62.4048955 60.0790896,60.70785 C60.0499104,60.5973045 60.1288657,60.4245773 60.2567388,60.3209409 C60.3811791,60.2181682 60.5090522,60.2224864 60.5390896,60.3330318 C60.9553209,61.8884409 62.3052836,62.5543045 64.0620373,62.0698045 C64.1864776,62.0352591 64.2568507,62.1259409 64.2190896,62.2744864 C64.188194,62.3945318 64.0946493,62.5154409 63.9933806,62.5733045" id="Fill-229" fill="#B6CAE5" mask="url(#mask-8)"></path>
                    <path d="M64.936209,60.8519045 C64.9233358,60.8588136 64.9113209,60.8657227 64.899306,60.8700409 C63.1674403,61.6049955 61.7917313,61.1213591 61.3935224,59.6359045 C61.3643433,59.5253591 61.4432985,59.3526318 61.5694552,59.2489955 C61.6947537,59.1462227 61.8234851,59.1505409 61.8526642,59.2610864 C62.2062463,60.58245 63.4309104,61.0134045 64.9713955,60.3596318 C65.1001269,60.3052227 65.1885224,60.3751773 65.1687836,60.51595 C65.1507612,60.6437682 65.0503507,60.7854045 64.936209,60.8519045" id="Fill-230" fill="#B6CAE5" mask="url(#mask-8)"></path>
                    <path d="M65.4952463,59.2174727 C65.4935299,59.2183364 65.4909552,59.2200636 65.4892388,59.2209273 C64.1521493,59.9662455 63.0064403,59.6976545 62.7026343,58.5680182 C62.6734552,58.4574727 62.7524104,58.2838818 62.8794254,58.1802455 C63.0038657,58.0792 63.132597,58.0835182 63.1617761,58.1932 C63.415806,59.1406091 64.377,59.3660182 65.5012537,58.7398818 C65.6308433,58.6673364 65.7329701,58.7165636 65.7303955,58.8487 C65.7278209,58.9799727 65.6222612,59.1432 65.4952463,59.2174727" id="Fill-231" fill="#B6CAE5" mask="url(#mask-8)"></path>
                    <path d="M65.5513731,57.8334091 C64.827903,58.254 64.1851045,58.1235909 64.0168955,57.4948636 C63.9877164,57.3843182 64.0666716,57.2115909 64.1928284,57.1079545 C64.3189851,57.0051818 64.4468582,57.0103636 64.4760373,57.1209091 C64.6039104,57.5967727 65.1179776,57.6684545 65.6723806,57.2824091 C65.8019701,57.1951818 65.9178284,57.2202273 65.9315597,57.3428636 C65.945291,57.4637727 65.8526045,57.6356364 65.7230149,57.7245909 C65.6655149,57.7651818 65.6080149,57.8005909 65.5513731,57.8334091" id="Fill-232" fill="#B6CAE5" mask="url(#mask-8)"></path>
                    <path d="M67.7781679,61.7931818 L64.1573843,63.8978636 C64.0269366,63.9721364 63.9222351,63.9280909 63.9222351,63.7968182 C63.9222351,63.6655455 64.0269366,63.4988636 64.1573843,63.4228636 L67.7781679,61.3190455 C67.9086157,61.2430455 68.0133172,61.2879545 68.0133172,61.4192273 C68.0133172,61.5505 67.9086157,61.7171818 67.7781679,61.7931818" id="Fill-233" fill="#B6CAE5" mask="url(#mask-8)"></path>
                    <path d="M67.7781679,59.4224136 L66.3767127,60.2368227 C66.2462649,60.3128227 66.1415634,60.2679136 66.1415634,60.1366409 C66.1415634,60.0062318 66.2462649,59.8378227 66.3767127,59.76355 L67.7781679,58.9482773 C67.9086157,58.8722773 68.0133172,58.9171864 68.0133172,59.0484591 C68.0133172,59.1797318 67.9086157,59.3472773 67.7781679,59.4224136" id="Fill-234" fill="#B6CAE5" mask="url(#mask-8)"></path>
                    <path d="M67.7781679,60.6081864 L65.3820485,62.0003682 C65.2516007,62.0763682 65.1468993,62.0314591 65.1468993,61.9001864 C65.1468993,61.7697773 65.2516007,61.6013682 65.3820485,61.5262318 L67.7781679,60.13405 C67.9086157,60.05805 68.0133172,60.1029591 68.0133172,60.2333682 C68.0133172,60.3655045 67.9086157,60.5321864 67.7781679,60.6081864" id="Fill-235" fill="#B6CAE5" mask="url(#mask-8)"></path>
                    <path d="M88.8319216,47.6207364 C88.7572575,47.6639182 88.6834515,47.6708273 88.6379664,47.6302364 C87.9754291,47.0481455 87.6252799,46.1171455 87.6252799,44.9365545 C87.6252799,41.7411 90.2084888,37.6414182 93.3830037,35.7975545 C96.05375,34.2456 98.4163993,34.7741455 99.0008396,37.0541455 C99.0291604,37.1655545 98.9484888,37.3382818 98.8223321,37.4410545 C98.6936007,37.5438273 98.5691604,37.5351909 98.5408396,37.4246455 C98.004459,35.3320545 95.8349067,34.8466909 93.3830037,36.2716909 C90.4676679,37.9652818 88.0972948,41.7290091 88.0972948,44.6619182 C88.0972948,45.7457818 88.4182649,46.6016455 89.0258769,47.1353727 C89.0996828,47.2010091 89.0722201,47.3642364 88.964944,47.5006909 C88.9246082,47.5533727 88.8782649,47.5939636 88.8319216,47.6207364" id="Fill-236" fill="#B6CAE5" mask="url(#mask-8)"></path>
                    <path d="M93.8479813,42.8285909 C93.7372724,42.8916364 93.6394366,42.8717727 93.6162649,42.7724545 C93.5913769,42.6584545 93.6737649,42.4857273 93.8016381,42.3846818 C93.9320858,42.2827727 94.0556679,42.2948636 94.0814142,42.408 C94.1071604,42.522 94.0264888,42.693 93.8994739,42.7931818 L93.8943246,42.7966364 C93.8788769,42.8095909 93.8634291,42.8190909 93.8479813,42.8285909" id="Fill-237" fill="#B6CAE5" mask="url(#mask-8)"></path>
                    <path d="M92.1089067,43.0099545 C92.0119291,43.0660909 91.920959,43.0583182 91.8874888,42.9805909 C91.8711828,42.9460455 91.8583097,42.902 91.8462948,42.8579545 C91.6454739,42.1057273 92.1732724,40.9398182 93.0211828,40.2471818 C93.8742425,39.5545455 94.7281604,39.5899545 94.9264067,40.3309545 C94.9555858,40.4415 94.8774888,40.6159545 94.7504739,40.7187273 C94.6226007,40.8240909 94.496444,40.8163182 94.4672649,40.7066364 C94.3273769,40.185 93.728347,40.1565 93.128459,40.6470455 C92.5337201,41.1324091 92.1621157,41.9511364 92.3028619,42.4727727 C92.3123022,42.5107727 92.3208843,42.5401364 92.3311828,42.5634545 C92.3749515,42.6619091 92.3105858,42.8346364 92.1887201,42.9503636 C92.1621157,42.9745455 92.1355112,42.9935455 92.1089067,43.0099545" id="Fill-238" fill="#B6CAE5" mask="url(#mask-8)"></path>
                    <path d="M93.1397873,44.66805 C93.0385187,44.7267773 92.9441157,44.71555 92.9140784,44.63005 C92.8763172,44.5264136 92.9475485,44.3528227 93.0719888,44.2422773 C93.1990037,44.1325955 93.3311679,44.12655 93.3689291,44.2293227 C93.4058321,44.3329591 93.3371754,44.5048227 93.2127351,44.6145045 L93.2075858,44.6179591 C93.1852724,44.6386864 93.1621007,44.6542318 93.1397873,44.66805" id="Fill-239" fill="#B6CAE5" mask="url(#mask-8)"></path>
                    <path d="M90.7587724,43.96885 C90.6514963,44.0310318 90.5553769,44.0137591 90.5287724,43.9187591 C90.1631754,42.5481682 91.14325,40.3899409 92.716347,39.1065773 C94.2928769,37.82235 95.8676903,37.8948955 96.2358619,39.2637591 C96.265041,39.3743045 96.1860858,39.5470318 96.0599291,39.6506682 C95.932056,39.7551682 95.8058993,39.7482591 95.7767201,39.6377136 C95.4677649,38.4890773 94.1461231,38.4268955 92.8236231,39.5064409 C91.5036978,40.5833955 90.6806754,42.3953045 90.9887724,43.5448045 C91.0179515,43.65535 90.9389963,43.8280773 90.8119813,43.9317136 C90.7948172,43.9463955 90.7767948,43.9584864 90.7587724,43.96885" id="Fill-240" fill="#B6CAE5" mask="url(#mask-8)"></path>
                    <path d="M94.3005149,45.2524727 C94.1992463,45.3112 94.1048433,45.2999727 94.0739478,45.2153364 C94.0370448,45.1108364 94.1074179,44.9381091 94.2327164,44.8275636 C94.3597313,44.7178818 94.4918955,44.7109727 94.5287985,44.8137455 C94.5665597,44.9173818 94.4970448,45.0892455 94.3726045,45.1989273 L94.3683134,45.2032455 C94.346,45.2231091 94.3219701,45.2395182 94.3005149,45.2524727" id="Fill-241" fill="#B6CAE5" mask="url(#mask-8)"></path>
                    <path d="M89.5015821,45.2111909 C89.4011716,45.2690545 89.3067687,45.2578273 89.2758731,45.1740545 C89.2544179,45.1127364 89.2372537,45.0522818 89.2200896,44.9866455 C88.6845672,42.9890545 90.1160597,39.8393727 92.4117687,37.9661455 C94.7066194,36.0929182 97.0134851,36.1931 97.5498657,38.1906909 C97.5790448,38.3012364 97.5000896,38.4748273 97.3739328,38.5776 C97.2460597,38.6821 97.119903,38.6760545 97.0907239,38.5663727 C96.6135597,36.7881455 94.5641567,36.6966 92.5181866,38.3668727 C90.4756493,40.0328273 89.2020672,42.8353273 89.6792313,44.6135545 C89.6946791,44.6688273 89.7075522,44.7215091 89.727291,44.7733273 C89.7659104,44.8769636 89.6955373,45.0496909 89.5702388,45.1602364 C89.5479254,45.1809636 89.5247537,45.1973727 89.5015821,45.2111909" id="Fill-242" fill="#B6CAE5" mask="url(#mask-8)"></path>
                    <path d="M91.6295112,47.9716318 C91.5651455,48.0096318 91.5007799,48.0199955 91.4544366,47.99495 C90.3645112,47.4137227 89.5921231,46.3730409 89.2196604,44.9877682 C89.1904813,44.8763591 89.2685784,44.7036318 89.3955933,44.6008591 C89.5251828,44.4963591 89.6487649,44.5024045 89.6796604,44.6120864 C90.0332425,45.9317227 90.7678694,46.9205864 91.8037276,47.4750409 C91.8921231,47.5216773 91.8843993,47.6745409 91.7874216,47.8187682 C91.7419366,47.8861318 91.6852948,47.9396773 91.6295112,47.9716318" id="Fill-243" fill="#B6CAE5" mask="url(#mask-8)"></path>
                    <path d="M93.940153,46.8963182 C93.8920933,46.9239545 93.8448918,46.9377727 93.8036978,46.9317273 C92.1525037,46.7054545 90.9896306,45.6354091 90.5287724,43.9193636 C90.4995933,43.8088182 90.5785485,43.6352273 90.7047052,43.5315909 C90.8334366,43.4279545 90.9587351,43.434 90.9887724,43.5436818 C91.4221679,45.163 92.5198172,46.1725909 94.0774664,46.3867727 C94.1830261,46.4014545 94.2079142,46.5353182 94.1323918,46.6855909 C94.0860485,46.7771364 94.013959,46.854 93.940153,46.8963182" id="Fill-244" fill="#B6CAE5" mask="url(#mask-8)"></path>
                    <path d="M95.7244552,45.3478182 C95.6901269,45.3668182 95.6557985,45.3797727 95.6231866,45.3840909 C93.7050896,45.5784091 92.3276642,44.6525909 91.8436343,42.8467273 C91.813597,42.7361818 91.8925522,42.5625909 92.0195672,42.4589545 C92.1440075,42.3579091 92.273597,42.3613636 92.3027761,42.4727727 C92.754194,44.156 94.0380746,45.0179091 95.8257239,44.8365455 C95.9432985,44.8261818 95.9922164,44.9375909 95.937291,45.0887273 C95.896097,45.1975455 95.8128507,45.296 95.7244552,45.3478182" id="Fill-245" fill="#B6CAE5" mask="url(#mask-8)"></path>
                    <path d="M97.0662649,43.6441227 C97.0439515,43.6570773 97.0207799,43.6665773 96.9984664,43.6734864 C95.0812276,44.2020318 93.6076828,43.4757136 93.1528321,41.7778045 C93.123653,41.6672591 93.20175,41.4945318 93.3296231,41.3908955 C93.4549216,41.2881227 93.5819366,41.2924409 93.6128321,41.40385 C94.0290634,42.9583955 95.3781679,43.6242591 97.1349216,43.1397591 C97.2602201,43.1052136 97.3305933,43.1967591 97.2928321,43.3444409 C97.2610784,43.46535 97.1675336,43.5853955 97.0662649,43.6441227" id="Fill-246" fill="#B6CAE5" mask="url(#mask-8)"></path>
                    <path d="M97.0662649,43.6441227 C97.0439515,43.6570773 97.0207799,43.6665773 96.9984664,43.6734864 C95.0812276,44.2020318 93.6076828,43.4757136 93.1528321,41.7778045 C93.123653,41.6672591 93.20175,41.4945318 93.3296231,41.3908955 C93.4549216,41.2881227 93.5819366,41.2924409 93.6128321,41.40385 C94.0290634,42.9583955 95.3781679,43.6242591 97.1349216,43.1397591 C97.2602201,43.1052136 97.3305933,43.1967591 97.2928321,43.3444409 C97.2610784,43.46535 97.1675336,43.5853955 97.0662649,43.6441227" id="Fill-247" fill="#B6CAE5" mask="url(#mask-8)"></path>
                    <path d="M98.0090933,41.9219455 C97.9970784,41.9297182 97.9850634,41.9357636 97.9730485,41.9400818 C96.2411828,42.6750364 94.8654739,42.1914 94.4672649,40.7059455 C94.4380858,40.5954 94.5161828,40.4226727 94.6431978,40.3190364 C94.7684963,40.2162636 94.8963694,40.2214455 94.9264067,40.3311273 C95.2799888,41.6524909 96.504653,42.0834455 98.0451381,41.4305364 C98.1730112,41.3752636 98.2622649,41.4452182 98.2416679,41.5859909 C98.2236455,41.7146727 98.1240933,41.8563091 98.0090933,41.9219455" id="Fill-248" fill="#B6CAE5" mask="url(#mask-8)"></path>
                    <path d="M98.568903,40.2874273 C98.5663284,40.2891545 98.5646119,40.2900182 98.5628955,40.2908818 C97.2249478,41.0362 96.0792388,40.7684727 95.776291,39.6379727 C95.7471119,39.5274273 95.8260672,39.3547 95.9522239,39.2510636 C96.0775224,39.1491545 96.2062537,39.1534727 96.2354328,39.2631545 C96.4894627,40.2114273 97.4506567,40.4359727 98.5740522,39.8098364 C98.7036418,39.7372909 98.8066269,39.7865182 98.8040522,39.9186545 C98.8014776,40.0499273 98.6959179,40.2131545 98.568903,40.2874273" id="Fill-249" fill="#B6CAE5" mask="url(#mask-8)"></path>
                    <path d="M98.6251157,38.9043136 C97.9007873,39.3240409 97.258847,39.1944955 97.0906381,38.5649045 C97.061459,38.4543591 97.139556,38.2816318 97.2665709,38.1779955 C97.3927276,38.0752227 97.5197425,38.0812682 97.5497799,38.19095 C97.6767948,38.6668136 98.1908619,38.7393591 98.7452649,38.3533136 C98.8748545,38.2652227 98.9915709,38.2902682 99.004444,38.4129045 C99.0190336,38.5346773 98.926347,38.7056773 98.7958993,38.7954955 C98.7392575,38.8352227 98.6817575,38.8714955 98.6251157,38.9043136" id="Fill-250" fill="#B6CAE5" mask="url(#mask-8)"></path>
                    <path d="M100.85191,42.8631364 L97.2302687,44.9678182 C97.1006791,45.0429545 96.9951194,44.9989091 96.9951194,44.8667727 C96.9951194,44.7355 97.1006791,44.5688182 97.2302687,44.4928182 L100.85191,42.389 C100.9815,42.313 101.08706,42.3579091 101.08706,42.4891818 C101.08706,42.6204545 100.9815,42.788 100.85191,42.8631364" id="Fill-251" fill="#B6CAE5" mask="url(#mask-8)"></path>
                    <path d="M100.85191,40.4932318 L99.449597,41.3067773 C99.3200075,41.3827773 99.2144478,41.3387318 99.2144478,41.2065955 C99.2144478,41.0761864 99.3200075,40.9086409 99.449597,40.8335045 L100.85191,40.0182318 C100.9815,39.9422318 101.08706,39.9880045 101.08706,40.1184136 C101.08706,40.25055 100.9815,40.4172318 100.85191,40.4932318" id="Fill-252" fill="#B6CAE5" mask="url(#mask-8)"></path>
                    <path d="M100.85191,41.6782273 L98.4549328,43.0704091 C98.3253433,43.1464091 98.2197836,43.1015 98.2197836,42.9702273 C98.2197836,42.8398182 98.3253433,42.6722727 98.4549328,42.5962727 L100.85191,41.2040909 C100.9815,41.1280909 101.08706,41.173 101.08706,41.3042727 C101.08706,41.4355455 100.9815,41.6030909 100.85191,41.6782273" id="Fill-253" fill="#B6CAE5" mask="url(#mask-8)"></path>
                </g>
                <rect id="Rectangle-21" fill="#D8D8D8" opacity="0" x="0" y="0" width="280" height="235"></rect>
                <text id="QTrade" font-family="MicrosoftYaHei-Bold, Microsoft YaHei" font-size="18" font-weight="bold" letter-spacing="-0.7758" fill="#333333">
                    <tspan x="109" y="279">Q</tspan>
                    <tspan x="122.172442" y="279" letter-spacing="-1.476">T</tspan>
                    <tspan x="130.46988" y="279">rade</tspan>
                </text>
                <text id="一款你的同业好友都在使用的同业交易工具" font-family="MicrosoftYaHei, Microsoft YaHei" font-size="14" font-weight="normal" line-spacing="14" fill="#333333">
                    <tspan x="7" y="314">一款你的同业好友都在使用的同业交易工具</tspan>
                </text>
            </g>
        </g>
    </g>
</svg>