<?xml version="1.0" encoding="UTF-8"?>
<svg width="70px" height="50px" viewBox="0 0 70 50" version="1.1" xmlns="http://www.w3.org/2000/svg" xmlns:xlink="http://www.w3.org/1999/xlink">
    <!-- Generator: Sketch 46.2 (44496) - http://www.bohemiancoding.com/sketch -->
    <title>page_1_slice</title>
    <desc>Created with Sketch.</desc>
    <defs>
        <polygon id="path-1" points="5e-05 36.8686869 70 36.8686869 70 0.220722002 5e-05 0.220722002"></polygon>
        <polygon id="path-3" points="6.071575 0.0681818182 0.100575 0.0681818182 0.100575 11.2437879 6.071575 11.2437879 6.071575 0.0681818182"></polygon>
        <polygon id="path-5" points="8.250775 0.0681818182 0.071525 0.0681818182 0.071525 12.3127273 8.250775 12.3127273 8.250775 0.0681818182"></polygon>
        <polygon id="path-7" points="14.250775 0.0681818182 0.100525 0.0681818182 0.100525 8.2059596 14.250775 8.2059596 14.250775 0.0681818182"></polygon>
    </defs>
    <g id="顶部菜单" stroke="none" stroke-width="1" fill="none" fill-rule="evenodd">
        <g id="Artboard" transform="translate(-414.000000, -191.000000)">
            <g id="Page-1" transform="translate(414.000000, 191.000000)">
                <g id="Group-79" transform="translate(0.000000, 0.184343)">
                    <g id="Group-3" transform="translate(0.000000, 12.878788)">
                        <mask id="mask-2" fill="white">
                            <use xlink:href="#path-1"></use>
                        </mask>
                        <g id="Clip-2"></g>
                        <path d="M70.00005,16.3247727 C70.00005,16.3247727 67.2168,15.2858838 66.0068,13.8803283 C64.6213,12.2707323 62.31655,8.33941919 59.41205,7.83007576 C56.93655,7.39598485 52.6048,6.53992424 49.12705,5.63007576 C47.42355,5.18436869 45.40655,2.42275253 41.7458,1.16871212 C38.26705,-0.0227020202 33.2758,0.242954545 31.64205,0.25229798 C30.64705,0.257853535 26.13655,1.00583333 26.13655,1.00583333 L5e-05,16.2636616 L35.05555,36.8687121 L70.00005,16.3247727 Z" id="Fill-1" fill="#F1F4FA" mask="url(#mask-2)"></path>
                    </g>
                    <polygon id="Fill-4" fill="#FFFFFF" points="29.34525 46.4614646 29.2245 46.2498485 64.9585 25.3902525 65.0795 25.6018687"></polygon>
                    <polygon id="Fill-6" fill="#FFFFFF" points="11.542025 36.0392424 11.421025 35.8276263 45.436775 15.9710606 45.557775 16.1826768"></polygon>
                    <polygon id="Fill-8" fill="#FFFFFF" points="32.129675 34.4532071 32.008675 34.2415909 56.449425 19.9744192 56.570425 20.1860354"></polygon>
                    <polygon id="Fill-10" fill="#FFFFFF" points="14.325725 24.0566414 14.204725 23.8450253 32.774475 13.0048737 32.895475 13.2167424"></polygon>
                    <polygon id="Fill-12" fill="#FFFFFF" points="46.648475 43.0020707 14.204725 24.0566162 14.325725 23.845 46.769475 42.7904545"></polygon>
                    <polygon id="Fill-14" fill="#FFFFFF" points="34.4766 43.395404 16.6456 32.9893434 16.7666 32.7779798 34.5976 43.1837879"></polygon>
                    <path d="M13.671175,25.6610606 C13.837425,25.5772222 14.548425,24.6731818 13.308175,24.4693939 C12.067925,24.2658586 10.791425,25.1315152 10.549675,25.2332828 C10.307675,25.3350505 8.966425,25.7782323 8.855425,25.9514646 C8.744675,26.1244444 8.678925,26.5219192 9.021925,26.6236869 C9.364675,26.7254545 10.846925,26.4249495 11.169675,26.3638384 C11.492425,26.3029798 13.354175,25.820404 13.671175,25.6610606" id="Fill-16" fill="#CFDCF2" opacity="0.300000012"></path>
                    <path d="M14.479525,20.0794697 C14.621025,19.7994192 14.933275,18.8266919 14.792275,18.4499242 C14.651275,18.072904 14.167025,17.8794697 13.632525,18.2256818 C13.098275,18.5721465 12.674525,19.6516919 12.654525,20.0794697 C12.634275,20.5072475 12.735025,23.4713889 12.856275,23.6443687 C12.977025,23.817601 13.173775,24.0559848 13.259525,24.1231566 C13.389525,24.2249242 13.983025,24.2708838 14.267775,24.0635606 C14.418775,23.9539646 14.620775,22.8297222 14.520025,22.2999242 C14.419275,21.7703788 14.228275,21.3456313 14.281775,20.6575 C14.297025,20.462803 14.450525,20.137298 14.479525,20.0794697" id="Fill-20" fill="#ACF6DC"></path>
                    <path d="M11.978075,26.0701768 C12.097825,25.9264899 12.855575,25.0820455 11.615075,24.8785101 C10.374825,24.6747222 8.579825,25.6219444 8.337825,25.7237121 C8.096075,25.8257323 6.875825,26.2941667 6.764825,26.467399 C6.654075,26.6406313 6.613575,26.9663889 6.956575,27.0684091 C7.299325,27.1701768 8.963075,27.017399 9.285825,26.9562879 C9.608325,26.8951768 11.789575,26.2964394 11.978075,26.0701768" id="Fill-22" fill="#CFDCF2" opacity="0.300000012"></path>
                    <path d="M12.855275,17.799596 C12.897775,17.5430303 12.467025,15.825101 11.403275,16.3175253 C11.040275,16.4857071 10.964775,17.4177778 10.964775,17.6314141 C10.964775,17.8455556 10.979775,20.0301515 10.662275,20.5192929 C10.344525,21.0081818 10.420275,22.49 10.919275,23.3301515 C11.418525,24.1705556 11.569525,24.3538889 11.736025,24.430404 C11.902275,24.5066667 12.507525,24.4607071 12.689025,23.7733333 C12.870525,23.0859596 12.915775,20.9316667 12.855275,20.7483333 C12.795025,20.565 12.795025,18.1662626 12.855275,17.799596" id="Fill-26" fill="#6ACDA3"></path>
                    <path d="M64.06645,30.4132828 C64.19445,30.1938384 65.01395,28.7049495 63.34045,29.0993939 C61.6082,29.5077273 59.5692,30.3521717 56.18095,30.9632828 C52.79295,31.5743939 53.7207,32.7355051 53.82145,32.8781818 C53.92245,33.0208586 54.76245,33.8983838 58.58595,33.0766667 C62.37745,32.2620202 63.94545,30.6206061 64.06645,30.4132828" id="Fill-28" fill="#CFDCF2" opacity="0.300000012"></path>
                    <path d="M63.98565,27.6734848 L63.98565,27.6734848 C64.12515,27.6734848 64.2379,27.7873737 64.2379,27.9280303 L64.2379,29.4457071 C64.2379,29.5863636 64.12515,29.7002525 63.98565,29.7002525 C63.8464,29.7002525 63.73365,29.5863636 63.73365,29.4457071 L63.73365,27.9280303 C63.73365,27.7873737 63.8464,27.6734848 63.98565,27.6734848" id="Fill-30" fill="#DB8868"></path>
                    <path d="M66.425825,19.3111869 C66.466325,19.1278535 66.486325,17.3149747 65.941825,16.9483081 C65.397575,16.5816414 64.752075,16.0925 63.985575,16.9483081 C63.219325,17.8038636 62.674825,20.0445202 62.634575,20.4111869 C62.594325,20.7781061 61.424575,23.2632071 61.424575,24.5465404 C61.424575,25.8298737 61.847825,27.7142172 63.300075,28.152096 C64.752075,28.5902273 66.122825,27.6164899 66.335325,26.9094192 C66.708325,25.6669949 66.384575,23.4175 66.163825,22.8354293 C65.936825,22.2369444 66.191575,20.3796212 66.309825,19.9632071 C66.415825,19.5912374 66.425825,19.3111869 66.425825,19.3111869" id="Fill-32" fill="#ACF5DB"></path>
                    <polygon id="Fill-34" fill="#B1BDCA" points="40.321575 15.7224242 34.350575 19.2044949 34.350575 11.5108081 40.321575 8.02873737"></polygon>
                    <polygon id="Fill-36" fill="#C4D4E3" points="48.500775 20.2733081 40.321525 15.7225505 40.321525 8.02886364 48.500775 12.5796212"></polygon>
                    <polygon id="Fill-38" fill="#9DB5DC" points="42.35015 23.860202 34.35065 19.1950505 34.35065 11.5016162 42.35015 16.1667677"></polygon>
                    <polygon id="Fill-40" fill="#B5C8E5" points="48.500775 20.2733081 42.350025 23.8601768 42.350025 16.1667424 48.500775 12.5796212"></polygon>
                    <polygon id="Fill-42" fill="#DCE7FA" points="48.500775 12.5796717 42.350025 16.1667929 34.350525 11.5109848 40.321525 8.02891414"></polygon>
                    <polygon id="Fill-44" fill="#B1BDCA" points="48.54985 20.5502525 42.57885 24.0323232 42.57885 16.3386364 48.54985 12.8565657"></polygon>
                    <polygon id="Fill-46" fill="#C4D4E3" points="56.7288 25.1012626 48.5498 20.5502525 48.5498 12.8565657 56.7288 17.4075758"></polygon>
                    <polygon id="Fill-48" fill="#9DB5DC" points="50.5784 28.6881566 42.5789 24.0230051 42.5789 16.3295707 50.5784 20.9944697"></polygon>
                    <polygon id="Fill-50" fill="#B5C8E5" points="56.7288 25.1012626 50.5783 28.6881313 50.5783 20.9944444 56.7288 17.4075758"></polygon>
                    <polygon id="Fill-52" fill="#DCE7FA" points="56.7288 17.4076263 50.5783 20.9944949 42.5788 16.3386869 48.5498 12.8566162"></polygon>
                    <g id="Group-56" transform="translate(34.250000, 0.000000)">
                        <mask id="mask-4" fill="white">
                            <use xlink:href="#path-3"></use>
                        </mask>
                        <g id="Clip-55"></g>
                        <polygon id="Fill-54" fill="#B1BDCA" mask="url(#mask-4)" points="6.071575 7.76171717 0.100575 11.2437879 0.100575 3.55010101 6.071575 0.068030303"></polygon>
                    </g>
                    <g id="Group-59" transform="translate(40.250000, 0.000000)">
                        <mask id="mask-6" fill="white">
                            <use xlink:href="#path-5"></use>
                        </mask>
                        <g id="Clip-58"></g>
                        <polygon id="Fill-57" fill="#C4D4E3" mask="url(#mask-6)" points="8.250775 12.3127273 0.071525 7.76171717 0.071525 0.068030303 8.250775 4.6190404"></polygon>
                    </g>
                    <polygon id="Fill-60" fill="#9DB5DC" points="42.35015 15.8996212 34.35065 11.2344697 34.35065 3.54078283 42.35015 8.20593434"></polygon>
                    <polygon id="Fill-62" fill="#B5C8E5" points="48.500775 12.3127273 42.350025 15.899596 42.350025 8.20590909 48.500775 4.6190404"></polygon>
                    <g id="Group-66" transform="translate(34.250000, 0.000000)">
                        <mask id="mask-8" fill="white">
                            <use xlink:href="#path-7"></use>
                        </mask>
                        <g id="Clip-65"></g>
                        <polygon id="Fill-64" fill="#DCE7FA" mask="url(#mask-8)" points="14.250775 4.61909091 8.100025 8.2059596 0.100525 3.55015152 6.071525 0.0680808081"></polygon>
                    </g>
                    <polygon id="Fill-67" fill="#CFDCF2" points="34.350625 19.2045202 27.212125 21.9348232 43.439625 31.4186616 50.578375 28.6881061"></polygon>
                    <polygon id="Fill-69" fill="#CFDCF2" points="27.2122 21.9348232 20.0737 24.6653788 28.09795 29.3552778 35.23645 26.6249747"></polygon>
                    <polygon id="Fill-71" fill="#9DB5DC" points="37.661175 32.8093182 31.690425 36.2913889 31.690425 28.597702 37.661175 25.1156313"></polygon>
                    <polygon id="Fill-73" fill="#B5C8E5" points="45.840375 37.3603283 37.661125 32.8093182 37.661125 25.1156313 45.840375 29.6666414"></polygon>
                    <polygon id="Fill-75" fill="#9DB5DC" points="39.68975 40.9472222 31.6905 36.2820707 31.6905 28.5883838 39.68975 33.2535354"></polygon>
                    <polygon id="Fill-77" fill="#B5C8E5" points="45.840375 37.3603283 39.689625 40.947197 39.689625 33.2535101 45.840375 29.6666414"></polygon>
                </g>
                <polygon id="Fill-80" points="31.6905 36.4664141 39.68975 41.1315657 39.68975 33.4378788 31.6905 28.7727273"></polygon>
                <polygon id="Fill-82" points="39.68975 33.4378788 39.68975 41.1315657 45.84025 37.544697 45.84025 29.8510101"></polygon>
                <g id="Group-126" transform="translate(11.250000, 20.133838)">
                    <polygon id="Fill-84" fill="#DCE7FA" points="26.569375 16.5763131 18.572125 11.9124242 20.442875 8.63893939 28.440375 13.3030808"></polygon>
                    <polygon id="Fill-86" fill="#DCE7FA" points="36.461225 12.990404 30.339975 16.5603535 28.468975 13.2868687 34.590475 9.71717172"></polygon>
                    <path d="M23.63555,0.918636364 C23.63555,1.35323232 23.2868,1.70550505 22.8568,1.70550505 C22.42655,1.70550505 22.0778,1.35323232 22.0778,0.918636364 C22.0778,0.484040404 22.42655,0.131767677 22.8568,0.131767677 C23.2868,0.131767677 23.63555,0.484040404 23.63555,0.918636364" id="Fill-88" fill="#E5908B"></path>
                    <path d="M26.569875,0.918636364 C26.569875,1.35323232 26.221125,1.70550505 25.791125,1.70550505 C25.360875,1.70550505 25.012125,1.35323232 25.012125,0.918636364 C25.012125,0.484040404 25.360875,0.131767677 25.791125,0.131767677 C26.221125,0.131767677 26.569875,0.484040404 26.569875,0.918636364" id="Fill-90" fill="#E5908B"></path>
                    <path d="M29.5042,0.918636364 C29.5042,1.35323232 29.15545,1.70550505 28.72545,1.70550505 C28.2952,1.70550505 27.94645,1.35323232 27.94645,0.918636364 C27.94645,0.484040404 28.2952,0.131767677 28.72545,0.131767677 C29.15545,0.131767677 29.5042,0.484040404 29.5042,0.918636364" id="Fill-92" fill="#E5908B"></path>
                    <path d="M30.7481,4.24732323 C30.7361,4.37510101 30.76235,4.47156566 30.78935,4.51121212 C30.8596,4.61424242 31.0926,4.70590909 31.27085,4.70010101 C31.3451,4.69757576 31.39985,4.67813131 31.41785,4.64808081 C31.4401,4.61045455 31.44235,4.57358586 31.4261,4.53116162 C31.38985,4.43722222 31.2676,4.34025253 31.1356,4.30060606 C30.9951,4.25868687 30.8666,4.24075758 30.7481,4.24732323 L30.7481,4.24732323 Z M29.63485,5.7190404 C29.63485,5.67459596 29.6401,4.62459596 30.21985,4.18722222 C30.3186,4.11247475 30.42735,4.06045455 30.54535,4.03065657 C30.5466,4.02585859 30.54835,4.02080808 30.54985,4.0160101 C30.60835,3.83015152 30.7751,3.49328283 31.23785,3.31929293 C31.3441,3.26348485 32.3511,2.76146465 33.5016,3.08419192 L33.4366,3.31979798 C32.3391,3.0119697 31.3541,3.53343434 31.34435,3.5389899 L31.32885,3.54580808 C31.02485,3.65818182 30.8816,3.85439394 30.81485,4.00111111 C30.93685,4.00338384 31.06685,4.02510101 31.20435,4.06651515 C31.41185,4.12863636 31.58735,4.27611111 31.6516,4.4420202 C31.69535,4.55565657 31.6866,4.67005051 31.6256,4.77333333 C31.5636,4.87813131 31.4406,4.9389899 31.27885,4.94429293 C31.0511,4.95313131 30.7211,4.84176768 30.5901,4.65035354 C30.5316,4.56449495 30.50235,4.43949495 30.5036,4.30237374 C30.45435,4.32333333 30.40835,4.35010101 30.3651,4.38267677 C29.8826,4.74631313 29.87685,5.70944444 29.87685,5.7190404 L29.63485,5.7190404 Z" id="Fill-94" fill="#E5908B"></path>
                    <path d="M34.1624,2.58237374 C34.30315,2.72606061 34.62065,2.92378788 35.17565,2.82808081 C35.64915,2.74651515 36.24465,2.31419192 36.94515,1.54348485 C36.9829,1.50181818 37.00965,1.47277778 37.02315,1.45964646 C37.1019,1.38388889 37.2004,1.22580808 37.22115,1.14929293 C35.5914,1.01722222 35.09465,1.74525253 34.8264,2.13691919 C34.62615,2.43010101 34.35015,2.54070707 34.1624,2.58237374 M34.89515,3.09777778 C34.18865,3.09777778 33.8624,2.65106061 33.8364,2.50712121 L33.8099,2.35989899 L33.9579,2.36292929 C33.9789,2.36242424 34.37865,2.36191919 34.62715,1.99828283 C34.90365,1.5939899 35.4779,0.753080808 37.26315,0.906868687 C37.35715,0.914949495 37.42715,0.96520202 37.45465,1.04424242 C37.5274,1.25358586 37.24815,1.58085859 37.1899,1.63666667 C37.1784,1.64777778 37.1559,1.6730303 37.1234,1.70863636 C36.8484,2.01116162 36.01165,2.93212121 35.21615,3.0689899 C35.10165,3.08893939 34.99465,3.09777778 34.89515,3.09777778" id="Fill-96" fill="#E5908B"></path>
                    <path d="M34.38725,2.66484848 C34.1315,2.66484848 33.938,2.60752525 33.9205,2.6019697 L33.99025,2.36813131 C34.0245,2.37848485 34.81975,2.61055556 35.2465,2.01131313 C35.752,1.30121212 37.25025,0.977222222 37.314,0.963838384 L37.3635,1.2029798 C37.349,1.20626263 35.8935,1.52090909 35.44275,2.15424242 C35.146,2.57090909 34.71525,2.66484848 34.38725,2.66484848" id="Fill-98" fill="#E5908B"></path>
                    <path d="M35.43975,2.8445202 C35.4255,2.78568182 35.2535,2.52583333 35.102,2.32305556 L35.2955,2.17583333 C35.4645,2.40234848 35.66825,2.69780303 35.6805,2.82002525 L35.43975,2.8445202 Z" id="Fill-100" fill="#E5908B"></path>
                    <polygon id="Fill-102" fill="#E5908B" points="36.21465 2.48212121 35.3449 2.04878788 35.16765 1.49474747 35.3974 1.41949495 35.54365 1.87505051 36.32165 2.26267677"></polygon>
                    <polygon id="Fill-106" fill="#CFDCF2" points="20.440475 16.3419192 13.301975 19.0724747 21.301225 23.7724747 28.439725 21.0421717"></polygon>
                    <path d="M13.800825,17.6134091 C11.110575,17.6780556 6.036575,18.1636616 3.961825,18.9560859 C1.886825,19.7485101 0.093325,22.012904 0.221575,23.2424495 C0.349575,24.4717424 2.515825,26.0891667 5.212075,25.7656818 C7.908075,25.442197 13.546825,23.6305808 14.346575,22.9836111 C15.146075,22.3366414 19.487075,20.4588636 20.319575,19.4937121 C21.152075,18.5288131 19.020575,16.9770455 17.083325,17.0040657 C15.146075,17.0310859 13.800825,17.6134091 13.800825,17.6134091" id="Fill-108" fill="#CFDCF2" opacity="0.300000012"></path>
                    <polygon id="Fill-110" fill="#E4918B" points="16.513225 6.47689394 15.107975 8.10239899 17.065725 9.08522727 17.786225 7.55669192"></polygon>
                    <path d="M17.213675,5.66015152 C17.213675,5.66015152 16.749425,5.51444444 16.541425,5.66015152 C16.333175,5.80560606 16.169675,6.12909091 16.259425,6.38792929 C16.349175,6.64676768 16.429175,6.66292929 16.413175,6.75989899 C16.396925,6.85712121 16.349175,7.54651515 16.364925,7.81646465 C16.381175,8.08641414 16.381175,11.2242929 17.213675,11.4669697 C18.046425,11.7096465 20.744675,12.1947475 21.032925,12.0977778 C21.321425,12.0008081 21.793675,11.645 21.889675,11.1982828 C21.909675,11.1048485 21.787425,10.4437374 21.441425,10.2457576 C21.102175,10.0518182 20.837925,9.76848485 19.807925,9.68767677 C19.395675,9.65535354 19.085675,9.41873737 19.155425,9.23085859 C19.253425,8.96621212 20.368425,8.4179798 20.620675,7.52025253 C20.872925,6.62252525 21.076925,5.66419192 20.392425,5.53060606 C19.707925,5.39727273 18.014425,4.80282828 17.870425,4.98489899 C17.726175,5.16671717 17.213675,5.66015152 17.213675,5.66015152" id="Fill-112" fill="#F2B0AA"></path>
                    <path d="M20.0142,19.0025505 C19.51145,19.1088636 18.9332,19.2452273 18.9332,19.6091162 C18.9332,19.9730051 19.65395,20.0459848 20.0142,20.0702273 C20.37445,20.0944697 21.0712,20.0217424 21.50345,19.9730051 C21.93595,19.9245202 22.15195,19.5363889 21.71945,19.3182071 C21.2872,19.0997727 20.29445,18.9432071 20.0142,19.0025505" id="Fill-114" fill="#A76049"></path>
                    <path d="M18.06255,19.0693687 C17.5598,19.1756818 16.98155,19.3117929 16.98155,19.6759343 C16.98155,20.0398232 17.7023,20.1125505 18.06255,20.1370455 C18.4228,20.1612879 19.11955,20.0883081 19.5518,20.0398232 C19.9843,19.9913384 20.2003,19.6032071 19.7678,19.3847727 C19.33555,19.1663384 18.3428,19.0100253 18.06255,19.0693687" id="Fill-116" fill="#A76049"></path>
                    <path d="M18.1707,8.81830808 C18.1707,8.81830808 18.65095,9.02462121 18.3387,9.35214646 C18.02645,9.67967172 17.2337,10.6137626 17.1977,10.6622475 C17.1617,10.7107323 17.0537,10.9534091 17.31795,11.0503788 C17.5822,11.147601 20.5487,12.1544192 20.6087,12.1786616 C20.6687,12.202904 20.90895,12.2513889 20.8967,12.6397727 C20.8847,13.027904 20.8127,18.2079545 20.8127,18.2079545 C20.8127,18.2079545 20.87295,18.6084596 21.06495,18.7781566 C21.2572,18.9481061 21.3652,19.3483586 21.2812,19.4453283 C21.19695,19.5425505 20.5607,19.6438131 20.1522,19.5991162 C19.74395,19.5546717 19.2367,19.3660354 19.04445,19.0566919 C18.85245,18.7473485 16.87745,17.0311869 16.87745,17.0311869 L13.97895,17.3546717 L11.2087,16.3518939 C11.2087,16.3518939 11.32095,13.0521465 12.1537,11.4993687 C12.9862,9.94659091 13.9152,8.52310606 14.04295,8.40997475 C14.1712,8.29659091 15.06795,7.73042929 15.8527,7.82765152 C16.6372,7.92462121 17.9432,8.64027778 18.1707,8.81830808" id="Fill-118" fill="#4E4E81"></path>
                    <path d="M16.9395,5.34262626 C16.9395,5.34262626 16.8675,5.77924242 16.8615,5.88252525 C16.8555,5.98555556 17.0295,6.07671717 17.17375,6.00979798 C17.318,5.94313131 17.9845,5.6519697 18.0565,5.61560606 C18.1285,5.57924242 18.36875,5.35323232 18.573,5.68757576 C18.77725,6.02191919 19.91225,7.34439394 20.24825,7.39287879 C20.5845,7.44136364 21.55125,7.42318182 21.80375,7.28959596 C22.056,7.15626263 22.04375,7.08353535 22.056,7.05929293 C22.068,7.03505051 21.6295,7.08959596 21.5035,7.05323232 C21.5035,7.05323232 21.6655,5.44565657 21.047,4.51156566 C20.4285,3.57747475 19.0475,3.11661616 18.34475,3.43808081 C17.64225,3.75954545 17.07775,4.39035354 16.9395,5.34262626" id="Fill-120" fill="#1C1C44"></path>
                    <path d="M19.972225,8.82434343 C19.845975,8.82131313 19.544725,8.89 19.346975,9.01474747 C19.149475,9.13974747 18.988475,9.30969697 19.062975,9.38848485 C19.137475,9.46727273 19.293475,9.52181818 19.353475,9.50969697 C19.413725,9.49782828 19.461725,9.64934343 19.383725,9.73419192 C19.305475,9.8190404 18.993225,10.0859596 19.215475,10.2559091 C19.437475,10.4256061 20.158225,10.2922727 20.356475,10.1041414 C20.554475,9.91626263 20.632725,9.86146465 20.764725,9.92232323 C20.896725,9.98292929 21.965975,10.5410101 21.773725,11.1112121 C21.581475,11.6811616 21.621725,11.8450505 21.796725,11.9119697 C21.971725,11.9786364 22.500225,11.8389899 22.656225,11.6632323 C22.812475,11.4872222 23.028725,10.9655051 22.938475,10.5591919 C22.848475,10.1526263 21.917725,9.52181818 21.725725,9.46727273 C21.533475,9.41272727 20.806725,9.18217172 20.764725,9.12762626 C20.722725,9.07308081 20.464475,8.83646465 19.972225,8.82434343" id="Fill-122" fill="#E4918B"></path>
                    <path d="M11.208775,16.3518939 C11.208775,16.3518939 11.417025,19.0453283 12.858275,19.5991162 C14.299275,20.1531566 15.801775,19.6188131 15.916775,19.5324495 C16.243025,19.2877525 16.621275,18.8266414 16.893525,18.3251263 C16.893525,18.3251263 16.935775,19.4375 17.015775,19.5324495 C17.095775,19.627399 17.474025,19.7061869 17.798275,19.7001263 C18.122525,19.6940657 18.615025,19.7001263 18.831025,19.657702 C19.047275,19.6152778 19.257525,19.2574495 19.239525,18.9420455 C19.221525,18.6263889 19.132775,18.0869949 19.137525,17.8137626 C19.141775,17.5483586 19.159525,12.7690657 19.159525,12.7690657 C19.159525,12.7690657 19.087525,11.8228535 18.671025,11.6125 C18.254775,11.4021465 17.189775,10.9332071 16.829275,11.3943182 C16.829275,11.3943182 14.569025,14.6377525 14.208775,15.3415404 C13.848525,16.0450758 13.492775,16.2185606 13.324525,16.242803 C13.156275,16.2670455 11.391025,16.2364899 11.330775,16.2488636 C11.270775,16.2609848 11.201275,16.2743687 11.208775,16.3518939" id="Fill-124" fill="#575892"></path>
                </g>
            </g>
        </g>
    </g>
</svg>