<?xml version="1.0" encoding="UTF-8"?>
<svg width="236px" height="76px" viewBox="0 0 236 76" version="1.1" xmlns="http://www.w3.org/2000/svg" xmlns:xlink="http://www.w3.org/1999/xlink">
    <!-- Generator: Sketch 46.2 (44496) - http://www.bohemiancoding.com/sketch -->
    <title>236*76</title>
    <desc>Created with Sketch.</desc>
    <defs>
        <path d="M111,15 L157,15 L157,15 C160.313708,15 163,17.6862915 163,21 L163,50.7777778 L163,50.7777778 C163,54.0914863 160.313708,56.7777778 157,56.7777778 L125.005011,56.7777778 L115.38806,63 L115.38806,56.7777778 L111,56.7777778 L111,56.7777778 C107.686292,56.7777778 105,54.0914863 105,50.7777778 L105,21 L105,21 C105,17.6862915 107.686292,15 111,15 Z" id="path-1"></path>
        <path d="M83,0 L138,0 L138,8.8817842e-16 C141.313708,2.79460044e-16 144,2.6862915 144,6 L144,41 L144,41 C144,44.3137085 141.313708,47 138,47 L100.109237,47 L89,54 L89,47 L83,47 L83,47 C79.6862915,47 77,44.3137085 77,41 L77,6 L77,6 C77,2.6862915 79.6862915,1.4968968e-15 83,8.8817842e-16 Z" id="path-2"></path>
    </defs>
    <g id="一级债" stroke="none" stroke-width="1" fill="none" fill-rule="evenodd">
        <g id="236*76">
            <g id="Rectangle-Copy-2" transform="translate(134.000000, 39.000000) scale(-1, 1) translate(-134.000000, -39.000000) ">
                <use fill="#FFFFFF" fill-rule="evenodd" xlink:href="#path-1"></use>
                <path stroke="#CCCCCC" stroke-width="4" d="M117.38806,59.323875 L124.414423,54.7777778 L157,54.7777778 C159.209139,54.7777778 161,52.9869168 161,50.7777778 L161,21 C161,18.790861 159.209139,17 157,17 L111,17 C108.790861,17 107,18.790861 107,21 L107,50.7777778 C107,52.9869168 108.790861,54.7777778 111,54.7777778 L117.38806,54.7777778 L117.38806,59.323875 Z"></path>
            </g>
            <g id="Rectangle">
                <use fill="#FFFFFF" fill-rule="evenodd" xlink:href="#path-2"></use>
                <path stroke="#BBBBBB" stroke-width="4" d="M91,50.3758637 L99.5316777,45 L138,45 C140.209139,45 142,43.209139 142,41 L142,6 C142,3.790861 140.209139,2 138,2 L83,2 C80.790861,2 79,3.790861 79,6 L79,41 C79,43.209139 80.790861,45 83,45 L91,45 L91,50.3758637 Z"></path>
            </g>
            <rect id="Rectangle-23" fill="#BBBBBB" x="0" y="65" width="40" height="4" rx="2"></rect>
            <rect id="Rectangle-23-Copy" fill="#BBBBBB" x="46" y="65" width="16" height="4" rx="2"></rect>
            <rect id="Rectangle-23-Copy-4" fill="#CCCCCC" x="104" y="72" width="34" height="4" rx="2"></rect>
            <rect id="Rectangle-23-Copy-3" fill="#CCCCCC" x="144" y="72" width="74" height="4" rx="2"></rect>
            <rect id="Rectangle-23-Copy-5" fill="#CCCCCC" x="224" y="72" width="12" height="4" rx="2"></rect>
            <rect id="Rectangle-23-Copy-2" fill="#BBBBBB" x="68" y="65" width="134" height="4" rx="2"></rect>
        </g>
    </g>
</svg>