<?xml version="1.0" encoding="UTF-8"?>
<svg width="50px" height="42px" viewBox="0 0 50 42" version="1.1" xmlns="http://www.w3.org/2000/svg" xmlns:xlink="http://www.w3.org/1999/xlink">
    <!-- Generator: Sketch 49.2 (51160) - http://www.bohemiancoding.com/sketch -->
    <title>blank1</title>
    <desc>Created with Sketch.</desc>
    <defs></defs>
    <g id="Page-1" stroke="none" stroke-width="1" fill="none" fill-rule="evenodd">
        <g id="颜色" transform="translate(-357.000000, -317.000000)" fill-rule="nonzero">
            <g id="blank1" transform="translate(357.000000, 313.000000)">
                <rect id="Rectangle-11" fill-opacity="0" fill="#FFFFFF" x="0" y="0" width="50" height="50"></rect>
                <path d="M37.6111111,42.3055556 C37.5277778,42.3888889 37.4166667,42.4722222 37.3333333,42.5277778 C32.2777778,42.4722222 15.5555556,42.5555556 10.5,42.5555556 C5.72222222,38.6666667 2.66666667,32.7222222 2.66666667,26.0833333 C2.66666667,25.6111111 2.69444444,25.1388889 2.72222222,24.6666667 L5.36111111,24.6666667 C5.97222222,24.6666667 6.47222222,24.1666667 6.47222222,23.5555556 C6.47222222,22.9444444 5.97222222,22.4444444 5.36111111,22.4444444 L8.5,22.4444444 C9.11111111,22.4444444 9.61111111,21.9444444 9.61111111,21.3333333 C9.61111111,20.7222222 9.11111111,20.2222222 8.5,20.2222222 L3.5,20.2222222 C6,11.3888889 14.1944444,4.86111111 23.8888889,4.86111111 C31.5833333,4.86111111 38.3333333,8.94444444 42.0555556,15.0833333 L39.9444444,15.0833333 C39.3333333,15.0833333 38.8333333,15.5833333 38.8333333,16.1944444 C38.8333333,16.8055556 39.3333333,17.3055556 39.9444444,17.3055556 L36.8055556,17.3055556 C36.1944444,17.3055556 35.6944444,17.8055556 35.6944444,18.4166667 C35.6944444,19.0277778 36.1944444,19.5277778 36.8055556,19.5277778 L44.0833333,19.5277778 C44.75,21.6111111 45.1388889,23.8333333 45.1388889,26.1388889 C45.1388889,30.5 43.8333333,34.5555556 41.5555556,37.9444444 L48.8888889,37.9444444 C49.5,37.9444444 50,38.4444444 50,39.0555556 C50,39.6666667 49.5,40.1666667 48.8888889,40.1666667 L45.75,40.1666667 C46.3611111,40.1666667 46.8611111,40.6666667 46.8611111,41.2777778 C46.8611111,41.8888889 46.3611111,42.3888889 45.75,42.3888889 L37.6111111,42.3888889 L37.6111111,42.3055556 Z" id="Combined-Shape" fill="#EEEEEE"></path>
                <path d="M23.8888889,16.9722222 L36.3333333,24.5277778 C36.8055556,24.8055556 37.0833333,25.3333333 37.0833333,25.8611111 L37.0833333,42.5833333 L10.6944444,42.5833333 L10.6944444,25.8611111 C10.6944444,25.3055556 10.9722222,24.8055556 11.4444444,24.5277778 L23.8888889,16.9722222 Z" id="Rectangle-42-Copy-2" fill="#3C3C3C"></path>
                <g id="Path" transform="translate(11.111111, 17.500000)">
                    <path d="M0.0555555556,24.6388889 L25.5277778,24.6388889 L25.5277778,8.38888889 C25.5277778,8 25.3333333,7.63888889 25,7.44444444 L12.7777778,0.0277777778 L0.583333333,7.44444444 C0.25,7.63888889 0.0555555556,8 0.0555555556,8.38888889 L0.0555555556,24.6388889 Z" id="path-1" fill="#FFFFFF"></path>
                    <path d="M0.0555555556,24.6388889 L25.5277778,24.6388889 L25.5277778,8.38888889 C25.5277778,8 25.3333333,7.63888889 25,7.44444444 L12.7777778,0.0277777778 L0.583333333,7.44444444 C0.25,7.63888889 0.0555555556,8 0.0555555556,8.38888889 L0.0555555556,24.6388889 Z" id="path-1_1_" fill-opacity="0.3" fill="#2196F3"></path>
                </g>
                <path d="M28.9444444,14.9444444 L33.6666667,19.6666667 L33.6666667,28.4722222 L24.25,35.5555556 C24.1388889,35.6388889 23.9722222,35.6388889 23.8611111,35.5555556 L14.3055556,28.4722222 L14.3055556,16.5277778 C14.3055556,15.6666667 15,14.9444444 15.8888889,14.9444444 L28.9444444,14.9444444 Z" id="Path_1_" fill="#3C3C3C"></path>
                <path d="M28.7222222,15.4166667 L15.8888889,15.4166667 C15.2777778,15.4166667 14.7777778,15.9166667 14.7777778,16.5277778 L14.7777778,28.25 L24.0555556,35.1388889 L33.1666667,28.25 L33.1666667,19.8611111 L28.7222222,15.4166667 Z" id="Shape-Copy-8" fill="#FFFFFF"></path>
                <path d="M29.25,18.25 C29.25,18.8611111 29.75,19.3611111 30.3611111,19.3611111 L32.5277778,19.3611111 L29.2777778,16.1111111 L29.2777778,18.25 L29.25,18.25 Z M28.7777778,14.9444444 L33.6388889,19.8055556 L30.3333333,19.8055556 C29.4722222,19.8055556 28.75,19.1111111 28.75,18.2222222 L28.75,14.9444444 L28.7777778,14.9444444 Z" id="Rectangle-40-Copy" fill="#3C3C3C"></path>
                <path d="M17.3611111,18.3888889 L25.5555556,18.3888889 C25.6944444,18.3888889 25.7777778,18.5 25.7777778,18.6111111 C25.7777778,18.75 25.6666667,18.8333333 25.5555556,18.8333333 L17.3611111,18.8333333 C17.2222222,18.8333333 17.1388889,18.7222222 17.1388889,18.6111111 C17.1388889,18.5 17.25,18.3888889 17.3611111,18.3888889 Z M17.3611111,21.2222222 L25.5555556,21.2222222 C25.6944444,21.2222222 25.7777778,21.3333333 25.7777778,21.4444444 C25.7777778,21.5833333 25.6666667,21.6666667 25.5555556,21.6666667 L17.3611111,21.6666667 C17.2222222,21.6666667 17.1388889,21.5555556 17.1388889,21.4444444 C17.1388889,21.3333333 17.25,21.2222222 17.3611111,21.2222222 Z M26.6388889,21.2222222 L30.5833333,21.2222222 C30.7222222,21.2222222 30.8055556,21.3333333 30.8055556,21.4444444 C30.8055556,21.5833333 30.6944444,21.6666667 30.5833333,21.6666667 L26.6388889,21.6666667 C26.5,21.6666667 26.4166667,21.5555556 26.4166667,21.4444444 C26.4166667,21.3333333 26.5277778,21.2222222 26.6388889,21.2222222 Z M17.3611111,24.0555556 L21.6111111,24.0555556 C21.75,24.0555556 21.8333333,24.1666667 21.8333333,24.2777778 C21.8333333,24.4166667 21.7222222,24.5 21.6111111,24.5 L17.3611111,24.5 C17.2222222,24.5 17.1388889,24.3888889 17.1388889,24.2777778 C17.1388889,24.1666667 17.25,24.0555556 17.3611111,24.0555556 Z M17.3611111,26.8888889 L30.5555556,26.8888889 C30.6944444,26.8888889 30.7777778,27 30.7777778,27.1111111 C30.7777778,27.2222222 30.6666667,27.3333333 30.5555556,27.3333333 L17.3611111,27.3333333 C17.2222222,27.3333333 17.1388889,27.2222222 17.1388889,27.1111111 C17.1388889,27 17.25,26.8888889 17.3611111,26.8888889 Z M22.7222222,24.0555556 L30.5833333,24.0555556 C30.7222222,24.0555556 30.8055556,24.1666667 30.8055556,24.2777778 C30.8055556,24.4166667 30.6944444,24.5 30.5833333,24.5 L22.7222222,24.5 C22.5833333,24.5 22.5,24.3888889 22.5,24.2777778 C22.4722222,24.1666667 22.5833333,24.0555556 22.7222222,24.0555556 Z" id="Combined-Shape_1_" fill="#3C3C3C"></path>
                <path d="M13.0277778,27 C12.9166667,26.9166667 12.7777778,26.9444444 12.6944444,27.0555556 C12.6111111,27.1666667 12.6388889,27.3055556 12.75,27.3888889 L23.75,35.5555556 C23.8333333,35.6111111 23.9444444,35.6111111 24.0277778,35.5555556 L35.0277778,27.3888889 C35.1388889,27.3055556 35.1666667,27.1666667 35.0833333,27.0555556 C35,26.9444444 34.8611111,26.9166667 34.75,27 L23.8888889,35.0833333 L13.0277778,27 Z" id="Rectangle-42-Copy-3" fill="#3C3C3C"></path>
                <path d="M0.222222222,44.6666667 L2.88888889,44.6666667 C3.02777778,44.6666667 3.11111111,44.7777778 3.11111111,44.8888889 C3.11111111,45 3,45.1111111 2.88888889,45.1111111 L0.222222222,45.1111111 C0.0833333333,45.1111111 0,45 0,44.8888889 C0,44.7777778 0.111111111,44.6666667 0.222222222,44.6666667 Z M4.16666667,44.6666667 L30.1111111,44.6666667 C30.25,44.6666667 30.3333333,44.7777778 30.3333333,44.8888889 C30.3333333,45 30.2222222,45.1111111 30.1111111,45.1111111 L4.16666667,45.1111111 C4.02777778,45.1111111 3.94444444,45 3.94444444,44.8888889 C3.94444444,44.7777778 4.02777778,44.6666667 4.16666667,44.6666667 Z M6.36111111,42.1388889 L38.9166667,42.1388889 C39.0555556,42.1388889 39.1388889,42.25 39.1388889,42.3611111 C39.1388889,42.5 39.0277778,42.5833333 38.9166667,42.5833333 L6.36111111,42.5833333 C6.22222222,42.5833333 6.13888889,42.4722222 6.13888889,42.3611111 C6.13888889,42.25 6.25,42.1388889 6.36111111,42.1388889 Z M40.1666667,42.1388889 L42.8333333,42.1388889 C42.9722222,42.1388889 43.0555556,42.25 43.0555556,42.3611111 C43.0555556,42.5 42.9444444,42.5833333 42.8333333,42.5833333 L40.1666667,42.5833333 C40.0277778,42.5833333 39.9444444,42.4722222 39.9444444,42.3611111 C39.9444444,42.25 40.0555556,42.1388889 40.1666667,42.1388889 Z M31.3611111,44.6666667 L37.1666667,44.6666667 C37.3055556,44.6666667 37.3888889,44.7777778 37.3888889,44.8888889 C37.3888889,45 37.2777778,45.1111111 37.1666667,45.1111111 L31.3611111,45.1111111 C31.2222222,45.1111111 31.1388889,45 31.1388889,44.8888889 C31.1388889,44.7777778 31.25,44.6666667 31.3611111,44.6666667 Z" id="Combined-Shape_2_" fill="#3C3C3C"></path>
                <path d="M37.9166667,21.8333333 C37.4444444,21.8333333 37.0555556,21.4444444 37.0555556,20.9722222 C37.0555556,20.5 37.4444444,20.1111111 37.9166667,20.1111111 C38.3888889,20.1111111 38.7777778,20.5 38.7777778,20.9722222 C38.7777778,21.4444444 38.4166667,21.8333333 37.9166667,21.8333333 Z M37.9166667,20.5277778 C37.6666667,20.5277778 37.4722222,20.7222222 37.4722222,20.9722222 C37.4722222,21.2222222 37.6666667,21.4166667 37.9166667,21.4166667 C38.1666667,21.4166667 38.3611111,21.2222222 38.3611111,20.9722222 C38.3611111,20.7222222 38.1666667,20.5277778 37.9166667,20.5277778 Z" id="Shape" fill="#47B7F8"></path>
                <path d="M5.52777778,16.9166667 L5.13888889,16.9166667 L5.13888889,16.5277778 C5.13888889,16.4166667 5.05555556,16.3333333 4.94444444,16.3333333 C4.83333333,16.3333333 4.75,16.4166667 4.75,16.5277778 L4.75,16.9166667 L4.36111111,16.9166667 C4.25,16.9166667 4.16666667,17 4.16666667,17.1111111 C4.16666667,17.2222222 4.25,17.3055556 4.36111111,17.3055556 L4.75,17.3055556 L4.75,17.6944444 C4.75,17.8055556 4.83333333,17.8888889 4.94444444,17.8888889 C5.05555556,17.8888889 5.13888889,17.8055556 5.13888889,17.6944444 L5.13888889,17.3055556 L5.52777778,17.3055556 C5.63888889,17.3055556 5.72222222,17.2222222 5.72222222,17.1111111 C5.72222222,17 5.63888889,16.9166667 5.52777778,16.9166667 Z M43.8055556,11.4722222 L43.4166667,11.4722222 L43.4166667,11.0833333 C43.4166667,10.9722222 43.3333333,10.8888889 43.2222222,10.8888889 C43.1111111,10.8888889 43.0277778,10.9722222 43.0277778,11.0833333 L43.0277778,11.4722222 L42.6388889,11.4722222 C42.5277778,11.4722222 42.4444444,11.5555556 42.4444444,11.6666667 C42.4444444,11.7777778 42.5277778,11.8611111 42.6388889,11.8611111 L43.0277778,11.8611111 L43.0277778,12.2222222 C43.0277778,12.3333333 43.1111111,12.4166667 43.2222222,12.4166667 C43.3333333,12.4166667 43.4166667,12.3333333 43.4166667,12.2222222 L43.4166667,11.8333333 L43.8055556,11.8333333 C43.9166667,11.8333333 44,11.75 44,11.6388889 C44,11.5277778 43.9166667,11.4722222 43.8055556,11.4722222 Z" id="Shape_1_" fill="#F7E42F"></path>
                <path d="M9.55555556,26.3611111 L9.11111111,26.3611111 L9.11111111,25.9166667 C9.11111111,25.8055556 9.02777778,25.6944444 8.88888889,25.6944444 C8.77777778,25.6944444 8.66666667,25.7777778 8.66666667,25.9166667 L8.66666667,26.3611111 L8.22222222,26.3611111 C8.11111111,26.3611111 8,26.4444444 8,26.5833333 C8,26.6944444 8.08333333,26.8055556 8.22222222,26.8055556 L8.66666667,26.8055556 L8.66666667,27.25 C8.66666667,27.3611111 8.75,27.4722222 8.88888889,27.4722222 C9,27.4722222 9.11111111,27.3888889 9.11111111,27.25 L9.11111111,26.8055556 L9.55555556,26.8055556 C9.66666667,26.8055556 9.77777778,26.7222222 9.77777778,26.5833333 C9.77777778,26.4444444 9.66666667,26.3611111 9.55555556,26.3611111 Z" id="Shape_2_" fill="#F8B62D"></path>
                <path d="M20.3611111,7.05555556 C20.3611111,7.27777778 20.5277778,7.44444444 20.75,7.44444444 C20.9722222,7.44444444 21.1388889,7.27777778 21.1388889,7.05555556 C21.1388889,6.83333333 20.9722222,6.66666667 20.75,6.66666667 C20.5277778,6.66666667 20.3611111,6.83333333 20.3611111,7.05555556 Z" id="Shape_3_" fill="#F8B62D"></path>
                <path d="M39.5277778,8.08333333 C39.5277778,8.30555556 39.6388889,8.52777778 39.8333333,8.63888889 C40.0277778,8.75 40.2777778,8.75 40.4722222,8.63888889 C40.6666667,8.52777778 40.7777778,8.30555556 40.7777778,8.08333333 C40.7777778,7.86111111 40.6666667,7.63888889 40.4722222,7.52777778 C40.2777778,7.41666667 40.0277778,7.41666667 39.8333333,7.52777778 C39.6388889,7.63888889 39.5277778,7.86111111 39.5277778,8.08333333 Z" id="Shape_4_" fill="#F8B62D"></path>
                <path d="M17.9444444,5.91666667 C17.9444444,6.27777778 18.2222222,6.55555556 18.5833333,6.55555556 C18.9444444,6.55555556 19.2222222,6.27777778 19.2222222,5.91666667 C19.2222222,5.55555556 18.9444444,5.27777778 18.5833333,5.27777778 C18.2222222,5.27777778 17.9444444,5.58333333 17.9444444,5.91666667 Z" id="Shape_5_" fill="#F7E42F"></path>
                <path d="M11.3888889,16.2222222 C10.9166667,16.2222222 10.5277778,15.8333333 10.5277778,15.3611111 C10.5277778,14.8888889 10.9166667,14.5 11.3888889,14.5 C11.8611111,14.5 12.25,14.8888889 12.25,15.3611111 C12.25,15.8333333 11.8611111,16.2222222 11.3888889,16.2222222 Z M11.3888889,14.9166667 C11.1388889,14.9166667 10.9444444,15.1111111 10.9444444,15.3611111 C10.9444444,15.6111111 11.1388889,15.8055556 11.3888889,15.8055556 C11.6388889,15.8055556 11.8333333,15.6111111 11.8333333,15.3611111 C11.8055556,15.1111111 11.6111111,14.9166667 11.3888889,14.9166667 Z" id="Shape_6_" fill="#F8B62D"></path>
                <path d="M26.6388889,10.7222222 C26.5833333,10.6666667 26.5277778,10.6666667 26.4722222,10.7222222 C26.4444444,10.75 26.4444444,10.7777778 26.4444444,10.8055556 C26.4444444,10.8333333 26.4444444,10.8611111 26.4722222,10.8888889 L26.8611111,11.2777778 C26.8888889,11.3055556 26.9166667,11.3055556 26.9444444,11.3055556 C26.9722222,11.3055556 27,11.3055556 27.0277778,11.2777778 C27.0833333,11.2222222 27.0833333,11.1666667 27.0277778,11.1111111 L26.6388889,10.7222222 Z M27.6388889,11.6944444 C27.6111111,11.6666667 27.5833333,11.6666667 27.5555556,11.6666667 C27.5277778,11.6666667 27.5,11.6666667 27.4722222,11.6944444 C27.4166667,11.75 27.4166667,11.8055556 27.4722222,11.8611111 L27.8611111,12.25 C27.8888889,12.2777778 27.9166667,12.2777778 27.9444444,12.2777778 C27.9722222,12.2777778 28,12.2777778 28.0277778,12.25 C28.0555556,12.2222222 28.0555556,12.1944444 28.0555556,12.1666667 C28.0555556,12.1388889 28.0555556,12.1111111 28.0277778,12.0833333 L27.6388889,11.6944444 Z M27.5555556,11.2777778 C27.5833333,11.2777778 27.6111111,11.2777778 27.6388889,11.25 L28.0277778,10.8611111 C28.0555556,10.8333333 28.0555556,10.8055556 28.0555556,10.7777778 C28.0555556,10.75 28.0555556,10.7222222 28.0277778,10.6944444 C27.9722222,10.6388889 27.9166667,10.6388889 27.8611111,10.6944444 L27.5,11.0555556 C27.4444444,11.1111111 27.4444444,11.1666667 27.5,11.2222222 C27.5,11.2777778 27.5277778,11.2777778 27.5555556,11.2777778 Z M26.8611111,11.6944444 L26.4722222,12.0833333 C26.4444444,12.1111111 26.4444444,12.1388889 26.4444444,12.1666667 C26.4444444,12.1944444 26.4444444,12.2222222 26.4722222,12.25 C26.5,12.2777778 26.5277778,12.2777778 26.5555556,12.2777778 C26.5833333,12.2777778 26.6111111,12.2777778 26.6388889,12.25 L27.0277778,11.8611111 C27.0833333,11.8055556 27.0833333,11.75 27.0277778,11.6944444 C26.9722222,11.6666667 26.9166667,11.6666667 26.8611111,11.6944444 Z M26.9444444,11.4722222 C26.9444444,11.4166667 26.8888889,11.3611111 26.8333333,11.3611111 L26.3055556,11.3611111 C26.25,11.3611111 26.1944444,11.4166667 26.1944444,11.4722222 C26.1944444,11.5277778 26.25,11.5833333 26.3055556,11.5833333 L26.8333333,11.5833333 C26.8888889,11.6111111 26.9444444,11.5555556 26.9444444,11.4722222 Z M28.2222222,11.3611111 L27.6944444,11.3611111 C27.6388889,11.3611111 27.5833333,11.4166667 27.5833333,11.4722222 C27.5833333,11.5277778 27.6388889,11.5833333 27.6944444,11.5833333 L28.2222222,11.5833333 C28.2777778,11.5833333 28.3333333,11.5277778 28.3333333,11.4722222 C28.3333333,11.4166667 28.2777778,11.3611111 28.2222222,11.3611111 Z M27.25,10.3888889 C27.1944444,10.3888889 27.1388889,10.4444444 27.1388889,10.5 L27.1388889,11.0277778 C27.1388889,11.0833333 27.1944444,11.1388889 27.25,11.1388889 C27.3055556,11.1388889 27.3611111,11.0833333 27.3611111,11.0277778 L27.3611111,10.5 C27.3611111,10.4444444 27.3055556,10.3888889 27.25,10.3888889 Z M27.25,11.8055556 C27.1944444,11.8055556 27.1388889,11.8611111 27.1388889,11.9166667 L27.1388889,12.4444444 C27.1388889,12.5 27.1944444,12.5555556 27.25,12.5555556 C27.3055556,12.5555556 27.3611111,12.5 27.3611111,12.4444444 L27.3611111,11.9166667 C27.3611111,11.8611111 27.3055556,11.8055556 27.25,11.8055556 Z" id="Shape_7_" fill="#FAEE00"></path>
                <path d="M40.2777778,23.7777778 C40.2222222,23.7222222 40.1666667,23.7222222 40.1111111,23.7777778 C40.0833333,23.8055556 40.0833333,23.8333333 40.0833333,23.8611111 C40.0833333,23.8888889 40.0833333,23.9166667 40.1111111,23.9444444 L40.5,24.3333333 C40.5277778,24.3611111 40.5555556,24.3611111 40.5833333,24.3611111 C40.6111111,24.3611111 40.6388889,24.3611111 40.6666667,24.3333333 C40.7222222,24.2777778 40.7222222,24.2222222 40.6666667,24.1666667 L40.2777778,23.7777778 Z M41.2777778,24.7777778 C41.25,24.75 41.2222222,24.75 41.1944444,24.75 C41.1666667,24.75 41.1388889,24.75 41.1111111,24.7777778 C41.0555556,24.8333333 41.0555556,24.8888889 41.1111111,24.9444444 L41.5,25.3333333 C41.5277778,25.3611111 41.5555556,25.3611111 41.5833333,25.3611111 C41.6111111,25.3611111 41.6388889,25.3611111 41.6666667,25.3333333 C41.6944444,25.3055556 41.6944444,25.2777778 41.6944444,25.25 C41.6944444,25.2222222 41.6944444,25.1944444 41.6666667,25.1666667 L41.2777778,24.7777778 Z M41.1944444,24.3611111 C41.2222222,24.3611111 41.25,24.3611111 41.2777778,24.3333333 L41.6666667,23.9444444 C41.6944444,23.9166667 41.6944444,23.8888889 41.6944444,23.8611111 C41.6944444,23.8333333 41.6944444,23.8055556 41.6666667,23.7777778 C41.6111111,23.7222222 41.5555556,23.7222222 41.5,23.7777778 L41.1111111,24.1666667 C41.0555556,24.2222222 41.0555556,24.2777778 41.1111111,24.3333333 C41.1388889,24.3333333 41.1666667,24.3611111 41.1944444,24.3611111 Z M40.5,24.7777778 L40.1111111,25.1666667 C40.0833333,25.1944444 40.0833333,25.2222222 40.0833333,25.25 C40.0833333,25.2777778 40.0833333,25.3055556 40.1111111,25.3333333 C40.1388889,25.3611111 40.1666667,25.3611111 40.1944444,25.3611111 C40.2222222,25.3611111 40.25,25.3611111 40.2777778,25.3333333 L40.6666667,24.9444444 C40.7222222,24.8888889 40.7222222,24.8333333 40.6666667,24.7777778 C40.6111111,24.7222222 40.5277778,24.7222222 40.5,24.7777778 Z M40.5555556,24.5555556 C40.5555556,24.5 40.5,24.4444444 40.4444444,24.4444444 L39.9166667,24.4444444 C39.8611111,24.4444444 39.8055556,24.5 39.8055556,24.5555556 C39.8055556,24.6111111 39.8611111,24.6666667 39.9166667,24.6666667 L40.4444444,24.6666667 C40.5,24.6666667 40.5555556,24.6111111 40.5555556,24.5555556 Z M41.8611111,24.4444444 L41.3333333,24.4444444 C41.2777778,24.4444444 41.2222222,24.5 41.2222222,24.5555556 C41.2222222,24.6111111 41.2777778,24.6666667 41.3333333,24.6666667 L41.8611111,24.6666667 C41.9166667,24.6666667 41.9722222,24.6111111 41.9722222,24.5555556 C41.9722222,24.5 41.9166667,24.4444444 41.8611111,24.4444444 Z M40.8888889,23.4444444 C40.8333333,23.4444444 40.7777778,23.5 40.7777778,23.5555556 L40.7777778,24.0833333 C40.7777778,24.1388889 40.8333333,24.1944444 40.8888889,24.1944444 C40.9444444,24.1944444 41,24.1388889 41,24.0833333 L41,23.5555556 C41,23.5 40.9444444,23.4444444 40.8888889,23.4444444 Z M40.8888889,24.8611111 C40.8333333,24.8611111 40.7777778,24.9166667 40.7777778,24.9722222 L40.7777778,25.5 C40.7777778,25.5555556 40.8333333,25.6111111 40.8888889,25.6111111 C40.9444444,25.6111111 41,25.5555556 41,25.5 L41,24.9722222 C41,24.9166667 40.9444444,24.8611111 40.8888889,24.8611111 Z" id="Shape_8_" fill="#F8B62D"></path>
                <path d="M16.3888889,13.0555556 C16.3055556,13.0555556 16.25,13.0277778 16.1944444,12.9722222 C16.0555556,12.8611111 16.0277778,12.6666667 16.1388889,12.5277778 L16.9166667,11.5555556 C17.0277778,11.4166667 17.2222222,11.3888889 17.3611111,11.5 C17.5,11.6111111 17.5277778,11.8055556 17.4166667,11.9444444 L16.6388889,12.9166667 C16.5833333,13.0277778 16.5,13.0555556 16.3888889,13.0555556 Z" id="Shape_9_" fill="#3E3A39"></path>
            </g>
        </g>
    </g>
</svg>