<?xml version="1.0" encoding="UTF-8"?>
<svg width="360px" height="331px" viewBox="0 0 360 331" version="1.1" xmlns="http://www.w3.org/2000/svg" xmlns:xlink="http://www.w3.org/1999/xlink">
    <!-- Generator: Sketch 46.2 (44496) - http://www.bohemiancoding.com/sketch -->
    <title>group_92_slice</title>
    <desc>Created with Sketch.</desc>
    <defs>
        <polygon id="path-1" points="0.534240849 210.625 345.163125 210.625 345.163125 0.20825 0.534240849 0.20825"></polygon>
        <polygon id="path-3" points="0 330.625 359.538125 330.625 359.538125 0.451875 0 0.451875"></polygon>
    </defs>
    <g id="其他页面" stroke="none" stroke-width="1" fill="none" fill-rule="evenodd">
        <g id="Artboard" transform="translate(-450.000000, -147.000000)">
            <g id="Group-92" transform="translate(450.000000, 147.000000)">
                <g id="Group-6" transform="translate(14.375000, 120.000000)">
                    <mask id="mask-2" fill="white">
                        <use xlink:href="#path-1"></use>
                    </mask>
                    <g id="Clip-5"></g>
                    <path d="M345.163625,105.20825 L163.913625,210.625125 L12.663625,123.125125 C12.663625,123.125125 -8.795125,108.125125 5.37175,92.916375 C10.67175,87.226375 47.167375,73.357625 54.5905,71.041375 C60.15925,69.3045 76.63675,63.697 81.517375,59.89575 C95.293625,49.166375 83.392375,35.416375 97.593,24.772625 C105.188625,19.078875 132.5555,14.077 142.038625,13.64575 C153.49675,13.125125 166.024875,0.20825 166.024875,0.20825 L345.163625,105.20825 Z" id="Fill-4" fill="#F1F4FA" mask="url(#mask-2)"></path>
                </g>
                <polygon id="Stroke-7" stroke="#FFFFFF" stroke-width="2" points="151.757875 315.276625 31.195375 245.529125 187.224125 156.4585 307.0385 225.416625"></polygon>
                <polygon id="Stroke-9" stroke="#FFFFFF" stroke-width="2" points="122.526312 298.506 62.2444375 263.237875 218.273187 174.166625 277.806312 208.646"></polygon>
                <path d="M91.6559375,280.445063 L246.372813,190.440687" id="Stroke-11" stroke="#FFFFFF" stroke-width="2"></path>
                <path d="M133.861125,255.893063 L221.041125,305.759313" id="Stroke-13" stroke="#FFFFFF" stroke-width="2"></path>
                <path d="M208.358188,105.992562 L165.550688,77.4863125 C162.034438,75.4563125 159.868188,71.7044375 159.868188,67.6444375 L156.829438,36.2244375 C158.782563,34.1150625 162.711938,32.2538125 164.986938,33.5675625 L210.128813,59.6300625 C213.448813,61.5463125 215.493188,65.0881875 215.493188,68.9219375 L215.493188,101.570062 C215.493188,103.681312 210.186937,107.048187 208.358188,105.992562" id="Fill-15" fill="#62CA9E"></path>
                <path d="M205.910062,106.914188 L160.081937,80.4554375 C156.565687,78.4248125 154.399437,74.6735625 154.399437,70.6129375 L154.399437,39.4910625 C154.399437,36.8641875 157.243187,35.2223125 159.518187,36.5360625 L204.660062,62.5985625 C207.980062,64.5154375 210.024437,68.0573125 210.024437,71.8904375 L210.024437,104.538563 C210.024437,106.650438 207.738812,107.969813 205.910062,106.914188" id="Fill-17" fill="#009556"></path>
                <path d="M269.451937,140.992563 L226.644438,112.486312 C223.128188,110.456312 220.961938,106.704437 220.961938,102.644437 L217.923188,71.2244375 C219.876313,69.1150625 223.805688,67.2538125 226.080688,68.5675625 L271.222562,94.6300625 C274.542562,96.5463125 276.586937,100.088187 276.586937,103.921937 L276.586937,136.570063 C276.586937,138.681313 271.280687,142.048188 269.451937,140.992563" id="Fill-19" fill="#62CA9E"></path>
                <path d="M267.003812,141.914187 L221.175687,115.455437 C217.659437,113.424812 215.493187,109.673563 215.493187,105.612938 L215.493187,74.4910625 C215.493187,71.8641875 218.336937,70.2223125 220.611937,71.5360625 L265.753812,97.5985625 C269.073812,99.5154375 271.118187,103.057312 271.118187,106.890437 L271.118187,139.538562 C271.118187,141.650437 268.832562,142.969812 267.003812,141.914187" id="Fill-21" fill="#009556"></path>
                <path d="M330.545688,175.992563 L287.738188,147.486312 C284.221938,145.456312 282.055688,141.704438 282.055688,137.644437 L279.016938,106.224437 C280.970063,104.115062 284.900063,102.253812 287.174438,103.567562 L332.316313,129.630062 C335.636313,131.546312 337.680688,135.088188 337.680688,138.921938 L337.680688,171.570063 C337.680688,173.681313 332.374438,177.048188 330.545688,175.992563" id="Fill-23" fill="#62CA9E"></path>
                <path d="M328.097563,176.914187 L282.269437,150.455438 C278.753187,148.424813 276.586937,144.673563 276.586937,140.612937 L276.586937,109.491062 C276.586937,106.864187 279.430687,105.222312 281.705687,106.536062 L326.847563,132.598562 C330.167563,134.515437 332.211938,138.057312 332.211938,141.890438 L332.211938,174.538563 C332.211938,176.650438 329.926313,177.969812 328.097563,176.914187" id="Fill-25" fill="#009556"></path>
                <mask id="mask-4" fill="white">
                    <use xlink:href="#path-3"></use>
                </mask>
                <g id="Clip-28"></g>
                <polygon id="Fill-27" fill="#C8DBF5" mask="url(#mask-4)" points="55.749375 199.574375 99.881875 199.574375 99.881875 186.3475 55.749375 186.3475"></polygon>
                <path d="M68.9765,186.34775 C68.9765,193.65275 63.054,199.574625 55.749,199.574625 C48.444,199.574625 42.522125,193.65275 42.522125,186.34775 C42.522125,179.04275 48.444,173.120875 55.749,173.120875 C63.054,173.120875 68.9765,179.04275 68.9765,186.34775" id="Fill-29" fill="#C8DBF5" mask="url(#mask-4)"></path>
                <path d="M63.120125,182.908437 C63.120125,186.979687 59.820125,190.279687 55.748875,190.279687 C51.677625,190.279687 48.377625,186.979687 48.377625,182.908437 C48.377625,178.837187 51.677625,175.537187 55.748875,175.537187 C59.820125,175.537187 63.120125,178.837187 63.120125,182.908437" id="Fill-30" fill="#DCE7FA" mask="url(#mask-4)"></path>
                <path d="M109.972562,188.997313 C109.972562,194.839188 105.236937,199.574813 99.3944375,199.574813 C93.5531875,199.574813 88.8163125,194.839188 88.8163125,188.997313 C88.8163125,183.155438 93.5531875,178.419187 99.3944375,178.419187 C105.236937,178.419187 109.972562,183.155438 109.972562,188.997313" id="Fill-31" fill="#C8DBF5" mask="url(#mask-4)"></path>
                <path d="M104.296938,185.208562 C104.296938,187.916062 102.101938,190.110437 99.3944375,190.110437 C96.6869375,190.110437 94.4925625,187.916062 94.4925625,185.208562 C94.4925625,182.501063 96.6869375,180.306688 99.3944375,180.306688 C102.101938,180.306688 104.296938,182.501063 104.296938,185.208562" id="Fill-32" fill="#DCE7FA" mask="url(#mask-4)"></path>
                <path d="M93.776875,180.3065 C93.776875,189.614 86.2325,197.158375 76.925,197.158375 C67.618125,197.158375 60.073125,189.614 60.073125,180.3065 C60.073125,170.999625 67.618125,163.454625 76.925,163.454625 C86.2325,163.454625 93.776875,170.999625 93.776875,180.3065" id="Fill-33" fill="#C8DBF5" mask="url(#mask-4)"></path>
                <path d="M89.559375,178.419312 C89.559375,185.396812 83.9025,191.053062 76.925,191.053062 C69.9475,191.053062 64.29125,185.396812 64.29125,178.419312 C64.29125,171.441812 69.9475,165.785562 76.925,165.785562 C83.9025,165.785562 89.559375,171.441812 89.559375,178.419312" id="Fill-34" fill="#DCE7FA" mask="url(#mask-4)"></path>
                <polygon id="Fill-35" fill="#C8DBF5" mask="url(#mask-4)" points="308.2725 215.145625 349.94625 215.145625 349.94625 202.655625 308.2725 202.655625"></polygon>
                <path d="M320.763,202.65575 C320.763,209.553875 315.171125,215.14575 308.273,215.14575 C301.374875,215.14575 295.782375,209.553875 295.782375,202.65575 C295.782375,195.757625 301.374875,190.16575 308.273,190.16575 C315.171125,190.16575 320.763,195.757625 320.763,202.65575" id="Fill-36" fill="#C8DBF5" mask="url(#mask-4)"></path>
                <path d="M315.233188,199.408062 C315.233188,203.251812 312.116938,206.368687 308.272563,206.368687 C304.428813,206.368687 301.312563,203.251812 301.312563,199.408062 C301.312563,195.564312 304.428813,192.447438 308.272563,192.447438 C312.116938,192.447438 315.233188,195.564312 315.233188,199.408062" id="Fill-37" fill="#DCE7FA" mask="url(#mask-4)"></path>
                <path d="M359.475125,205.157625 C359.475125,210.673875 355.00325,215.14575 349.487,215.14575 C343.9695,215.14575 339.49825,210.673875 339.49825,205.157625 C339.49825,199.641375 343.9695,195.1695 349.487,195.1695 C355.00325,195.1695 359.475125,199.641375 359.475125,205.157625" id="Fill-38" fill="#C8DBF5" mask="url(#mask-4)"></path>
                <path d="M354.115625,201.580312 C354.115625,204.136562 352.043125,206.209062 349.486875,206.209062 C346.93,206.209062 344.8575,204.136562 344.8575,201.580312 C344.8575,199.023437 346.93,196.951562 349.486875,196.951562 C352.043125,196.951562 354.115625,199.023437 354.115625,201.580312" id="Fill-39" fill="#DCE7FA" mask="url(#mask-4)"></path>
                <path d="M344.182188,196.951437 C344.182188,205.740187 337.057813,212.863937 328.269063,212.863937 C319.480937,212.863937 312.355937,205.740187 312.355937,196.951437 C312.355937,188.162687 319.480937,181.038312 328.269063,181.038312 C337.057813,181.038312 344.182188,188.162687 344.182188,196.951437" id="Fill-40" fill="#C8DBF5" mask="url(#mask-4)"></path>
                <path d="M340.199,195.169188 C340.199,201.757938 334.85775,207.099188 328.269,207.099188 C321.68025,207.099188 316.339,201.757938 316.339,195.169188 C316.339,188.580438 321.68025,183.239188 328.269,183.239188 C334.85775,183.239188 340.199,188.580438 340.199,195.169188" id="Fill-41" fill="#DCE7FA" mask="url(#mask-4)"></path>
                <polygon id="Fill-42" fill="#53556E" mask="url(#mask-4)" points="103.223313 68.9924375 113.345813 74.4874375 107.898938 77.5730625"></polygon>
                <polygon id="Fill-43" fill="#9CA2B5" mask="url(#mask-4)" points="102.1625 69.5710625 106.741875 78.0066875 101.054375 81.2848125"></polygon>
                <polygon id="Fill-44" fill="#53556E" mask="url(#mask-4)" points="107.320625 79.308 101.6325 82.393 112.07625 88.12925"></polygon>
                <polygon id="Fill-45" fill="#9CA2B5" mask="url(#mask-4)" points="108.284312 78.7296875 114.165563 75.7890625 113.104938 87.4546875"></polygon>
                <polygon id="Fill-46" fill="#9CA2B5" mask="url(#mask-4)" points="97.0770625 79.5731875 96.5226875 82.5619375 100.427062 81.8631875"></polygon>
                <polygon id="Fill-47" fill="#53556E" mask="url(#mask-4)" points="100.885063 82.321 97.9206875 85.23725 100.740688 86.539125"></polygon>
                <polygon id="Fill-48" fill="#53556E" mask="url(#mask-4)" points="114.768125 74.8975625 117.684375 72.1981875 115.201875 70.8238125"></polygon>
                <polygon id="Fill-49" fill="#9CA2B5" mask="url(#mask-4)" points="115.49075 75.4276875 119.130125 74.7526875 118.527625 77.7414375"></polygon>
                <path d="M142.723437,114.546 C141.602187,114.546 130.089062,114.25225 125.265937,102.722875 C124.238437,100.266 123.613437,97.87975 123.008437,95.57225 C121.211562,88.71225 120.050937,82.91475 108.557812,79.22475 L108.775937,78.484125 C120.671562,82.304125 121.900312,88.296625 123.754687,95.37725 C124.352187,97.6585 124.970937,100.017875 125.977812,102.425375 C130.821562,114.006 142.665937,113.779125 142.787187,113.774125 L142.810312,114.545375 C142.805312,114.545375 142.775312,114.546 142.723437,114.546" id="Fill-50" fill="#CFD5DF" mask="url(#mask-4)"></path>
                <path d="M106.019937,132.39575 C94.6693125,119.626375 100.664937,111.16325 108.027437,104.568875 C115.604938,97.781375 112.110562,88.226375 112.076187,88.1295 L113.104937,87.4545 C113.141187,87.556375 116.499313,98.016375 108.541812,105.14325 C101.106812,111.80325 95.7243125,119.652625 106.596187,131.88325 L106.019937,132.39575 Z" id="Fill-51" fill="#F9F9FA" mask="url(#mask-4)"></path>
                <path d="M112.88825,95.962625 L111.080125,92.997625 C111.080125,92.997625 109.103875,95.383875 109.176375,95.40825 C109.248875,95.432 112.88825,95.962625 112.88825,95.962625" id="Fill-52" fill="#9CA2B5" mask="url(#mask-4)"></path>
                <polygon id="Fill-53" fill="#53556E" mask="url(#mask-4)" points="117.081938 96.9025625 115.298187 99.4331875 113.249437 95.9625625"></polygon>
                <polygon id="Fill-54" fill="#53556E" mask="url(#mask-4)" points="107.995625 100.662375 105.223125 101.939875 108.141875 104.703"></polygon>
                <polygon id="Fill-55" fill="#9CA2B5" mask="url(#mask-4)" points="111.225 107.475063 108.621875 108.825063 108.541875 104.888188"></polygon>
                <path d="M98.1134375,111.540312 L96.6834375,114.545938 C96.6834375,114.545938 100.716562,114.659063 100.684062,114.545938 C100.652187,114.432813 98.1134375,111.540312 98.1134375,111.540312" id="Fill-56" fill="#9CA2B5" mask="url(#mask-4)"></path>
                <polygon id="Fill-57" fill="#53556E" mask="url(#mask-4)" points="105.070813 114.191688 103.930188 117.244812 100.973313 114.596062"></polygon>
                <polygon id="Fill-58" fill="#53556E" mask="url(#mask-4)" points="101.728563 126.041687 98.2823125 128.090438 97.9685625 124.764188"></polygon>
                <polygon id="Fill-59" fill="#9CA2B5" mask="url(#mask-4)" points="105.175188 123.5835 106.356438 126.620375 101.993938 125.945375"></polygon>
                <path d="M186.105375,144.1395 C186.83225,143.777625 189.93725,139.867625 184.520375,138.986375 C179.102875,138.10575 173.5285,141.8495 172.47225,142.290125 C171.41475,142.730125 165.55725,144.646375 165.072875,145.395125 C164.587875,146.143875 164.301625,147.861375 165.79975,148.301375 C167.296625,148.742 173.771,147.442625 175.180375,147.17825 C176.589125,146.913875 184.72225,144.82825 186.105375,144.1395" id="Fill-60" fill="#CFDCF2" mask="url(#mask-4)"></path>
                <path d="M186.477063,141.315437 L186.477063,141.315437 C186.030188,141.315437 185.667688,140.952937 185.667688,140.506062 L185.667688,137.880437 C185.667688,137.433562 186.030188,137.071063 186.477063,137.071063 C186.923938,137.071063 187.286438,137.433562 187.286438,137.880437 L187.286438,140.506062 C187.286438,140.952937 186.923938,141.315437 186.477063,141.315437" id="Fill-61" fill="#DB8A69" mask="url(#mask-4)"></path>
                <path d="M189.636875,120.004687 C190.255,118.793437 191.61875,114.587813 191.0025,112.958438 C190.385625,111.328438 188.27125,110.491563 185.9375,111.989063 C183.60375,113.486563 181.75375,118.155312 181.665625,120.004687 C181.576875,121.854687 182.018125,134.670937 182.54625,135.419687 C183.075,136.167812 183.933125,137.198437 184.308125,137.489687 C184.875,137.929687 187.4675,138.127812 188.7125,137.232187 C189.37125,136.757187 190.253125,131.895937 189.813125,129.605937 C189.3725,127.315937 188.539375,125.479687 188.7725,122.504062 C188.83875,121.661562 189.51,120.254062 189.636875,120.004687" id="Fill-62" fill="#ACF6DC" mask="url(#mask-4)"></path>
                <path d="M178.711,145.908312 C179.234125,145.287062 182.542875,141.636437 177.126,140.755187 C171.7085,139.874562 163.869125,143.970187 162.81225,144.410812 C161.755375,144.851438 156.426625,146.877062 155.941625,147.625812 C155.45725,148.374562 155.281,149.783938 156.7785,150.224562 C158.276,150.664562 165.542875,150.003937 166.95225,149.740187 C168.361,149.475813 177.8885,146.885813 178.711,145.908312" id="Fill-63" fill="#CFDCF2" mask="url(#mask-4)"></path>
                <path d="M179.008187,137.364312 L179.008187,137.364312 C178.552562,137.364312 178.183187,137.733687 178.183187,138.189937 L178.183187,142.748062 C178.183187,143.204312 178.552562,143.574312 179.008187,143.574312 C179.464437,143.574312 179.833812,143.204312 179.833812,142.748062 L179.833812,138.189937 C179.833812,137.733687 179.464437,137.364312 179.008187,137.364312" id="Fill-64" fill="#DA8965" mask="url(#mask-4)"></path>
                <path d="M182.54275,110.146625 C182.72775,109.036625 180.847125,101.6085 176.200875,103.7385 C174.61525,104.465375 174.28525,108.49475 174.28525,109.41975 C174.28525,110.34475 174.3515,119.791625 172.964,121.905375 C171.5765,124.01975 171.9065,130.427875 174.087125,134.061 C176.267125,137.69475 176.92775,138.48725 177.654625,138.817875 C178.380875,139.147875 181.023375,138.94975 181.8165,135.97725 C182.608375,133.004125 182.807125,123.689125 182.54275,122.896625 C182.278375,122.1035 182.278375,111.73225 182.54275,110.146625" id="Fill-65" fill="#6ACDA3" mask="url(#mask-4)"></path>
                <path d="M182.080125,75.8363125 L182.080125,64.8294375 C182.080125,63.8906875 182.108875,62.8306875 182.167,61.6506875 L182.036375,61.5756875 C181.92075,61.7838125 181.776375,62.0606875 181.602625,62.4088125 C181.41575,62.7631875 181.14075,63.1169375 180.780125,63.4719375 L173.2395,70.7319375 L182.080125,75.8363125 Z M192.545125,86.9050625 L188.472,84.5531875 L188.472,91.8769375 L182.080125,88.1869375 L182.080125,80.8631875 L167.3245,72.3438125 L167.3245,67.8806875 L181.4945,54.2863125 L188.472,58.3138125 L188.472,79.5263125 L192.545125,81.8781875 L192.545125,86.9050625 Z" id="Fill-66" fill="#FFFFFF" mask="url(#mask-4)"></path>
                <path d="M238.991125,105.406 C238.991125,113.1485 240.644875,117.974125 243.952375,119.88475 C247.203,121.760375 248.827375,118.71225 248.827375,110.7385 C248.827375,102.736 247.246125,97.821625 244.082375,95.995375 C240.688,94.035375 238.991125,97.17225 238.991125,105.406 M231.9055,101.4885 C231.9055,95.681625 232.97425,91.864125 235.112375,90.036 C237.249875,88.207875 240.341125,88.461625 244.386125,90.796625 C252.099875,95.250375 255.95675,103.182875 255.95675,114.594125 C255.95675,120.2135 254.90925,123.946 252.81425,125.791625 C250.7205,127.637875 247.693625,127.417875 243.736125,125.132875 C235.84925,120.579125 231.9055,112.697875 231.9055,101.4885" id="Fill-67" fill="#FFFFFF" mask="url(#mask-4)"></path>
                <path d="M305.29425,146.916625 L305.29425,135.90975 C305.29425,134.971 305.323,133.911 305.381125,132.731 L305.2505,132.656 C305.134875,132.864125 304.9905,133.141 304.81675,133.489125 C304.629875,133.8435 304.354875,134.19725 303.99425,134.55225 L296.453625,141.81225 L305.29425,146.916625 Z M315.75925,157.985375 L311.686125,155.6335 L311.686125,162.95725 L305.29425,159.26725 L305.29425,151.9435 L290.538625,143.424125 L290.538625,138.961 L304.708625,125.366625 L311.686125,129.394125 L311.686125,150.606625 L315.75925,152.9585 L315.75925,157.985375 Z" id="Fill-68" fill="#FFFFFF" mask="url(#mask-4)"></path>
                <path d="M215.114813,277.591687 C215.114813,277.591687 199.428563,279.467312 193.647313,279.779812 C187.866063,280.092312 154.272313,280.248562 133.647313,284.936062 C113.022313,289.623562 105.105438,293.894188 105.522313,298.686063 C105.939188,303.477313 128.230438,307.852313 135.522313,307.852313 C142.814188,307.852313 185.244813,298.506063 220.118563,281.121062 L222.497938,279.749812 L215.114813,277.591687 Z" id="Fill-69" fill="#CFDCF2" opacity="0.300000012" mask="url(#mask-4)"></path>
                <path d="M199.842562,251.0475 L198.107562,276.94875 L200.935062,277.591875 C200.935062,277.591875 202.413187,270.58625 202.928187,269.621875 C203.441937,268.658125 205.819437,262.16625 206.077562,260.816875 C206.334437,259.466875 206.331312,255.60125 205.176937,254.1325 C204.823812,253.6825 205.902562,252.525625 206.214437,252.075625 C206.526937,251.625625 199.842562,251.0475 199.842562,251.0475" id="Fill-70" fill="#F4B0AB" mask="url(#mask-4)"></path>
                <path d="M216.071188,252.043563 L219.975563,277.157938 L223.157438,278.266063 L223.157438,272.916063 C223.157438,272.096063 223.253688,266.697313 223.543063,265.877938 C223.832438,265.058563 224.313688,260.189813 224.121188,258.454813 C223.928063,256.719188 222.674938,253.827313 221.566813,252.429188 C220.458063,251.031063 216.698063,251.368563 216.071188,252.043563" id="Fill-71" fill="#F4B0AB" mask="url(#mask-4)"></path>
                <path d="M196.717562,276.771937 C196.717562,276.771937 197.296312,276.048812 197.825687,276.290062 C198.356312,276.530687 200.790687,277.205687 200.790687,277.205687 C200.790687,277.205687 201.538187,277.326312 201.272562,278.242562 C201.007562,279.157562 201.755062,281.110063 199.416937,281.110063 C197.078812,281.110063 191.463188,281.134437 191.198188,281.110063 C190.933188,281.086313 190.016938,280.965688 189.896938,280.556312 C189.776313,280.146312 189.655688,278.878812 189.751938,278.681312 C189.848813,278.483187 190.451313,277.518812 191.391313,277.591937 C192.330688,277.663812 194.575688,277.445062 195.142563,277.366312 C195.713812,277.287562 196.556937,276.972562 196.717562,276.771937" id="Fill-72" fill="#5D609D" mask="url(#mask-4)"></path>
                <path d="M223.157375,277.2865 C223.157375,277.2865 220.224875,276.230875 219.8355,276.25275 C219.446125,276.274 217.66175,277.077125 217.38925,277.2865 C217.1155,277.49525 216.45675,277.57525 216.071125,277.5915 C215.6855,277.60775 213.982375,277.510875 213.37175,277.784625 C212.761125,278.057125 212.103,278.47525 212.0705,279.2465 C212.038,280.01775 211.9255,280.194 211.973625,280.564 C212.022375,280.933375 212.231125,281.062125 212.938,281.07775 C213.644875,281.094625 221.582375,281.07775 221.582375,281.07775 C221.582375,281.07775 222.482375,281.094625 222.723625,280.757125 C222.96425,280.419625 223.366125,279.519625 223.398625,279.134 C223.4305,278.748375 223.44425,277.388375 223.157375,277.2865" id="Fill-73" fill="#5D609D" mask="url(#mask-4)"></path>
                <path d="M201.127938,229.195062 L198.107313,251.883188 C198.107313,251.883188 197.978563,252.943188 198.717938,252.943188 L207.909188,252.943188 C207.909188,252.943188 208.969188,252.879438 209.001688,251.978813 C209.033563,251.079438 211.604813,240.153188 211.604813,240.153188 C211.604813,240.153188 212.086063,239.188812 212.375438,240.088813 C212.664813,240.988813 214.239813,252.364438 214.239813,252.364438 C214.239813,252.364438 214.021063,253.058813 215.107313,252.943188 C216.192938,252.827563 223.687938,252.814438 223.687938,252.814438 C223.687938,252.814438 224.362313,252.782563 224.362313,251.754438 L224.362313,228.616312 L201.127938,229.195062 Z" id="Fill-74" fill="#009557" mask="url(#mask-4)"></path>
                <path d="M212.921813,168.361625 C212.921813,168.361625 209.419313,172.667875 207.330562,173.82475 C206.745562,174.1485 206.743687,175.026 207.104937,175.037875 C207.466812,175.04975 208.021187,174.965375 207.876812,175.616 C207.731813,176.266625 207.218063,180.059125 207.201812,180.267875 C207.185563,180.476625 207.169938,180.685375 207.571188,180.926625 C207.973062,181.167875 212.564938,183.184125 212.673063,183.23225 C212.781188,183.281 213.299313,183.49725 213.191188,183.871 C213.083063,184.24475 211.781188,188.221625 211.781188,188.221625 L218.819313,188.8485 L219.783063,182.96725 L219.349313,172.941 C219.349313,172.941 214.062438,167.976 212.921813,168.361625" id="Fill-75" fill="#F4B0AB" mask="url(#mask-4)"></path>
                <path d="M175.907625,192.904188 C175.556375,192.681063 175.2095,192.472313 174.85825,192.279188 C174.87825,192.063563 174.8895,191.839812 174.8895,191.658562 C174.8895,191.176062 175.498875,191.079812 175.707,191.211062 C175.9195,191.338562 176.188875,192.271688 176.092625,192.946688 C176.088875,192.973563 176.085125,192.996688 176.085125,193.020438 C176.027,192.981063 175.9695,192.942938 175.907625,192.904188" id="Fill-76" fill="#9CA2B6" mask="url(#mask-4)"></path>
                <path d="M183.250188,208.3485 C180.770188,206.139125 177.519563,202.456 175.845813,200.729125 C173.605187,198.41475 171.870187,193.682875 171.580813,193.235375 C171.445812,193.031 171.260813,192.275375 171.113937,191.446625 C171.060187,191.16475 171.013938,190.871625 170.978938,190.590375 C170.887062,189.89975 170.843937,189.267875 170.905813,188.9785 C171.063938,188.222875 171.900813,188.639125 171.966437,188.89725 C172.005188,189.055375 172.830187,190.46725 173.497688,191.577875 C173.828937,192.132875 174.122688,192.611 174.257063,192.822875 C174.280188,192.86225 174.299563,192.892875 174.310813,192.91225 C174.523313,193.231625 174.789563,193.2785 174.804563,193.131625 C175.035813,193.266625 175.263937,193.405375 175.495188,193.551625 C175.737688,193.706 175.972688,193.864125 176.204563,194.02225 C176.335813,194.304125 176.567063,194.631625 176.960813,195.067875 C177.893938,196.0935 177.153313,198.08725 177.153313,198.08725 C177.689563,198.6535 180.234563,200.446625 182.814563,202.197875 C183.674563,204.8085 183.488938,207.07225 183.250188,208.3485" id="Fill-77" fill="#F1AFAC" mask="url(#mask-4)"></path>
                <path d="M201.610125,203.331437 C201.587,203.377687 201.101375,203.821437 200.41825,204.434562 C198.863875,205.830187 196.2995,208.090187 195.945125,208.395187 C195.440125,208.827063 192.018875,211.117688 190.83575,211.237063 C189.655125,211.360813 187.68075,211.071438 185.41325,209.960187 C184.99325,209.755812 184.480125,209.389563 183.90575,208.915812 C184.167625,207.754562 184.461375,205.513937 183.797625,202.861437 C186.292625,204.535187 188.59075,206.015812 188.861375,206.127687 C189.45075,206.370187 189.547,206.200812 189.84825,206.057687 C190.565125,205.711437 194.517625,201.322687 196.550125,199.035812 C197.275125,198.217687 197.75325,197.670187 197.75325,197.670187 C197.75325,197.670187 201.68325,203.188937 201.610125,203.331437" id="Fill-78" fill="#F1AFAC" mask="url(#mask-4)"></path>
                <path d="M228.604188,203.743438 C228.604188,203.743438 232.075438,206.972813 232.099188,207.189688 C232.123563,207.406563 232.846063,207.912813 232.099188,209.045313 C231.351688,210.178438 223.832313,219.537813 223.832313,219.537813 L224.049188,222.964688 C224.049188,222.964688 234.839188,215.119063 236.381063,212.162813 C237.923563,209.205938 237.923563,208.049688 237.344813,206.056563 C236.767313,204.064688 234.694188,201.019688 232.123563,198.609688 C229.552313,196.199688 227.757938,202.949063 228.604188,203.743438" id="Fill-79" fill="#F4B0AB" mask="url(#mask-4)"></path>
                <path d="M196.837813,197.621 C196.837813,197.621 196.090938,198.247875 196.187188,198.489125 C196.283438,198.72975 200.718438,204.851625 200.718438,204.851625 C200.718438,204.851625 201.250938,205.16475 201.611563,204.70725 C201.971563,204.249125 206.357813,198.441 206.357813,198.441 C206.357813,198.441 200.420938,229.709125 200.420938,230.6085 C200.420938,230.6085 200.645938,230.9785 201.055938,231.171625 C201.465313,231.364125 209.081563,234.641625 224.072813,231.171625 C224.602812,231.0485 224.579688,230.701625 224.603438,230.47225 C224.627813,230.242875 224.169063,202.907875 224.603438,201.236625 C224.603438,201.236625 227.350938,204.321625 227.519688,204.490375 C227.688437,204.659125 228.102188,205.156625 228.628438,204.70725 C229.154687,204.2585 234.220312,198.922875 234.292812,198.80225 C234.364687,198.681625 234.750313,198.3685 234.292812,197.86225 C233.834062,197.356 225.422813,189.2335 224.651563,188.8485 C223.880313,188.462875 214.094688,186.19725 209.804688,187.305375 C205.514688,188.41475 205.466563,187.980375 203.682813,189.185375 C201.899688,190.391 198.091563,196.512875 196.837813,197.621" id="Fill-80" fill="#4E4F83" mask="url(#mask-4)"></path>
                <path d="M213.002375,169.814875 L212.80925,173.60675 C212.80925,173.60675 216.504875,174.69925 214.062375,178.00925 C214.062375,178.00925 216.408625,181.737375 216.408625,182.21925 C216.408625,182.701125 217.951125,184.1155 218.593625,184.083 C219.23675,184.051125 222.193,182.02675 222.6105,181.898 C223.028625,181.76925 228.073625,178.00925 228.363,175.9205 C228.652375,173.83175 228.556125,172.996125 228.363,172.54675 C228.1705,172.096125 228.978,171.95175 229.06175,171.939875 C229.146125,171.927375 229.4555,168.497375 227.206125,168.127375 C227.206125,168.127375 227.318625,165.074875 225.1655,164.7855 C225.1655,164.7855 224.153625,162.728625 222.5305,163.8055 C222.5305,163.8055 221.052375,161.314875 218.9955,163.194875 C218.9955,163.194875 215.396125,161.106125 213.8855,164.448 C213.8855,164.448 211.893625,164.624875 212.503625,166.601125 C212.503625,166.601125 209.2905,169.059875 213.002375,169.814875" id="Fill-81" fill="#454674" mask="url(#mask-4)"></path>
                <path d="M183.905687,208.9155 C183.693187,208.742375 183.477562,208.553 183.250062,208.348625 C183.488812,207.072375 183.674437,204.808625 182.814437,202.198 C183.141937,202.418 183.470062,202.641125 183.797562,202.861125 C184.461312,205.51425 184.167562,207.754875 183.905687,208.9155" id="Fill-82" fill="#9CA2B6" mask="url(#mask-4)"></path>
                <path d="M175.494875,193.551688 C175.263625,193.405438 175.036125,193.266688 174.804875,193.131688 C174.808625,193.124188 174.808625,193.116063 174.808625,193.104813 C174.79675,192.996688 174.83175,192.646063 174.858625,192.279188 C175.20925,192.472313 175.55675,192.681063 175.907375,192.904188 C175.96925,192.942313 176.027375,192.981063 176.0855,193.019813 C176.034875,193.374813 176.034875,193.664188 176.20425,194.022313 C175.973,193.864188 175.738,193.706063 175.494875,193.551688 Z" id="Fill-83" fill="#9CA2B6" mask="url(#mask-4)"></path>
                <path d="M174.858437,192.279187 C174.831562,192.646062 174.796562,192.996687 174.808437,193.104812 C174.808437,193.116062 174.808437,193.124187 174.804687,193.131687 C174.623437,193.023562 174.438437,192.923562 174.257187,192.822937 C173.204687,192.248562 172.151562,191.797312 171.114062,191.446687 C162.726562,188.596687 155.334063,192.368562 155.249063,192.410437 L154.890938,191.727937 C154.979062,191.681687 162.433437,187.879187 170.979062,190.590437 C171.808437,190.856687 172.652812,191.180437 173.497187,191.577937 C173.952812,191.789812 174.403437,192.024812 174.858437,192.279187" id="Fill-84" fill="#D5D9E4" mask="url(#mask-4)"></path>
                <path d="M183.797625,202.861438 C183.470125,202.640813 183.142,202.417688 182.8145,202.197688 C181.961375,199.606438 180.080125,196.672063 176.2045,194.022063 C176.0345,193.663938 176.0345,193.374562 176.085125,193.020187 C180.967,196.178313 183.026375,199.795813 183.797625,202.861438" id="Fill-85" fill="#D5D9E4" mask="url(#mask-4)"></path>
                <path d="M183.905688,208.9155 C183.786313,209.451125 183.674438,209.7605 183.666313,209.7755 C183.616313,209.89175 183.535063,210.09175 183.426938,210.377375 C180.796938,217.1255 176.783188,224.043625 171.496313,230.94675 C170.724438,231.94925 169.953813,232.948 169.181938,233.93925 C160.435688,245.211125 152.156313,255.88925 154.963813,270.373625 C154.963813,270.3855 154.967563,270.392375 154.967563,270.40425 C155.102563,271.087375 155.256938,271.777375 155.441938,272.474875 L154.694438,272.668 C154.496938,271.912375 154.327563,271.168 154.188813,270.4355 C154.185063,270.423625 154.185063,270.412375 154.185063,270.40425 C151.369438,255.64675 159.738188,244.85675 168.573188,233.468625 C169.340063,232.477375 170.115688,231.482375 170.882563,230.476125 C176.127563,223.6355 180.106938,216.778625 182.706313,210.0955 C182.825688,209.794875 182.910688,209.57925 182.964438,209.4555 C182.972563,209.439875 183.118813,209.034875 183.250063,208.348625 C183.477563,208.553 183.693188,208.742375 183.905688,208.9155" id="Fill-86" fill="#D5D9E4" mask="url(#mask-4)"></path>
                <path d="M138.330125,277.78575 C138.330125,276.976375 143.826375,276.320125 150.606375,276.320125 C157.38575,276.320125 162.881375,276.976375 162.881375,277.78575 C162.881375,278.595125 157.38575,279.251375 150.606375,279.251375 C143.826375,279.251375 138.330125,278.595125 138.330125,277.78575" id="Fill-87" fill="#D5D9E4" mask="url(#mask-4)"></path>
                <path d="M148.838563,273.5975 C148.838563,276.0025 149.629813,277.9525 150.606063,277.9525 C151.582313,277.9525 152.372938,276.0025 152.372938,273.5975 C152.372938,271.1925 151.582313,269.243125 150.606063,269.243125 C149.629813,269.243125 148.838563,271.1925 148.838563,273.5975" id="Fill-88" fill="#302B49" mask="url(#mask-4)"></path>
                <path d="M161.608938,276.016938 C159.525188,277.322563 151.905813,277.322563 149.822063,276.016938 C148.510813,275.196313 148.510813,272.192563 149.822063,271.370688 C151.905813,270.066313 159.525188,270.066313 161.608938,271.370688 C162.920813,272.192563 162.920813,275.196313 161.608938,276.016938" id="Fill-89" fill="#302B49" mask="url(#mask-4)"></path>
                <path d="M153.770188,270.464 C153.770188,270.464 151.000188,273.3565 153.550813,276.9065 C154.269563,277.03775 155.723313,276.995875 158.012063,276.894625 C158.175188,276.887125 155.624563,273.94525 158.012063,270.494 C158.012063,270.494 154.732688,270.247125 153.770188,270.464" id="Fill-90" fill="#FFFFFF" mask="url(#mask-4)"></path>
                <path d="M159.186438,273.5975 C159.186438,276.144375 160.078313,278.209375 161.178938,278.209375 C162.278938,278.209375 163.170813,276.144375 163.170813,273.5975 C163.170813,271.05125 162.278938,268.98625 161.178938,268.98625 C160.078313,268.98625 159.186438,271.05125 159.186438,273.5975" id="Fill-91" fill="#676A87" mask="url(#mask-4)"></path>
            </g>
        </g>
    </g>
</svg>