<?xml version="1.0" encoding="UTF-8"?>
<svg width="350px" height="298px" viewBox="0 0 350 298" version="1.1" xmlns="http://www.w3.org/2000/svg" xmlns:xlink="http://www.w3.org/1999/xlink">
    <!-- Generator: Sketch 46.2 (44496) - http://www.bohemiancoding.com/sketch -->
    <title>page_1_slice</title>
    <desc>Created with Sketch.</desc>
    <defs>
        <polygon id="path-1" points="49.9798951 0.0285689877 49.9798951 60.4009754 0.226258741 60.4009754 0.226258741 0.0285689877"></polygon>
        <polygon id="path-3" points="0 288.458801 299.630245 288.458801 299.630245 0.104451311 0 0.104451311"></polygon>
        <polygon id="path-5" points="25.0022194 24.8656716 0.000412903226 24.8656716 0.000412903226 0.283214925 25.0022194 0.283214925"></polygon>
        <polygon id="path-7" points="20.3938065 0.132244776 20.3938065 19.7908418 0.399535484 19.7908418 0.399535484 0.132244776 20.3938065 0.132244776"></polygon>
    </defs>
    <g id="邀请好友（新用户）认证" stroke="none" stroke-width="1" fill="none" fill-rule="evenodd">
        <g id="Artboard" transform="translate(-274.000000, -121.000000)">
            <g id="Page-1" transform="translate(274.000000, 121.000000)">
                <g id="云-5" transform="translate(257.000000, 89.000000)">
                    <polygon id="Fill-1" fill="#C8DBF5" points="7.08898601 18.60853 28.0171329 18.60853 28.0171329 12.1363371 7.08898601 12.1363371"></polygon>
                    <path d="M13.3615035,12.1363371 C13.3615035,15.710412 10.5534615,18.60853 7.08877622,18.60853 C3.62513986,18.60853 0.816573427,15.710412 0.816573427,12.1363371 C0.816573427,8.56172097 3.62513986,5.66414419 7.08877622,5.66414419 C10.5534615,5.66414419 13.3615035,8.56172097 13.3615035,12.1363371 Z" id="Fill-2" fill="#C8DBF5"></path>
                    <path d="M10.584458,10.4535886 C10.584458,12.4457403 9.01994755,14.0601354 7.08882867,14.0601354 C5.15823427,14.0601354 3.59372378,12.4457403 3.59372378,10.4535886 C3.59372378,8.46089569 5.15823427,6.84650056 7.08882867,6.84650056 C9.01994755,6.84650056 10.584458,8.46089569 10.584458,10.4535886" id="Fill-4" fill="#DCE7FA"></path>
                    <path d="M32.8019231,13.4327781 C32.8019231,16.2913886 30.5561189,18.6082594 27.7863636,18.6082594 C25.0155594,18.6082594 22.7697552,16.2913886 22.7697552,13.4327781 C22.7697552,10.5741676 25.0155594,8.25675562 27.7863636,8.25675562 C30.5561189,8.25675562 32.8019231,10.5741676 32.8019231,13.4327781" id="Fill-6" fill="#C8DBF5"></path>
                    <path d="M30.1104196,11.5787944 C30.1104196,12.9036483 29.0698601,13.9779273 27.7859441,13.9779273 C26.502028,13.9779273 25.4614685,12.9036483 25.4614685,11.5787944 C25.4614685,10.2544816 26.502028,9.18020262 27.7859441,9.18020262 C29.0698601,9.18020262 30.1104196,10.2544816 30.1104196,11.5787944" id="Fill-8" fill="#DCE7FA"></path>
                    <path d="M25.1217657,9.18036498 C25.1217657,13.7345504 21.5443182,17.4260654 17.1308566,17.4260654 C12.7173951,17.4260654 9.13942308,13.7345504 9.13942308,9.18036498 C9.13942308,4.62617959 12.7173951,0.934123408 17.1308566,0.934123408 C21.5443182,0.934123408 25.1217657,4.62617959 25.1217657,9.18036498" id="Fill-10" fill="#C8DBF5"></path>
                    <path d="M23.1216783,8.25653914 C23.1216783,11.6715017 20.4395105,14.4386496 17.1305944,14.4386496 C13.8222028,14.4386496 11.1395105,11.6715017 11.1395105,8.25653914 C11.1395105,4.84211779 13.8222028,2.07442865 17.1305944,2.07442865 C20.4395105,2.07442865 23.1216783,4.84211779 23.1216783,8.25653914" id="Fill-12" fill="#DCE7FA"></path>
                </g>
                <g id="Group-179" transform="translate(25.000000, 5.436747)">
                    <g id="Group-15" transform="translate(8.000000, 105.000000)">
                        <path d="M289.964773,91.857762 L137.866871,183.14009 L10.9437937,107.372299 C10.9437937,107.372299 -7.06354895,94.3835354 4.82473776,81.214011 C9.27229021,76.2869399 39.8979895,64.2777451 46.1271853,62.2720635 C50.8002622,60.7675316 64.627535,55.9124399 68.7231643,52.6208706 C80.2836538,43.3301159 70.2965909,31.4237489 82.2131993,22.2071384 C88.5871503,17.27682 111.55236,12.9450672 119.510227,12.5721815 C129.125437,12.1213631 139.638549,0.93641367 139.638549,0.93641367 L289.964773,91.857762 Z" id="Fill-14" fill="#F1F4FA"></path>
                        <polygon id="Stroke-16" stroke="#FFFFFF" stroke-width="2" points="115.603304 169.849553 14.4319755 109.453965 145.365192 32.3261433 245.908724 92.0381976"></polygon>
                        <polygon id="Stroke-18" stroke="#FFFFFF" stroke-width="2" points="91.0733217 155.32752 40.4871329 124.78823 171.42035 47.6598663 221.378217 77.516164"></polygon>
                        <path d="M65.1681119,139.68829 L195.000455,61.7519176" id="Stroke-20" stroke="#FFFFFF" stroke-width="2"></path>
                        <path d="M100.585052,118.428281 L173.743094,161.608345" id="Stroke-22" stroke="#FFFFFF" stroke-width="2"></path>
                    </g>
                    <g id="好友" transform="translate(245.000000, 90.000000)">
                        <polygon id="Fill-50" fill="#9DB6DB" points="47.8511364 62.9968706 52.7371503 60.1956272 52.4062063 51.9412676 43.5771853 51.9412676"></polygon>
                        <polygon id="Fill-52" fill="#9DB6DB" points="2.43842657 10.063544 11.2674476 10.063544 6.89804196 0.866957865 2.26954545 3.52478371"></polygon>
                        <g id="Group-56" transform="translate(4.650350, 0.380150)">
                            <mask id="mask-2" fill="white">
                                <use xlink:href="#path-1"></use>
                            </mask>
                            <g id="Clip-55"></g>
                            <path d="M44.0996853,59.8515753 L5.82608392,37.3095753 C2.36087413,35.2405734 0.226258741,31.4229592 0.226258741,27.2914498 L0.226258741,3.94522884 C0.226258741,0.933459176 3.38727273,-0.948288015 5.91367133,0.56003221 L42.3951399,22.084579 C47.085,24.851727 49.9801049,30.0001483 49.9801049,35.5755753 L49.9801049,56.3516446 C49.9801049,59.4657007 46.7115734,61.4107682 44.0996853,59.8515753" id="Fill-54" fill="#9DB6DB" mask="url(#mask-2)"></path>
                        </g>
                        <path d="M44.0266608,62.9392871 L5.75358392,40.3972871 C2.28784965,38.3282852 0.153758741,34.510671 0.153758741,30.3791616 L0.153758741,7.03294064 C0.153758741,4.02117097 3.31477273,2.13942378 5.84117133,3.64774401 L42.3221154,25.1722908 C47.0125,27.9394388 49.9070804,33.0878601 49.9070804,38.6632871 L49.9070804,59.4393564 C49.9070804,62.5534125 46.638549,64.49848 44.0266608,62.9392871" id="Fill-57" fill="#DCE7FA"></path>
                        <path d="M13.6291084,24.8001086 L18.0131993,27.4119326 L18.0131993,25.4035449 L20.8611014,23.7810318 L14.3460664,19.8995562 L14.3460664,17.1302434 L24.405507,23.1229345 L24.405507,26.1249625 L20.922465,28.1939644 L20.922465,29.1448502 L24.7537587,31.4276255 L24.7537587,34.2819064 L20.922465,31.9991311 L20.922465,37.2206142 C20.922465,37.6860449 20.8301573,38.1558052 20.6460664,38.6309775 C20.461451,39.106691 20.130507,39.3897378 19.6521853,39.4817416 C19.1743881,39.5742865 18.3960664,39.3080169 17.3166958,38.6823914 C16.2378497,38.0567659 15.4049825,37.5696873 14.8175699,37.2195318 C14.6943182,36.1598652 14.5238636,35.1066929 14.3051573,34.0605562 C15.4254371,34.848 16.2347028,35.3897397 16.7329545,35.6868577 C17.5868007,36.1955843 18.0131993,35.8400169 18.0131993,34.6206966 L18.0131993,30.2662135 L13.6291084,27.6538483 L13.6291084,24.8001086 Z M7.93382867,24.3032884 L9.24501748,26.2364494 C10.0437937,24.9857397 10.5420455,23.0596142 10.7402972,20.458073 L9.08085664,19.4687622 C8.71896853,21.1627135 8.33662587,22.7744026 7.93382867,24.3032884 L7.93382867,24.3032884 Z M4.36896853,14.0188933 L6.77631119,15.4530693 C6.95358392,14.3474007 7.12089161,13.1637996 7.27823427,11.9049719 L10.1256119,13.8760169 L9.55236014,17.1069719 L13.5881993,19.5120581 C13.4717657,24.2345562 12.7416958,27.5337022 11.3958916,29.4105787 L14.2847028,33.6681873 L12.2361014,34.7094532 C11.4572552,33.4143652 10.6721154,32.1328071 9.88015734,30.8642378 C8.85533217,31.5434419 7.62648601,31.9141629 6.19204545,31.9758596 C5.56372378,30.7273146 4.94903846,29.5788914 4.34851399,28.5305899 C5.71424825,28.5197659 6.87491259,28.217236 7.83103147,27.6246236 C6.89536713,26.16447 5.95288462,24.7156816 5.00410839,23.2766348 C5.50236014,21.7905037 5.95655594,19.9823596 6.36617133,17.851661 L4.36896853,16.6615655 L4.36896853,14.0188933 Z" id="Fill-59" fill="#9DB6DB"></path>
                        <path d="M43.9093881,41.4234536 L43.9093881,43.9600509 C42.871451,45.5468449 41.5366608,46.6584667 39.9039685,47.2927513 C41.5775699,49.1842401 43.5134091,50.9961727 45.712535,52.7296315 C45.1933042,53.1956034 44.640507,53.8526184 44.0525699,54.7001352 C41.6079895,52.6240978 39.4293182,50.3429461 37.5170804,47.8577625 C35.6389336,48.0639592 33.4676049,47.7949835 31.0025699,47.0524592 C30.4833392,45.6864742 29.9436538,44.4487532 29.3840385,43.3398375 C31.569528,44.0433955 33.4849126,44.4054573 35.1307168,44.4276464 C34.0995979,42.7775322 33.1676049,41.0489442 32.3342133,39.2418824 L34.321451,38.586491 C35.1548427,40.5272288 36.2027448,42.3986933 37.4662063,44.2019667 C38.8387587,43.8637176 39.9417308,43.1888431 40.7745979,42.1773431 L32.4878846,37.2405303 C31.1903322,40.5753955 29.2954021,42.7650846 26.8025699,43.810139 C26.3247727,42.3986933 25.8259965,41.0933225 25.3067657,39.8961914 C27.8609615,38.6416933 29.629493,35.7343749 30.6128846,31.1764011 L25.8396329,28.3329442 L25.8396329,25.6902719 L31.0329895,28.7843037 C31.1420804,28.0174255 31.2343881,27.2126633 31.3099126,26.3700172 L34.3828147,28.2003506 C34.3072902,29.0435378 34.215507,29.8483 34.1064161,30.6146371 L45.3847378,37.3336165 L45.3847378,39.9762888 L33.6962762,33.0132288 C33.5599126,33.7351876 33.3994231,34.4154742 33.2148077,35.0524648 L43.9093881,41.4234536 Z" id="Fill-61" fill="#9DB6DB"></path>
                    </g>
                    <g id="邀请" transform="translate(146.000000, 30.000000)">
                        <polygon id="Fill-63" fill="#9DB6DB" points="48.5729196 62.756823 53.4589336 59.9561208 53.1279895 51.7017612 44.2989685 51.7017612"></polygon>
                        <polygon id="Fill-65" fill="#9DB6DB" points="3.16020979 9.82349644 11.9892308 9.82349644 7.61982517 0.6269103 2.99132867 3.28473614"></polygon>
                        <path d="M49.4718182,59.9921646 L11.1982168,37.4496234 C7.73300699,35.3811627 5.59891608,31.5630073 5.59891608,27.4314979 L5.59891608,4.08581816 C5.59891608,1.0740485 8.75940559,-0.807698689 11.2863287,0.700080337 L47.7672727,22.2246272 C52.4576573,24.9923163 55.3522378,30.1401964 55.3522378,35.7161646 L55.3522378,56.4916927 C55.3522378,59.6057489 52.0837063,61.5513575 49.4718182,59.9921646" id="Fill-67" fill="#9DB6DB"></path>
                        <path d="M44.7484441,62.6997807 L6.47536713,40.1577807 C3.00963287,38.0887788 0.875541958,34.2706234 0.875541958,30.139114 L0.875541958,6.79343427 C0.875541958,3.78166461 4.03655594,1.89991742 6.56295455,3.40769644 L43.0438986,24.9322433 C47.7342832,27.6999324 50.6288636,32.8478125 50.6288636,38.4237807 L50.6288636,59.1993088 C50.6288636,62.313365 47.3603322,64.2589736 44.7484441,62.6997807" id="Fill-69" fill="#DCE7FA"></path>
                        <path d="M15.6313462,23.5099195 L15.6313462,22.5795993 L12.6811713,20.8217865 L12.6811713,21.7521067 L15.6313462,23.5099195 Z M12.6811713,18.4540431 L12.6811713,19.3843633 L15.6313462,21.142176 L15.6313462,20.2118558 L12.6811713,18.4540431 Z M20.0773252,27.3632528 L21.6339685,30.5958315 C22.0168357,29.5973202 22.2523252,28.1874981 22.3409615,26.3652828 L20.8556469,25.4809644 C20.3846678,26.2716554 19.8722552,26.8961985 19.3189336,27.355676 C18.8411364,26.4935468 18.3832692,25.7412809 17.9463811,25.1005019 L17.9463811,26.6017865 L15.344458,25.051794 C15.4404371,25.4398333 15.5327448,25.8403202 15.6208566,26.2516311 L18.2946329,27.8449195 L18.2946329,29.5783783 L13.695507,26.8382903 L13.6750524,27.7567041 L17.7413112,30.1791086 C17.7145629,32.41047 17.6096678,33.6979813 17.4292483,34.0411011 C17.2483042,34.3847622 16.9923601,34.5438745 16.6608916,34.5189794 C16.3294231,34.4946255 15.3790734,34.0351479 13.8077448,33.1421704 C13.630472,32.3314551 13.4663112,31.4866442 13.3163112,30.6077378 C13.9309965,31.0163427 14.4365909,31.338897 14.8325699,31.5743184 C15.269458,31.835176 15.4881643,31.4790674 15.4881643,30.5065337 L13.5108916,29.3288858 C13.3262762,30.3750225 12.7493531,31.1722079 11.7795979,31.7220655 C11.2472552,30.9118914 10.5848427,30.0021367 9.79236014,28.9949663 C10.9257517,28.7400618 11.4827448,27.5775674 11.4622902,25.5074831 L9.95652098,24.6107172 L9.95652098,22.8772584 L13.0089685,24.6956854 C12.9129895,24.2091479 12.8243531,23.8108258 12.742535,23.5012603 L10.3661364,22.085485 L10.3661364,15.3627172 L12.5788986,16.6810768 C12.7288986,16.100912 12.8453322,15.5921854 12.9271503,15.154897 L15.774528,17.0420562 L15.2012762,18.2435169 L17.9463811,19.8790187 L17.9463811,24.2021124 C18.9161364,23.0818315 19.6330944,21.5036966 20.0977797,19.4687903 L22.4741783,21.4133165 C22.2628147,22.1823596 22.0299476,22.8826704 21.7776748,23.5142491 L25.5061713,25.7353277 L25.5061713,28.2513596 L24.5946329,27.7085375 C24.4650874,30.5130281 24.0171853,32.6247846 23.2525,34.0438071 C24.1404371,35.9748034 24.8573951,37.6173408 25.4038986,38.9719607 L23.3962063,39.1078015 C22.9519755,37.9978034 22.4636888,36.8255674 21.9313462,35.592176 C21.2002273,36.1999419 20.3295979,36.7032566 19.3189336,37.1015787 C18.8002273,35.946661 18.2332692,34.8691348 17.6185839,33.869 C18.8337937,33.5291273 19.7904371,33.0274363 20.4869406,32.363927 C19.7904371,30.8501948 19.0388636,29.2606948 18.2332692,27.5970506 L20.0773252,27.3632528 Z M7.29323427,12.136633 C8.34428322,14.1017247 9.23274476,15.8714438 9.95652098,17.4441667 L7.76421329,17.6812116 C7.12225524,16.1571966 6.30302448,14.3799007 5.3059965,12.3482416 L7.29323427,12.136633 Z M25.5061713,40.7876816 C25.0692832,41.4858277 24.7278497,42.1141592 24.4818706,42.6721348 C18.6292483,39.1851929 15.1052972,37.0788483 13.910542,36.3525599 C12.7152622,35.6268127 11.6720804,34.8361217 10.7809965,33.9810281 C9.88991259,33.1264757 9.14358392,32.1669307 8.54253497,31.1040169 C7.8323951,31.357839 7.05407343,31.7464195 6.20704545,32.2708408 L5.06001748,28.5641723 C5.7497028,28.3054794 6.41893357,28.0987416 7.06770979,27.9423352 L7.06770979,21.9810337 L5.24410839,20.8943071 L5.24410839,18.1038876 L9.48501748,20.6307434 L9.48501748,29.3510749 C10.4138636,31.1797846 11.9983042,32.7617079 14.2383392,34.0963034 L19.1962063,37.0918371 C21.2794231,38.3328052 23.3820455,39.564573 25.5061713,40.7876816 L25.5061713,40.7876816 Z" id="Fill-71" fill="#9DB6DB"></path>
                        <path d="M35.4426224,44.2551404 L42.1831818,48.2708333 L42.1831818,47.2560861 L35.4426224,43.2403933 L35.4426224,44.2551404 Z M42.1831818,44.4867734 L35.4426224,40.4710805 L35.4426224,41.4858277 L42.1831818,45.5015206 L42.1831818,44.4867734 Z M35.4426224,49.4344101 L32.6975175,47.7989082 L32.6975175,36.8477566 L44.9282867,44.1344532 L44.9282867,52.1680037 C44.9282867,53.0414981 44.7405245,53.600015 44.365,53.8408483 C43.9894755,54.0822228 43.4545105,54.028103 42.7616783,53.6784888 C42.0688462,53.3294157 40.6601049,52.5284419 38.535979,51.2777322 C38.385979,50.5395375 38.1814336,49.6709139 37.9218182,48.6702378 C39.6562587,49.7888951 40.6941958,50.4486161 41.0356294,50.6526479 C41.8003147,51.1083371 42.1831818,50.990897 42.1831818,50.3003277 L42.1831818,50.0253989 L35.4426224,46.009706 L35.4426224,49.4344101 Z M31.2221678,33.348367 L37.2662238,36.9484195 L37.2662238,36.0180993 L32.3492657,33.089133 L32.3492657,31.2712472 L37.2662238,34.2002135 L37.2662238,33.2698933 L31.8777622,30.0600449 L31.8777622,28.2421592 L37.2662238,31.4520075 L37.2662238,29.7607622 L40.1959441,31.5061273 L40.1959441,33.1973727 L45.9525874,36.6269476 L45.9525874,38.4453745 L40.1959441,35.0157996 L40.1959441,35.9455787 L45.3992657,39.0461049 L45.3992657,40.8639906 L40.1959441,37.7640056 L40.1959441,38.6943258 L46.4445455,42.4166891 L46.4445455,44.2345749 L31.2221678,35.1662528 L31.2221678,33.348367 Z M28.8457692,24.9771086 C29.7882517,26.8069007 30.6688462,28.6209981 31.4886014,30.4204831 L29.0917483,30.471897 C28.3129021,28.5706667 27.4936713,26.7435805 26.633007,24.9900974 L28.8457692,24.9771086 Z M31.8573077,40.9559944 C31.9123776,42.2575768 31.9941958,43.3913876 32.1032867,44.3585094 C30.683007,44.5414345 29.5490909,44.8661536 28.7020629,45.3342903 L27.2272378,42.383676 C27.5959441,42.1239007 27.7805594,41.6422341 27.7805594,40.9375936 L27.7805594,34.0881854 L26.1006643,33.0869682 L26.1006643,30.3387622 L30.3615035,32.8780655 L30.3615035,41.1860037 C30.7716434,41.1335075 31.2698951,41.0571985 31.8573077,40.9559944 L31.8573077,40.9559944 Z" id="Fill-73" fill="#9DB6DB"></path>
                    </g>
                    <g id="妹纸" transform="translate(183.000000, 82.000000)">
                        <path d="M39.9678671,59.4499135 C39.9678671,59.4499135 39.6447902,58.8578423 40.1981119,58.3972824 C40.7514336,57.9361813 41.1080769,57.6228273 41.983951,58.4443667 C42.8598252,59.2653648 44.311049,60.7758498 44.5743357,61.1509004 C44.8370979,61.5254097 44.7662937,62.4113517 43.7535315,61.954039 C42.7407692,61.496185 40.346014,59.8579772 39.9678671,59.4499135" id="Fill-84" fill="#4E4F81"></path>
                        <path d="M42.8673252,59.7268448 C43.0781643,59.9579365 43.4311364,60.6306463 43.3162762,60.8249365 C43.2019406,61.019768 42.4042133,60.9429178 42.0029895,60.6301051 C41.6012413,60.3172923 39.8148776,59.4805994 40.4295629,58.8371144 C41.3620804,57.8618747 42.5736189,59.405914 42.8673252,59.7268448" id="Fill-86" fill="#E6938C"></path>
                        <path d="M25.2384965,55.0051043 C25.2384965,55.0051043 29.5921678,60.62058 31.2804545,62.4725612 C31.6565035,62.8854957 32.2176923,63.3785275 32.973986,63.1409414 C34.078007,62.7956567 41.2507343,60.6249096 41.5874476,60.5269526 C41.9236364,60.4289957 42.3311538,60.1443253 42.286049,59.5971736 C42.2404196,59.0505631 41.5974126,59.01755 41.3257343,59.1117185 C41.053007,59.2058871 34.1881469,59.652917 34.0108741,59.666447 C33.8330769,59.6810594 33.6285315,59.7227316 33.4014336,59.3325275 C33.1743357,58.9423234 30.2225874,52.3456549 29.5087762,51.563623 C29.5087762,51.563623 29.4993357,49.3923346 28.5778322,48.6454807 C28.0528322,48.2195575 26.030979,48.4349545 25.8956643,48.7780743 C25.7598252,49.120653 25.2384965,55.0051043 25.2384965,55.0051043" id="Fill-88" fill="#E6938C"></path>
                        <path d="M46.8720629,60.5735498 C46.8720629,60.5735498 46.5495105,59.9814787 47.1023077,59.5209187 C47.6556294,59.0598176 48.0122727,58.7459225 48.8881469,59.568003 C49.7645455,60.3890011 51.2152448,61.8994861 51.4785315,62.2745367 C51.7412937,62.6490461 51.6704895,63.534988 50.6582517,63.0776753 C49.644965,62.6198213 47.2502098,60.9810723 46.8720629,60.5735498" id="Fill-90" fill="#4E4F81"></path>
                        <path d="M11.7455245,1.97295487 C11.7455245,1.97295487 13.2859091,3.4055073 14.1025175,3.05210468 C15.7194755,2.35125262 15.8306643,0.894346255 17.2137063,0.337994195 C18.5962238,-0.218357865 21.3140559,0.127467978 22.4925524,2.37777135 C22.4925524,2.37777135 27.0413287,1.637953 27.0413287,7.38439869 C27.0413287,9.50860281 27.0885315,12.391026 27.0413287,13.2001178 C27.0413287,13.2001178 29.3741958,16.8916328 29.326993,19.6225204 C29.2803147,22.3534081 29.1623077,25.1854998 31.4012937,26.0957957 C31.4012937,26.0957957 29.7040909,27.4103669 28.4789161,27.4612395 C27.2532168,27.511571 19.0047902,18.5103575 18.5327622,17.6336159 C18.0617832,16.7568743 14.3123077,11.1484343 13.9257692,9.76134251 C13.5287413,8.33690805 13.3247203,6.94223951 13.3011189,5.7916515 C13.2796154,4.73739682 12.1703497,2.49575262 11.7455245,1.97295487" id="Fill-92" fill="#1C1C44"></path>
                        <path d="M17.0763462,15.9384199 L5.43351399,9.18155655 C5.43351399,9.18155655 2.08893357,8.35731124 4.48316434,11.778227 L17.1319406,20.5553843 L17.0763462,15.9384199 Z" id="Fill-94" fill="#9DB5DB"></path>
                        <path d="M6.28206294,9.47310019 C6.28206294,9.47310019 5.78171329,8.0232294 4.97716783,7.75046536 C4.17314685,7.47770131 4.41440559,8.35660768 4.43748252,8.44807022 C4.46055944,8.53953277 4.21825175,8.78848408 3.9491958,8.42696348 C3.67961538,8.06490169 2.79167832,6.95815075 2.2241958,6.95815075 C1.65671329,6.95815075 0.589405594,7.39543914 1.09027972,9.13755712 C1.59115385,10.8802163 3.88153846,11.8397612 4.59692308,11.8435496 C5.31230769,11.847338 6.13258741,11.0977781 6.29307692,10.7281395 C6.48188811,10.2919335 6.28206294,9.47310019 6.28206294,9.47310019" id="Fill-96" fill="#6162A4"></path>
                        <path d="M27.3573776,33.2023273 C28.269965,33.0502506 29.8727622,32.9322693 31.1608741,34.0839397 C32.448986,35.2356101 36.7386713,41.8723273 37.2568531,43.1706625 C37.775035,44.4684566 41.1358741,51.6139004 40.698986,52.6806026 C40.2626224,53.7478461 38.2329021,55.6285109 34.4593007,56.4338142 C30.6856993,57.2391176 25.6759091,57.5714135 24.1696154,57.1536082 C22.6627972,56.7352618 22.7482867,56.3033854 22.5264336,55.6896663 C22.3040559,55.0759472 19.2002098,46.6337918 19.1178671,44.6681588 C19.0355245,42.7025258 18.4051049,37.7511007 19.7126224,36.148612 C21.0196154,34.5461232 27.3573776,33.2023273 27.3573776,33.2023273" id="Fill-98" fill="#CFDCF2"></path>
                        <path d="M15.1244056,18.6348873 C15.4002797,17.5173124 16.948007,12.0052056 25.2966084,14.3637487 C27.4962587,14.9855858 26.9298252,19.182039 26.9251049,20.8332356 C26.9167133,23.7329772 27.8896154,30.1818985 29.3833217,32.2324996 C30.8775524,34.2831007 32.3707343,35.1804079 31.2745804,36.6919753 C30.1784266,38.2035427 24.6782517,42.5818386 20.3408392,38.6933273 C18.971958,37.4658891 19.4193357,33.9264509 18.5334965,31.7925052 C17.5826224,29.5032356 16.7523776,27.4115034 15.7265035,26.6554491 C14.0015035,25.3841738 12.7883916,23.8644884 14.3051748,21.0026307 C14.6665385,20.3201794 14.9392657,19.383906 15.1244056,18.6348873" id="Fill-100" fill="#4E4F83"></path>
                        <path d="M24.7872378,18.3515699 C25.6536713,16.5450493 26.6491259,16.6327234 28.7842657,17.5765736 C31.7003497,18.8667908 40.1732517,23.3533264 40.1732517,23.3533264 L41.0905594,23.9026429 L40.3006993,26.6557197 C40.3006993,26.6557197 31.7826923,24.0503901 29.0229021,22.9485099 C27.6388112,22.3964875 23.4949301,21.0440324 24.7872378,18.3515699" id="Fill-102" fill="#C9DAF5"></path>
                        <path d="M42.2859965,23.540527 C42.0316259,23.9572498 41.6251573,24.2565326 41.6697378,23.5583865 C41.7101224,22.9203135 40.7838986,23.2022779 40.5646678,23.6909801 C40.4513811,23.9437199 39.5928147,25.5380906 40.165542,26.3921019 C40.7382692,27.2455719 41.6566259,27.1844165 42.3321503,27.0566936 C43.0076748,26.9289708 44.3141434,25.9661787 44.8276049,24.4676 C45.3410664,22.9690213 44.8548776,22.5983004 44.4006818,22.3461019 C43.9470105,22.0933622 42.9793531,22.4072573 42.2859965,23.540527" id="Fill-104" fill="#6162A4"></path>
                        <path d="M18.8653846,12.6991303 C19.5791958,12.7629918 20.4047203,13.4378663 19.1874126,14.3606097 C17.9706294,15.2838944 17.398951,17.6532614 20.4409091,18.0456303 C23.0973776,18.388209 25.1045455,16.6996697 24.5916084,15.1734899 C23.9381119,13.2295049 23.0344406,15.2503401 23.0884615,12.0713401 C23.1241259,9.9660779 21.6020979,10.7665105 21.191958,5.091503 C21.0125874,2.61768464 16.9762238,3.56748801 16.4674825,5.68249176 C15.9613636,7.78775393 15.9666084,12.4404375 18.8653846,12.6991303" id="Fill-106" fill="#F4B3AB"></path>
                        <path d="M32.1426923,56.1287406 C32.1426923,56.1287406 36.5587762,61.699838 38.1311538,63.6308343 C38.4752098,64.0540515 38.9996853,64.518941 39.8787063,64.2645777 C40.9895455,63.943647 48.1549301,61.7480047 48.4916434,61.650589 C48.8283566,61.552632 49.2358741,61.2679616 49.1902448,60.7208099 C49.1446154,60.1741994 48.5016084,60.1411863 48.2299301,60.2353549 C47.9572028,60.3289822 41.0923427,60.7765534 40.9150699,60.7900833 C40.7372727,60.8046957 40.5327273,60.846368 40.3056294,60.4561639 C40.0785315,60.0659597 37.1267832,53.4692912 36.412972,52.6872594 C36.412972,52.6872594 36.4035315,50.515971 35.482028,49.769117 C34.957028,49.3431938 32.9351748,49.5585908 32.7998601,49.9017107 C32.664021,50.2442893 32.1426923,56.1287406 32.1426923,56.1287406" id="Fill-108" fill="#F4B3AB"></path>
                        <path d="M27.3548077,33.1780275 C28.269493,33.0259507 29.8754371,32.9068871 31.1661713,34.0612635 C32.4563811,35.2150987 36.754458,41.8648047 37.2736888,43.1658459 C37.7929196,44.4663459 41.1600524,51.6258609 40.7226399,52.6952691 C40.2852273,53.7641361 38.2518357,55.6491305 34.4703671,56.4555163 C30.6894231,57.2624433 25.6696678,57.5952803 24.1602273,57.1769339 C22.6507867,56.7575051 22.7362762,56.3245463 22.5144231,55.7097448 C22.2920455,55.0944021 19.1813811,46.6360107 19.0990385,44.6665893 C19.0166958,42.6966268 18.3841783,37.7360013 19.6948427,36.1302654 C21.0049825,34.5245294 27.3548077,33.1780275 27.3548077,33.1780275" id="Fill-110" fill="#CFDCF2"></path>
                        <path d="M49.771521,60.8504811 C49.9828846,61.0815728 50.3353322,61.7542826 50.220472,61.9485728 C50.1061364,62.1434043 49.3089336,62.0665541 48.9077098,61.7537414 C48.5059615,61.4409287 46.7195979,60.6042358 47.3342832,59.9607507 C48.2662762,58.9849699 49.4778147,60.5295504 49.771521,60.8504811" id="Fill-112" fill="#F4B3AB"></path>
                    </g>
                    <mask id="mask-4" fill="white">
                        <use xlink:href="#path-3"></use>
                    </mask>
                    <g id="Clip-115"></g>
                    <g id="云-3" mask="url(#mask-4)">
                        <g transform="translate(208.000000, 136.000000)">
                            <polygon id="Fill-122" fill="#C8DBF5" points="13.5861888 35.9977547 55.9711538 35.9977547 55.9711538 22.8893858 13.5861888 22.8893858"></polygon>
                            <path d="M13.5858217,35.9976464 C6.56991259,35.9976464 0.883024476,30.1288899 0.883024476,22.8892775 C0.883024476,15.6496652 6.56991259,9.78090861 13.5858217,9.78090861 C20.6017308,9.78090861 26.2891434,15.6496652 26.2891434,22.8892775 C26.2891434,30.1288899 20.6017308,35.9976464 13.5858217,35.9976464 Z" id="Fill-123" fill="#C8DBF5"></path>
                            <path d="M13.585979,26.786015 C9.67601399,26.786015 6.50660839,23.5150112 6.50660839,19.4809176 C6.50660839,15.4462828 9.67601399,12.1758202 13.585979,12.1758202 C17.4959441,12.1758202 20.6653497,15.4462828 20.6653497,19.4809176 C20.6653497,23.5150112 17.4959441,26.786015 13.585979,26.786015 Z" id="Fill-124" fill="#DCE7FA"></path>
                            <path d="M55.5031119,35.99743 C49.8927972,35.99743 45.3445455,31.3041566 45.3445455,25.5149562 C45.3445455,19.7252146 49.8927972,15.0319412 55.5031119,15.0319412 C61.113951,15.0319412 65.6622028,19.7252146 65.6622028,25.5149562 C65.6622028,31.3041566 61.113951,35.99743 55.5031119,35.99743 Z" id="Fill-125" fill="#C8DBF5"></path>
                            <path d="M55.5027972,26.6187305 C52.902972,26.6187305 50.7951049,24.4431125 50.7951049,21.7603916 C50.7951049,19.0771294 52.902972,16.9020526 55.5027972,16.9020526 C58.1031469,16.9020526 60.211014,19.0771294 60.211014,21.7603916 C60.211014,24.4431125 58.1031469,26.6187305 55.5027972,26.6187305 Z" id="Fill-126" fill="#DCE7FA"></path>
                            <path d="M33.9239336,33.6025725 C24.9852972,33.6025725 17.7386189,26.1259152 17.7386189,16.9022691 C17.7386189,7.67862303 24.9852972,0.20196573 33.9239336,0.20196573 C42.8620455,0.20196573 50.1081993,7.67862303 50.1081993,16.9022691 C50.1081993,26.1259152 42.8620455,33.6025725 33.9239336,33.6025725 Z" id="Fill-127" fill="#C8DBF5"></path>
                            <path d="M33.9236189,27.5525144 C27.2223951,27.5525144 21.7898776,21.9467803 21.7898776,15.0318871 C21.7898776,8.11699382 27.2223951,2.51125974 33.9236189,2.51125974 C40.6248427,2.51125974 46.0573601,8.11699382 46.0573601,15.0318871 C46.0573601,21.9467803 40.6248427,27.5525144 33.9236189,27.5525144 Z" id="Fill-128" fill="#DCE7FA"></path>
                        </g>
                    </g>
                    <polygon id="Fill-136" fill="#CFDCF2" opacity="0.300000012" mask="url(#mask-4)" points="41.7871678 225.387474 221.585769 180.580026 146.201853 288.458747"></polygon>
                    <g id="云-1" mask="url(#mask-4)">
                        <g transform="translate(135.000000, 227.000000)">
                            <polygon id="Fill-129" fill="#C8DBF5" points="11.2022727 29.9653783 46.1811189 29.9653783 46.1811189 19.1479026 11.2022727 19.1479026"></polygon>
                            <path d="M21.6852273,19.148065 C21.6852273,25.1223552 16.9916958,29.9655406 11.2020105,29.9655406 C5.41232517,29.9655406 0.718269231,25.1223552 0.718269231,19.148065 C0.718269231,13.1732335 5.41232517,8.33004813 11.2020105,8.33004813 C16.9916958,8.33004813 21.6852273,13.1732335 21.6852273,19.148065" id="Fill-130" fill="#C8DBF5"></path>
                            <path d="M17.0443007,16.335294 C17.0443007,19.664206 14.4287413,22.3637041 11.2016434,22.3637041 C7.97506993,22.3637041 5.35951049,19.664206 5.35951049,16.335294 C5.35951049,13.0058408 7.97506993,10.3063427 11.2016434,10.3063427 C14.4287413,10.3063427 17.0443007,13.0058408 17.0443007,16.335294" id="Fill-131" fill="#DCE7FA"></path>
                            <path d="M54.1786364,21.3149697 C54.1786364,26.09267 50.424965,29.9654865 45.7948951,29.9654865 C41.1648252,29.9654865 37.4106294,26.09267 37.4106294,21.3149697 C37.4106294,16.5367281 41.1648252,12.6639116 45.7948951,12.6639116 C50.424965,12.6639116 54.1786364,16.5367281 54.1786364,21.3149697" id="Fill-132" fill="#C8DBF5"></path>
                            <path d="M49.6801049,18.2162835 C49.6801049,20.4308678 47.9404196,22.225482 45.7947902,22.225482 C43.6486364,22.225482 41.9094755,20.4308678 41.9094755,18.2162835 C41.9094755,16.0022404 43.6486364,14.207085 45.7947902,14.207085 C47.9404196,14.207085 49.6801049,16.0022404 49.6801049,18.2162835" id="Fill-133" fill="#DCE7FA"></path>
                            <path d="M41.3423077,14.2069768 C41.3423077,21.8183925 35.3622378,27.989679 27.9854895,27.989679 C20.6092657,27.989679 14.6291958,21.8183925 14.6291958,14.2069768 C14.6291958,6.59556105 20.6092657,0.42481573 27.9854895,0.42481573 C35.3622378,0.42481573 41.3423077,6.59556105 41.3423077,14.2069768" id="Fill-134" fill="#C8DBF5"></path>
                            <path d="M37.9992483,12.6636951 C37.9992483,18.3700921 33.5160315,22.9962569 27.9854371,22.9962569 C22.4553671,22.9962569 17.9721503,18.3700921 17.9721503,12.6636951 C17.9721503,6.95675693 22.4553671,2.33059213 27.9854371,2.33059213 C33.5160315,2.33059213 37.9992483,6.95675693 37.9992483,12.6636951" id="Fill-135" fill="#DCE7FA"></path>
                        </g>
                    </g>
                    <g id="飞机" mask="url(#mask-4)">
                        <g transform="translate(41.000000, 113.000000)">
                            <polygon id="Fill-137" fill="#17AB6D" points="44.2704895 72.3821348 53.1865734 123.795993 181.158601 0.673333333"></polygon>
                            <polygon id="Fill-138" fill="#169C64" points="61.8404196 82.1237079 53.1865734 123.795993 105.151084 73.8000749"></polygon>
                            <polygon id="Fill-139" fill="#6BCCA3" points="44.2704895 72.3821348 0.214545455 45.592809 181.158601 0.673333333"></polygon>
                            <path d="M61.8404196,82.1237079 C61.8404196,82.1237079 103.881329,109.995431 105.151084,108.913034 C106.420839,107.830637 181.158601,0.673333333 181.158601,0.673333333 L61.8404196,82.1237079 Z" id="Fill-140" fill="#6BCCA3"></path>
                        </g>
                    </g>
                    <g id="帅哥" mask="url(#mask-4)">
                        <g transform="translate(60.000000, 59.000000)">
                            <path d="M60.6090734,104.79811 C60.7512063,104.390588 61.7235839,101.97576 59.2978846,102.440108 C56.8721853,102.903916 52.9386189,105.880507 52.7419406,107.098204 C52.5452622,108.315901 53.6597727,109.736547 53.9220105,110.007146 C54.1842483,110.277745 56.3477098,110.615994 57.5277797,109.465947 C58.7078497,108.315901 60.2797028,105.745208 60.6090734,104.79811" id="Fill-141" fill="#615FA0"></path>
                            <path d="M86.3739336,111.427792 C87.3012063,111.421298 88.9963112,111.427792 89.5863462,111.427792 C90.1763811,111.427792 92.6020804,111.901341 89.5863462,114.336734 C86.5706119,116.772127 84.210472,117.042726 82.8992832,116.772127 C81.5880944,116.501528 80.8013811,114.699878 81.2602972,114.112678 C81.7192133,113.524936 83.7583741,111.446193 86.3739336,111.427792" id="Fill-142" fill="#5D609D"></path>
                            <path d="M66.028479,54.6246796 C66.028479,54.6246796 54.9609965,102.233912 53.364493,105.644004 C53.1242832,106.158142 53.397535,108.011747 54.5120455,108.282346 C55.6265559,108.552946 56.5113462,108.958844 57.0688636,108.011747 C57.6258566,107.06465 74.1143182,65.7641684 75.425507,59.8109848 C76.7366958,53.8578013 66.028479,54.6246796 66.028479,54.6246796" id="Fill-143" fill="#007D47"></path>
                            <path d="M65.7662413,49.7089736 C65.7662413,49.7089736 65.2417657,55.7519961 65.9408916,57.2402919 C66.640542,58.7285878 71.7069755,61.480041 74.2454371,61.480041 C75.6877448,61.480041 75.9148427,62.4455391 76.2122203,64.0956534 C76.4193881,65.2440766 77.5664161,66.8167994 82.0249825,114.141361 C82.111521,115.055446 84.1852972,114.860614 84.5136189,114.852496 C84.8770804,114.844378 85.9805769,114.700419 85.9805769,114.336734 C85.9805769,113.817725 85.6963112,51.9186871 84.8220105,49.7089736 C83.9482343,47.4987189 66.7276049,48.3105167 65.7662413,49.7089736" id="Fill-144" fill="#009557"></path>
                            <path d="M68.718986,31.5761719 C66.7228322,35.3180184 65.6492308,48.0567487 65.6733566,48.6087712 C65.696958,49.1607936 64.8084965,52.7040202 67.9758042,53.9660951 C71.1436364,55.22817 77.8212587,57.6126906 81.1862937,56.7191719 C84.5513287,55.8256532 84.8156643,54.3341101 85.0443357,53.1678273 C85.2724825,52.0010034 85.0443357,36.383097 87.9121678,29.8172768 C88.5462587,28.3652412 81.8266783,26.7297393 77.5994056,26.8147075 C73.3716084,26.9002169 70.0107692,29.152685 68.718986,31.5761719" id="Fill-145" fill="#4E4F83"></path>
                            <path d="M56.9853671,37.9193972 C56.3759266,39.0781032 53.3004021,45.6141575 53.0140385,46.8075002 C52.7276748,48.0008429 50.869458,49.0918991 50.3271503,49.2369403 C49.7848427,49.3825227 47.0502273,50.9898822 46.8016259,53.1059684 C46.5525,55.2215133 47.6507517,54.7966725 48.0991783,54.6067118 C48.5465559,54.4172923 49.2483042,53.677474 49.3956818,53.5232324 C49.5435839,53.369532 50.2243531,53.4772305 50.0465559,53.9340021 C49.8677098,54.3913148 50.1420105,55.5770807 51.0294231,54.959032 C51.9163112,54.3409833 54.1075699,53.2185376 54.4128147,52.8093916 C54.7180594,52.4002455 55.8278497,50.2424871 55.9086189,49.7743504 C55.9893881,49.3072961 63.1018007,40.317989 63.7437587,39.8433579 C64.3851923,39.369268 65.2757517,36.7790919 64.0899126,36.4457137 C62.9040734,36.1128766 57.3787238,37.1709197 56.9853671,37.9193972" id="Fill-146" fill="#F1AFAC"></path>
                            <path d="M93.1911189,24.7271966 C93.1911189,24.7271966 97.4970629,27.2226629 97.8783566,27.4434719 C98.2591259,27.6642809 101.880629,27.6420918 102.385175,27.7276011 C102.890245,27.8131105 110.333601,28.5047622 110.821364,28.5291161 C111.30965,28.55347 112.916119,28.0880393 113.222937,27.8006629 C113.529755,27.5122041 117.541993,26.7723858 118.238497,26.9434045 C118.935,27.113882 118.644441,27.9933296 118.417867,28.1335 C118.190769,28.2736704 118.271014,28.6562978 118.742517,28.6189551 C119.213497,28.5816124 120.305979,28.2325393 121.018741,28.9036255 C121.730979,29.5747116 120.408776,31.0841142 119.997587,31.2859813 C119.587448,31.4878483 115.062273,33.2624382 112.114196,31.8645225 C112.114196,31.8645225 97.7886713,35.2535075 96.7790559,35.0824888 C95.7694406,34.9109288 89.5984615,31.6978333 88.933951,31.2605449 C88.2694406,30.824339 88.3979371,27.639927 88.5474126,27.3644569 C88.6979371,27.0889869 92.5433916,24.3521461 93.1911189,24.7271966" id="Fill-147" fill="#F4B0AB"></path>
                            <path d="M88.7601923,21.7802084 C88.7601923,21.7802084 83.3512762,16.6458582 78.1941084,16.1441672 C73.4518007,15.6825249 71.4157867,17.735832 69.8339685,19.6727815 C68.2521503,21.6102721 68.5710315,23.1364519 68.4441084,23.7344762 C68.3171853,24.333583 81.1977797,27.4216616 83.1058217,26.8128133 C85.0133392,26.2034238 88.8802972,22.5416747 88.7601923,21.7802084" id="Fill-148" fill="#9EB5DC"></path>
                            <path d="M24.9170979,10.7331564 C24.9170979,10.7331564 15.9401748,8.26258521 9.90083916,13.1842444 C3.86202797,18.106986 -0.56979021,26.9209448 0.922342657,37.2421414 C1.81132867,43.3934036 2.39506993,44.7826601 2.64891608,45.5246433 C2.64891608,45.5246433 8.03842657,39.6477687 11.3646503,38.9198567 C14.6908741,38.192486 21.3538112,37.2832725 25.6807343,38.1610964 C30.0081818,39.0389204 43.3775874,41.1019691 46.7987413,36.6435758 C50.2193706,32.1857238 49.7494406,28.3930047 46.3718182,25.3060084 C42.9952448,22.218471 30.6957692,10.9518006 24.9170979,10.7331564" id="Fill-149" fill="#9DB5DC"></path>
                            <path d="M85.4473951,21.7442728 L88.9335839,22.0538384 L95.9820105,26.1377223 C95.9820105,26.1377223 92.1832343,32.2998084 89.7008916,31.6974545 L81.0486189,26.6837916 C81.0486189,26.6837916 80.6043881,25.6582204 80.5084091,25.1890013 C80.4129545,24.7197822 80.0788636,21.9261155 80.0788636,21.9261155 L85.4473951,21.7442728 Z" id="Fill-150" fill="#5E5F9F"></path>
                            <path d="M89.4367657,6.84805468 C89.4367657,6.84805468 91.0626399,9.5876015 89.6528497,13.231491 C88.4182343,16.4223974 85.6747028,16.4375509 85.4213811,16.3688187 C85.167535,16.3000865 84.1463811,15.8725397 83.9061713,16.3617831 C83.6145629,16.9565603 83.4136888,18.4973524 81.694458,19.6187157 C81.2738287,19.8931034 80.2353671,19.0726464 79.6652622,18.4643393 C79.3600175,18.1379966 78.7542483,17.3900603 78.6629895,16.9213824 C78.609493,16.6459124 78.5921853,16.113373 78.6829196,15.8498094 C78.8491783,15.3670603 79.670507,14.0449124 79.670507,14.0449124 C79.670507,14.0449124 80.1493531,8.02624382 81.2365909,7.48125693 C82.3238287,6.93572884 88.3993531,6.6608 89.4367657,6.84805468" id="Fill-151" fill="#F1B0AA"></path>
                            <path d="M80.1683392,3.20080974 C80.1683392,3.20080974 78.1637937,3.88001386 77.7672902,6.9702573 C77.3702622,10.0610419 78.3772552,12.8076243 79.0595979,13.4770869 C79.7414161,14.1470906 81.1622203,14.7332086 81.778479,14.5989914 C82.3952622,14.464233 84.2047028,13.3163509 84.4968357,12.8054596 C84.7889685,12.2945682 84.0630944,10.780836 85.2253322,10.385761 C86.3870455,9.99122734 90.371486,8.81736779 91.2232343,7.46870112 C92.075507,6.12003446 92.5533042,3.54880037 92.4069755,2.95402322 C92.4069755,2.95402322 89.4090734,3.41783034 88.4199126,2.13573109 C87.4318007,0.853631835 83.4541783,-2.00064906 80.1683392,3.20080974" id="Fill-152" fill="#454674"></path>
                            <path d="M87.6344056,27.287282 C87.6344056,27.287282 90.4691958,22.7017071 88.8218182,21.7843757 C87.1739161,20.866503 68.6662238,19.4528925 64.4971678,18.6567895 C60.099965,17.8168494 22.1714685,9.18798052 18.937028,9.90128015 C18.937028,9.90128015 29.1344056,10.7482558 33.2971678,15.8257801 C37.4599301,20.9033045 41.5791608,27.9145311 43.9592308,33.0256097 C46.3387762,38.135606 53.1108042,41.5467801 59.2188462,41.1213981 C65.3268881,40.6954749 83.3379021,34.3006734 87.6344056,27.287282" id="Fill-153" fill="#BBCEF0"></path>
                            <path d="M44.6786538,21.6131946 C44.6786538,21.6131946 78.5109965,26.6457994 85.6926399,22.7995017 C85.6926399,22.7995017 70.8043531,32.4073987 44.6786538,21.6131946" id="Fill-154" fill="#9CB6DC"></path>
                            <path d="M80.2026399,27.5092816 C80.2026399,27.5092816 53.0799126,32.3205363 50.595472,32.1186693 C60.068549,35.2213603 75.1225699,30.3727629 78.0748427,28.9791768 C78.9292133,28.5759839 79.3598077,28.3914352 80.2026399,27.5092816" id="Fill-155" fill="#9CB6DC"></path>
                            <path d="M77.1418531,18.6936451 C75.4341608,19.1958773 69.4336364,20.8746751 69.0885315,26.3148024 C68.743951,31.755471 63.721049,50.7569504 66.2946503,53.3298081 C68.9290909,55.9616564 71.9128322,56.0455421 76.5334615,56.3350833 C81.1535664,56.6240833 84.8070629,52.1916676 84.8070629,52.1916676 C84.8070629,52.1916676 84.3413287,41.4900084 86.1822378,35.6082631 C88.0236713,29.7259766 89.8373077,25.9473287 90.1000699,23.9459766 C90.3628322,21.9451657 89.6967483,18.9701976 84.1813636,18.4593062 C80.4219231,18.1113155 78.0953497,18.4133043 77.1418531,18.6936451" id="Fill-156" fill="#4E4F85"></path>
                        </g>
                    </g>
                    <g id="加入qtrade" mask="url(#mask-4)">
                        <g transform="translate(10.000000, 0.000000)">
                            <path d="M7.24538462,55.3063197 L110.187867,55.3063197 C112.242238,55.3063197 117.399406,57.1106755 119.978252,61.1020144 L119.978252,48.7821717 L119.978252,6.62876161 C119.978252,3.02492079 117.147657,0.104072472 113.655699,0.104072472 L7.24538462,0.104072472 C3.75342657,0.104072472 0.922307692,3.02492079 0.922307692,6.62876161 L0.922307692,48.7821717 C0.922307692,52.3854713 3.75342657,55.3063197 7.24538462,55.3063197" id="Fill-157" fill="#F1F4FA"></path>
                            <path d="M41.7678322,22.6480749 L43.3596154,22.6480749 L43.3596154,18.3785599 L41.7678322,18.3785599 L41.7678322,22.6480749 Z M41.2008741,17.830867 L43.926049,17.830867 L43.926049,23.9280094 L43.3596154,23.9280094 L43.3596154,23.1806142 L41.7673077,23.1806142 L41.7673077,23.9280094 L41.2008741,23.9280094 L41.2008741,17.830867 Z M37.2646853,18.19347 L38.2648601,18.19347 C38.2695804,17.7967715 38.2706294,17.3546124 38.2685315,16.8691573 L38.834965,16.8691573 C38.834965,17.3600243 38.8323427,17.8016423 38.8276224,18.19347 L40.4986014,18.19347 C40.4744755,20.0876648 40.4435315,21.5748783 40.4052448,22.6551105 C40.3863636,23.5432172 40.0611888,23.9696816 39.4297203,23.9355861 C39.2435315,23.9355861 38.9687063,23.9280094 38.6052448,23.9128558 C38.5722028,23.706118 38.5333916,23.4912622 38.4903846,23.2693708 C38.825,23.3137491 39.0977273,23.3359382 39.308042,23.3359382 C39.627972,23.346221 39.8026224,23.1113408 39.8314685,22.6329213 C39.8844406,21.4639326 39.9148601,20.1715506 39.9248252,18.7557753 L38.8202797,18.7557753 C38.8160839,19.1329906 38.8087413,19.4539213 38.7987762,19.7180262 C38.7798951,21.6463165 38.3304196,23.1313652 37.4508741,24.1720899 C37.3312937,24.0194719 37.1902098,23.8538652 37.0276224,23.6763521 C37.8211538,22.7785037 38.2255245,21.4390375 38.2396853,19.6584944 C38.2491259,19.3998015 38.2564685,19.0988951 38.2611888,18.7557753 L37.2646853,18.7557753 L37.2646853,18.19347 Z" id="Fill-158" fill="#333333"></path>
                            <path d="M46.4427972,17.2834448 L46.9158741,16.9354541 C47.4513636,17.275868 48.0393007,18.1493624 48.6802098,19.5548549 C49.5739161,21.5724429 50.5441958,22.8031283 51.591049,23.2474522 L51.0891259,23.898514 C50.0422727,23.2571938 49.0746154,21.90528 48.1851049,19.8433137 C48.1137762,19.6782481 48.042972,19.5207594 47.9737413,19.369765 C47.4188462,21.3310684 46.3882517,22.8550833 44.8798601,23.9428923 C44.7503147,23.7453549 44.6045105,23.5608062 44.4424476,23.3876227 C45.9938462,22.3788287 47.0380769,20.7833755 47.5756643,18.6007219 C47.2001399,17.9539897 46.823042,17.5156189 46.4427972,17.2834448" id="Fill-159" fill="#333333"></path>
                            <path d="M52.7958741,20.2837951 C52.7958741,20.9765292 52.9673776,21.5323401 53.3098601,21.9506865 C53.6533916,22.3684918 54.1007692,22.5773944 54.653042,22.5773944 C55.2456993,22.5773944 55.7114336,22.3771509 56.0491958,21.9761228 C56.388007,21.575636 56.5568881,21.0154955 56.5568881,20.2951603 C56.5568881,19.5548007 56.3911538,18.9843775 56.0607343,18.5817258 C55.7292657,18.1796154 55.2761189,17.9788307 54.6997203,17.9788307 C54.1332867,17.9788307 53.6743706,18.1909805 53.322972,18.6152801 C52.9715734,19.0395798 52.7958741,19.5959318 52.7958741,20.2837951 L52.7958741,20.2837951 Z M57.4747203,24.6269131 C57.3000699,24.683739 57.0908042,24.7124225 56.8474476,24.7124225 C56.5028671,24.7124225 56.1771678,24.6258307 55.8698252,24.4531884 C55.563007,24.2805461 55.1381818,23.8751884 54.5958741,23.236033 C53.8526923,23.2409037 53.2411538,22.9686809 52.7623077,22.418282 C52.2824126,21.8684243 52.0427273,21.1762315 52.0427273,20.3427858 C52.0427273,19.4135479 52.2855594,18.6753532 52.7706993,18.1303663 C53.2558392,17.5859206 53.9193007,17.3131566 54.7605594,17.3131566 C55.5179021,17.3131566 56.1331119,17.5805086 56.6056643,18.1157539 C57.0771678,18.6509993 57.3131818,19.3480629 57.3131818,20.2058625 C57.3131818,20.9684112 57.1474476,21.6081079 56.8149301,22.1260348 C56.4824126,22.6439618 56.0109091,22.9784225 55.3988462,23.1288757 C55.7072378,23.4741603 55.97,23.7101228 56.1876573,23.8373045 C56.4053147,23.9644861 56.6476224,24.0278064 56.9151049,24.0278064 C57.1348601,24.0278064 57.3215734,23.9942521 57.4747203,23.9276846 L57.4747203,24.6269131 Z" id="Fill-160" fill="#333333"></path>
                            <polygon id="Fill-161" fill="#333333" points="61.3862063 18.0677496 59.7834091 18.0677496 59.7834091 23.139862 59.0627797 23.139862 59.0627797 18.0677496 57.4673252 18.0677496 57.4673252 17.409111 61.3862063 17.409111"></polygon>
                            <path d="M63.5875874,19.7658682 C63.4701049,19.6798176 63.3090909,19.6365217 63.1034965,19.6365217 C62.8312937,19.6365217 62.6062937,19.768033 62.4295455,20.029973 C62.2527972,20.2935367 62.1641608,20.6388213 62.1641608,21.0679918 L62.1641608,23.1396996 L61.4613636,23.1396996 L61.4613636,19.048239 L62.1641608,19.048239 L62.1641608,19.8806022 L62.1783217,19.8806022 C62.3791958,19.2787895 62.7258741,18.9778831 63.2183566,18.9778831 C63.3788462,18.9778831 63.5015734,18.9962839 63.5875874,19.0330854 L63.5875874,19.7658682 Z" id="Fill-162" fill="#333333"></path>
                            <path d="M65.5343881,21.2161178 C65.2092133,21.2604961 64.9852622,21.3443818 64.8620105,21.4677751 C64.7387587,21.5906272 64.6773951,21.7638107 64.6773951,21.9857021 C64.6773951,22.1805335 64.744528,22.3396459 64.8782692,22.4630391 C65.0120105,22.5858912 65.1892832,22.648129 65.4090385,22.648129 C65.7148077,22.648129 65.9670804,22.5366421 66.1653322,22.3147507 C66.3635839,22.0928594 66.4632343,21.8141421 66.4632343,21.4785991 L66.4632343,21.0867713 L65.5343881,21.2161178 Z M64.358514,19.3332882 C64.7529196,19.0789249 65.2081643,18.9517433 65.7242483,18.9517433 C66.6808916,18.9517433 67.1586888,19.4696702 67.1586888,20.5060654 L67.1586888,23.1400785 L66.4632343,23.1400785 L66.4632343,22.5074174 L66.4448776,22.5074174 C66.1700524,22.9928725 65.7646329,23.2358706 65.2296678,23.2358706 C64.8452273,23.2358706 64.5389336,23.1287133 64.3118357,22.9143987 C64.0847378,22.6995429 63.971451,22.4100017 63.971451,22.0446927 C63.971451,21.2799792 64.4093881,20.835114 65.2868357,20.7090148 L66.4632343,20.5390785 C66.4632343,19.8706983 66.1952273,19.5362376 65.6597378,19.5362376 C65.1840385,19.5362376 64.7502972,19.7018444 64.358514,20.0319755 L64.358514,19.3332882 Z" id="Fill-163" fill="#333333"></path>
                            <path d="M71.0665035,20.7055511 C71.0665035,20.3775848 70.9621329,20.1031972 70.7528671,19.8823882 C70.5436014,19.6615792 70.2860839,19.5511747 69.9803147,19.5511747 C69.6074126,19.5511747 69.3131818,19.6951335 69.0981469,19.9825099 C68.8831119,20.2693451 68.7755944,20.6611728 68.7755944,21.1569107 C68.7755944,21.613141 68.8789161,21.9741204 69.0855594,22.2393077 C69.2922028,22.5039537 69.5680769,22.6365474 69.9121329,22.6365474 C70.2514685,22.6365474 70.5289161,22.5066597 70.743951,22.2468845 C70.958986,21.9860268 71.0665035,21.6629313 71.0665035,21.2754331 L71.0665035,20.7055511 Z M71.7656294,23.139862 L71.0628322,23.139862 L71.0628322,22.4590343 L71.0486713,22.4590343 C70.7591608,22.9769612 70.3102098,23.2361953 69.7007692,23.2361953 C69.1983217,23.2361953 68.7997203,23.0516466 68.5028671,22.6830904 C68.2065385,22.3145343 68.0586364,21.8166316 68.0586364,21.190465 C68.0586364,20.5139669 68.2259441,19.9727684 68.5605594,19.5641635 C68.8946503,19.1560998 69.3320629,18.952068 69.8727972,18.952068 C70.413007,18.952068 70.8047902,19.1690886 71.0486713,19.6031298 L71.0628322,19.6031298 L71.0628322,17.0838507 L71.7656294,17.0838507 L71.7656294,23.139862 Z" id="Fill-164" fill="#333333"></path>
                            <path d="M75.5480944,20.6981908 C75.545472,20.328011 75.4610315,20.0422582 75.2937238,19.83985 C75.1258916,19.6374418 74.8909266,19.5367788 74.5872552,19.5367788 C74.3077098,19.5367788 74.0659266,19.6439361 73.8608566,19.8582507 C73.6573601,20.0731066 73.5283392,20.3529062 73.4758916,20.6981908 L75.5480944,20.6981908 Z M76.2508916,21.2788968 L73.4758916,21.2788968 C73.4874301,21.715644 73.6038636,22.0528107 73.8236189,22.290938 C74.0433741,22.5290654 74.3507168,22.648129 74.7451224,22.648129 C75.1893531,22.648129 75.5973951,22.500923 75.9676748,22.2075934 L75.9676748,22.8548669 C75.6188986,23.1092301 75.1563112,23.2358706 74.5799126,23.2358706 C74.0066608,23.2358706 73.5587587,23.0486159 73.2372552,22.6735654 C72.9157517,22.299056 72.7552622,21.778423 72.7552622,21.1127489 C72.7552622,20.486041 72.931486,19.9691964 73.284458,19.5622152 C73.6363811,19.1552339 74.0743182,18.9517433 74.5977448,18.9517433 C75.1169755,18.9517433 75.5218706,19.1243856 75.813479,19.4680466 C76.1050874,19.8122489 76.2508916,20.2939155 76.2508916,20.9125054 L76.2508916,21.2788968 Z" id="Fill-165" fill="#333333"></path>
                            <polygon id="Fill-166" fill="#333333" points="80.6104895 22.2224223 80.0047203 24.1945496 79.5027972 24.1945496 79.9438811 22.2224223"></polygon>
                            <path d="M21.3347902,33.0520749 L22.6758741,33.0520749 L22.6758741,31.6390056 L21.3347902,31.6390056 L21.3347902,33.0520749 Z M21.3347902,31.0913127 L22.6758741,31.0913127 L22.6758741,29.6928558 L21.3347902,29.6928558 L21.3347902,31.0913127 Z M19.484965,31.0913127 L20.8045455,31.0913127 L20.8045455,29.6928558 L19.484965,29.6928558 L19.484965,31.0913127 Z M19.484965,31.6390056 C19.4896853,32.1520618 19.4823427,32.6229045 19.4634615,33.0520749 L20.8045455,33.0520749 L20.8045455,31.6390056 L19.484965,31.6390056 Z M19.4346154,33.5997678 C19.3774476,34.5614775 19.1335664,35.3608277 18.7034965,35.9972772 C18.5645105,35.8392472 18.423951,35.6936648 18.2802448,35.56053 C18.5671329,35.0869813 18.7538462,34.6015262 18.8398601,34.1030824 C18.9111888,33.6636292 18.9473776,32.9335524 18.9473776,31.9128521 L18.9473776,29.1451629 L23.2066434,29.1451629 L23.2066434,35.1091704 C23.2066434,35.6519925 22.9701049,35.925839 22.4965035,35.9307097 C22.2914336,35.9350393 22.0092657,35.9328745 21.6505245,35.923133 C21.6122378,35.7109831 21.5744755,35.5161517 21.5356643,35.3386386 C21.8802448,35.3684045 22.143007,35.3830169 22.3244755,35.3830169 C22.5583916,35.3830169 22.6758741,35.247176 22.6758741,34.9760356 L22.6758741,33.5997678 L21.3347902,33.5997678 L21.3347902,35.6714757 L20.8045455,35.6714757 L20.8045455,33.5997678 L19.4346154,33.5997678 Z M16.4875874,32.6672828 C16.7933566,32.5812322 17.106993,32.4886873 17.4269231,32.3901891 L17.4269231,30.7952772 L16.5667832,30.7952772 L16.5667832,30.284927 L17.4269231,30.284927 L17.4269231,28.8199026 L17.9576923,28.8199026 L17.9576923,30.284927 L18.7606643,30.284927 L18.7606643,30.7952772 L17.9576923,30.7952772 L17.9576923,32.2272884 C18.2015734,32.1504382 18.4496503,32.070882 18.7034965,31.9864551 C18.7082168,32.2132172 18.7129371,32.4085899 18.7176573,32.5714906 C18.4643357,32.6477996 18.211014,32.727897 17.9576923,32.8117828 L17.9576923,35.1313596 C17.9576923,35.6492865 17.7379371,35.9128502 17.2979021,35.923133 C17.1211538,35.9328745 16.891958,35.9328745 16.6097902,35.923133 C16.5809441,35.7158539 16.5494755,35.5134457 16.5164336,35.3164494 C16.7886364,35.3456742 16.9968531,35.3608277 17.140035,35.3608277 C17.3314685,35.3608277 17.4269231,35.2450112 17.4269231,35.0128371 L17.4269231,32.9855075 C17.140035,33.0818408 16.8536713,33.1808801 16.5667832,33.2815431 L16.4875874,32.6672828 Z" id="Fill-167" fill="#333333"></path>
                            <path d="M25.8667832,33.8362715 L29.4809441,33.8362715 L29.4809441,32.9481648 L25.8667832,32.9481648 L25.8667832,33.8362715 Z M25.8667832,32.4453914 L29.4809441,32.4453914 L29.4809441,31.5648614 L25.8667832,31.5648614 L25.8667832,32.4453914 Z M25.8667832,36.0118895 L25.3003497,36.0118895 L25.3003497,32.1829101 C24.9536713,32.599633 24.5713287,33.000661 24.1533217,33.384912 C24.0526224,33.2122697 23.9377622,33.0325918 23.8087413,32.8447959 C24.7312937,32.0486929 25.4519231,31.1654569 25.9706294,30.1961704 L24.0096154,30.1961704 L24.0096154,29.6484775 L26.2396853,29.6484775 C26.376049,29.3405356 26.493007,29.0244757 26.5910839,28.7013801 L27.1863636,28.8420918 C27.0903846,29.1159382 26.9854895,29.3849139 26.8706294,29.6484775 L30.9222028,29.6484775 L30.9222028,30.1961704 L26.6125874,30.1961704 C26.4646853,30.4873352 26.3015734,30.770382 26.1248252,31.0469345 L30.0541958,31.0469345 L30.0541958,34.9982247 C30.0541958,35.609779 29.7652098,35.9155562 29.1867133,35.9155562 C28.9333916,35.920427 28.5484266,35.923133 28.0323427,35.923133 C28.0082168,35.7553614 27.9725524,35.5529532 27.9248252,35.3164494 C28.3648601,35.3505449 28.7183566,35.3684045 28.9858392,35.3684045 C29.3157343,35.3684045 29.4809441,35.200633 29.4809441,34.8650899 L29.4809441,34.3395861 L25.8667832,34.3395861 L25.8667832,36.0118895 Z" id="Fill-168" fill="#333333"></path>
                            <path d="M36.931014,30.8102142 L35.0953497,30.8102142 C35.0927273,31.1089558 35.0890559,31.3752255 35.0843357,31.6095644 L36.931014,31.6095644 L36.931014,30.8102142 Z M35.0056643,32.9041112 L36.931014,32.9041112 L36.931014,32.1053022 L35.0738462,32.1053022 C35.0623077,32.3910551 35.0392308,32.6573247 35.0056643,32.9041112 L35.0056643,32.9041112 Z M33.7972727,34.5098472 C34.0558392,34.280379 34.2456993,33.9129052 34.3673776,33.4074258 L32.6109091,33.4074258 C32.9408042,33.8809745 33.3362587,34.2484483 33.7972727,34.5098472 L33.7972727,34.5098472 Z M34.5215734,32.1053022 L32.571049,32.1053022 L32.571049,32.9041112 L34.4607343,32.9041112 C34.4922028,32.6627367 34.5121329,32.396467 34.5215734,32.1053022 L34.5215734,32.1053022 Z M32.571049,31.6095644 L34.5289161,31.6095644 C34.5336364,31.3725195 34.5373077,31.1062498 34.5394056,30.8102142 L32.571049,30.8102142 L32.571049,31.6095644 Z M31.2016434,35.5457011 C32.0764685,35.3952479 32.7818881,35.163615 33.3168531,34.850261 C32.9082867,34.5590963 32.538007,34.1770101 32.2054895,33.7034614 L32.5820629,33.4074258 L32.0261189,33.4074258 L32.0261189,30.3068996 L34.5430769,30.3068996 C34.5456993,30.095291 34.5477972,29.8679876 34.5504196,29.6260719 L31.4596853,29.6260719 L31.4596853,29.1081449 L38.0423776,29.1081449 L38.0423776,29.6260719 L35.1026923,29.6260719 C35.1026923,29.8706936 35.1016434,30.0974558 35.099021,30.3068996 L37.4759441,30.3068996 L37.4759441,33.7700288 L36.931014,33.7700288 L36.931014,33.4074258 L34.9233217,33.4074258 C34.799021,33.9919202 34.6018182,34.4421974 34.3317133,34.7577161 C35.2899301,35.1203191 36.6252448,35.2989146 38.3366084,35.2940438 C38.217028,35.5116056 38.118951,35.7086019 38.0423776,35.886115 C36.1448252,35.8314539 34.7502448,35.5911618 33.8586364,35.1646974 C33.308986,35.5392067 32.5327622,35.8417367 31.5315385,36.0712049 C31.4355594,35.8980213 31.3259441,35.7232142 31.2016434,35.5457011 L31.2016434,35.5457011 Z" id="Fill-169" fill="#333333"></path>
                            <path d="M42.6889685,31.7277081 L43.3991084,31.7277081 C43.1793531,31.9495994 42.9517308,32.1595845 42.7178147,32.3565807 L45.3276049,32.3565807 L45.3276049,32.8966968 C43.7887937,34.6182493 41.735472,35.6860339 39.1681643,36.1005919 C39.0821503,35.9230788 38.9746329,35.737989 38.8456119,35.5458635 C40.0120455,35.37268 41.0568007,35.0793504 41.9788287,34.6653335 C41.8403671,34.4775376 41.6421154,34.2480695 41.3840734,33.976929 L41.8141434,33.6516687 C42.0580245,33.9130676 42.2804021,34.1723017 42.4812762,34.4282886 C43.2842483,34.003989 43.9749825,33.486062 44.553479,32.8745077 L42.0936888,32.8745077 C41.2524301,33.5255695 40.365542,34.05865 39.433549,34.4726669 C39.347535,34.3297904 39.2326748,34.1620189 39.089493,33.9698934 C40.418514,33.4173298 41.6179895,32.6699346 42.6889685,31.7277081 M41.606451,28.7532811 L42.3302273,28.7532811 C42.0868706,29.0244215 41.8382692,29.2787848 41.5849476,29.5152886 L44.9620455,29.5152886 L44.9620455,30.0186032 C43.3172902,31.3845882 41.3221853,32.403665 38.9746329,33.0742099 C38.874458,32.8772137 38.7643182,32.7045713 38.6447378,32.556283 C39.6297028,32.2900133 40.5139685,31.9869421 41.2980594,31.6465283 C41.1260315,31.4489908 40.8989336,31.2070751 40.6167657,30.9213223 L41.0179895,30.5955208 C41.3006818,30.876944 41.5608217,31.1507904 41.7999825,31.4170601 C42.6748077,31.0073728 43.4421154,30.5462717 44.1013811,30.0332155 L41.0111713,30.0332155 C40.5139685,30.4726687 39.9239336,30.8915564 39.2400175,31.2909609 C39.1351224,31.1432137 39.003479,30.9878897 38.8456119,30.824989 C39.9401923,30.2231762 40.8606469,29.5326069 41.606451,28.7532811" id="Fill-170" fill="#333333"></path>
                            <path d="M48.447028,33.8070468 L50.4043706,33.8070468 L50.4043706,32.5417247 L48.447028,32.5417247 L48.447028,33.8070468 Z M47.9162587,32.0086442 L50.9351399,32.0086442 L50.9351399,34.3395861 L48.447028,34.3395861 L48.447028,34.7243783 L47.9162587,34.7243783 L47.9162587,32.0086442 Z M47.3283217,31.1578801 L51.5304196,31.1578801 L51.5304196,30.6253408 L47.3283217,30.6253408 L47.3283217,31.1578801 Z M46.9265734,35.9599345 L46.3748252,35.9599345 L46.3748252,29.1749288 L52.4839161,29.1749288 L52.4839161,35.1015936 C52.4839161,35.6492865 52.2043706,35.923133 51.6447552,35.923133 C51.295979,35.923133 50.8994755,35.9128502 50.4547203,35.893367 C50.4305944,35.7207247 50.3975524,35.5237285 50.3545455,35.3012959 C50.8276224,35.3456742 51.2194056,35.3684045 51.5304196,35.3684045 C51.7979021,35.3684045 51.9316434,35.2303989 51.9316434,34.9538464 L51.9316434,29.7226217 L46.9265734,29.7226217 L46.9265734,35.9599345 Z" id="Fill-171" fill="#333333"></path>
                            <path d="M58.2634266,33.4295609 C58.7412238,32.3834242 59.142972,31.3724654 59.4681469,30.3961433 L60.0487413,30.632647 C59.6045105,31.8119185 59.1812587,32.8255833 58.7795105,33.6736414 L58.2634266,33.4295609 Z M54.076014,30.3290346 C54.4677972,31.2810028 54.8475175,32.2925028 55.2156993,33.3629934 L54.6277622,33.6368399 C54.3078322,32.5961152 53.9490909,31.5721676 53.5525874,30.5660796 L54.076014,30.3290346 Z M53.2441958,34.9909185 L55.5455944,34.9909185 L55.5455944,28.8791639 L56.1482168,28.8791639 L56.1482168,34.9909185 L57.4027622,34.9909185 L57.4027622,28.8791639 L58.0053846,28.8791639 L58.0053846,34.9909185 L60.3288112,34.9909185 L60.3288112,35.5380702 L53.2441958,35.5380702 L53.2441958,34.9909185 Z" id="Fill-172" fill="#333333"></path>
                            <path d="M63.333007,32.0754822 L65.305035,32.0754822 L65.305035,30.9211058 C65.7781119,30.507089 66.2108042,30.1320384 66.6025874,29.7964953 L63.591049,29.7964953 L63.591049,29.2563792 L67.3987413,29.2563792 L67.3987413,29.8408736 C66.8826573,30.2949391 66.3733916,30.7408867 65.8714685,31.1803399 L65.8714685,32.0754822 L67.692972,32.0754822 L67.692972,32.6155983 L65.8714685,32.6155983 L65.8714685,34.9833418 C65.8714685,35.5851545 65.5630769,35.8860609 64.9462937,35.8860609 C64.7454196,35.8860609 64.4328322,35.8811901 64.006958,35.8714485 C63.9828322,35.6836526 63.9524126,35.4839504 63.9136014,35.2718006 C64.3441958,35.3113081 64.662028,35.3340384 64.8676224,35.338368 C65.1587063,35.338368 65.305035,35.1933268 65.305035,34.902162 L65.305035,32.6155983 L63.333007,32.6155983 L63.333007,32.0754822 Z M62.7880769,30.8621152 L61.8880769,30.8621152 C61.7186713,31.8043418 61.5718182,32.4824635 61.446993,32.8970215 C61.7008392,33.1015946 61.9536364,33.30725 62.2074825,33.514529 C62.530035,32.8266657 62.7235664,31.9423474 62.7880769,30.8621152 L62.7880769,30.8621152 Z M63.5768881,34.665117 L63.1536364,35.131089 C62.8788112,34.8696901 62.6097552,34.6169504 62.346993,34.3728699 C61.9887762,34.9324691 61.5141259,35.4493137 60.9235664,35.9228624 C60.8233916,35.7702444 60.7132517,35.6095084 60.5936713,35.4422781 C61.1627273,35.0158137 61.6132517,34.5357706 61.9452448,34.0032313 C61.5728671,33.6655234 61.2130769,33.3483811 60.8663986,33.0523455 C61.0384266,32.4256376 61.1962937,31.6955609 61.3394755,30.8621152 L60.5795105,30.8621152 L60.5795105,30.3068455 L61.4291608,30.3068455 C61.5057343,29.8186845 61.5786364,29.2980515 61.6478671,28.746029 L62.228986,28.8272088 C62.1424476,29.3700309 62.0611538,29.8630627 61.9851049,30.3068455 L63.3403497,30.3068455 L63.3403497,30.787971 C63.2328322,32.1317669 62.9983916,33.1595028 62.6375524,33.8695552 C62.9527622,34.1314953 63.2658741,34.3961414 63.5768881,34.665117 L63.5768881,34.665117 Z" id="Fill-173" fill="#333333"></path>
                            <path d="M73.4865385,32.0754822 L70.7938811,32.0754822 C71.0666084,32.8943155 71.502972,33.5691901 72.1024476,34.0990234 C72.8005245,33.514529 73.2615385,32.8401957 73.4865385,32.0754822 L73.4865385,32.0754822 Z M68.1227273,29.8852519 L70.1309441,29.8852519 C70.1907343,29.5156133 70.2426573,29.1308212 70.2882867,28.7308755 L70.8977273,28.8125964 C70.8526224,29.182235 70.8012238,29.5399672 70.7440559,29.8852519 L74.9136364,29.8852519 L74.9136364,30.4475571 L70.6396853,30.4475571 C70.5657343,30.8296433 70.4828671,31.1949522 70.3926573,31.5429429 L74.138986,31.5429429 L74.138986,32.0754822 C73.7807692,33.089147 73.2641608,33.8874148 72.5902098,34.4692032 C73.2547203,34.9032444 74.0629371,35.2052331 75.0138112,35.3757107 C74.8465035,35.6024728 74.6912587,35.8221994 74.5475524,36.0338081 C73.5751748,35.7334429 72.7596154,35.335662 72.1024476,34.8426301 C71.3996503,35.3264616 70.5321678,35.7404785 69.4994755,36.0857631 C69.3662587,35.8833549 69.2414336,35.6890646 69.1265734,35.5012687 C70.1236014,35.2247163 70.958042,34.8723961 71.6293706,34.4432257 C70.9816434,33.8262594 70.5190559,33.0371919 70.2416084,32.0754822 C69.7659091,33.6660646 69.0982517,34.8870084 68.2375874,35.7383137 C68.1132867,35.5602594 67.9868881,35.393029 67.8578671,35.2349991 C68.8874126,34.1471901 69.6106643,32.5517369 70.0265734,30.4475571 L68.1227273,30.4475571 L68.1227273,29.8852519 Z" id="Fill-174" fill="#333333"></path>
                            <path d="M80.5065385,31.5279517 L77.1399301,31.5279517 L76.9138811,33.1558768 L80.3916783,33.1558768 L80.5065385,31.5279517 Z M75.4081119,34.961315 L80.2663287,34.961315 L80.356014,33.6884161 L76.3117832,33.6884161 L76.3117832,33.1629124 L76.7633566,29.9076034 L75.6661538,29.9076034 L75.6661538,29.3745228 L81.961958,29.3745228 L81.961958,29.9076034 L77.365979,29.9076034 L77.2117832,30.9954124 L81.1448252,30.9954124 L80.8684266,34.961315 L82.2346853,34.961315 L82.2346853,35.4792419 L75.4081119,35.4792419 L75.4081119,34.961315 Z" id="Fill-175" fill="#333333"></path>
                            <path d="M85.8916434,30.2848728 L86.96,30.2848728 C86.9673427,29.789135 86.969965,29.2814908 86.9673427,28.7608579 L87.5552797,28.7608579 C87.5526573,29.2760788 87.5468881,29.7842642 87.5374476,30.2848728 L89.4696154,30.2848728 C89.4365734,32.1493017 89.3883217,33.6516687 89.3264336,34.7908916 C89.2734615,35.4863316 88.9608741,35.8391931 88.3870979,35.8489346 C88.0902448,35.8489346 87.7676923,35.8418991 87.4189161,35.8267455 C87.3858741,35.6194665 87.3470629,35.4024459 87.3040559,35.1756837 C87.633951,35.220062 87.935,35.2449571 88.2077273,35.2498279 C88.5617483,35.2498279 88.7453147,35.0452549 88.76,34.6355676 C88.8313287,33.4119178 88.8743357,32.1493017 88.889021,30.8471781 L87.5264336,30.8471781 C87.5217133,31.0593279 87.516993,31.2687717 87.5122727,31.4760507 C87.4881469,33.4194946 86.9196154,34.9537923 85.8056294,36.0784028 C85.6718881,35.9111725 85.5287063,35.7428597 85.3755594,35.5750882 C86.3746853,34.6577567 86.8954895,33.2863597 86.9384965,31.4614384 C86.9432168,31.2590301 86.9484615,31.0544571 86.9526573,30.8471781 L85.8916434,30.8471781 L85.8916434,30.2848728 Z M82.9446154,29.9374234 L85.8197902,29.9374234 L85.8197902,29.3897305 L82.9446154,29.3897305 L82.9446154,29.9374234 Z M85.16,32.8377062 C85.4615734,33.5082511 85.7384965,34.1744665 85.9918182,34.8352699 C85.7815035,34.9288972 85.6021329,35.010077 85.4542308,35.0793504 C85.4211888,34.9862642 85.3870979,34.8920957 85.3540559,34.7984684 C84.443042,34.8872249 83.6138462,34.9759815 82.8654196,35.064738 L82.6147203,34.4656313 C82.825035,34.342238 82.994965,34.1425358 83.123986,33.8659833 C83.3579021,33.3805283 83.6017832,32.763562 83.8551049,32.0161669 L82.6435664,32.0161669 L82.6435664,31.4690152 L86.1066783,31.4690152 L86.1066783,32.0161669 L84.4577273,32.0161669 C84.0486364,33.0671743 83.6951399,33.8833017 83.3961888,34.4656313 C83.9458392,34.4234178 84.5374476,34.3682155 85.171014,34.2989421 C85.0105245,33.8800545 84.8421678,33.4692848 84.6654196,33.0671743 L85.16,32.8377062 Z" id="Fill-176" fill="#333333"></path>
                            <path d="M93.6932168,29.7965494 L93.6932168,32.2454727 C93.6932168,34.0114034 93.2657692,35.2913378 92.4098252,36.0858172 C92.2760839,35.9185869 92.1344755,35.7502742 91.9865734,35.5825026 C92.7423427,34.8973453 93.1194406,33.8290195 93.1194406,32.3786075 L93.1194406,29.2342442 L95.7869231,29.2342442 L95.7869231,34.798306 C95.7869231,35.0450925 95.8703147,35.1684858 96.0381469,35.1684858 L96.2028322,35.1684858 C96.355979,35.1684858 96.4540559,35.0304801 96.4970629,34.7539277 C96.5447902,34.3740064 96.5783566,33.9648603 96.5972378,33.5259483 C96.7645455,33.6098341 96.946014,33.6883079 97.1421678,33.7624521 C97.0991608,34.2506131 97.0561538,34.6505588 97.0131469,34.9612067 C96.9370979,35.4840045 96.6932168,35.7454034 96.282028,35.7454034 L95.9017832,35.7454034 C95.4428671,35.7454034 95.2131469,35.4645213 95.2131469,34.9022161 L95.2131469,29.7965494 L93.6932168,29.7965494 Z M89.9143706,33.3852367 C90.4493357,32.5609914 90.8311538,31.6734258 91.0582517,30.7214577 L89.9862238,30.7214577 L89.9862238,30.2181431 L91.1044056,30.2181431 L91.1044056,28.7606955 L91.621014,28.7606955 L91.621014,30.2181431 L92.6248601,30.2181431 L92.6248601,30.7214577 L91.621014,30.7214577 L91.621014,31.9499783 L91.9079021,31.6539427 C92.2760839,31.9986861 92.5650699,32.2801094 92.7753846,32.49713 L92.3883217,32.9041112 C92.0940909,32.5685682 91.8386713,32.2898509 91.621014,32.0679596 L91.621014,35.9748715 L91.1044056,35.9748715 L91.1044056,32.0089689 C90.848986,32.8451206 90.5311538,33.5210775 90.1509091,34.0362985 C90.0748601,33.8144071 89.9956643,33.5968453 89.9143706,33.3852367 L89.9143706,33.3852367 Z" id="Fill-177" fill="#333333"></path>
                            <path d="M98.8417832,31.9572303 L102.8,31.9572303 L102.8,31.4095375 L98.8417832,31.4095375 L98.8417832,31.9572303 Z M101.917832,33.8958034 C102.610664,34.5322528 103.208566,35.1286536 103.71049,35.686088 L103.244231,36.1152584 C103.091084,35.9328745 102.914336,35.7304663 102.713986,35.5085749 C101.523427,35.5827191 100.307168,35.6666049 99.0641608,35.7602322 C98.8632867,35.7797154 98.6597902,35.8343764 98.4541958,35.923133 L98.1316434,35.3088727 C98.3660839,35.2201161 98.5643357,35.1015936 98.7269231,34.9538464 C99.1428322,34.5344176 99.5445804,34.0435506 99.9316434,33.4812453 L97.5437063,33.4812453 L97.5437063,32.9335524 L104.126399,32.9335524 L104.126399,33.4812453 L100.655944,33.4812453 C100.168182,34.1176948 99.6924825,34.682706 99.2288462,35.1757378 C100.285664,35.1210768 101.294231,35.0696629 102.25507,35.0204139 C102.035315,34.7882397 101.793531,34.5365824 101.530769,34.2654419 L101.917832,33.8958034 Z M100.835315,29.4265861 C99.8786713,30.5907041 98.8055944,31.5280599 97.6155594,32.2381124 C97.5006993,32.0605993 97.3690559,31.8803801 97.2211538,31.6979963 C98.5931818,30.9727903 99.7045455,30.0159513 100.555245,28.8274794 L101.322552,28.8274794 L101.186189,29.0120281 C102.013811,30.1517921 103.105769,30.9879438 104.463636,31.5204831 C104.31993,31.7174794 104.186189,31.9274644 104.061888,32.1493558 C102.675175,31.4539157 101.6,30.5463258 100.835315,29.4265861 L100.835315,29.4265861 Z" id="Fill-178" fill="#333333"></path>
                        </g>
                    </g>
                </g>
                <rect id="Rectangle" fill="#D8D8D8" opacity="0" x="0" y="0" width="350" height="298"></rect>
                <g transform="translate(33.000000, 100.000000)">
                    <polygon id="Fill-1" fill="#C8DBF5" points="13 34 55 34 55 22 13 22"></polygon>
                    <g id="Group-16">
                        <g id="Group-4" transform="translate(0.000000, 9.134328)">
                            <mask id="mask-6" fill="white">
                                <use xlink:href="#path-5"></use>
                            </mask>
                            <g id="Clip-3"></g>
                            <path d="M25.0022194,12.5744687 C25.0022194,19.362797 19.4053161,24.8657224 12.5010581,24.8657224 C5.5968,24.8657224 0.000412903226,19.362797 0.000412903226,12.5744687 C0.000412903226,5.7861403 5.5968,0.283214925 12.5010581,0.283214925 C19.4053161,0.283214925 25.0022194,5.7861403 25.0022194,12.5744687" id="Fill-2" fill="#C8DBF5" mask="url(#mask-6)"></path>
                        </g>
                        <path d="M19.4679226,18.5128478 C19.4679226,22.2954746 16.3489548,25.3625791 12.5012129,25.3625791 C8.65347097,25.3625791 5.53450323,22.2954746 5.53450323,18.5128478 C5.53450323,14.7297134 8.65347097,11.6631164 12.5012129,11.6631164 C16.3489548,11.6631164 19.4679226,14.7297134 19.4679226,18.5128478" id="Fill-5" fill="#DCE7FA"></path>
                        <g id="Group-9" transform="translate(43.354839, 14.208955)">
                            <mask id="mask-8" fill="white">
                                <use xlink:href="#path-7"></use>
                            </mask>
                            <g id="Clip-8"></g>
                            <path d="M20.3938581,9.96179701 C20.3938581,15.3901254 15.9179871,19.7908418 10.3964387,19.7908418 C4.87540645,19.7908418 0.399535484,15.3901254 0.399535484,9.96179701 C0.399535484,4.53296119 4.87540645,0.132244776 10.3964387,0.132244776 C15.9179871,0.132244776 20.3938581,4.53296119 20.3938581,9.96179701" id="Fill-7" fill="#C8DBF5" mask="url(#mask-8)"></path>
                        </g>
                        <path d="M58.3842581,20.6502299 C58.3842581,23.1657224 56.3099355,25.2057224 53.7509677,25.2057224 C51.1925161,25.2057224 49.1181935,23.1657224 49.1181935,20.6502299 C49.1181935,18.1342299 51.1925161,16.0947373 53.7509677,16.0947373 C56.3099355,16.0947373 58.3842581,18.1342299 58.3842581,20.6502299" id="Fill-10" fill="#DCE7FA"></path>
                        <path d="M48.4422194,16.094991 C48.4422194,24.7436776 41.3113806,31.7542746 32.5155097,31.7542746 C23.7191226,31.7542746 16.5877677,24.7436776 16.5877677,16.094991 C16.5877677,7.44630448 23.7191226,0.435707463 32.5155097,0.435707463 C41.3113806,0.435707463 48.4422194,7.44630448 48.4422194,16.094991" id="Fill-12" fill="#C8DBF5"></path>
                        <path d="M44.4558452,14.3411493 C44.4558452,20.825 39.1097806,26.0812985 32.5152,26.0812985 C25.9206194,26.0812985 20.5745548,20.825 20.5745548,14.3411493 C20.5745548,7.85729851 25.9206194,2.601 32.5152,2.601 C39.1097806,2.601 44.4558452,7.85729851 44.4558452,14.3411493" id="Fill-14" fill="#DCE7FA"></path>
                    </g>
                </g>
            </g>
        </g>
    </g>
</svg>