<?xml version="1.0" encoding="UTF-8"?>
<svg width="6px" height="6px" viewBox="0 0 6 6" version="1.1" xmlns="http://www.w3.org/2000/svg" xmlns:xlink="http://www.w3.org/1999/xlink">
    <!-- Generator: Sketch 49.2 (51160) - http://www.bohemiancoding.com/sketch -->
    <title>1星</title>
    <desc>Created with Sketch.</desc>
    <defs></defs>
    <g id="Page-1" stroke="none" stroke-width="1" fill="none" fill-rule="evenodd">
        <g id="-行情报价" transform="translate(-290.000000, -258.000000)">
            <g id="表格" transform="translate(8.000000, 107.000000)">
                <g id="1星" transform="translate(280.000000, 149.000000)">
                    <rect id="Rectangle-25" fill="#D8D8D8" opacity="0" x="0" y="0" width="10" height="10"></rect>
                    <g id="公共-星号" transform="translate(2.500000, 2.500000)" fill-rule="nonzero">
                        <rect id="Rectangle-path" fill="#000000" opacity="0" x="0" y="0" width="4.82563619" height="4.82563619"></rect>
                        <path d="M2.83181046,2.08051381 C3.09187469,1.96492971 3.35193891,1.84934561 3.58310711,1.73376151 C3.81427531,1.61817741 4.01654749,1.53148933 4.13213159,1.47369728 C4.27661172,1.41590523 4.39219582,1.3870092 4.47888389,1.3870092 C4.62336402,1.3870092 4.73894812,1.44480125 4.85453222,1.53148933 C4.97011632,1.61817741 4.99901235,1.73376151 4.99901234,1.87824163 C4.99901234,1.96492971 4.97011631,2.05161778 4.91232427,2.13830586 C4.85453222,2.22499393 4.79674017,2.28278598 4.76784414,2.31168201 C4.24771569,2.51395418 3.69869122,2.65843431 3.06297866,2.74512238 C3.17856276,2.86070648 3.32304289,2.97629058 3.46752301,3.14966673 C3.64089916,3.32304288 3.72758724,3.40973096 3.72758724,3.43862699 C3.78537929,3.52531507 3.87206737,3.61200314 3.98765147,3.75648327 C4.10323557,3.87206737 4.16102762,3.98765147 4.21881967,4.04544352 C4.24771569,4.10323557 4.27661172,4.18992364 4.27661172,4.30550774 C4.27661172,4.42109184 4.21881967,4.53667594 4.13213159,4.65226004 C4.04544351,4.73894812 3.90096339,4.79674017 3.75648327,4.79674016 C3.61200314,4.79674016 3.43862699,4.68115607 3.23635481,4.44998787 C3.03408263,4.21881967 2.80291443,3.78537929 2.51395418,3.17856276 C2.22499393,3.72758724 1.99382574,4.10323557 1.90713766,4.27661172 C1.79155356,4.44998787 1.70486548,4.59446799 1.61817741,4.68115607 C1.53148933,4.76784414 1.41590523,4.82563619 1.30032113,4.82563619 C1.155841,4.82563619 1.0402569,4.76784414 0.924672804,4.68115607 C0.837984727,4.56557197 0.780192677,4.47888389 0.780192677,4.36329979 C0.780192677,4.24771569 0.809088704,4.16102762 0.837984727,4.13213159 C1.21363305,3.64089916 1.58928138,3.20745878 1.99382573,2.83181046 C1.6181774,2.65843431 1.30032113,2.60064226 1.0402569,2.54285021 C0.780192677,2.48505816 0.491232427,2.39837008 0.202272177,2.25388996 C0.17337615,2.22499393 0.1155841,2.16720188 0.05779205,2.08051381 C0.0288960273,2.02272176 0,1.93603368 0,1.84934561 C0,1.70486548 0.05779205,1.58928138 0.144480127,1.5025933 C0.260064227,1.41590523 0.375648327,1.35811318 0.491232427,1.35811318 C0.606816527,1.35811318 0.722400627,1.38700921 0.866880754,1.44480125 C1.01136088,1.5025933 1.18473703,1.58928138 1.41590523,1.70486548 L2.16720189,2.08051381 C2.10940984,1.82044958 2.08051381,1.53148933 2.05161778,1.21363305 C1.99382573,0.895776777 1.99382573,0.664608577 1.99382573,0.549024477 C1.99382573,0.40454435 2.05161778,0.28896025 2.13830586,0.17337615 C2.22499393,0.05779205 2.34057803,0 2.48505816,0 C2.62953828,0 2.74512238,0.05779205 2.83181046,0.144480127 C2.91849854,0.260064227 2.97629059,0.404544354 2.97629058,0.577920504 C2.97629058,0.635712554 2.97629058,0.722400631 2.94739456,0.866880754 C2.94739456,1.01136088 2.91849853,1.18473703 2.88960251,1.3870092 C2.88960251,1.58928138 2.86070648,1.82044958 2.83181046,2.08051381 Z" id="Shape" fill="#666666"></path>
                    </g>
                </g>
            </g>
        </g>
    </g>
</svg>