<?xml version="1.0" encoding="UTF-8"?>
<svg width="16px" height="16px" viewBox="0 0 16 16" version="1.1" xmlns="http://www.w3.org/2000/svg" xmlns:xlink="http://www.w3.org/1999/xlink">
    <!-- Generator: Sketch 49.2 (51160) - http://www.bohemiancoding.com/sketch -->
    <title>qidian</title>
    <desc>Created with Sketch.</desc>
    <defs>
        <polygon id="path-1" points="0 0.0131994434 6.6946442 0.0131994434 6.6946442 8.32653061 0 8.32653061"></polygon>
        <polygon id="path-3" points="0.0290624304 0.0268152134 6.10250955 0.0268152134 6.10250955 3.12244898 0.0290624304 3.12244898"></polygon>
        <polygon id="path-5" points="0.0192683562 0.0442673435 5.13802062 0.0442673435 5.13802062 7.56957328 0.0192683562 7.56957328"></polygon>
    </defs>
    <g id="交易员管理" stroke="none" stroke-width="1" fill="none" fill-rule="evenodd">
        <g id="员工管理-详细信息全部字段" transform="translate(-740.000000, -255.000000)">
            <g id="基本信息-copy" transform="translate(420.000000, 238.000000)">
                <g id="企点账号" transform="translate(320.000000, 10.000000)">
                    <g id="qidian" transform="translate(0.000000, 7.000000)">
                        <circle id="Oval-2" stroke="#2196F3" cx="8" cy="8" r="7.5"></circle>
                        <g id="Page-1-Copy" transform="translate(3.000000, 3.500000)">
                            <g id="Group-3" transform="translate(0.000000, 0.034110)">
                                <mask id="mask-2" fill="white">
                                    <use xlink:href="#path-1"></use>
                                </mask>
                                <g id="Clip-2"></g>
                                <path d="M6.66895019,0.25028321 C6.70306058,0.179791558 6.7407192,0.0131663265 6.51292236,0.0131663265 L4.35403275,0.0131663265 C4.18698173,0.0131663265 4.10925167,0.115213636 4.07078878,0.195261874 L0.0257034323,8.08942792 C-0.00845426716,8.15987226 -0.0460655844,8.32654481 0.181731262,8.32654481 L2.44186391,8.32654481 L6.66895019,0.25028321 Z" id="Fill-1" fill="#007AC1" mask="url(#mask-2)"></path>
                            </g>
                            <g id="Group-6" transform="translate(2.412801, 5.238192)">
                                <mask id="mask-4" fill="white">
                                    <use xlink:href="#path-3"></use>
                                </mask>
                                <g id="Clip-5"></g>
                                <path d="M5.04972384,1.11082542 L3.17767375,0.0630072356 C3.15714128,0.0511797774 3.11319045,0.0268152134 3.06578599,0.0268152134 C3.01838154,0.0268152134 2.97443071,0.0511797774 2.95394555,0.0630072356 L1.08184814,1.11082542 L0.0290624304,3.12248683 L3.06578599,1.42273915 L6.10250955,3.12248683 L5.04972384,1.11082542 Z" id="Fill-4" fill="#253386" mask="url(#mask-4)"></path>
                            </g>
                            <g id="Group-9" transform="translate(5.819109, 0.791068)">
                                <mask id="mask-6" fill="white">
                                    <use xlink:href="#path-5"></use>
                                </mask>
                                <g id="Clip-8"></g>
                                <path d="M0.0781700371,2.56571633 C-0.00102662338,2.41744731 0.00370435993,2.33744638 0.0680930427,2.21444082 L1.15271827,0.142080891 C1.21942514,0.0123573284 1.35534629,0.00280074212 1.43979434,0.167202412 L5.11236206,7.33246586 C5.14642514,7.40295751 5.18408377,7.56958275 4.95628692,7.56958275 L2.69624889,7.56958275 L0.0781700371,2.56571633 Z" id="Fill-7" fill="#4DAD33" mask="url(#mask-6)"></path>
                            </g>
                        </g>
                    </g>
                </g>
            </g>
        </g>
    </g>
</svg>