<?xml version="1.0" encoding="UTF-8"?>
<svg width="8px" height="8px" viewBox="0 0 8 8" version="1.1" xmlns="http://www.w3.org/2000/svg" xmlns:xlink="http://www.w3.org/1999/xlink">
    <!-- Generator: Sketch 49.2 (51160) - http://www.bohemiancoding.com/sketch -->
    <title>2星</title>
    <desc>Created with Sketch.</desc>
    <defs></defs>
    <g id="Page-1" stroke="none" stroke-width="1" fill="none" fill-rule="evenodd">
        <g id="-行情报价" transform="translate(-299.000000, -257.000000)">
            <g id="表格" transform="translate(8.000000, 107.000000)">
                <g id="2星" transform="translate(290.000000, 149.000000)">
                    <rect id="Rectangle-25" fill="#D8D8D8" opacity="0" x="0" y="0" width="10" height="10"></rect>
                    <path d="M6.49115723,3.26498543 C6.33402497,3.15251474 6.16702038,3.1 5.98505816,3.1 C5.71467511,3.1 5.48053569,3.21706971 5.31830586,3.43337615 C5.17267403,3.62755192 5.09382573,3.81904064 5.09382573,4.04902448 C5.09382573,4.0853932 5.09409359,4.1206877 5.09470445,4.15530243 C4.92379313,4.19008604 4.74701862,4.22002603 4.56297866,4.24512238 C4.67856276,4.36070648 4.82304289,4.47629058 4.96752301,4.64966673 C5.05500244,4.73714616 5.12041236,4.80255609 5.16375279,4.84960834 C5.16476459,4.8609055 5.16577256,4.87206385 5.16677749,4.88308801 L5.09479067,4.8470946 C4.76526925,4.68233389 4.6528889,4.62839133 4.51543702,4.57341058 C4.32231287,4.49616092 4.16060997,4.45811318 3.99123243,4.45811318 C3.78186631,4.45811317 3.59447589,4.54009648 3.40448012,4.68259331 C3.19541836,4.88596965 3.1,5.10406875 3.1,5.34934561 C3.1,5.49381709 3.13932388,5.63800465 3.20002117,5.75939925 C3.2435842,5.82747649 3.27920804,5.87750423 3.31303812,5.91964728 C3.24120193,6.0290329 3.17968967,6.11964381 3.11817741,6.18115607 C3.03148933,6.26784414 2.91590523,6.32563619 2.80032113,6.32563619 C2.655841,6.32563619 2.5402569,6.26784414 2.4246728,6.18115607 C2.33798473,6.06557197 2.28019268,5.97888389 2.28019268,5.86329979 C2.28019268,5.74771569 2.3090887,5.66102762 2.33798473,5.63213159 C2.71363305,5.14089916 3.08928138,4.70745878 3.49382573,4.33181046 C3.1181774,4.15843431 2.80032113,4.10064226 2.5402569,4.04285021 C2.28019268,3.98505816 1.99123243,3.89837008 1.70227218,3.75388996 C1.67337615,3.72499393 1.6155841,3.66720188 1.55779205,3.58051381 C1.52889603,3.52272176 1.5,3.43603368 1.5,3.34934561 C1.5,3.20486548 1.55779205,3.08928138 1.64448013,3.0025933 C1.76006423,2.91590523 1.87564833,2.85811318 1.99123243,2.85811318 C2.10681653,2.85811318 2.22240063,2.88700921 2.36688075,2.94480125 C2.51136088,3.0025933 2.68473703,3.08928138 2.91590523,3.20486548 L3.66720189,3.58051381 C3.60940984,3.32044958 3.58051381,3.03148933 3.55161778,2.71363305 C3.49382573,2.39577678 3.49382573,2.16460858 3.49382573,2.04902448 C3.49382573,1.90454435 3.55161778,1.78896025 3.63830586,1.67337615 C3.72499393,1.55779205 3.84057803,1.5 3.98505816,1.5 C4.12953828,1.5 4.24512238,1.55779205 4.33181046,1.64448013 C4.41849854,1.76006423 4.47629059,1.90454435 4.47629058,2.0779205 C4.47629058,2.13571255 4.47629058,2.22240063 4.44739456,2.36688075 C4.44739456,2.51136088 4.41849853,2.68473703 4.38960251,2.8870092 C4.38960251,3.08928138 4.36070648,3.32044958 4.33181046,3.58051381 C4.59187469,3.46492971 4.85193891,3.34934561 5.08310711,3.23376151 C5.31427531,3.11817741 5.51654749,3.03148933 5.63213159,2.97369728 C5.77661172,2.91590523 5.89219582,2.8870092 5.97888389,2.8870092 C6.12336402,2.8870092 6.23894812,2.94480125 6.35453222,3.03148933 C6.43814609,3.09419974 6.47639508,3.17203177 6.49115723,3.26498543 Z M6.33181046,5.58051381 C6.59187469,5.46492971 6.85193891,5.34934561 7.08310711,5.23376151 C7.31427531,5.11817741 7.51654749,5.03148933 7.63213159,4.97369728 C7.77661172,4.91590523 7.89219582,4.8870092 7.97888389,4.8870092 C8.12336402,4.8870092 8.23894812,4.94480125 8.35453222,5.03148933 C8.47011632,5.11817741 8.49901235,5.23376151 8.49901234,5.37824163 C8.49901234,5.46492971 8.47011631,5.55161778 8.41232427,5.63830586 C8.35453222,5.72499393 8.29674017,5.78278598 8.26784414,5.81168201 C7.74771569,6.01395418 7.19869122,6.15843431 6.56297866,6.24512238 C6.67856276,6.36070648 6.82304289,6.47629058 6.96752301,6.64966673 C7.14089916,6.82304288 7.22758724,6.90973096 7.22758724,6.93862699 C7.28537929,7.02531507 7.37206737,7.11200314 7.48765147,7.25648327 C7.60323557,7.37206737 7.66102762,7.48765147 7.71881967,7.54544352 C7.74771569,7.60323557 7.77661172,7.68992364 7.77661172,7.80550774 C7.77661172,7.92109184 7.71881967,8.03667594 7.63213159,8.15226004 C7.54544351,8.23894812 7.40096339,8.29674017 7.25648327,8.29674016 C7.11200314,8.29674016 6.93862699,8.18115607 6.73635481,7.94998787 C6.53408263,7.71881967 6.30291443,7.28537929 6.01395418,6.67856276 C5.72499393,7.22758724 5.49382574,7.60323557 5.40713766,7.77661172 C5.29155356,7.94998787 5.20486548,8.09446799 5.11817741,8.18115607 C5.03148933,8.26784414 4.91590523,8.32563619 4.80032113,8.32563619 C4.655841,8.32563619 4.5402569,8.26784414 4.4246728,8.18115607 C4.33798473,8.06557197 4.28019268,7.97888389 4.28019268,7.86329979 C4.28019268,7.74771569 4.3090887,7.66102762 4.33798473,7.63213159 C4.71363305,7.14089916 5.08928138,6.70745878 5.49382573,6.33181046 C5.1181774,6.15843431 4.80032113,6.10064226 4.5402569,6.04285021 C4.28019268,5.98505816 3.99123243,5.89837008 3.70227218,5.75388996 C3.67337615,5.72499393 3.6155841,5.66720188 3.55779205,5.58051381 C3.52889603,5.52272176 3.5,5.43603368 3.5,5.34934561 C3.5,5.20486548 3.55779205,5.08928138 3.64448013,5.0025933 C3.76006423,4.91590523 3.87564833,4.85811318 3.99123243,4.85811318 C4.10681653,4.85811318 4.22240063,4.88700921 4.36688075,4.94480125 C4.51136088,5.0025933 4.68473703,5.08928138 4.91590523,5.20486548 L5.66720189,5.58051381 C5.60940984,5.32044958 5.58051381,5.03148933 5.55161778,4.71363305 C5.49382573,4.39577678 5.49382573,4.16460858 5.49382573,4.04902448 C5.49382573,3.90454435 5.55161778,3.78896025 5.63830586,3.67337615 C5.72499393,3.55779205 5.84057803,3.5 5.98505816,3.5 C6.12953828,3.5 6.24512238,3.55779205 6.33181046,3.64448013 C6.41849854,3.76006423 6.47629059,3.90454435 6.47629058,4.0779205 C6.47629058,4.13571255 6.47629058,4.22240063 6.44739456,4.36688075 C6.44739456,4.51136088 6.41849853,4.68473703 6.38960251,4.8870092 C6.38960251,5.08928138 6.36070648,5.32044958 6.33181046,5.58051381 Z" id="Combined-Shape" fill="#666666" fill-rule="nonzero"></path>
                </g>
            </g>
        </g>
    </g>
</svg>