<?xml version="1.0" encoding="UTF-8"?>
<svg width="360px" height="242px" viewBox="0 0 360 242" version="1.1" xmlns="http://www.w3.org/2000/svg" xmlns:xlink="http://www.w3.org/1999/xlink">
    <!-- Generator: Sketch 46.2 (44496) - http://www.bohemiancoding.com/sketch -->
    <title>page_1_slice</title>
    <desc>Created with Sketch.</desc>
    <defs>
        <rect id="path-1" x="0" y="0" width="360" height="242"></rect>
        <polygon id="path-3" points="46.0281512 0.0262029236 46.0281512 55.3986079 0.208369216 55.3986079 0.208369216 0.0262029236"></polygon>
        <polygon id="path-5" points="0 264.568841 275.939479 264.568841 275.939479 0.0958007246 0 0.0958007246"></polygon>
        <polygon id="path-7" points="23.247034 23.1237508 0.000383916931 23.1237508 0.000383916931 0.263374803 23.247034 0.263374803"></polygon>
        <polygon id="path-9" points="18.9621371 0.122980601 18.9621371 18.4044292 0.37148762 18.4044292 0.37148762 0.122980601 18.9621371 0.122980601"></polygon>
    </defs>
    <g id="邀请好友（新用户）认证" stroke="none" stroke-width="1" fill="none" fill-rule="evenodd">
        <g id="Artboard" transform="translate(-269.000000, -128.000000)">
            <g id="Page-1" transform="translate(269.000000, 128.000000)">
                <mask id="mask-2" fill="white">
                    <use xlink:href="#path-1"></use>
                </mask>
                <g id="Mask"></g>
                <g mask="url(#mask-2)">
                    <g transform="translate(19.000000, -32.000000)">
                        <g id="云-5" transform="translate(236.793846, 82.398551)">
                            <polygon id="Fill-1" fill="#C8DBF5" points="6.38504475 16.5290871 25.235012 16.5290871 25.235012 10.7801408 6.38504475 10.7801408"></polygon>
                            <path d="M12.0346969,10.7801408 C12.0346969,13.9548244 9.50549543,16.5290871 6.38485579,16.5290871 C3.26516094,16.5290871 0.735487114,13.9548244 0.735487114,10.7801408 C0.735487114,7.60497641 3.26516094,5.03119444 6.38485579,5.03119444 C9.50549543,5.03119444 12.0346969,7.60497641 12.0346969,10.7801408 Z" id="Fill-2" fill="#C8DBF5"></path>
                            <path d="M9.53341396,9.28543394 C9.53341396,11.0549691 8.12426045,12.4889608 6.38490303,12.4889608 C4.646018,12.4889608 3.23686449,11.0549691 3.23686449,9.28543394 C3.23686449,7.51541803 4.646018,6.08142632 6.38490303,6.08142632 C8.12426045,6.08142632 9.53341396,7.51541803 9.53341396,9.28543394" id="Fill-4" fill="#DCE7FA"></path>
                            <path d="M29.5446692,11.9317087 C29.5446692,14.4708787 27.5218749,16.5288467 25.0271583,16.5288467 C22.5314969,16.5288467 20.5087026,14.4708787 20.5087026,11.9317087 C20.5087026,9.39253865 22.5314969,7.33408994 25.0271583,7.33408994 C27.5218749,7.33408994 29.5446692,9.39253865 29.5446692,11.9317087" id="Fill-6" fill="#C8DBF5"></path>
                            <path d="M27.1204339,10.2849016 C27.1204339,11.4617074 26.1832027,12.4159393 25.0267804,12.4159393 C23.8703581,12.4159393 22.9331269,11.4617074 22.9331269,10.2849016 C22.9331269,9.10857657 23.8703581,8.15434474 25.0267804,8.15434474 C26.1832027,8.15434474 27.1204339,9.10857657 27.1204339,10.2849016" id="Fill-8" fill="#DCE7FA"></path>
                            <path d="M22.6271568,8.15448896 C22.6271568,12.1997589 19.4049523,15.478759 15.4297506,15.478759 C11.4545489,15.478759 8.23187197,12.1997589 8.23187197,8.15448896 C8.23187197,4.10921902 11.4545489,0.829738146 15.4297506,0.829738146 C19.4049523,0.829738146 22.6271568,4.10921902 22.6271568,8.15448896" id="Fill-10" fill="#C8DBF5"></path>
                            <path d="M20.8256795,7.33389766 C20.8256795,10.3672492 18.4098528,12.8251773 15.4295144,12.8251773 C12.4496484,12.8251773 10.0333493,10.3672492 10.0333493,7.33389766 C10.0333493,4.30102682 12.4496484,1.84261797 15.4295144,1.84261797 C18.4098528,1.84261797 20.8256795,4.30102682 20.8256795,7.33389766" id="Fill-12" fill="#DCE7FA"></path>
                        </g>
                        <g id="Group-179" transform="translate(22.787692, 4.963768)">
                            <g id="Group-15" transform="translate(7.367467, 96.303972)">
                                <path d="M267.038224,84.2501649 L126.966196,167.972553 L10.0785044,98.4797989 C10.0785044,98.4797989 -6.50505766,86.5667555 4.44326181,74.4879221 C8.5391611,69.9689076 36.7433883,58.9543062 42.4800624,57.1147337 C46.7836547,55.7348062 59.517651,51.2818098 63.2894526,48.262846 C73.9358927,39.7415453 64.7384736,28.8212555 75.7128754,20.3679584 C81.5828594,15.8459656 102.732287,11.8729656 110.060952,11.530962 C118.915919,11.1174801 128.597794,0.85886053 128.597794,0.85886053 L267.038224,84.2501649 Z" id="Fill-14" fill="#F1F4FA"></path>
                                <polygon id="Stroke-16" stroke="#FFFFFF" stroke-width="2" points="106.462936 155.782729 13.2908873 100.389063 133.871651 29.6489142 226.46554 84.4156569"></polygon>
                                <polygon id="Stroke-18" stroke="#FFFFFF" stroke-width="2" points="83.8724574 142.463401 37.2859501 114.453354 157.866713 43.7127087 203.874578 71.0963283"></polygon>
                                <path d="M60.0154863,128.119401 L179.582418,56.637666" id="Stroke-20" stroke="#FFFFFF" stroke-width="2"></path>
                                <path d="M92.6321273,108.620132 L160.005807,148.224052" id="Stroke-22" stroke="#FFFFFF" stroke-width="2"></path>
                            </g>
                            <g id="好友" transform="translate(225.628666, 82.546261)">
                                <polygon id="Fill-50" fill="#9DB6DB" points="44.0677064 57.7795128 48.5673995 55.2102664 48.2626221 47.6395273 40.1316824 47.6395273"></polygon>
                                <polygon id="Fill-52" fill="#9DB6DB" points="2.2456283 9.23008817 10.376568 9.23008817 6.35263675 0.795157007 2.09010005 3.23286353"></polygon>
                                <g id="Group-56" transform="translate(4.282662, 0.348666)">
                                    <mask id="mask-4" fill="white">
                                        <use xlink:href="#path-3"></use>
                                    </mask>
                                    <g id="Clip-55"></g>
                                    <path d="M40.6128701,54.8947087 L5.36543486,34.2196217 C2.17420767,32.3219732 0.208369216,28.8205312 0.208369216,25.0311906 L0.208369216,3.61848768 C0.208369216,0.856150725 3.11945235,-0.869751449 5.44609703,0.513650725 L39.0430973,20.2555493 C43.3621459,22.7935239 46.0283444,27.5155565 46.0283444,32.6292304 L46.0283444,51.6846399 C46.0283444,54.540792 43.0182449,56.3247703 40.6128701,54.8947087" id="Fill-54" fill="#9DB6DB" mask="url(#mask-4)"></path>
                                </g>
                                <path d="M40.5456194,57.7266983 L5.2986672,37.0516114 C2.106957,35.1539628 0.14160155,31.6525208 0.14160155,27.8631802 L0.14160155,6.4504773 C0.14160155,3.68814034 3.05268469,1.96223817 5.37932936,3.34564034 L38.9758467,23.0875389 C43.2953782,25.6255135 45.9610938,30.3475461 45.9610938,35.4612201 L45.9610938,54.5166295 C45.9610938,57.3727816 42.9509942,59.1567599 40.5456194,57.7266983" id="Fill-57" fill="#DCE7FA"></path>
                                <path d="M12.5515002,22.7461806 L16.5889556,25.1416951 L16.5889556,23.2996407 L19.2116836,21.811503 L13.2117707,18.2514885 L13.2117707,15.7115284 L22.4758448,21.2079088 L22.4758448,23.961311 L19.2681954,25.8589595 L19.2681954,26.7310936 L22.7965615,28.824811 L22.7965615,31.4427023 L19.2681954,29.3489849 L19.2681954,34.1380284 C19.2681954,34.5649124 19.1831862,34.9957675 19.0136507,35.4315864 C18.8436323,35.8679016 18.5388548,36.1275066 18.0983525,36.2118907 C17.6583331,36.2967711 16.9415507,36.0525537 15.9475223,35.4787422 C14.953977,34.9049306 14.1869619,34.4581914 13.645994,34.1370356 C13.5324874,33.1651298 13.3755101,32.1991806 13.1740962,31.2396842 C14.2057991,31.9619124 14.9510789,32.4587856 15.4099356,32.7312965 C16.1962709,33.1978907 16.5889556,32.8717711 16.5889556,31.7534342 L16.5889556,27.7595864 L12.5515002,25.3635755 L12.5515002,22.7461806 Z M7.30652726,22.2905066 L8.51404474,24.0635646 C9.24966439,22.9164378 9.70852103,21.1498327 9.89109767,18.7637494 L8.36286355,17.8563726 C8.02958873,19.410032 7.67747663,20.8882422 7.30652726,22.2905066 L7.30652726,22.2905066 Z M4.02352874,12.8578581 L6.24053083,14.1732566 C6.40378719,13.1591588 6.55786642,12.0735827 6.70276852,10.9190103 L9.32501348,12.7268146 L8.79708684,15.6901842 L12.5138256,17.8960827 C12.4065981,22.2274668 11.7342523,25.2533798 10.4948564,26.9748146 L13.1552589,30.879811 L11.2686336,31.83484 C10.5513682,30.6470103 9.82830676,29.47159 9.0989662,28.3080827 C8.15517054,28.9310356 7.02348516,29.2710537 5.70246104,29.3276407 C5.12381867,28.1824994 4.55773447,27.1291878 4.00469147,26.1677059 C5.26244167,26.1577784 6.33133614,25.8803037 7.21185789,25.3367711 C6.35017342,23.9975465 5.48220985,22.6687458 4.60845021,21.3488798 C5.06730685,19.9858291 5.4855909,18.3274342 5.86281936,16.3731987 L4.02352874,15.2816661 L4.02352874,12.8578581 Z" id="Fill-59" fill="#169C64"></path>
                                <path d="M40.437619,37.9927914 L40.437619,40.3193095 C39.4817482,41.7746864 38.2524954,42.7942443 36.7488946,43.3759979 C38.2901699,45.1108349 40.0729487,46.7727045 42.0981971,48.3625994 C41.6200201,48.7899798 41.1109308,49.3925813 40.5694799,50.1699074 C38.3181843,48.2658059 36.3117733,46.1735777 34.5507298,43.8942153 C32.8210818,44.0833349 30.8214328,43.8366356 28.5513,43.1556066 C28.0731231,41.9027516 27.5761089,40.7675378 27.0607404,39.7504617 C29.0734305,40.3957516 30.8373721,40.7278277 32.353048,40.7481791 C31.4034563,39.2347262 30.5451528,37.6492987 29.7776547,35.9918965 L31.6077682,35.3907842 C32.3752663,37.1707914 33.3403143,38.8872624 34.5038781,40.54119 C35.7679074,40.2309545 36.7836711,39.6119726 37.5506862,38.6842443 L29.9191758,34.1562951 C28.7242165,37.214969 26.9791122,39.2233095 24.68338,40.1818132 C24.2433606,38.8872624 23.784021,37.6900016 23.305844,36.5920161 C25.6580881,35.4414146 27.2867877,32.7748784 28.1924258,28.5943929 L23.7965791,25.9864291 L23.7965791,23.5626211 L28.5793144,26.4004074 C28.6797798,25.6970414 28.7647891,24.9589291 28.8343421,24.1860704 L31.66428,25.8648168 C31.594727,26.6381719 31.5102008,27.3762842 31.4097353,28.0791537 L41.7963177,34.2416719 L41.7963177,36.6654798 L31.0320239,30.2790958 C30.9064421,30.9412624 30.7586419,31.5652081 30.5886235,32.1494436 L40.437619,37.9927914 Z" id="Fill-61" fill="#169C64"></path>
                            </g>
                            <g id="邀请" transform="translate(134.456266, 27.515420)">
                                <polygon id="Fill-63" fill="#9DB6DB" points="44.7324206 57.5593458 49.2321137 54.9905958 48.9273363 47.4198567 40.7963966 47.4198567"></polygon>
                                <polygon id="Fill-65" fill="#9DB6DB" points="2.91034253 9.00992118 11.0412822 9.00992118 7.01735097 0.574990017 2.75481428 3.01269654"></polygon>
                                <path d="M45.5602463,55.0236545 L10.3128111,34.3480712 C7.12158388,32.450919 5.15622843,28.9489806 5.15622843,25.15964 L5.15622843,3.7474335 C5.15622843,0.985096539 8.06682856,-0.740805635 10.3939562,0.642100162 L43.9904735,20.3839987 C48.3100051,22.9224697 50.9757207,27.644006 50.9757207,32.7581762 L50.9757207,51.8130893 C50.9757207,54.6692415 47.9656211,56.4537161 45.5602463,55.0236545" id="Fill-67" fill="#9DB6DB"></path>
                                <path d="M41.2103336,57.5070277 L5.96338142,36.8319407 C2.77167122,34.9342922 0.806315771,31.4323538 0.806315771,27.6430132 L0.806315771,6.23080668 C0.806315771,3.46846973 3.71739891,1.74256755 6.04404359,3.12547335 L39.6405609,22.8673719 C43.9600924,25.4058429 46.625808,30.1273791 46.625808,35.2415494 L46.625808,54.2964625 C46.625808,57.1526147 43.6157084,58.9370893 41.2103336,57.5070277" id="Fill-69" fill="#DCE7FA"></path>
                                <path d="M14.3954277,21.562844 L14.3954277,20.7095723 L11.6785133,19.0973404 L11.6785133,19.9506121 L14.3954277,21.562844 Z M11.6785133,16.9256918 L11.6785133,17.7789636 L14.3954277,19.3911955 L14.3954277,18.5379237 L11.6785133,16.9256918 Z M18.4898779,25.0970469 L19.9234427,28.0619056 C20.2760378,27.1460904 20.4929079,25.8530288 20.5745361,24.1817281 L19.2066603,23.3706484 C18.77292,24.0958549 18.3010222,24.6686737 17.7914498,25.0900976 C17.3514305,24.2993694 16.9297654,23.6094056 16.5274205,23.0216955 L16.5274205,24.3986447 L14.1312228,22.9770215 C14.2196131,23.3329237 14.3046224,23.7002426 14.3857675,24.0774889 L16.8481372,25.5388223 L16.8481372,27.1287172 L12.6126489,24.6155614 L12.5938116,25.4579128 L16.3385648,27.6796955 C16.3139314,29.726257 16.21733,30.9071375 16.0511756,31.2218404 C15.8845382,31.5370397 15.6488308,31.6829744 15.3435704,31.6601411 C15.03831,31.6378041 14.1631013,31.2163802 12.7160124,30.3973585 C12.552756,29.653786 12.4015748,28.8789418 12.2634348,28.0728259 C12.829519,28.4475904 13.2951377,28.743431 13.659808,28.9593549 C14.0621528,29.1986085 14.2635668,28.8719926 14.2635668,27.9800034 L12.4426304,26.8998875 C12.2726119,27.8593839 11.7413043,28.5905469 10.8482243,29.0948657 C10.3579722,28.3517897 9.7479344,27.5173802 9.01811083,26.593623 C10.0618889,26.3598295 10.5748424,25.2936121 10.5560051,23.3949708 L9.16929202,22.5724744 L9.16929202,20.9825795 L11.9803927,22.6504056 C11.8920024,22.2041628 11.8103743,21.8388295 11.7350252,21.554902 L9.54652048,20.2563802 L9.54652048,14.0903875 L11.584327,15.2995614 C11.722467,14.7674455 11.8296945,14.3008512 11.9050436,13.8997788 L14.5272886,15.6306447 L13.9993619,16.7326012 L16.5274205,18.232652 L16.5274205,22.1977099 C17.4205005,21.1702099 18.080771,19.7227752 18.5087152,17.8563984 L20.6972199,19.6398802 C20.5025681,20.3452317 20.288113,20.9875433 20.0557866,21.566815 L23.4894833,23.6039455 L23.4894833,25.9116012 L22.6500172,25.4137353 C22.5307144,27.9859599 22.1182265,29.9228223 21.4140023,31.2243223 C22.2317331,32.9953947 22.8920037,34.5018984 23.3952969,35.7443295 L21.5463462,35.8689201 C21.1372393,34.8508512 20.6875597,33.7756991 20.1973077,32.6444563 C19.5239959,33.2018875 18.7222043,33.6635179 17.7914498,34.0288512 C17.3137559,32.9695831 16.7916254,31.9812969 16.2255412,31.0639926 C17.3446684,30.7522679 18.2256731,30.2921266 18.8671064,29.6835686 C18.2256731,28.2952027 17.5335241,26.837344 16.7916254,25.3114817 L18.4898779,25.0970469 Z M6.71658252,11.1314853 C7.68452853,12.9338295 8.50274237,14.5569817 9.16929202,15.9994527 L7.1503228,16.2168657 C6.55912224,14.8190686 5.80466532,13.1889672 4.88646903,11.3255686 L6.71658252,11.1314853 Z M23.4894833,37.4096737 C23.0871385,38.0499998 22.7727009,38.6262933 22.5461706,39.1380578 C17.1562956,35.939902 13.9109717,34.0080034 12.8106817,33.3418657 C11.7099088,32.6762244 10.7492079,31.9510179 9.92857901,31.1667426 C9.10795013,30.3829636 8.42063119,29.5028875 7.86710517,28.5280034 C7.21311371,28.7608041 6.49633133,29.1172027 5.71627504,29.5981918 L4.65993875,26.198507 C5.29509294,25.9612389 5.91140987,25.771623 6.50888951,25.6281701 L6.50888951,20.1605795 L4.82947421,19.1638549 L4.82947421,16.604536 L8.73506874,18.9221194 L8.73506874,26.9202389 C9.59047412,28.5974962 11.0496382,30.0484056 13.1125611,31.2724708 L17.6784262,34.0199165 C19.59693,35.1581085 21.533305,36.2878621 23.4894833,37.4096737 L23.4894833,37.4096737 Z" id="Fill-71" fill="#169C64"></path>
                                <path d="M32.6402923,40.5899599 L38.8478981,44.2730759 L38.8478981,43.3423694 L32.6402923,39.6592534 L32.6402923,40.5899599 Z M38.8478981,40.8024092 L32.6402923,37.1192933 L32.6402923,38.0499998 L38.8478981,41.7331157 L38.8478981,40.8024092 Z M32.6402923,45.340286 L30.1122337,43.8402353 L30.1122337,33.7960505 L41.3759567,40.4792679 L41.3759567,47.8474853 C41.3759567,48.6486375 41.2030402,49.1608984 40.8572072,49.381786 C40.5113742,49.6031701 40.0187071,49.5535324 39.3806548,49.232873 C38.7426026,48.9127099 37.4452458,48.1780723 35.4890675,47.0309455 C35.3509275,46.3538875 35.1625548,45.5572027 34.9234663,44.639402 C36.5207704,45.6654128 37.4766413,46.2704962 37.7910788,46.4576302 C38.495303,46.8755795 38.8478981,46.7678657 38.8478981,46.1344889 L38.8478981,45.8823295 L32.6402923,42.1992136 L32.6402923,45.340286 Z M28.753535,30.5864781 L34.3197076,33.8883766 L34.3197076,33.0351049 L29.791517,30.3487136 L29.791517,28.6813839 L34.3197076,31.3677752 L34.3197076,30.5145034 L29.3572937,27.5704926 L29.3572937,25.9031628 L34.3197076,28.8471737 L34.3197076,27.2959962 L37.0177846,28.8968114 L37.0177846,30.4479889 L42.3192694,33.5935288 L42.3192694,35.2613549 L37.0177846,32.115815 L37.0177846,32.9685904 L41.809697,35.8123331 L41.809697,37.4796628 L37.0177846,34.6364165 L37.0177846,35.4896882 L42.7723299,38.9037679 L42.7723299,40.5710976 L28.753535,32.2538078 L28.753535,30.5864781 Z M26.5650303,22.9085215 C27.4329939,24.5867715 28.2439626,26.2506266 28.9989026,27.9010795 L26.7915606,27.9482353 C26.0742952,26.2044636 25.3198383,24.5286955 24.5272238,22.9204346 L26.5650303,22.9085215 Z M29.3384565,37.5640469 C29.3891722,38.7578331 29.4645213,39.7977426 29.5649867,40.6847679 C28.2570038,40.8525433 27.2127427,41.1503694 26.4326864,41.5797353 L25.0744707,38.8734889 C25.4140247,38.6352281 25.5840431,38.1934527 25.5840431,37.5471701 L25.5840431,31.2650252 L24.0369717,30.3467281 L24.0369717,27.8261266 L27.9609205,30.1551266 L27.9609205,37.775007 C28.338632,37.7268585 28.7974886,37.6568694 29.3384565,37.5640469 L29.3384565,37.5640469 Z" id="Fill-73" fill="#169C64"></path>
                            </g>
                            <g id="妹纸" transform="translate(168.530799, 75.208816)">
                                <path d="M36.807741,54.5263123 C36.807741,54.5263123 36.5102087,53.983276 37.0197811,53.5608594 C37.5293534,53.1379463 37.8577982,52.8505441 38.6644199,53.6040441 C39.4710415,54.3570478 40.8075219,55.7424354 41.0499914,56.0864246 C41.2919779,56.4299173 41.2267719,57.2424862 40.2940854,56.8230478 C39.3613989,56.403113 37.155989,54.9005804 36.807741,54.5263123" id="Fill-84" fill="#4E4F81"></path>
                                <path d="M39.4779485,54.7803083 C39.6721173,54.9922612 39.997181,55.6092575 39.8914025,55.7874568 C39.786107,55.9661525 39.0514534,55.895667 38.681953,55.6087612 C38.3119697,55.3218554 36.6668478,54.5544568 37.232932,53.9642648 C38.0917185,53.0697938 39.2074646,54.4859568 39.4779485,54.7803083" id="Fill-86" fill="#E6938C"></path>
                                <path d="M23.2429726,50.4496191 C23.2429726,50.4496191 27.2524137,55.6000249 28.8072132,57.2986264 C29.1535292,57.6773619 29.6703467,58.1295612 30.3668428,57.9116517 C31.3835725,57.5949633 37.9891761,55.6039959 38.2992666,55.5141517 C38.6088741,55.4243075 38.9841705,55.1632133 38.9426319,54.6613764 C38.9006103,54.1600358 38.3084437,54.1297568 38.0582461,54.2161264 C37.8070824,54.3024959 31.4850039,54.7125032 31.3217476,54.7249126 C31.1580082,54.7383148 30.9696355,54.7765358 30.7604934,54.4186481 C30.5513514,54.0607604 27.8329881,48.0104235 27.1756156,47.293159 C27.1756156,47.293159 27.1669214,45.3016952 26.3182781,44.6166952 C25.8347882,44.2260467 23.9727962,44.4236046 23.8481804,44.7383075 C23.7230816,45.0525141 23.2429726,50.4496191 23.2429726,50.4496191" id="Fill-88" fill="#E6938C"></path>
                                <path d="M43.166045,55.5568898 C43.166045,55.5568898 42.8689957,55.0138536 43.3780851,54.5914369 C43.8876575,54.1685238 44.2161022,53.8806253 45.0227239,54.6346217 C45.8298286,55.3876253 47.1658259,56.773013 47.4082954,57.1170021 C47.6502819,57.4604949 47.585076,58.2730637 46.6528725,57.8536253 C45.719703,57.4336905 43.5142931,55.9306615 43.166045,55.5568898" id="Fill-90" fill="#4E4F81"></path>
                                <path d="M10.816845,1.80955609 C10.816845,1.80955609 12.2354365,3.12346551 12.9874784,2.79933146 C14.4765889,2.15652349 14.5789864,0.820277109 15.8526759,0.310001746 C17.1258823,-0.200273616 19.6288245,0.116911167 20.7141412,2.18084595 C20.7141412,2.18084595 24.9032609,1.50229885 24.9032609,6.77282783 C24.9032609,8.72110682 24.9467315,11.3648097 24.9032609,12.1068931 C24.9032609,12.1068931 27.051676,15.4926793 27.0082053,17.9973967 C26.9652177,20.5021141 26.8565411,23.0996539 28.918498,23.9345597 C28.918498,23.9345597 27.3554874,25.140259 26.227183,25.1869184 C25.0983957,25.2330815 17.5021447,16.9773423 17.0674384,16.1732119 C16.6336982,15.3690815 13.1806812,10.2251286 12.824705,8.95291479 C12.4590687,7.64645102 12.271179,6.36728798 12.2494437,5.31199088 C12.2296404,4.34504885 11.2080806,2.28905609 10.816845,1.80955609" id="Fill-92" fill="#1C1C44"></path>
                                <path d="M15.7261763,14.6184108 L5.00390413,8.42114631 C5.00390413,8.42114631 1.92376855,7.66516443 4.12869546,10.8027623 L15.7773751,18.8530014 L15.7261763,14.6184108 Z" id="Fill-94" fill="#9DB5DB"></path>
                                <path d="M5.78536114,8.6885445 C5.78536114,8.6885445 5.32457247,7.35875102 4.58363975,7.10857711 C3.84319003,6.8584032 4.06537325,7.66451914 4.08662555,7.74840682 C4.10787786,7.8322945 3.88472863,8.06062783 3.63694604,7.72904812 C3.38868045,7.39697204 2.57094961,6.38188146 2.04833605,6.38188146 C1.52572248,6.38188146 0.542803257,6.78295392 1.00407493,8.38079088 C1.46534661,9.97912421 3.57463814,10.8592003 4.23345968,10.8626749 C4.89228121,10.8661496 5.64770415,10.1786677 5.79550429,9.83964233 C5.96938681,9.43956262 5.78536114,8.6885445 5.78536114,8.6885445" id="Fill-96" fill="#6162A4"></path>
                                <path d="M25.1943209,30.4525333 C26.034753,30.3130514 27.5108224,30.2048412 28.6970876,31.2611311 C29.8833528,32.3174209 33.8338669,38.4044898 34.3110778,39.5952978 C34.7882888,40.7856094 37.8833976,47.3392724 37.4810527,48.3176311 C37.0791909,49.2964862 35.2099539,51.0213956 31.7347186,51.7600043 C28.2594832,52.498613 23.6458005,52.8033883 22.2586044,52.4201854 C20.8709253,52.0364862 20.9496554,51.6403775 20.7453435,51.0774862 C20.5405485,50.5145949 17.6821131,42.771613 17.606281,40.9687724 C17.5304489,39.1659318 16.9498745,34.6245804 18.154011,33.1548086 C19.3576644,31.6850369 25.1943209,30.4525333 25.1943209,30.4525333" id="Fill-98" fill="#CFDCF2"></path>
                                <path d="M13.9285692,17.0915586 C14.1826309,16.0665405 15.6079845,11.0109427 23.2964898,13.1741528 C25.3222211,13.7444898 24.8005736,17.5933956 24.7962265,19.1078412 C24.7884984,21.7674282 25.6844764,27.6822543 27.0600803,29.563026 C28.4361672,31.4437978 29.8112881,32.2667905 28.8018035,33.6531709 C27.7923189,35.0395514 22.7270246,39.0552398 18.7325567,35.4887724 C17.4719085,34.3629898 17.8839135,31.1166854 17.0681147,29.1594717 C16.192423,27.0597978 15.4278229,25.1413014 14.4830612,24.447863 C12.8944512,23.2818738 11.7772561,21.8880478 13.1741123,19.2632072 C13.5069041,18.637276 13.7580677,17.7785441 13.9285692,17.0915586" id="Fill-100" fill="#4E4F83"></path>
                                <path d="M22.8273934,16.8317054 C23.625321,15.1747996 24.5420682,15.2552126 26.5083897,16.1208938 C29.1939086,17.3042561 36.9968865,21.4192199 36.9968865,21.4192199 L37.8416657,21.9230423 L37.1142572,24.4481112 C37.1142572,24.4481112 29.2697407,22.0585532 26.7281579,21.04793 C25.4535024,20.5416257 21.6372642,19.30118 22.8273934,16.8317054" id="Fill-102" fill="#C9DAF5"></path>
                                <path d="M38.9425836,21.5909166 C38.7083252,21.9731267 38.3339948,22.2476231 38.3750504,21.607297 C38.4122419,21.0220688 37.5592516,21.2806811 37.3573546,21.7289094 C37.2530251,21.9607173 36.4623427,23.4230434 36.9897863,24.206326 C37.51723,24.9891123 38.3629752,24.9330217 38.9850882,24.8158767 C39.6072012,24.6987318 40.8103716,23.8156775 41.2832355,22.4412101 C41.7560993,21.0667427 41.3083518,20.7267246 40.8900678,20.495413 C40.4722667,20.263605 39.5811188,20.5515036 38.9425836,21.5909166" id="Fill-104" fill="#6162A4"></path>
                                <path d="M17.3737615,11.647397 C18.031134,11.7059695 18.791387,12.3249514 17.6703278,13.1712738 C16.5497516,14.0180927 16.0232739,16.1912304 18.8247145,16.5511036 C21.2711449,16.8653101 23.1196126,15.3166144 22.6472318,13.9168318 C22.0454051,12.1338463 21.2131841,13.9873173 21.2629338,11.0715999 C21.2957783,9.14069414 19.894092,9.87483544 19.5163805,4.6698282 C19.3511921,2.40088979 15.6339703,3.27203109 15.1654535,5.21187167 C14.6993518,7.14277747 14.7041818,11.4101289 17.3737615,11.647397" id="Fill-106" fill="#F4B3AB"></path>
                                <path d="M29.6012767,51.4801967 C29.6012767,51.4801967 33.6681955,56.5898996 35.1162505,58.360972 C35.4331031,58.7491387 35.9161101,59.1755264 36.7256298,58.9422293 C37.7486386,58.6478778 44.3474801,56.6340771 44.6575706,56.5447293 C44.9676611,56.4548851 45.3429575,56.1937909 45.3009359,55.6919539 C45.2589143,55.1906133 44.6667477,55.1603344 44.4165501,55.2467039 C44.1653865,55.3325771 37.843308,55.7430807 37.6800516,55.7554902 C37.5163122,55.7688923 37.3279395,55.8071133 37.1187975,55.4492257 C36.9096555,55.091338 34.1912921,49.041001 33.5339196,48.3237365 C33.5339196,48.3237365 33.5252255,46.3322728 32.6765822,45.6472728 C32.1930922,45.2566242 30.3311002,45.4541822 30.2064844,45.7688851 C30.0813856,46.0830916 29.6012767,51.4801967 29.6012767,51.4801967" id="Fill-108" fill="#F4B3AB"></path>
                                <path d="M25.1919541,30.4302459 C26.0343183,30.2907641 27.5132857,30.1815612 28.701966,31.2403329 C29.8901632,32.2986083 33.8484054,38.3975902 34.3265824,39.59088 C34.8047593,40.7836735 37.9056642,47.3502423 37.5028363,48.3310829 C37.1000085,49.3114271 35.2273904,51.0403075 31.74491,51.779909 C28.2629126,52.5200068 23.6400527,52.8252786 22.2499586,52.4415793 C20.8598644,52.0568873 20.9385946,51.6597858 20.7342826,51.0959017 C20.5294877,50.5315213 17.6647732,42.7736481 17.5889411,40.9673329 C17.513109,39.1605213 16.9306026,34.6107315 18.137637,33.1379815 C19.3441885,31.6652315 25.1919541,30.4302459 25.1919541,30.4302459" id="Fill-110" fill="#CFDCF2"></path>
                                <path d="M45.8362526,55.8108858 C46.0309044,56.0228387 46.3554851,56.6398351 46.2497066,56.8180344 C46.144411,56.99673 45.4102404,56.9262445 45.0407401,56.6393387 C44.6707567,56.3524329 43.0256349,55.5850344 43.5917191,54.9948423 C44.4500225,54.0998749 45.5657687,55.5165344 45.8362526,55.8108858" id="Fill-112" fill="#F4B3AB"></path>
                            </g>
                            <mask id="mask-6" fill="white">
                                <use xlink:href="#path-5"></use>
                            </mask>
                            <g id="Clip-115"></g>
                            <g id="云-3" mask="url(#mask-6)">
                                <g transform="translate(191.554133, 124.736573)">
                                    <polygon id="Fill-122" fill="#C8DBF5" points="12.5119741 33.0164452 51.5457011 33.0164452 51.5457011 20.9937025 12.5119741 20.9937025"></polygon>
                                    <path d="M12.511636,33.016346 C6.05045148,33.016346 0.813206671,27.6336358 0.813206671,20.9936032 C0.813206671,14.3535706 6.05045148,8.97086044 12.511636,8.97086044 C18.9728205,8.97086044 24.2105483,14.3535706 24.2105483,20.9936032 C24.2105483,27.6336358 18.9728205,33.016346 12.511636,33.016346 Z" id="Fill-123" fill="#C8DBF5"></path>
                                    <path d="M12.5117809,24.5676155 C8.91096378,24.5676155 5.99215253,21.5675141 5.99215253,17.8675213 C5.99215253,14.1670322 8.91096378,11.1674271 12.5117809,11.1674271 C16.112598,11.1674271 19.0314093,14.1670322 19.0314093,17.8675213 C19.0314093,21.5675141 16.112598,24.5676155 12.5117809,24.5676155 Z" id="Fill-124" fill="#DCE7FA"></path>
                                    <path d="M51.1146657,33.0161474 C45.9479399,33.0161474 41.7593033,28.7115677 41.7593033,23.4018249 C41.7593033,18.0915858 45.9479399,13.7870061 51.1146657,13.7870061 C56.2818745,13.7870061 60.4705111,18.0915858 60.4705111,23.4018249 C60.4705111,28.7115677 56.2818745,33.0161474 51.1146657,33.0161474 Z" id="Fill-125" fill="#C8DBF5"></path>
                                    <path d="M51.1143759,24.4141854 C48.7201102,24.4141854 46.7789051,22.4187507 46.7789051,19.9582108 C46.7789051,17.4971746 48.7201102,15.5022362 51.1143759,15.5022362 C53.5091245,15.5022362 55.4503296,17.4971746 55.4503296,19.9582108 C55.4503296,22.4187507 53.5091245,24.4141854 51.1143759,24.4141854 Z" id="Fill-126" fill="#DCE7FA"></path>
                                    <path d="M31.2416811,30.8196304 C23.009793,30.8196304 16.3360854,23.9621847 16.3360854,15.5024347 C16.3360854,7.04268472 23.009793,0.185239066 31.2416811,0.185239066 C39.4730863,0.185239066 46.1463109,7.04268472 46.1463109,15.5024347 C46.1463109,23.9621847 39.4730863,30.8196304 31.2416811,30.8196304 Z" id="Fill-127" fill="#C8DBF5"></path>
                                    <path d="M31.2413913,25.270634 C25.070011,25.270634 20.0670246,20.129163 20.0670246,13.7869565 C20.0670246,7.44474994 25.070011,2.30327892 31.2413913,2.30327892 C37.4127716,2.30327892 42.4157581,7.44474994 42.4157581,13.7869565 C42.4157581,20.129163 37.4127716,25.270634 31.2413913,25.270634 Z" id="Fill-128" fill="#DCE7FA"></path>
                                </g>
                            </g>
                            <polygon id="Fill-136" fill="#CFDCF2" opacity="0.300000012" mask="url(#mask-6)" points="38.4831956 206.721037 204.06572 165.624512 134.64216 264.568791"></polygon>
                            <g id="云-1" mask="url(#mask-6)">
                                <g transform="translate(124.326000, 208.200015)">
                                    <polygon id="Fill-129" fill="#C8DBF5" points="10.3165463 27.4836661 42.5297316 27.4836661 42.5297316 17.5620864 10.3165463 17.5620864"></polygon>
                                    <path d="M19.9706486,17.5622353 C19.9706486,23.0417389 15.648219,27.483815 10.3163048,27.483815 C4.98439065,27.483815 0.661478075,23.0417389 0.661478075,17.5622353 C0.661478075,12.0822353 4.98439065,7.64015923 10.3163048,7.64015923 C15.648219,7.64015923 19.9706486,12.0822353 19.9706486,17.5622353" id="Fill-130" fill="#C8DBF5"></path>
                                    <path d="M15.6966646,14.9824161 C15.6966646,18.0356299 13.2879087,20.5115574 10.3159667,20.5115574 C7.34450771,20.5115574 4.93575184,18.0356299 4.93575184,14.9824161 C4.93575184,11.928706 7.34450771,9.45277843 10.3159667,9.45277843 C13.2879087,9.45277843 15.6966646,11.928706 15.6966646,14.9824161" id="Fill-131" fill="#DCE7FA"></path>
                                    <path d="M49.894912,19.5496784 C49.894912,23.9316929 46.438031,27.4837654 42.1740453,27.4837654 C37.9100595,27.4837654 34.4526955,23.9316929 34.4526955,19.5496784 C34.4526955,15.1671676 37.9100595,11.6150951 42.1740453,11.6150951 C46.438031,11.6150951 49.894912,15.1671676 49.894912,19.5496784" id="Fill-132" fill="#C8DBF5"></path>
                                    <path d="M45.7520644,16.7076234 C45.7520644,18.7387973 44.1499303,20.3847828 42.1739487,20.3847828 C40.197484,20.3847828 38.5958329,18.7387973 38.5958329,16.7076234 C38.5958329,14.6769458 40.197484,13.0304639 42.1739487,13.0304639 C44.1499303,13.0304639 45.7520644,14.6769458 45.7520644,16.7076234" id="Fill-133" fill="#DCE7FA"></path>
                                    <path d="M38.0735091,13.0303647 C38.0735091,20.0114081 32.5662634,25.6715929 25.7727701,25.6715929 C18.9797597,25.6715929 13.472514,20.0114081 13.472514,13.0303647 C13.472514,6.04932119 18.9797597,0.389632782 25.7727701,0.389632782 C32.5662634,0.389632782 38.0735091,6.04932119 38.0735091,13.0303647" id="Fill-134" fill="#C8DBF5"></path>
                                    <path d="M34.9947742,11.6148965 C34.9947742,16.8486937 30.8660305,21.0917226 25.7727218,21.0917226 C20.679896,21.0917226 16.5511523,16.8486937 16.5511523,11.6148965 C16.5511523,6.38060307 20.679896,2.13757409 25.7727218,2.13757409 C30.8660305,2.13757409 34.9947742,6.38060307 34.9947742,11.6148965" id="Fill-135" fill="#DCE7FA"></path>
                                </g>
                            </g>
                            <g id="飞机" mask="url(#mask-6)">
                                <g transform="translate(37.758267, 103.641417)">
                                    <polygon id="Fill-137" fill="#17AB6D" points="40.7701693 66.3874959 48.9812882 113.543293 166.834994 0.617568327"></polygon>
                                    <polygon id="Fill-138" fill="#169C64" points="56.9509035 75.3222785 48.9812882 113.543293 96.8371379 67.6880031"></polygon>
                                    <polygon id="Fill-139" fill="#6BCCA3" points="40.7701693 66.3874959 0.19758206 41.8168437 166.834994 0.617568327"></polygon>
                                    <path d="M56.9509035,75.3222785 C56.9509035,75.3222785 95.667778,100.885684 96.8371379,99.8929306 C98.0064978,98.900177 166.834994,0.617568327 166.834994,0.617568327 L56.9509035,75.3222785 Z" id="Fill-140" fill="#6BCCA3"></path>
                                </g>
                            </g>
                            <g id="帅哥" mask="url(#mask-6)">
                                <g transform="translate(55.256000, 54.113660)">
                                    <path d="M55.8169158,96.1188024 C55.9478107,95.7450306 56.8433057,93.5301973 54.6093984,93.9560886 C52.375491,94.3814835 48.7529386,97.111556 48.571811,98.2284038 C48.3906833,99.3452517 49.4170732,100.648241 49.6585767,100.896429 C49.9000802,101.144618 51.892484,101.454853 52.9792498,100.400052 C54.0660155,99.3452517 55.5135874,96.9874618 55.8169158,96.1188024" id="Fill-141" fill="#615FA0"></path>
                                    <path d="M79.5446343,102.199418 C80.3985906,102.193462 81.9596692,102.199418 82.5030521,102.199418 C83.046435,102.199418 85.2803423,102.633748 82.5030521,104.867444 C79.7257619,107.101139 77.5522304,107.349328 76.344713,107.101139 C75.1371955,106.852951 74.412685,105.200513 74.8353161,104.661944 C75.2579472,104.122878 77.1358784,102.216295 79.5446343,102.199418" id="Fill-142" fill="#5D609D"></path>
                                    <path d="M60.8078271,50.1007009 C60.8078271,50.1007009 50.6154135,93.766969 49.1451403,96.8946393 C48.9239231,97.3661973 49.1755697,99.0662879 50.2019596,99.3144763 C51.2283494,99.5626647 52.0431822,99.9349473 52.5566186,99.0662879 C53.0695721,98.1976285 68.2543459,60.3176248 69.4618633,54.8574799 C70.6693808,49.397335 60.8078271,50.1007009 60.8078271,50.1007009" id="Fill-143" fill="#007D47"></path>
                                    <path d="M60.5663236,45.5921104 C60.5663236,45.5921104 60.0833166,51.1346538 60.7271649,52.4996901 C61.3714962,53.8647263 66.0373438,56.388306 68.3750976,56.388306 C69.7033668,56.388306 69.9125089,57.2738422 70.1863738,58.7872951 C70.3771616,59.8406067 71.4334979,61.2830777 75.5395403,104.688252 C75.6192365,105.526632 77.5290461,105.347936 77.8314085,105.340491 C78.1661323,105.333045 79.182379,105.201009 79.182379,104.867444 C79.182379,104.391418 78.9205893,47.6188169 78.1154166,45.5921104 C77.3107269,43.5649075 61.4516754,44.3094727 60.5663236,45.5921104" id="Fill-144" fill="#009557"></path>
                                    <path d="M63.2856046,28.9610549 C61.44728,32.3930042 60.4585647,44.0767216 60.480783,44.5830259 C60.5025184,45.0893303 59.6843045,48.3391093 62.6011837,49.49666 C65.518546,50.6542107 71.668191,52.8412469 74.7671638,52.0217288 C77.8661367,51.2022107 78.1095722,49.8341962 78.3201633,48.7645042 C78.5302713,47.6943158 78.3201633,33.3698738 80.9612455,27.3478303 C81.5452009,26.0160513 75.3569154,24.5160006 71.463879,24.5939317 C67.5703597,24.6723593 64.4752509,26.7382796 63.2856046,28.9610549" id="Fill-145" fill="#4E4F83"></path>
                                    <path d="M52.4797239,34.7789386 C51.9184698,35.8416814 49.0861168,41.8364241 48.822395,42.930935 C48.5586732,44.0254459 46.8473794,45.0261415 46.3479502,45.1591705 C45.8485209,45.2926959 43.3301225,46.766935 43.1011772,48.7077683 C42.8717489,50.6481053 43.8831655,50.2584495 44.2961365,50.0842212 C44.7081414,49.9104893 45.3544048,49.2319422 45.4901298,49.0904748 C45.6263377,48.9495038 46.2532808,49.0482828 46.0895414,49.4672248 C45.924836,49.8866633 46.1774487,50.9742248 46.9946965,50.4073625 C47.8114614,49.8405002 49.8294646,48.8110147 50.1105746,48.4357538 C50.3916847,48.060493 51.4137275,46.0814386 51.4881106,45.6520727 C51.5624937,45.2236995 58.1125515,36.9788806 58.703752,36.5435582 C59.2944696,36.1087321 60.1146154,33.7330727 59.0225366,33.4273046 C57.9304578,33.1220328 52.8419792,34.0924495 52.4797239,34.7789386" id="Fill-146" fill="#F1AFAC"></path>
                                    <path d="M85.8228075,22.6793071 C85.8228075,22.6793071 89.7882949,24.9681006 90.1394409,25.1706223 C90.490104,25.373144 93.8252673,25.3527926 94.28992,25.4312201 C94.7550558,25.5096477 101.609891,26.1440172 102.059087,26.1663542 C102.508767,26.1886912 103.988217,25.7618071 104.270776,25.498231 C104.553336,25.2336622 108.248339,24.5551151 108.889772,24.7119701 C109.531206,24.8683288 109.26362,25.6749412 109.054961,25.8035027 C108.845819,25.9320643 108.919719,26.2830027 109.353942,26.2487527 C109.787682,26.2145027 110.793786,25.8943397 111.450192,26.5098469 C112.106116,27.1253542 110.888455,28.5097491 110.509778,28.6948977 C110.132066,28.8800462 105.964682,30.5076658 103.2497,29.2255245 C103.2497,29.2255245 90.0568467,32.3338361 89.1270583,32.176981 C88.1972698,32.0196296 82.5142096,29.0726404 81.9022397,28.671568 C81.2902699,28.2714883 81.4086066,25.3508071 81.5462636,25.0981513 C81.6848866,24.8454955 85.2262938,22.335318 85.8228075,22.6793071" id="Fill-147" fill="#F4B0AB"></path>
                                    <path d="M81.7422195,19.9763864 C81.7422195,19.9763864 76.7609684,15.2672596 72.0115606,14.8071183 C67.6442114,14.3837089 65.7691783,16.2669625 64.3124292,18.0434951 C62.8556801,19.8205241 63.1493484,21.2203067 63.0324607,21.7688031 C62.915573,22.3182922 74.7777417,25.1506183 76.5349211,24.5921944 C78.2916175,24.0332741 81.8528281,20.6747886 81.7422195,19.9763864" id="Fill-148" fill="#9EB5DC"></path>
                                    <path d="M22.946986,9.84424369 C22.946986,9.84424369 14.6798383,7.57828354 9.11801278,12.0923343 C3.55667028,16.6073777 -0.524738795,24.6913705 0.849416095,34.1577727 C1.66811295,39.7995915 2.20569973,41.0737908 2.43947511,41.7543234 C2.43947511,41.7543234 7.40285495,36.3641676 10.4660853,35.6965408 C13.5293156,35.0294104 19.6654365,34.1954973 23.6502441,35.0006205 C27.6355348,35.8057437 39.947866,37.6979321 43.0985206,33.6087799 C46.2486922,29.5201241 45.815918,26.0415154 42.7053529,23.2101821 C39.5957539,20.3783524 28.268757,10.0447799 22.946986,9.84424369" id="Fill-149" fill="#9DB5DC"></path>
                                    <path d="M78.6913541,19.943427 L81.9019016,20.2273546 L88.3930326,23.973014 C88.3930326,23.973014 84.8946129,29.6247604 82.6085408,29.072293 L74.6403745,24.4738582 C74.6403745,24.4738582 74.2312676,23.5332241 74.1428773,23.1028654 C74.05497,22.6725067 73.7472946,20.1102096 73.7472946,20.1102096 L78.6913541,19.943427 Z" id="Fill-150" fill="#5E5F9F"></path>
                                    <path d="M82.3652985,6.28090347 C82.3652985,6.28090347 83.8626202,8.79356289 82.5642974,12.135668 C81.4272989,15.0623056 78.9006894,15.0762042 78.667397,15.0131643 C78.4336216,14.9501245 77.493207,14.5579868 77.2719898,15.0067114 C77.0034379,15.5522296 76.8184462,16.9654143 75.2351493,17.9939071 C74.8477777,18.2455701 73.8914239,17.4930629 73.3663953,16.9351354 C73.0852852,16.6358201 72.5274121,15.9498274 72.4433689,15.5199651 C72.3941022,15.2673093 72.378163,14.7788745 72.4617232,14.537139 C72.6148364,14.0943709 73.3712253,12.8817223 73.3712253,12.8817223 C73.3712253,12.8817223 73.8122107,7.36151579 74.8134842,6.86166434 C75.8147577,6.36131651 81.4099107,6.10915709 82.3652985,6.28090347" id="Fill-151" fill="#F1B0AA"></path>
                                    <path d="M73.8296956,2.93572086 C73.8296956,2.93572086 71.9836428,3.55867376 71.6184896,6.39298535 C71.2528533,9.22779333 72.1802267,11.7469056 72.8086188,12.3609238 C73.4365279,12.9754383 74.7449938,13.5130143 75.312527,13.3899129 C75.8805432,13.2663151 77.5469174,12.2134998 77.8159523,11.7449201 C78.0849872,11.2763404 77.4165055,9.88797448 78.486849,9.52561941 C79.5567095,9.16376072 83.2261136,8.08711941 84.0105169,6.8501484 C84.7954033,5.61317738 85.2354227,3.25489115 85.1006637,2.70937304 C85.1006637,2.70937304 82.3397957,3.13476796 81.4288446,1.9588513 C80.5188594,0.78293463 76.8557344,-1.83495667 73.8296956,2.93572086" id="Fill-152" fill="#454674"></path>
                                    <path d="M80.705445,25.027368 C80.705445,25.027368 83.3160978,20.8215672 81.7989728,19.9802085 C80.2813648,19.1383535 63.2370141,17.8418172 59.3975916,17.1116469 C55.3480609,16.3412701 20.4184444,8.42703825 17.4397402,9.08126289 C17.4397402,9.08126289 26.8308452,9.8580926 30.6644717,14.5150998 C34.4980981,19.1721071 38.2916351,25.6026687 40.4835208,30.2904513 C42.6749235,34.9772412 48.9115098,38.1059042 54.5366092,37.715752 C60.1617086,37.3251035 76.7486517,31.4599151 80.705445,25.027368" id="Fill-153" fill="#BBCEF0"></path>
                                    <path d="M41.1460615,19.8232046 C41.1460615,19.8232046 72.3033935,24.4390125 78.9172082,20.9112625 C78.9172082,20.9112625 65.2060887,29.7234401 41.1460615,19.8232046" id="Fill-154" fill="#9CB6DC"></path>
                                    <path d="M73.8612842,25.2309817 C73.8612842,25.2309817 48.8830607,29.6437716 46.5950565,29.458623 C55.3191288,32.3043513 69.1828785,27.8573114 71.9017249,26.5791412 C72.6885432,26.2093404 73.085092,26.0400759 73.8612842,25.2309817" id="Fill-155" fill="#9CB6DC"></path>
                                    <path d="M71.0425037,17.1454502 C69.469833,17.6060879 63.94375,19.1458488 63.6259314,24.1354285 C63.3085958,29.1255046 58.6828378,46.5532944 61.0529531,48.9130698 C63.4790972,51.3269502 66.226924,51.4038886 70.4822156,51.6694502 C74.7370242,51.9345154 78.1016509,47.8691893 78.1016509,47.8691893 C78.1016509,47.8691893 77.6727407,38.0538343 79.3680952,32.6592111 C81.0639328,27.2640915 82.734171,23.7983886 82.9761575,21.9627872 C83.218144,20.1276821 82.6047251,17.3990988 77.5254236,16.930519 C74.0632294,16.6113488 71.9206104,16.888327 71.0425037,17.1454502" id="Fill-156" fill="#4E4F85"></path>
                                </g>
                            </g>
                        </g>
                        <g id="Page-1" transform="translate(29.723077, 91.333333)">
                            <polygon id="Fill-1" fill="#C8DBF5" points="12.0873846 31.6181899 51.1389349 31.6181899 51.1389349 20.4588287 12.0873846 20.4588287"></polygon>
                            <g id="Group-16">
                                <g id="Group-4" transform="translate(0.000000, 8.494439)">
                                    <mask id="mask-8" fill="white">
                                        <use xlink:href="#path-7"></use>
                                    </mask>
                                    <g id="Clip-3"></g>
                                    <path d="M23.247034,11.6935864 C23.247034,18.0063704 18.04304,23.123798 11.623469,23.123798 C5.20389802,23.123798 0.000383916931,18.0063704 0.000383916931,11.6935864 C0.000383916931,5.38080243 5.20389802,0.263374803 11.623469,0.263374803 C18.04304,0.263374803 23.247034,5.38080243 23.247034,11.6935864" id="Fill-2" fill="#C8DBF5" mask="url(#mask-8)"></path>
                                </g>
                                <path d="M18.1012514,17.2159628 C18.1012514,20.7336044 15.2012389,23.5858483 11.623613,23.5858483 C8.04598707,23.5858483 5.14597455,20.7336044 5.14597455,17.2159628 C5.14597455,13.6978493 8.04598707,10.8460773 11.623613,10.8460773 C15.2012389,10.8460773 18.1012514,13.6978493 18.1012514,17.2159628" id="Fill-5" fill="#DCE7FA"></path>
                                <g id="Group-9" transform="translate(40.311278, 13.213572)">
                                    <mask id="mask-10" fill="white">
                                        <use xlink:href="#path-9"></use>
                                    </mask>
                                    <g id="Clip-8"></g>
                                    <path d="M18.9621851,9.26394087 C18.9621851,14.3119972 14.8005256,18.4044292 9.66659641,18.4044292 C4.53314715,18.4044292 0.37148762,14.3119972 0.37148762,9.26394087 C0.37148762,4.21541258 4.53314715,0.122980601 9.66659641,0.122980601 C14.8005256,0.122980601 18.9621851,4.21541258 18.9621851,9.26394087" id="Fill-7" fill="#C8DBF5" mask="url(#mask-10)"></path>
                                </g>
                                <path d="M54.2856141,19.2036144 C54.2856141,21.5428885 52.3569114,23.4399799 49.9775862,23.4399799 C47.5987409,23.4399799 45.6700382,21.5428885 45.6700382,19.2036144 C45.6700382,16.8638683 47.5987409,14.9672488 49.9775862,14.9672488 C52.3569114,14.9672488 54.2856141,16.8638683 54.2856141,19.2036144" id="Fill-10" fill="#DCE7FA"></path>
                                <path d="M45.0415182,14.9674848 C45.0415182,23.0103029 38.4112728,29.5297848 30.2328824,29.5297848 C22.0540121,29.5297848 15.4232868,23.0103029 15.4232868,14.9674848 C15.4232868,6.92466673 22.0540121,0.405184744 30.2328824,0.405184744 C38.4112728,0.405184744 45.0415182,6.92466673 45.0415182,14.9674848" id="Fill-12" fill="#C8DBF5"></path>
                                <path d="M41.3349922,13.3365053 C41.3349922,19.3661413 36.3642278,24.2542191 30.2325945,24.2542191 C24.1009612,24.2542191 19.1301967,19.3661413 19.1301967,13.3365053 C19.1301967,7.3068693 24.1009612,2.41879153 30.2325945,2.41879153 C36.3642278,2.41879153 41.3349922,7.3068693 41.3349922,13.3365053" id="Fill-14" fill="#DCE7FA"></path>
                            </g>
                        </g>
                    </g>
                </g>
            </g>
        </g>
    </g>
</svg>